M48
; DRILL file {KiCad 5.1.6-c6e7f7d~87~ubuntu20.04.1} date Sat Sep 19 15:10:55 2020
; FORMAT={-:-/ absolute / metric / decimal}
; #@! TF.CreationDate,2020-09-19T15:10:55+02:00
; #@! TF.GenerationSoftware,Kicad,Pcbnew,5.1.6-c6e7f7d~87~ubuntu20.04.1
; #@! TF.FileFunction,Plated,1,2,PTH
FMAT,2
METRIC
T1C0.400
T2C0.600
T3C2.000
%
G90
G05
T1
X25.0Y36.0
T2
X1.5Y33.0
X1.5Y31.0
X1.5Y28.5
X2.5Y35.5
X2.5Y27.0
X2.5Y25.0
X4.0Y24.0
X7.0Y22.5
X9.0Y23.0
X16.0Y25.5
X17.0Y35.0
X17.0Y31.0
X17.5Y33.0
X19.0Y20.5
X19.0Y19.0
X19.0Y17.5
X19.0Y15.5
X19.0Y13.0
X19.0Y11.5
X20.0Y35.5
X20.0Y33.5
X20.0Y31.5
X20.0Y26.5
X20.0Y24.5
X20.5Y22.5
X20.5Y18.5
X20.5Y14.5
X20.5Y11.5
X21.0Y27.5
X21.0Y20.5
X21.0Y16.5
X22.5Y36.0
X22.5Y34.0
X22.5Y20.5
X22.5Y18.5
X22.5Y17.0
X22.5Y15.0
X22.5Y13.5
X22.5Y11.5
X26.0Y20.0
X27.0Y34.0
X27.0Y32.0
X27.0Y29.0
X27.0Y26.0
X27.0Y23.0
X28.0Y36.0
X28.0Y18.0
X28.0Y15.0
X28.0Y12.0
X29.0Y26.0
X29.0Y23.0
X29.0Y21.0
X32.0Y20.0
X33.5Y10.5
X35.0Y20.0
X36.0Y18.0
X36.0Y13.0
X42.0Y25.5
X42.5Y35.0
X42.5Y33.0
X45.0Y20.0
X45.0Y18.0
X45.0Y15.0
X45.0Y12.0
X45.5Y31.5
X46.0Y36.5
X46.0Y34.5
X46.0Y26.5
X46.0Y24.0
X47.0Y32.0
X47.0Y27.5
X47.0Y23.0
X48.0Y36.5
X48.0Y34.5
X48.0Y20.0
X48.0Y18.0
X48.0Y15.0
X48.0Y12.0
X51.0Y36.0
X51.0Y34.5
X53.5Y33.5
X53.5Y31.5
X53.5Y29.5
X53.5Y27.5
X53.5Y25.0
X54.0Y36.0
X54.0Y22.5
X54.0Y20.0
X54.0Y18.0
X54.0Y15.5
X54.0Y12.5
X54.0Y10.5
X55.0Y26.5
X55.5Y24.0
X56.0Y21.5
X57.0Y19.5
X57.0Y10.5
X59.5Y19.5
X60.5Y10.5
X62.0Y19.5
X62.0Y17.5
X62.0Y14.0
X62.0Y11.5
X68.0Y25.5
X68.5Y31.0
X69.0Y35.0
X69.0Y33.0
X70.5Y20.5
X71.0Y17.5
X71.0Y15.0
X71.0Y12.5
X71.5Y31.5
X71.5Y26.5
X72.0Y34.0
X72.0Y24.0
X72.0Y11.0
X72.5Y36.0
X72.5Y27.5
X72.5Y20.5
X72.5Y19.0
X72.5Y16.0
X72.5Y13.5
X73.0Y32.0
X73.0Y22.5
X73.5Y33.5
X74.0Y34.5
X74.0Y20.5
X74.0Y19.0
X74.0Y17.0
X74.0Y15.0
X74.0Y13.0
X74.0Y11.0
X74.5Y36.0
T3
X21.0Y5.0
X73.0Y5.0
X32.0Y15.0
X59.0Y15.0
X19.0Y41.0
X45.0Y41.0
X9.0Y41.0
X35.0Y41.0
X61.0Y41.0
X71.0Y41.0
T0
M30
