%TF.GenerationSoftware,KiCad,Pcbnew,5.1.6-c6e7f7d~87~ubuntu20.04.1*%
%TF.CreationDate,2020-09-19T17:37:15+02:00*%
%TF.ProjectId,maxim-optimizer,6d617869-6d2d-46f7-9074-696d697a6572,rev?*%
%TF.SameCoordinates,PX3ef1480PY6acfc00*%
%TF.FileFunction,Soldermask,Top*%
%TF.FilePolarity,Negative*%
%FSLAX46Y46*%
G04 Gerber Fmt 4.6, Leading zero omitted, Abs format (unit mm)*
G04 Created by KiCad (PCBNEW 5.1.6-c6e7f7d~87~ubuntu20.04.1) date 2020-09-19 17:37:15*
%MOMM*%
%LPD*%
G01*
G04 APERTURE LIST*
%ADD10C,0.200000*%
%ADD11C,0.300000*%
%ADD12C,4.100000*%
%ADD13R,3.303200X5.203200*%
%ADD14R,3.640000X3.640000*%
G04 APERTURE END LIST*
D10*
X54500000Y1297620D02*
X54500000Y2297620D01*
X55071428Y1297620D02*
X54642857Y1869048D01*
X55071428Y2297620D02*
X54500000Y1726191D01*
X55928571Y1297620D02*
X55928571Y1821429D01*
X55880952Y1916667D01*
X55785714Y1964286D01*
X55595238Y1964286D01*
X55500000Y1916667D01*
X55928571Y1345239D02*
X55833333Y1297620D01*
X55595238Y1297620D01*
X55500000Y1345239D01*
X55452380Y1440477D01*
X55452380Y1535715D01*
X55500000Y1630953D01*
X55595238Y1678572D01*
X55833333Y1678572D01*
X55928571Y1726191D01*
X56404761Y1297620D02*
X56404761Y1964286D01*
X56404761Y1773810D02*
X56452380Y1869048D01*
X56500000Y1916667D01*
X56595238Y1964286D01*
X56690476Y1964286D01*
X57166666Y1297620D02*
X57071428Y1345239D01*
X57023809Y1440477D01*
X57023809Y2297620D01*
X58214285Y2297620D02*
X58880952Y2297620D01*
X58214285Y1297620D01*
X58880952Y1297620D01*
X59642857Y1345239D02*
X59547619Y1297620D01*
X59357142Y1297620D01*
X59261904Y1345239D01*
X59214285Y1440477D01*
X59214285Y1821429D01*
X59261904Y1916667D01*
X59357142Y1964286D01*
X59547619Y1964286D01*
X59642857Y1916667D01*
X59690476Y1821429D01*
X59690476Y1726191D01*
X59214285Y1630953D01*
X60119047Y1297620D02*
X60119047Y1964286D01*
X60119047Y2297620D02*
X60071428Y2250000D01*
X60119047Y2202381D01*
X60166666Y2250000D01*
X60119047Y2297620D01*
X60119047Y2202381D01*
X60738095Y1297620D02*
X60642857Y1345239D01*
X60595238Y1440477D01*
X60595238Y2297620D01*
X61119047Y1297620D02*
X61119047Y2297620D01*
X61547619Y1297620D02*
X61547619Y1821429D01*
X61500000Y1916667D01*
X61404761Y1964286D01*
X61261904Y1964286D01*
X61166666Y1916667D01*
X61119047Y1869048D01*
X62166666Y1297620D02*
X62071428Y1345239D01*
X62023809Y1392858D01*
X61976190Y1488096D01*
X61976190Y1773810D01*
X62023809Y1869048D01*
X62071428Y1916667D01*
X62166666Y1964286D01*
X62309523Y1964286D01*
X62404761Y1916667D01*
X62452380Y1869048D01*
X62500000Y1773810D01*
X62500000Y1488096D01*
X62452380Y1392858D01*
X62404761Y1345239D01*
X62309523Y1297620D01*
X62166666Y1297620D01*
X62785714Y1964286D02*
X63166666Y1964286D01*
X62928571Y1297620D02*
X62928571Y2154762D01*
X62976190Y2250000D01*
X63071428Y2297620D01*
X63166666Y2297620D01*
X63880952Y1345239D02*
X63785714Y1297620D01*
X63595238Y1297620D01*
X63500000Y1345239D01*
X63452380Y1440477D01*
X63452380Y1821429D01*
X63500000Y1916667D01*
X63595238Y1964286D01*
X63785714Y1964286D01*
X63880952Y1916667D01*
X63928571Y1821429D01*
X63928571Y1726191D01*
X63452380Y1630953D01*
X64357142Y1297620D02*
X64357142Y1964286D01*
X64357142Y1773810D02*
X64404761Y1869048D01*
X64452380Y1916667D01*
X64547619Y1964286D01*
X64642857Y1964286D01*
X1976190Y3897620D02*
X1976190Y4897620D01*
X2309523Y4183334D01*
X2642857Y4897620D01*
X2642857Y3897620D01*
X3547619Y3897620D02*
X3547619Y4421429D01*
X3500000Y4516667D01*
X3404761Y4564286D01*
X3214285Y4564286D01*
X3119047Y4516667D01*
X3547619Y3945239D02*
X3452380Y3897620D01*
X3214285Y3897620D01*
X3119047Y3945239D01*
X3071428Y4040477D01*
X3071428Y4135715D01*
X3119047Y4230953D01*
X3214285Y4278572D01*
X3452380Y4278572D01*
X3547619Y4326191D01*
X3928571Y3897620D02*
X4452380Y4564286D01*
X3928571Y4564286D02*
X4452380Y3897620D01*
X4833333Y3897620D02*
X4833333Y4564286D01*
X4833333Y4897620D02*
X4785714Y4850000D01*
X4833333Y4802381D01*
X4880952Y4850000D01*
X4833333Y4897620D01*
X4833333Y4802381D01*
X5309523Y3897620D02*
X5309523Y4564286D01*
X5309523Y4469048D02*
X5357142Y4516667D01*
X5452380Y4564286D01*
X5595238Y4564286D01*
X5690476Y4516667D01*
X5738095Y4421429D01*
X5738095Y3897620D01*
X5738095Y4421429D02*
X5785714Y4516667D01*
X5880952Y4564286D01*
X6023809Y4564286D01*
X6119047Y4516667D01*
X6166666Y4421429D01*
X6166666Y3897620D01*
X7595238Y4897620D02*
X7785714Y4897620D01*
X7880952Y4850000D01*
X7976190Y4754762D01*
X8023809Y4564286D01*
X8023809Y4230953D01*
X7976190Y4040477D01*
X7880952Y3945239D01*
X7785714Y3897620D01*
X7595238Y3897620D01*
X7500000Y3945239D01*
X7404761Y4040477D01*
X7357142Y4230953D01*
X7357142Y4564286D01*
X7404761Y4754762D01*
X7500000Y4850000D01*
X7595238Y4897620D01*
X8452380Y4564286D02*
X8452380Y3564286D01*
X8452380Y4516667D02*
X8547619Y4564286D01*
X8738095Y4564286D01*
X8833333Y4516667D01*
X8880952Y4469048D01*
X8928571Y4373810D01*
X8928571Y4088096D01*
X8880952Y3992858D01*
X8833333Y3945239D01*
X8738095Y3897620D01*
X8547619Y3897620D01*
X8452380Y3945239D01*
X9214285Y4564286D02*
X9595238Y4564286D01*
X9357142Y4897620D02*
X9357142Y4040477D01*
X9404761Y3945239D01*
X9500000Y3897620D01*
X9595238Y3897620D01*
X9928571Y3897620D02*
X9928571Y4564286D01*
X9928571Y4897620D02*
X9880952Y4850000D01*
X9928571Y4802381D01*
X9976190Y4850000D01*
X9928571Y4897620D01*
X9928571Y4802381D01*
X10404761Y3897620D02*
X10404761Y4564286D01*
X10404761Y4469048D02*
X10452380Y4516667D01*
X10547619Y4564286D01*
X10690476Y4564286D01*
X10785714Y4516667D01*
X10833333Y4421429D01*
X10833333Y3897620D01*
X10833333Y4421429D02*
X10880952Y4516667D01*
X10976190Y4564286D01*
X11119047Y4564286D01*
X11214285Y4516667D01*
X11261904Y4421429D01*
X11261904Y3897620D01*
X11738095Y3897620D02*
X11738095Y4564286D01*
X11738095Y4897620D02*
X11690476Y4850000D01*
X11738095Y4802381D01*
X11785714Y4850000D01*
X11738095Y4897620D01*
X11738095Y4802381D01*
X12119047Y4564286D02*
X12642857Y4564286D01*
X12119047Y3897620D01*
X12642857Y3897620D01*
X13404761Y3945239D02*
X13309523Y3897620D01*
X13119047Y3897620D01*
X13023809Y3945239D01*
X12976190Y4040477D01*
X12976190Y4421429D01*
X13023809Y4516667D01*
X13119047Y4564286D01*
X13309523Y4564286D01*
X13404761Y4516667D01*
X13452380Y4421429D01*
X13452380Y4326191D01*
X12976190Y4230953D01*
X13880952Y3897620D02*
X13880952Y4564286D01*
X13880952Y4373810D02*
X13928571Y4469048D01*
X13976190Y4516667D01*
X14071428Y4564286D01*
X14166666Y4564286D01*
X5380952Y2864286D02*
X5619047Y2197620D01*
X5857142Y2864286D01*
X6190476Y3102381D02*
X6238095Y3150000D01*
X6333333Y3197620D01*
X6571428Y3197620D01*
X6666666Y3150000D01*
X6714285Y3102381D01*
X6761904Y3007143D01*
X6761904Y2911905D01*
X6714285Y2769048D01*
X6142857Y2197620D01*
X6761904Y2197620D01*
X7380952Y3197620D02*
X7476190Y3197620D01*
X7571428Y3150000D01*
X7619047Y3102381D01*
X7666666Y3007143D01*
X7714285Y2816667D01*
X7714285Y2578572D01*
X7666666Y2388096D01*
X7619047Y2292858D01*
X7571428Y2245239D01*
X7476190Y2197620D01*
X7380952Y2197620D01*
X7285714Y2245239D01*
X7238095Y2292858D01*
X7190476Y2388096D01*
X7142857Y2578572D01*
X7142857Y2816667D01*
X7190476Y3007143D01*
X7238095Y3102381D01*
X7285714Y3150000D01*
X7380952Y3197620D01*
X8142857Y2292858D02*
X8190476Y2245239D01*
X8142857Y2197620D01*
X8095238Y2245239D01*
X8142857Y2292858D01*
X8142857Y2197620D01*
X8809523Y3197620D02*
X8904761Y3197620D01*
X9000000Y3150000D01*
X9047619Y3102381D01*
X9095238Y3007143D01*
X9142857Y2816667D01*
X9142857Y2578572D01*
X9095238Y2388096D01*
X9047619Y2292858D01*
X9000000Y2245239D01*
X8904761Y2197620D01*
X8809523Y2197620D01*
X8714285Y2245239D01*
X8666666Y2292858D01*
X8619047Y2388096D01*
X8571428Y2578572D01*
X8571428Y2816667D01*
X8619047Y3007143D01*
X8666666Y3102381D01*
X8714285Y3150000D01*
X8809523Y3197620D01*
X9571428Y2292858D02*
X9619047Y2245239D01*
X9571428Y2197620D01*
X9523809Y2245239D01*
X9571428Y2292858D01*
X9571428Y2197620D01*
X10238095Y3197620D02*
X10333333Y3197620D01*
X10428571Y3150000D01*
X10476190Y3102381D01*
X10523809Y3007143D01*
X10571428Y2816667D01*
X10571428Y2578572D01*
X10523809Y2388096D01*
X10476190Y2292858D01*
X10428571Y2245239D01*
X10333333Y2197620D01*
X10238095Y2197620D01*
X10142857Y2245239D01*
X10095238Y2292858D01*
X10047619Y2388096D01*
X10000000Y2578572D01*
X10000000Y2816667D01*
X10047619Y3007143D01*
X10095238Y3102381D01*
X10142857Y3150000D01*
X10238095Y3197620D01*
D11*
%TO.C,Item102*%
G36*
X4637729Y9394822D02*
G01*
X5166159Y9343721D01*
X5123902Y9526086D01*
X5123902Y10304365D01*
X6663802Y10300433D01*
X6821035Y10268988D01*
X6817104Y10917573D01*
X6663802Y10882196D01*
X5123902Y10890058D01*
X5123902Y11642367D01*
X5170090Y11850701D01*
X4637729Y11791738D01*
X4637729Y9394822D01*
G37*
G36*
X5632650Y11443352D02*
G01*
X5820753Y11699548D01*
X5820753Y12101576D01*
X5905017Y12156688D01*
X6148200Y12156688D01*
X6148200Y11619004D01*
X5905019Y11619004D01*
X5820753Y11699548D01*
X5632650Y11443352D01*
X5691019Y11282339D01*
X5853134Y11196944D01*
X6193630Y11177509D01*
X6594062Y11193681D01*
X6751347Y11258581D01*
X6821035Y11407674D01*
X6821035Y12558786D01*
X6594062Y12596060D01*
X6634598Y12477714D01*
X6634598Y11699548D01*
X6566585Y11619004D01*
X6333006Y11619004D01*
X6333006Y12596060D01*
X5853134Y12596060D01*
X5713729Y12524219D01*
X5635913Y12351247D01*
X5632648Y11443352D01*
X5632650Y11443352D01*
G37*
G36*
X5642403Y12834417D02*
G01*
X5853134Y12805195D01*
X5827209Y12957622D01*
X5827209Y13670958D01*
X5873536Y13730963D01*
X5969883Y13730963D01*
X6201716Y13730963D01*
X6574627Y13730963D01*
X6639456Y13674220D01*
X6639456Y13254319D01*
X6574627Y13204065D01*
X6270706Y13204065D01*
X6201716Y13269582D01*
X6201716Y13730963D01*
X5969883Y13730963D01*
X6012051Y13674219D01*
X6012051Y12999752D01*
X6076916Y12863568D01*
X6174160Y12792213D01*
X6481108Y12756607D01*
X6722160Y12808456D01*
X6821035Y12938185D01*
X6821035Y14199450D01*
X6692937Y14180015D01*
X5908246Y14180015D01*
X5742909Y14128166D01*
X5642403Y13940062D01*
X5642403Y12834416D01*
X5642403Y12834417D01*
G37*
G36*
X5751016Y14377819D02*
G01*
X6702685Y14371334D01*
X6821035Y14342152D01*
X6821035Y14854464D01*
X6702685Y14826903D01*
X5890443Y14826903D01*
X5830457Y14871743D01*
X5830457Y15240332D01*
X5890443Y15288957D01*
X6702685Y15288957D01*
X6821035Y15256532D01*
X6821035Y15775329D01*
X6702685Y15739662D01*
X5890443Y15739662D01*
X5830457Y15791542D01*
X5830457Y16164427D01*
X5890443Y16222792D01*
X6702685Y16222792D01*
X6821035Y16177397D01*
X6821035Y16699437D01*
X6702685Y16670254D01*
X5867745Y16663770D01*
X5713181Y16597827D01*
X5632326Y16427068D01*
X5632326Y14341497D01*
X5751016Y14377819D01*
G37*
G36*
X5353953Y16800049D02*
G01*
X5353953Y17013634D01*
X6652810Y17013634D01*
X6821035Y16972241D01*
X6821035Y17531865D01*
X6652810Y17492128D01*
X4872749Y17492128D01*
X4872749Y17326560D01*
X5132912Y16800049D01*
X5353953Y16800049D01*
G37*
G36*
X4868821Y18671580D02*
G01*
X5834772Y17719610D01*
X5833101Y18035037D01*
X5115362Y18730038D01*
X5830175Y18730768D01*
X5835415Y17718719D01*
X6275318Y17731154D01*
X6275318Y18736350D01*
X6670528Y18731131D01*
X6820922Y18699303D01*
X6820922Y19208119D01*
X6594313Y19167959D01*
X6275318Y19167959D01*
X6275318Y19368481D01*
X5829197Y19368481D01*
X5829197Y19167959D01*
X4868821Y19167959D01*
X4868821Y18671579D01*
X4868821Y18671580D01*
G37*
%TO.C,Item101*%
G36*
X3317729Y12969092D02*
G01*
X3325325Y12893263D01*
X3347124Y12822719D01*
X3381640Y12758948D01*
X3427389Y12703436D01*
X3482884Y12657671D01*
X3546641Y12623141D01*
X3617175Y12601332D01*
X3693001Y12593732D01*
X3742952Y12593732D01*
X3792904Y12593732D01*
X3842856Y12593732D01*
X3892808Y12593732D01*
X3942760Y12593732D01*
X3992711Y12593732D01*
X4042663Y12593732D01*
X4092615Y12593732D01*
X4065653Y12620693D01*
X4038692Y12647655D01*
X4011730Y12674617D01*
X3984768Y12701578D01*
X3957806Y12728540D01*
X3930845Y12755502D01*
X3903883Y12782464D01*
X3876921Y12809425D01*
X3844316Y12809669D01*
X3811870Y12813168D01*
X3779850Y12819932D01*
X3748525Y12829969D01*
X3718164Y12843289D01*
X3689034Y12859902D01*
X3661404Y12879816D01*
X3635542Y12903042D01*
X3613434Y12927498D01*
X3594274Y12953555D01*
X3578061Y12980985D01*
X3564796Y13009558D01*
X3554478Y13039047D01*
X3547108Y13069224D01*
X3542685Y13099860D01*
X3541210Y13130728D01*
X3542683Y13161600D01*
X3547105Y13192245D01*
X3554476Y13222436D01*
X3564795Y13251940D01*
X3578061Y13280529D01*
X3594275Y13307973D01*
X3613435Y13334041D01*
X3635542Y13358504D01*
X3686064Y13399776D01*
X3742082Y13429257D01*
X3801762Y13446945D01*
X3863273Y13452841D01*
X3924785Y13446945D01*
X3984465Y13429257D01*
X4040481Y13399776D01*
X4091004Y13358504D01*
X4114225Y13332646D01*
X4134135Y13305015D01*
X4150745Y13275883D01*
X4164064Y13245518D01*
X4174102Y13214190D01*
X4180867Y13182168D01*
X4184370Y13149723D01*
X4184621Y13117124D01*
X4250045Y13051700D01*
X4315469Y12986276D01*
X4380893Y12920852D01*
X4446317Y12855428D01*
X4511741Y12790004D01*
X4577165Y12724580D01*
X4642589Y12659156D01*
X4708013Y12593732D01*
X4720386Y12593732D01*
X4732760Y12593732D01*
X4745133Y12593732D01*
X4757506Y12593732D01*
X4769879Y12593732D01*
X4782252Y12593732D01*
X4794626Y12593732D01*
X4806999Y12593732D01*
X4882824Y12601332D01*
X4953358Y12623141D01*
X5017115Y12657671D01*
X5072611Y12703436D01*
X5118359Y12758948D01*
X5152875Y12822719D01*
X5174674Y12893263D01*
X5182270Y12969092D01*
X5182270Y13162534D01*
X5182270Y13355976D01*
X5182270Y13549417D01*
X5182270Y13742859D01*
X5182270Y13936301D01*
X5182270Y14129743D01*
X5182270Y14323185D01*
X5182270Y14516626D01*
X5115179Y14583717D01*
X5048088Y14650808D01*
X4980997Y14717899D01*
X4913906Y14784990D01*
X4846815Y14852081D01*
X4779724Y14919172D01*
X4712633Y14986264D01*
X4645542Y15053355D01*
X4612938Y15053593D01*
X4580491Y15057092D01*
X4548471Y15063856D01*
X4517147Y15073893D01*
X4486785Y15087213D01*
X4457655Y15103826D01*
X4430025Y15123740D01*
X4404163Y15146966D01*
X4382055Y15171426D01*
X4362895Y15197494D01*
X4346682Y15224937D01*
X4333417Y15253527D01*
X4323099Y15283032D01*
X4315729Y15313224D01*
X4311306Y15343870D01*
X4309830Y15374741D01*
X4311300Y15405609D01*
X4315712Y15436244D01*
X4323068Y15466420D01*
X4333371Y15495909D01*
X4346621Y15524482D01*
X4362820Y15551911D01*
X4381970Y15577969D01*
X4404073Y15602428D01*
X4454596Y15643701D01*
X4510613Y15673181D01*
X4570293Y15690869D01*
X4631804Y15696766D01*
X4693316Y15690869D01*
X4752996Y15673181D01*
X4809013Y15643701D01*
X4859535Y15602428D01*
X4882767Y15576565D01*
X4902693Y15548934D01*
X4919321Y15519805D01*
X4932658Y15489444D01*
X4942711Y15458120D01*
X4949487Y15426101D01*
X4952995Y15393654D01*
X4953242Y15361048D01*
X4981871Y15332420D01*
X5010499Y15303791D01*
X5039128Y15275162D01*
X5067756Y15246534D01*
X5096385Y15217905D01*
X5125014Y15189277D01*
X5153642Y15160648D01*
X5182271Y15132020D01*
X5182271Y15181882D01*
X5182271Y15231744D01*
X5182271Y15281606D01*
X5182271Y15331469D01*
X5182271Y15381331D01*
X5182271Y15431193D01*
X5182271Y15481056D01*
X5182271Y15530918D01*
X5174675Y15606747D01*
X5152876Y15677291D01*
X5118360Y15741063D01*
X5072611Y15796574D01*
X5017116Y15842339D01*
X4953359Y15876870D01*
X4882825Y15898678D01*
X4807000Y15906279D01*
X4667749Y15906279D01*
X4528499Y15906279D01*
X4389250Y15906279D01*
X4250000Y15906279D01*
X4110750Y15906279D01*
X3971500Y15906279D01*
X3832250Y15906279D01*
X3693001Y15906279D01*
X3617328Y15898709D01*
X3546929Y15876983D01*
X3483278Y15842581D01*
X3427847Y15796981D01*
X3382112Y15741661D01*
X3347546Y15678101D01*
X3325624Y15607778D01*
X3317819Y15532172D01*
X3480372Y15369619D01*
X3642926Y15207065D01*
X3805479Y15044512D01*
X3968032Y14881959D01*
X4130585Y14719405D01*
X4293139Y14556852D01*
X4455692Y14394299D01*
X4618245Y14231745D01*
X4650850Y14231493D01*
X4683296Y14227984D01*
X4715316Y14221206D01*
X4746641Y14211152D01*
X4777002Y14197816D01*
X4806132Y14181189D01*
X4833763Y14161264D01*
X4859625Y14138035D01*
X4900898Y14087520D01*
X4930384Y14031515D01*
X4948084Y13971850D01*
X4953994Y13910355D01*
X4948115Y13848859D01*
X4930444Y13789200D01*
X4900980Y13733192D01*
X4859723Y13682671D01*
X4809200Y13641399D01*
X4753183Y13611918D01*
X4693503Y13594230D01*
X4631991Y13588334D01*
X4570479Y13594230D01*
X4510799Y13611918D01*
X4454782Y13641399D01*
X4404259Y13682671D01*
X4381027Y13708534D01*
X4361101Y13736165D01*
X4344474Y13765294D01*
X4331137Y13795655D01*
X4321084Y13826979D01*
X4314308Y13858998D01*
X4310800Y13891445D01*
X4310553Y13924051D01*
X4186451Y14048142D01*
X4062349Y14172233D01*
X3938247Y14296324D01*
X3814145Y14420415D01*
X3690043Y14544506D01*
X3565941Y14668597D01*
X3441839Y14792688D01*
X3317736Y14916778D01*
X3317735Y14673318D01*
X3317734Y14429857D01*
X3317734Y14186396D01*
X3317733Y13942935D01*
X3317732Y13699474D01*
X3317731Y13456014D01*
X3317730Y13212553D01*
X3317729Y12969092D01*
G37*
G36*
X3720294Y13273745D02*
G01*
X3752016Y13299658D01*
X3787189Y13318167D01*
X3824662Y13329272D01*
X3863284Y13332974D01*
X3901907Y13329272D01*
X3939380Y13318167D01*
X3974552Y13299658D01*
X4006275Y13273745D01*
X4032187Y13242023D01*
X4050696Y13206850D01*
X4061802Y13169377D01*
X4065504Y13130755D01*
X4061802Y13092132D01*
X4050696Y13054659D01*
X4032187Y13019487D01*
X4006275Y12987764D01*
X3974552Y12961852D01*
X3939380Y12943343D01*
X3901907Y12932237D01*
X3863284Y12928535D01*
X3824662Y12932237D01*
X3787189Y12943343D01*
X3752016Y12961851D01*
X3720294Y12987764D01*
X3694381Y13019487D01*
X3675872Y13054659D01*
X3664767Y13092132D01*
X3661065Y13130755D01*
X3664767Y13169377D01*
X3675872Y13206850D01*
X3694381Y13242023D01*
X3720294Y13273745D01*
G37*
G36*
X4708035Y12593721D02*
G01*
X4092620Y12593721D01*
X4708035Y12593721D01*
G37*
G36*
X4774968Y13767333D02*
G01*
X4743245Y13741420D01*
X4708073Y13722911D01*
X4670600Y13711806D01*
X4631977Y13708104D01*
X4593355Y13711806D01*
X4555882Y13722911D01*
X4520710Y13741420D01*
X4488987Y13767333D01*
X4463074Y13799055D01*
X4444565Y13834228D01*
X4433460Y13871701D01*
X4429758Y13910323D01*
X4433460Y13948946D01*
X4444565Y13986419D01*
X4463074Y14021591D01*
X4488987Y14053314D01*
X4520710Y14079226D01*
X4555882Y14097735D01*
X4593355Y14108841D01*
X4631978Y14112542D01*
X4670600Y14108841D01*
X4708073Y14097735D01*
X4743245Y14079226D01*
X4774968Y14053313D01*
X4800881Y14021591D01*
X4819390Y13986419D01*
X4830495Y13948946D01*
X4834197Y13910323D01*
X4830495Y13871701D01*
X4819390Y13834228D01*
X4800881Y13799055D01*
X4774968Y13767333D01*
G37*
G36*
X4488883Y15517695D02*
G01*
X4520605Y15543608D01*
X4555778Y15562117D01*
X4593250Y15573223D01*
X4631873Y15576924D01*
X4670496Y15573223D01*
X4707968Y15562117D01*
X4743141Y15543608D01*
X4774863Y15517695D01*
X4800776Y15485973D01*
X4819286Y15450800D01*
X4830391Y15413327D01*
X4834093Y15374705D01*
X4830391Y15336082D01*
X4819286Y15298610D01*
X4800776Y15263437D01*
X4774864Y15231714D01*
X4743141Y15205802D01*
X4707969Y15187293D01*
X4670496Y15176187D01*
X4631873Y15172486D01*
X4593251Y15176187D01*
X4555778Y15187293D01*
X4520606Y15205802D01*
X4488883Y15231715D01*
X4462970Y15263437D01*
X4444461Y15298609D01*
X4433356Y15336082D01*
X4429654Y15374705D01*
X4433356Y15413328D01*
X4444461Y15450800D01*
X4462970Y15485973D01*
X4488883Y15517695D01*
G37*
%TD*%
%TO.C,U201*%
G36*
G01*
X16774008Y27363000D02*
X17663992Y27363000D01*
G75*
G02*
X17763000Y27263992I0J-99008D01*
G01*
X17763000Y26123008D01*
G75*
G02*
X17663992Y26024000I-99008J0D01*
G01*
X16774008Y26024000D01*
G75*
G02*
X16675000Y26123008I0J99008D01*
G01*
X16675000Y27263992D01*
G75*
G02*
X16774008Y27363000I99008J0D01*
G01*
G37*
G36*
G01*
X16774008Y24976000D02*
X17663992Y24976000D01*
G75*
G02*
X17763000Y24876992I0J-99008D01*
G01*
X17763000Y23736008D01*
G75*
G02*
X17663992Y23637000I-99008J0D01*
G01*
X16774008Y23637000D01*
G75*
G02*
X16675000Y23736008I0J99008D01*
G01*
X16675000Y24876992D01*
G75*
G02*
X16774008Y24976000I99008J0D01*
G01*
G37*
G36*
G01*
X16704890Y25875000D02*
X17657110Y25875000D01*
G75*
G02*
X17763000Y25769110I0J-105890D01*
G01*
X17763000Y25229890D01*
G75*
G02*
X17657110Y25124000I-105890J0D01*
G01*
X16704890Y25124000D01*
G75*
G02*
X16599000Y25229890I0J105890D01*
G01*
X16599000Y25769110D01*
G75*
G02*
X16704890Y25875000I105890J0D01*
G01*
G37*
G36*
G01*
X16196221Y27363000D02*
X16402779Y27363000D01*
G75*
G02*
X16525000Y27240779I0J-122221D01*
G01*
X16525000Y26321221D01*
G75*
G02*
X16402779Y26199000I-122221J0D01*
G01*
X16196221Y26199000D01*
G75*
G02*
X16074000Y26321221I0J122221D01*
G01*
X16074000Y27240779D01*
G75*
G02*
X16196221Y27363000I122221J0D01*
G01*
G37*
G36*
G01*
X15596221Y27363000D02*
X15802779Y27363000D01*
G75*
G02*
X15925000Y27240779I0J-122221D01*
G01*
X15925000Y26321221D01*
G75*
G02*
X15802779Y26199000I-122221J0D01*
G01*
X15596221Y26199000D01*
G75*
G02*
X15474000Y26321221I0J122221D01*
G01*
X15474000Y27240779D01*
G75*
G02*
X15596221Y27363000I122221J0D01*
G01*
G37*
G36*
G01*
X15596221Y24801000D02*
X15802779Y24801000D01*
G75*
G02*
X15925000Y24678779I0J-122221D01*
G01*
X15925000Y23759221D01*
G75*
G02*
X15802779Y23637000I-122221J0D01*
G01*
X15596221Y23637000D01*
G75*
G02*
X15474000Y23759221I0J122221D01*
G01*
X15474000Y24678779D01*
G75*
G02*
X15596221Y24801000I122221J0D01*
G01*
G37*
G36*
G01*
X16196221Y24801000D02*
X16402779Y24801000D01*
G75*
G02*
X16525000Y24678779I0J-122221D01*
G01*
X16525000Y23759221D01*
G75*
G02*
X16402779Y23637000I-122221J0D01*
G01*
X16196221Y23637000D01*
G75*
G02*
X16074000Y23759221I0J122221D01*
G01*
X16074000Y24678779D01*
G75*
G02*
X16196221Y24801000I122221J0D01*
G01*
G37*
G36*
G01*
X14475757Y27363000D02*
X15223243Y27363000D01*
G75*
G02*
X15325000Y27261243I0J-101757D01*
G01*
X15325000Y26125757D01*
G75*
G02*
X15223243Y26024000I-101757J0D01*
G01*
X14475757Y26024000D01*
G75*
G02*
X14374000Y26125757I0J101757D01*
G01*
X14374000Y27261243D01*
G75*
G02*
X14475757Y27363000I101757J0D01*
G01*
G37*
G36*
G01*
X11334747Y27363000D02*
X14128253Y27363000D01*
G75*
G02*
X14226000Y27265253I0J-97747D01*
G01*
X14226000Y26121747D01*
G75*
G02*
X14128253Y26024000I-97747J0D01*
G01*
X11334747Y26024000D01*
G75*
G02*
X11237000Y26121747I0J97747D01*
G01*
X11237000Y27265253D01*
G75*
G02*
X11334747Y27363000I97747J0D01*
G01*
G37*
G36*
G01*
X11334747Y24976000D02*
X15228253Y24976000D01*
G75*
G02*
X15326000Y24878253I0J-97747D01*
G01*
X15326000Y23734747D01*
G75*
G02*
X15228253Y23637000I-97747J0D01*
G01*
X11334747Y23637000D01*
G75*
G02*
X11237000Y23734747I0J97747D01*
G01*
X11237000Y24878253D01*
G75*
G02*
X11334747Y24976000I97747J0D01*
G01*
G37*
%TD*%
%TO.C,U401*%
G36*
G01*
X68774008Y27363000D02*
X69663992Y27363000D01*
G75*
G02*
X69763000Y27263992I0J-99008D01*
G01*
X69763000Y26123008D01*
G75*
G02*
X69663992Y26024000I-99008J0D01*
G01*
X68774008Y26024000D01*
G75*
G02*
X68675000Y26123008I0J99008D01*
G01*
X68675000Y27263992D01*
G75*
G02*
X68774008Y27363000I99008J0D01*
G01*
G37*
G36*
G01*
X68774008Y24976000D02*
X69663992Y24976000D01*
G75*
G02*
X69763000Y24876992I0J-99008D01*
G01*
X69763000Y23736008D01*
G75*
G02*
X69663992Y23637000I-99008J0D01*
G01*
X68774008Y23637000D01*
G75*
G02*
X68675000Y23736008I0J99008D01*
G01*
X68675000Y24876992D01*
G75*
G02*
X68774008Y24976000I99008J0D01*
G01*
G37*
G36*
G01*
X68704890Y25875000D02*
X69657110Y25875000D01*
G75*
G02*
X69763000Y25769110I0J-105890D01*
G01*
X69763000Y25229890D01*
G75*
G02*
X69657110Y25124000I-105890J0D01*
G01*
X68704890Y25124000D01*
G75*
G02*
X68599000Y25229890I0J105890D01*
G01*
X68599000Y25769110D01*
G75*
G02*
X68704890Y25875000I105890J0D01*
G01*
G37*
G36*
G01*
X68196221Y27363000D02*
X68402779Y27363000D01*
G75*
G02*
X68525000Y27240779I0J-122221D01*
G01*
X68525000Y26321221D01*
G75*
G02*
X68402779Y26199000I-122221J0D01*
G01*
X68196221Y26199000D01*
G75*
G02*
X68074000Y26321221I0J122221D01*
G01*
X68074000Y27240779D01*
G75*
G02*
X68196221Y27363000I122221J0D01*
G01*
G37*
G36*
G01*
X67596221Y27363000D02*
X67802779Y27363000D01*
G75*
G02*
X67925000Y27240779I0J-122221D01*
G01*
X67925000Y26321221D01*
G75*
G02*
X67802779Y26199000I-122221J0D01*
G01*
X67596221Y26199000D01*
G75*
G02*
X67474000Y26321221I0J122221D01*
G01*
X67474000Y27240779D01*
G75*
G02*
X67596221Y27363000I122221J0D01*
G01*
G37*
G36*
G01*
X67596221Y24801000D02*
X67802779Y24801000D01*
G75*
G02*
X67925000Y24678779I0J-122221D01*
G01*
X67925000Y23759221D01*
G75*
G02*
X67802779Y23637000I-122221J0D01*
G01*
X67596221Y23637000D01*
G75*
G02*
X67474000Y23759221I0J122221D01*
G01*
X67474000Y24678779D01*
G75*
G02*
X67596221Y24801000I122221J0D01*
G01*
G37*
G36*
G01*
X68196221Y24801000D02*
X68402779Y24801000D01*
G75*
G02*
X68525000Y24678779I0J-122221D01*
G01*
X68525000Y23759221D01*
G75*
G02*
X68402779Y23637000I-122221J0D01*
G01*
X68196221Y23637000D01*
G75*
G02*
X68074000Y23759221I0J122221D01*
G01*
X68074000Y24678779D01*
G75*
G02*
X68196221Y24801000I122221J0D01*
G01*
G37*
G36*
G01*
X66475757Y27363000D02*
X67223243Y27363000D01*
G75*
G02*
X67325000Y27261243I0J-101757D01*
G01*
X67325000Y26125757D01*
G75*
G02*
X67223243Y26024000I-101757J0D01*
G01*
X66475757Y26024000D01*
G75*
G02*
X66374000Y26125757I0J101757D01*
G01*
X66374000Y27261243D01*
G75*
G02*
X66475757Y27363000I101757J0D01*
G01*
G37*
G36*
G01*
X63334747Y27363000D02*
X66128253Y27363000D01*
G75*
G02*
X66226000Y27265253I0J-97747D01*
G01*
X66226000Y26121747D01*
G75*
G02*
X66128253Y26024000I-97747J0D01*
G01*
X63334747Y26024000D01*
G75*
G02*
X63237000Y26121747I0J97747D01*
G01*
X63237000Y27265253D01*
G75*
G02*
X63334747Y27363000I97747J0D01*
G01*
G37*
G36*
G01*
X63334747Y24976000D02*
X67228253Y24976000D01*
G75*
G02*
X67326000Y24878253I0J-97747D01*
G01*
X67326000Y23734747D01*
G75*
G02*
X67228253Y23637000I-97747J0D01*
G01*
X63334747Y23637000D01*
G75*
G02*
X63237000Y23734747I0J97747D01*
G01*
X63237000Y24878253D01*
G75*
G02*
X63334747Y24976000I97747J0D01*
G01*
G37*
%TD*%
%TO.C,U301*%
G36*
G01*
X42774008Y27363000D02*
X43663992Y27363000D01*
G75*
G02*
X43763000Y27263992I0J-99008D01*
G01*
X43763000Y26123008D01*
G75*
G02*
X43663992Y26024000I-99008J0D01*
G01*
X42774008Y26024000D01*
G75*
G02*
X42675000Y26123008I0J99008D01*
G01*
X42675000Y27263992D01*
G75*
G02*
X42774008Y27363000I99008J0D01*
G01*
G37*
G36*
G01*
X42774008Y24976000D02*
X43663992Y24976000D01*
G75*
G02*
X43763000Y24876992I0J-99008D01*
G01*
X43763000Y23736008D01*
G75*
G02*
X43663992Y23637000I-99008J0D01*
G01*
X42774008Y23637000D01*
G75*
G02*
X42675000Y23736008I0J99008D01*
G01*
X42675000Y24876992D01*
G75*
G02*
X42774008Y24976000I99008J0D01*
G01*
G37*
G36*
G01*
X42704890Y25875000D02*
X43657110Y25875000D01*
G75*
G02*
X43763000Y25769110I0J-105890D01*
G01*
X43763000Y25229890D01*
G75*
G02*
X43657110Y25124000I-105890J0D01*
G01*
X42704890Y25124000D01*
G75*
G02*
X42599000Y25229890I0J105890D01*
G01*
X42599000Y25769110D01*
G75*
G02*
X42704890Y25875000I105890J0D01*
G01*
G37*
G36*
G01*
X42196221Y27363000D02*
X42402779Y27363000D01*
G75*
G02*
X42525000Y27240779I0J-122221D01*
G01*
X42525000Y26321221D01*
G75*
G02*
X42402779Y26199000I-122221J0D01*
G01*
X42196221Y26199000D01*
G75*
G02*
X42074000Y26321221I0J122221D01*
G01*
X42074000Y27240779D01*
G75*
G02*
X42196221Y27363000I122221J0D01*
G01*
G37*
G36*
G01*
X41596221Y27363000D02*
X41802779Y27363000D01*
G75*
G02*
X41925000Y27240779I0J-122221D01*
G01*
X41925000Y26321221D01*
G75*
G02*
X41802779Y26199000I-122221J0D01*
G01*
X41596221Y26199000D01*
G75*
G02*
X41474000Y26321221I0J122221D01*
G01*
X41474000Y27240779D01*
G75*
G02*
X41596221Y27363000I122221J0D01*
G01*
G37*
G36*
G01*
X41596221Y24801000D02*
X41802779Y24801000D01*
G75*
G02*
X41925000Y24678779I0J-122221D01*
G01*
X41925000Y23759221D01*
G75*
G02*
X41802779Y23637000I-122221J0D01*
G01*
X41596221Y23637000D01*
G75*
G02*
X41474000Y23759221I0J122221D01*
G01*
X41474000Y24678779D01*
G75*
G02*
X41596221Y24801000I122221J0D01*
G01*
G37*
G36*
G01*
X42196221Y24801000D02*
X42402779Y24801000D01*
G75*
G02*
X42525000Y24678779I0J-122221D01*
G01*
X42525000Y23759221D01*
G75*
G02*
X42402779Y23637000I-122221J0D01*
G01*
X42196221Y23637000D01*
G75*
G02*
X42074000Y23759221I0J122221D01*
G01*
X42074000Y24678779D01*
G75*
G02*
X42196221Y24801000I122221J0D01*
G01*
G37*
G36*
G01*
X40475757Y27363000D02*
X41223243Y27363000D01*
G75*
G02*
X41325000Y27261243I0J-101757D01*
G01*
X41325000Y26125757D01*
G75*
G02*
X41223243Y26024000I-101757J0D01*
G01*
X40475757Y26024000D01*
G75*
G02*
X40374000Y26125757I0J101757D01*
G01*
X40374000Y27261243D01*
G75*
G02*
X40475757Y27363000I101757J0D01*
G01*
G37*
G36*
G01*
X37334747Y27363000D02*
X40128253Y27363000D01*
G75*
G02*
X40226000Y27265253I0J-97747D01*
G01*
X40226000Y26121747D01*
G75*
G02*
X40128253Y26024000I-97747J0D01*
G01*
X37334747Y26024000D01*
G75*
G02*
X37237000Y26121747I0J97747D01*
G01*
X37237000Y27265253D01*
G75*
G02*
X37334747Y27363000I97747J0D01*
G01*
G37*
G36*
G01*
X37334747Y24976000D02*
X41228253Y24976000D01*
G75*
G02*
X41326000Y24878253I0J-97747D01*
G01*
X41326000Y23734747D01*
G75*
G02*
X41228253Y23637000I-97747J0D01*
G01*
X37334747Y23637000D01*
G75*
G02*
X37237000Y23734747I0J97747D01*
G01*
X37237000Y24878253D01*
G75*
G02*
X37334747Y24976000I97747J0D01*
G01*
G37*
%TD*%
D12*
%TO.C,SP110*%
X21000000Y5000000D03*
%TD*%
%TO.C,SP109*%
X73000000Y5000000D03*
%TD*%
%TO.C,SP108*%
X32000000Y15000000D03*
%TD*%
%TO.C,SP107*%
X59000000Y15000000D03*
%TD*%
%TO.C,SP106*%
X19000000Y41000000D03*
%TD*%
%TO.C,SP105*%
X9000000Y41000000D03*
%TD*%
%TO.C,SP104*%
X45000000Y41000000D03*
%TD*%
%TO.C,SP103*%
X35000000Y41000000D03*
%TD*%
%TO.C,SP102*%
X71000000Y41000000D03*
%TD*%
%TO.C,SP101*%
X61000000Y41000000D03*
%TD*%
%TO.C,R101*%
G36*
G01*
X36900000Y4100000D02*
X36900000Y3400000D01*
G75*
G02*
X36700000Y3200000I-200000J0D01*
G01*
X36300000Y3200000D01*
G75*
G02*
X36100000Y3400000I0J200000D01*
G01*
X36100000Y4100000D01*
G75*
G02*
X36300000Y4300000I200000J0D01*
G01*
X36700000Y4300000D01*
G75*
G02*
X36900000Y4100000I0J-200000D01*
G01*
G37*
G36*
G01*
X38400000Y4100000D02*
X38400000Y3400000D01*
G75*
G02*
X38200000Y3200000I-200000J0D01*
G01*
X37800000Y3200000D01*
G75*
G02*
X37600000Y3400000I0J200000D01*
G01*
X37600000Y4100000D01*
G75*
G02*
X37800000Y4300000I200000J0D01*
G01*
X38200000Y4300000D01*
G75*
G02*
X38400000Y4100000I0J-200000D01*
G01*
G37*
%TD*%
D13*
%TO.C,L401*%
X77300000Y14750000D03*
X66200000Y14750000D03*
%TD*%
%TO.C,L301*%
X51300000Y14750000D03*
X40200000Y14750000D03*
%TD*%
%TO.C,L201*%
X25300000Y14750000D03*
X14200000Y14750000D03*
%TD*%
D14*
%TO.C,D101*%
X46000000Y2000000D03*
X46000000Y5500000D03*
X49500000Y2000000D03*
X49500000Y5500000D03*
G36*
G01*
X39940000Y2270000D02*
X41760000Y2270000D01*
G75*
G02*
X42170000Y1860000I0J-410000D01*
G01*
X42170000Y1040000D01*
G75*
G02*
X41760000Y630000I-410000J0D01*
G01*
X39940000Y630000D01*
G75*
G02*
X39530000Y1040000I0J410000D01*
G01*
X39530000Y1860000D01*
G75*
G02*
X39940000Y2270000I410000J0D01*
G01*
G37*
G36*
G01*
X39940000Y6870000D02*
X41760000Y6870000D01*
G75*
G02*
X42170000Y6460000I0J-410000D01*
G01*
X42170000Y5640000D01*
G75*
G02*
X41760000Y5230000I-410000J0D01*
G01*
X39940000Y5230000D01*
G75*
G02*
X39530000Y5640000I0J410000D01*
G01*
X39530000Y6460000D01*
G75*
G02*
X39940000Y6870000I410000J0D01*
G01*
G37*
%TD*%
%TO.C,C418*%
G36*
G01*
X77070000Y32210000D02*
X77070000Y31290000D01*
G75*
G02*
X76785000Y31005000I-285000J0D01*
G01*
X76215000Y31005000D01*
G75*
G02*
X75930000Y31290000I0J285000D01*
G01*
X75930000Y32210000D01*
G75*
G02*
X76215000Y32495000I285000J0D01*
G01*
X76785000Y32495000D01*
G75*
G02*
X77070000Y32210000I0J-285000D01*
G01*
G37*
G36*
G01*
X75070000Y32210000D02*
X75070000Y31290000D01*
G75*
G02*
X74785000Y31005000I-285000J0D01*
G01*
X74215000Y31005000D01*
G75*
G02*
X73930000Y31290000I0J285000D01*
G01*
X73930000Y32210000D01*
G75*
G02*
X74215000Y32495000I285000J0D01*
G01*
X74785000Y32495000D01*
G75*
G02*
X75070000Y32210000I0J-285000D01*
G01*
G37*
%TD*%
%TO.C,C417*%
G36*
G01*
X77070000Y29960000D02*
X77070000Y29040000D01*
G75*
G02*
X76785000Y28755000I-285000J0D01*
G01*
X76215000Y28755000D01*
G75*
G02*
X75930000Y29040000I0J285000D01*
G01*
X75930000Y29960000D01*
G75*
G02*
X76215000Y30245000I285000J0D01*
G01*
X76785000Y30245000D01*
G75*
G02*
X77070000Y29960000I0J-285000D01*
G01*
G37*
G36*
G01*
X75070000Y29960000D02*
X75070000Y29040000D01*
G75*
G02*
X74785000Y28755000I-285000J0D01*
G01*
X74215000Y28755000D01*
G75*
G02*
X73930000Y29040000I0J285000D01*
G01*
X73930000Y29960000D01*
G75*
G02*
X74215000Y30245000I285000J0D01*
G01*
X74785000Y30245000D01*
G75*
G02*
X75070000Y29960000I0J-285000D01*
G01*
G37*
%TD*%
%TO.C,C416*%
G36*
G01*
X77070000Y27710000D02*
X77070000Y26790000D01*
G75*
G02*
X76785000Y26505000I-285000J0D01*
G01*
X76215000Y26505000D01*
G75*
G02*
X75930000Y26790000I0J285000D01*
G01*
X75930000Y27710000D01*
G75*
G02*
X76215000Y27995000I285000J0D01*
G01*
X76785000Y27995000D01*
G75*
G02*
X77070000Y27710000I0J-285000D01*
G01*
G37*
G36*
G01*
X75070000Y27710000D02*
X75070000Y26790000D01*
G75*
G02*
X74785000Y26505000I-285000J0D01*
G01*
X74215000Y26505000D01*
G75*
G02*
X73930000Y26790000I0J285000D01*
G01*
X73930000Y27710000D01*
G75*
G02*
X74215000Y27995000I285000J0D01*
G01*
X74785000Y27995000D01*
G75*
G02*
X75070000Y27710000I0J-285000D01*
G01*
G37*
%TD*%
%TO.C,C415*%
G36*
G01*
X77070000Y25460000D02*
X77070000Y24540000D01*
G75*
G02*
X76785000Y24255000I-285000J0D01*
G01*
X76215000Y24255000D01*
G75*
G02*
X75930000Y24540000I0J285000D01*
G01*
X75930000Y25460000D01*
G75*
G02*
X76215000Y25745000I285000J0D01*
G01*
X76785000Y25745000D01*
G75*
G02*
X77070000Y25460000I0J-285000D01*
G01*
G37*
G36*
G01*
X75070000Y25460000D02*
X75070000Y24540000D01*
G75*
G02*
X74785000Y24255000I-285000J0D01*
G01*
X74215000Y24255000D01*
G75*
G02*
X73930000Y24540000I0J285000D01*
G01*
X73930000Y25460000D01*
G75*
G02*
X74215000Y25745000I285000J0D01*
G01*
X74785000Y25745000D01*
G75*
G02*
X75070000Y25460000I0J-285000D01*
G01*
G37*
%TD*%
%TO.C,C414*%
G36*
G01*
X77070000Y23210000D02*
X77070000Y22290000D01*
G75*
G02*
X76785000Y22005000I-285000J0D01*
G01*
X76215000Y22005000D01*
G75*
G02*
X75930000Y22290000I0J285000D01*
G01*
X75930000Y23210000D01*
G75*
G02*
X76215000Y23495000I285000J0D01*
G01*
X76785000Y23495000D01*
G75*
G02*
X77070000Y23210000I0J-285000D01*
G01*
G37*
G36*
G01*
X75070000Y23210000D02*
X75070000Y22290000D01*
G75*
G02*
X74785000Y22005000I-285000J0D01*
G01*
X74215000Y22005000D01*
G75*
G02*
X73930000Y22290000I0J285000D01*
G01*
X73930000Y23210000D01*
G75*
G02*
X74215000Y23495000I285000J0D01*
G01*
X74785000Y23495000D01*
G75*
G02*
X75070000Y23210000I0J-285000D01*
G01*
G37*
%TD*%
%TO.C,C413*%
G36*
G01*
X68123680Y22835000D02*
X68123680Y22165000D01*
G75*
G02*
X67938680Y21980000I-185000J0D01*
G01*
X67568680Y21980000D01*
G75*
G02*
X67383680Y22165000I0J185000D01*
G01*
X67383680Y22835000D01*
G75*
G02*
X67568680Y23020000I185000J0D01*
G01*
X67938680Y23020000D01*
G75*
G02*
X68123680Y22835000I0J-185000D01*
G01*
G37*
G36*
G01*
X66620000Y22835000D02*
X66620000Y22165000D01*
G75*
G02*
X66435000Y21980000I-185000J0D01*
G01*
X66065000Y21980000D01*
G75*
G02*
X65880000Y22165000I0J185000D01*
G01*
X65880000Y22835000D01*
G75*
G02*
X66065000Y23020000I185000J0D01*
G01*
X66435000Y23020000D01*
G75*
G02*
X66620000Y22835000I0J-185000D01*
G01*
G37*
%TD*%
%TO.C,C412*%
G36*
G01*
X68128160Y28165000D02*
X68128160Y28835000D01*
G75*
G02*
X68313160Y29020000I185000J0D01*
G01*
X68683160Y29020000D01*
G75*
G02*
X68868160Y28835000I0J-185000D01*
G01*
X68868160Y28165000D01*
G75*
G02*
X68683160Y27980000I-185000J0D01*
G01*
X68313160Y27980000D01*
G75*
G02*
X68128160Y28165000I0J185000D01*
G01*
G37*
G36*
G01*
X69631840Y28165000D02*
X69631840Y28835000D01*
G75*
G02*
X69816840Y29020000I185000J0D01*
G01*
X70186840Y29020000D01*
G75*
G02*
X70371840Y28835000I0J-185000D01*
G01*
X70371840Y28165000D01*
G75*
G02*
X70186840Y27980000I-185000J0D01*
G01*
X69816840Y27980000D01*
G75*
G02*
X69631840Y28165000I0J185000D01*
G01*
G37*
%TD*%
%TO.C,C411*%
G36*
G01*
X64878160Y28165000D02*
X64878160Y28835000D01*
G75*
G02*
X65063160Y29020000I185000J0D01*
G01*
X65433160Y29020000D01*
G75*
G02*
X65618160Y28835000I0J-185000D01*
G01*
X65618160Y28165000D01*
G75*
G02*
X65433160Y27980000I-185000J0D01*
G01*
X65063160Y27980000D01*
G75*
G02*
X64878160Y28165000I0J185000D01*
G01*
G37*
G36*
G01*
X66381840Y28165000D02*
X66381840Y28835000D01*
G75*
G02*
X66566840Y29020000I185000J0D01*
G01*
X66936840Y29020000D01*
G75*
G02*
X67121840Y28835000I0J-185000D01*
G01*
X67121840Y28165000D01*
G75*
G02*
X66936840Y27980000I-185000J0D01*
G01*
X66566840Y27980000D01*
G75*
G02*
X66381840Y28165000I0J185000D01*
G01*
G37*
%TD*%
%TO.C,C410*%
G36*
G01*
X64878160Y29915000D02*
X64878160Y30585000D01*
G75*
G02*
X65063160Y30770000I185000J0D01*
G01*
X65433160Y30770000D01*
G75*
G02*
X65618160Y30585000I0J-185000D01*
G01*
X65618160Y29915000D01*
G75*
G02*
X65433160Y29730000I-185000J0D01*
G01*
X65063160Y29730000D01*
G75*
G02*
X64878160Y29915000I0J185000D01*
G01*
G37*
G36*
G01*
X66381840Y29915000D02*
X66381840Y30585000D01*
G75*
G02*
X66566840Y30770000I185000J0D01*
G01*
X66936840Y30770000D01*
G75*
G02*
X67121840Y30585000I0J-185000D01*
G01*
X67121840Y29915000D01*
G75*
G02*
X66936840Y29730000I-185000J0D01*
G01*
X66566840Y29730000D01*
G75*
G02*
X66381840Y29915000I0J185000D01*
G01*
G37*
%TD*%
%TO.C,C409*%
G36*
G01*
X64878160Y31665000D02*
X64878160Y32335000D01*
G75*
G02*
X65063160Y32520000I185000J0D01*
G01*
X65433160Y32520000D01*
G75*
G02*
X65618160Y32335000I0J-185000D01*
G01*
X65618160Y31665000D01*
G75*
G02*
X65433160Y31480000I-185000J0D01*
G01*
X65063160Y31480000D01*
G75*
G02*
X64878160Y31665000I0J185000D01*
G01*
G37*
G36*
G01*
X66381840Y31665000D02*
X66381840Y32335000D01*
G75*
G02*
X66566840Y32520000I185000J0D01*
G01*
X66936840Y32520000D01*
G75*
G02*
X67121840Y32335000I0J-185000D01*
G01*
X67121840Y31665000D01*
G75*
G02*
X66936840Y31480000I-185000J0D01*
G01*
X66566840Y31480000D01*
G75*
G02*
X66381840Y31665000I0J185000D01*
G01*
G37*
%TD*%
%TO.C,C408*%
G36*
G01*
X61665000Y26621840D02*
X62335000Y26621840D01*
G75*
G02*
X62520000Y26436840I0J-185000D01*
G01*
X62520000Y26066840D01*
G75*
G02*
X62335000Y25881840I-185000J0D01*
G01*
X61665000Y25881840D01*
G75*
G02*
X61480000Y26066840I0J185000D01*
G01*
X61480000Y26436840D01*
G75*
G02*
X61665000Y26621840I185000J0D01*
G01*
G37*
G36*
G01*
X61665000Y25118160D02*
X62335000Y25118160D01*
G75*
G02*
X62520000Y24933160I0J-185000D01*
G01*
X62520000Y24563160D01*
G75*
G02*
X62335000Y24378160I-185000J0D01*
G01*
X61665000Y24378160D01*
G75*
G02*
X61480000Y24563160I0J185000D01*
G01*
X61480000Y24933160D01*
G75*
G02*
X61665000Y25118160I185000J0D01*
G01*
G37*
%TD*%
%TO.C,C407*%
G36*
G01*
X57290000Y27070000D02*
X58210000Y27070000D01*
G75*
G02*
X58495000Y26785000I0J-285000D01*
G01*
X58495000Y26215000D01*
G75*
G02*
X58210000Y25930000I-285000J0D01*
G01*
X57290000Y25930000D01*
G75*
G02*
X57005000Y26215000I0J285000D01*
G01*
X57005000Y26785000D01*
G75*
G02*
X57290000Y27070000I285000J0D01*
G01*
G37*
G36*
G01*
X57290000Y25070000D02*
X58210000Y25070000D01*
G75*
G02*
X58495000Y24785000I0J-285000D01*
G01*
X58495000Y24215000D01*
G75*
G02*
X58210000Y23930000I-285000J0D01*
G01*
X57290000Y23930000D01*
G75*
G02*
X57005000Y24215000I0J285000D01*
G01*
X57005000Y24785000D01*
G75*
G02*
X57290000Y25070000I285000J0D01*
G01*
G37*
%TD*%
%TO.C,C406*%
G36*
G01*
X64430000Y33540000D02*
X64430000Y34460000D01*
G75*
G02*
X64715000Y34745000I285000J0D01*
G01*
X65285000Y34745000D01*
G75*
G02*
X65570000Y34460000I0J-285000D01*
G01*
X65570000Y33540000D01*
G75*
G02*
X65285000Y33255000I-285000J0D01*
G01*
X64715000Y33255000D01*
G75*
G02*
X64430000Y33540000I0J285000D01*
G01*
G37*
G36*
G01*
X66430000Y33540000D02*
X66430000Y34460000D01*
G75*
G02*
X66715000Y34745000I285000J0D01*
G01*
X67285000Y34745000D01*
G75*
G02*
X67570000Y34460000I0J-285000D01*
G01*
X67570000Y33540000D01*
G75*
G02*
X67285000Y33255000I-285000J0D01*
G01*
X66715000Y33255000D01*
G75*
G02*
X66430000Y33540000I0J285000D01*
G01*
G37*
%TD*%
%TO.C,C405*%
G36*
G01*
X57570000Y33710000D02*
X57570000Y32790000D01*
G75*
G02*
X57285000Y32505000I-285000J0D01*
G01*
X56715000Y32505000D01*
G75*
G02*
X56430000Y32790000I0J285000D01*
G01*
X56430000Y33710000D01*
G75*
G02*
X56715000Y33995000I285000J0D01*
G01*
X57285000Y33995000D01*
G75*
G02*
X57570000Y33710000I0J-285000D01*
G01*
G37*
G36*
G01*
X55570000Y33710000D02*
X55570000Y32790000D01*
G75*
G02*
X55285000Y32505000I-285000J0D01*
G01*
X54715000Y32505000D01*
G75*
G02*
X54430000Y32790000I0J285000D01*
G01*
X54430000Y33710000D01*
G75*
G02*
X54715000Y33995000I285000J0D01*
G01*
X55285000Y33995000D01*
G75*
G02*
X55570000Y33710000I0J-285000D01*
G01*
G37*
%TD*%
%TO.C,C404*%
G36*
G01*
X57570000Y31460000D02*
X57570000Y30540000D01*
G75*
G02*
X57285000Y30255000I-285000J0D01*
G01*
X56715000Y30255000D01*
G75*
G02*
X56430000Y30540000I0J285000D01*
G01*
X56430000Y31460000D01*
G75*
G02*
X56715000Y31745000I285000J0D01*
G01*
X57285000Y31745000D01*
G75*
G02*
X57570000Y31460000I0J-285000D01*
G01*
G37*
G36*
G01*
X55570000Y31460000D02*
X55570000Y30540000D01*
G75*
G02*
X55285000Y30255000I-285000J0D01*
G01*
X54715000Y30255000D01*
G75*
G02*
X54430000Y30540000I0J285000D01*
G01*
X54430000Y31460000D01*
G75*
G02*
X54715000Y31745000I285000J0D01*
G01*
X55285000Y31745000D01*
G75*
G02*
X55570000Y31460000I0J-285000D01*
G01*
G37*
%TD*%
%TO.C,C403*%
G36*
G01*
X64430000Y35790000D02*
X64430000Y36710000D01*
G75*
G02*
X64715000Y36995000I285000J0D01*
G01*
X65285000Y36995000D01*
G75*
G02*
X65570000Y36710000I0J-285000D01*
G01*
X65570000Y35790000D01*
G75*
G02*
X65285000Y35505000I-285000J0D01*
G01*
X64715000Y35505000D01*
G75*
G02*
X64430000Y35790000I0J285000D01*
G01*
G37*
G36*
G01*
X66430000Y35790000D02*
X66430000Y36710000D01*
G75*
G02*
X66715000Y36995000I285000J0D01*
G01*
X67285000Y36995000D01*
G75*
G02*
X67570000Y36710000I0J-285000D01*
G01*
X67570000Y35790000D01*
G75*
G02*
X67285000Y35505000I-285000J0D01*
G01*
X66715000Y35505000D01*
G75*
G02*
X66430000Y35790000I0J285000D01*
G01*
G37*
%TD*%
%TO.C,C402*%
G36*
G01*
X57570000Y29210000D02*
X57570000Y28290000D01*
G75*
G02*
X57285000Y28005000I-285000J0D01*
G01*
X56715000Y28005000D01*
G75*
G02*
X56430000Y28290000I0J285000D01*
G01*
X56430000Y29210000D01*
G75*
G02*
X56715000Y29495000I285000J0D01*
G01*
X57285000Y29495000D01*
G75*
G02*
X57570000Y29210000I0J-285000D01*
G01*
G37*
G36*
G01*
X55570000Y29210000D02*
X55570000Y28290000D01*
G75*
G02*
X55285000Y28005000I-285000J0D01*
G01*
X54715000Y28005000D01*
G75*
G02*
X54430000Y28290000I0J285000D01*
G01*
X54430000Y29210000D01*
G75*
G02*
X54715000Y29495000I285000J0D01*
G01*
X55285000Y29495000D01*
G75*
G02*
X55570000Y29210000I0J-285000D01*
G01*
G37*
%TD*%
%TO.C,C401*%
G36*
G01*
X59540000Y27070000D02*
X60460000Y27070000D01*
G75*
G02*
X60745000Y26785000I0J-285000D01*
G01*
X60745000Y26215000D01*
G75*
G02*
X60460000Y25930000I-285000J0D01*
G01*
X59540000Y25930000D01*
G75*
G02*
X59255000Y26215000I0J285000D01*
G01*
X59255000Y26785000D01*
G75*
G02*
X59540000Y27070000I285000J0D01*
G01*
G37*
G36*
G01*
X59540000Y25070000D02*
X60460000Y25070000D01*
G75*
G02*
X60745000Y24785000I0J-285000D01*
G01*
X60745000Y24215000D01*
G75*
G02*
X60460000Y23930000I-285000J0D01*
G01*
X59540000Y23930000D01*
G75*
G02*
X59255000Y24215000I0J285000D01*
G01*
X59255000Y24785000D01*
G75*
G02*
X59540000Y25070000I285000J0D01*
G01*
G37*
%TD*%
%TO.C,C318*%
G36*
G01*
X51070000Y32210000D02*
X51070000Y31290000D01*
G75*
G02*
X50785000Y31005000I-285000J0D01*
G01*
X50215000Y31005000D01*
G75*
G02*
X49930000Y31290000I0J285000D01*
G01*
X49930000Y32210000D01*
G75*
G02*
X50215000Y32495000I285000J0D01*
G01*
X50785000Y32495000D01*
G75*
G02*
X51070000Y32210000I0J-285000D01*
G01*
G37*
G36*
G01*
X49070000Y32210000D02*
X49070000Y31290000D01*
G75*
G02*
X48785000Y31005000I-285000J0D01*
G01*
X48215000Y31005000D01*
G75*
G02*
X47930000Y31290000I0J285000D01*
G01*
X47930000Y32210000D01*
G75*
G02*
X48215000Y32495000I285000J0D01*
G01*
X48785000Y32495000D01*
G75*
G02*
X49070000Y32210000I0J-285000D01*
G01*
G37*
%TD*%
%TO.C,C317*%
G36*
G01*
X51070000Y29960000D02*
X51070000Y29040000D01*
G75*
G02*
X50785000Y28755000I-285000J0D01*
G01*
X50215000Y28755000D01*
G75*
G02*
X49930000Y29040000I0J285000D01*
G01*
X49930000Y29960000D01*
G75*
G02*
X50215000Y30245000I285000J0D01*
G01*
X50785000Y30245000D01*
G75*
G02*
X51070000Y29960000I0J-285000D01*
G01*
G37*
G36*
G01*
X49070000Y29960000D02*
X49070000Y29040000D01*
G75*
G02*
X48785000Y28755000I-285000J0D01*
G01*
X48215000Y28755000D01*
G75*
G02*
X47930000Y29040000I0J285000D01*
G01*
X47930000Y29960000D01*
G75*
G02*
X48215000Y30245000I285000J0D01*
G01*
X48785000Y30245000D01*
G75*
G02*
X49070000Y29960000I0J-285000D01*
G01*
G37*
%TD*%
%TO.C,C316*%
G36*
G01*
X51070000Y27710000D02*
X51070000Y26790000D01*
G75*
G02*
X50785000Y26505000I-285000J0D01*
G01*
X50215000Y26505000D01*
G75*
G02*
X49930000Y26790000I0J285000D01*
G01*
X49930000Y27710000D01*
G75*
G02*
X50215000Y27995000I285000J0D01*
G01*
X50785000Y27995000D01*
G75*
G02*
X51070000Y27710000I0J-285000D01*
G01*
G37*
G36*
G01*
X49070000Y27710000D02*
X49070000Y26790000D01*
G75*
G02*
X48785000Y26505000I-285000J0D01*
G01*
X48215000Y26505000D01*
G75*
G02*
X47930000Y26790000I0J285000D01*
G01*
X47930000Y27710000D01*
G75*
G02*
X48215000Y27995000I285000J0D01*
G01*
X48785000Y27995000D01*
G75*
G02*
X49070000Y27710000I0J-285000D01*
G01*
G37*
%TD*%
%TO.C,C315*%
G36*
G01*
X51070000Y25460000D02*
X51070000Y24540000D01*
G75*
G02*
X50785000Y24255000I-285000J0D01*
G01*
X50215000Y24255000D01*
G75*
G02*
X49930000Y24540000I0J285000D01*
G01*
X49930000Y25460000D01*
G75*
G02*
X50215000Y25745000I285000J0D01*
G01*
X50785000Y25745000D01*
G75*
G02*
X51070000Y25460000I0J-285000D01*
G01*
G37*
G36*
G01*
X49070000Y25460000D02*
X49070000Y24540000D01*
G75*
G02*
X48785000Y24255000I-285000J0D01*
G01*
X48215000Y24255000D01*
G75*
G02*
X47930000Y24540000I0J285000D01*
G01*
X47930000Y25460000D01*
G75*
G02*
X48215000Y25745000I285000J0D01*
G01*
X48785000Y25745000D01*
G75*
G02*
X49070000Y25460000I0J-285000D01*
G01*
G37*
%TD*%
%TO.C,C314*%
G36*
G01*
X51070000Y23210000D02*
X51070000Y22290000D01*
G75*
G02*
X50785000Y22005000I-285000J0D01*
G01*
X50215000Y22005000D01*
G75*
G02*
X49930000Y22290000I0J285000D01*
G01*
X49930000Y23210000D01*
G75*
G02*
X50215000Y23495000I285000J0D01*
G01*
X50785000Y23495000D01*
G75*
G02*
X51070000Y23210000I0J-285000D01*
G01*
G37*
G36*
G01*
X49070000Y23210000D02*
X49070000Y22290000D01*
G75*
G02*
X48785000Y22005000I-285000J0D01*
G01*
X48215000Y22005000D01*
G75*
G02*
X47930000Y22290000I0J285000D01*
G01*
X47930000Y23210000D01*
G75*
G02*
X48215000Y23495000I285000J0D01*
G01*
X48785000Y23495000D01*
G75*
G02*
X49070000Y23210000I0J-285000D01*
G01*
G37*
%TD*%
%TO.C,C313*%
G36*
G01*
X42123680Y22835000D02*
X42123680Y22165000D01*
G75*
G02*
X41938680Y21980000I-185000J0D01*
G01*
X41568680Y21980000D01*
G75*
G02*
X41383680Y22165000I0J185000D01*
G01*
X41383680Y22835000D01*
G75*
G02*
X41568680Y23020000I185000J0D01*
G01*
X41938680Y23020000D01*
G75*
G02*
X42123680Y22835000I0J-185000D01*
G01*
G37*
G36*
G01*
X40620000Y22835000D02*
X40620000Y22165000D01*
G75*
G02*
X40435000Y21980000I-185000J0D01*
G01*
X40065000Y21980000D01*
G75*
G02*
X39880000Y22165000I0J185000D01*
G01*
X39880000Y22835000D01*
G75*
G02*
X40065000Y23020000I185000J0D01*
G01*
X40435000Y23020000D01*
G75*
G02*
X40620000Y22835000I0J-185000D01*
G01*
G37*
%TD*%
%TO.C,C312*%
G36*
G01*
X42128160Y28165000D02*
X42128160Y28835000D01*
G75*
G02*
X42313160Y29020000I185000J0D01*
G01*
X42683160Y29020000D01*
G75*
G02*
X42868160Y28835000I0J-185000D01*
G01*
X42868160Y28165000D01*
G75*
G02*
X42683160Y27980000I-185000J0D01*
G01*
X42313160Y27980000D01*
G75*
G02*
X42128160Y28165000I0J185000D01*
G01*
G37*
G36*
G01*
X43631840Y28165000D02*
X43631840Y28835000D01*
G75*
G02*
X43816840Y29020000I185000J0D01*
G01*
X44186840Y29020000D01*
G75*
G02*
X44371840Y28835000I0J-185000D01*
G01*
X44371840Y28165000D01*
G75*
G02*
X44186840Y27980000I-185000J0D01*
G01*
X43816840Y27980000D01*
G75*
G02*
X43631840Y28165000I0J185000D01*
G01*
G37*
%TD*%
%TO.C,C311*%
G36*
G01*
X38878160Y28165000D02*
X38878160Y28835000D01*
G75*
G02*
X39063160Y29020000I185000J0D01*
G01*
X39433160Y29020000D01*
G75*
G02*
X39618160Y28835000I0J-185000D01*
G01*
X39618160Y28165000D01*
G75*
G02*
X39433160Y27980000I-185000J0D01*
G01*
X39063160Y27980000D01*
G75*
G02*
X38878160Y28165000I0J185000D01*
G01*
G37*
G36*
G01*
X40381840Y28165000D02*
X40381840Y28835000D01*
G75*
G02*
X40566840Y29020000I185000J0D01*
G01*
X40936840Y29020000D01*
G75*
G02*
X41121840Y28835000I0J-185000D01*
G01*
X41121840Y28165000D01*
G75*
G02*
X40936840Y27980000I-185000J0D01*
G01*
X40566840Y27980000D01*
G75*
G02*
X40381840Y28165000I0J185000D01*
G01*
G37*
%TD*%
%TO.C,C310*%
G36*
G01*
X38878160Y29915000D02*
X38878160Y30585000D01*
G75*
G02*
X39063160Y30770000I185000J0D01*
G01*
X39433160Y30770000D01*
G75*
G02*
X39618160Y30585000I0J-185000D01*
G01*
X39618160Y29915000D01*
G75*
G02*
X39433160Y29730000I-185000J0D01*
G01*
X39063160Y29730000D01*
G75*
G02*
X38878160Y29915000I0J185000D01*
G01*
G37*
G36*
G01*
X40381840Y29915000D02*
X40381840Y30585000D01*
G75*
G02*
X40566840Y30770000I185000J0D01*
G01*
X40936840Y30770000D01*
G75*
G02*
X41121840Y30585000I0J-185000D01*
G01*
X41121840Y29915000D01*
G75*
G02*
X40936840Y29730000I-185000J0D01*
G01*
X40566840Y29730000D01*
G75*
G02*
X40381840Y29915000I0J185000D01*
G01*
G37*
%TD*%
%TO.C,C309*%
G36*
G01*
X38878160Y31665000D02*
X38878160Y32335000D01*
G75*
G02*
X39063160Y32520000I185000J0D01*
G01*
X39433160Y32520000D01*
G75*
G02*
X39618160Y32335000I0J-185000D01*
G01*
X39618160Y31665000D01*
G75*
G02*
X39433160Y31480000I-185000J0D01*
G01*
X39063160Y31480000D01*
G75*
G02*
X38878160Y31665000I0J185000D01*
G01*
G37*
G36*
G01*
X40381840Y31665000D02*
X40381840Y32335000D01*
G75*
G02*
X40566840Y32520000I185000J0D01*
G01*
X40936840Y32520000D01*
G75*
G02*
X41121840Y32335000I0J-185000D01*
G01*
X41121840Y31665000D01*
G75*
G02*
X40936840Y31480000I-185000J0D01*
G01*
X40566840Y31480000D01*
G75*
G02*
X40381840Y31665000I0J185000D01*
G01*
G37*
%TD*%
%TO.C,C308*%
G36*
G01*
X35665000Y26621840D02*
X36335000Y26621840D01*
G75*
G02*
X36520000Y26436840I0J-185000D01*
G01*
X36520000Y26066840D01*
G75*
G02*
X36335000Y25881840I-185000J0D01*
G01*
X35665000Y25881840D01*
G75*
G02*
X35480000Y26066840I0J185000D01*
G01*
X35480000Y26436840D01*
G75*
G02*
X35665000Y26621840I185000J0D01*
G01*
G37*
G36*
G01*
X35665000Y25118160D02*
X36335000Y25118160D01*
G75*
G02*
X36520000Y24933160I0J-185000D01*
G01*
X36520000Y24563160D01*
G75*
G02*
X36335000Y24378160I-185000J0D01*
G01*
X35665000Y24378160D01*
G75*
G02*
X35480000Y24563160I0J185000D01*
G01*
X35480000Y24933160D01*
G75*
G02*
X35665000Y25118160I185000J0D01*
G01*
G37*
%TD*%
%TO.C,C307*%
G36*
G01*
X31290000Y27070000D02*
X32210000Y27070000D01*
G75*
G02*
X32495000Y26785000I0J-285000D01*
G01*
X32495000Y26215000D01*
G75*
G02*
X32210000Y25930000I-285000J0D01*
G01*
X31290000Y25930000D01*
G75*
G02*
X31005000Y26215000I0J285000D01*
G01*
X31005000Y26785000D01*
G75*
G02*
X31290000Y27070000I285000J0D01*
G01*
G37*
G36*
G01*
X31290000Y25070000D02*
X32210000Y25070000D01*
G75*
G02*
X32495000Y24785000I0J-285000D01*
G01*
X32495000Y24215000D01*
G75*
G02*
X32210000Y23930000I-285000J0D01*
G01*
X31290000Y23930000D01*
G75*
G02*
X31005000Y24215000I0J285000D01*
G01*
X31005000Y24785000D01*
G75*
G02*
X31290000Y25070000I285000J0D01*
G01*
G37*
%TD*%
%TO.C,C306*%
G36*
G01*
X38430000Y33540000D02*
X38430000Y34460000D01*
G75*
G02*
X38715000Y34745000I285000J0D01*
G01*
X39285000Y34745000D01*
G75*
G02*
X39570000Y34460000I0J-285000D01*
G01*
X39570000Y33540000D01*
G75*
G02*
X39285000Y33255000I-285000J0D01*
G01*
X38715000Y33255000D01*
G75*
G02*
X38430000Y33540000I0J285000D01*
G01*
G37*
G36*
G01*
X40430000Y33540000D02*
X40430000Y34460000D01*
G75*
G02*
X40715000Y34745000I285000J0D01*
G01*
X41285000Y34745000D01*
G75*
G02*
X41570000Y34460000I0J-285000D01*
G01*
X41570000Y33540000D01*
G75*
G02*
X41285000Y33255000I-285000J0D01*
G01*
X40715000Y33255000D01*
G75*
G02*
X40430000Y33540000I0J285000D01*
G01*
G37*
%TD*%
%TO.C,C305*%
G36*
G01*
X31570000Y33710000D02*
X31570000Y32790000D01*
G75*
G02*
X31285000Y32505000I-285000J0D01*
G01*
X30715000Y32505000D01*
G75*
G02*
X30430000Y32790000I0J285000D01*
G01*
X30430000Y33710000D01*
G75*
G02*
X30715000Y33995000I285000J0D01*
G01*
X31285000Y33995000D01*
G75*
G02*
X31570000Y33710000I0J-285000D01*
G01*
G37*
G36*
G01*
X29570000Y33710000D02*
X29570000Y32790000D01*
G75*
G02*
X29285000Y32505000I-285000J0D01*
G01*
X28715000Y32505000D01*
G75*
G02*
X28430000Y32790000I0J285000D01*
G01*
X28430000Y33710000D01*
G75*
G02*
X28715000Y33995000I285000J0D01*
G01*
X29285000Y33995000D01*
G75*
G02*
X29570000Y33710000I0J-285000D01*
G01*
G37*
%TD*%
%TO.C,C304*%
G36*
G01*
X31570000Y31460000D02*
X31570000Y30540000D01*
G75*
G02*
X31285000Y30255000I-285000J0D01*
G01*
X30715000Y30255000D01*
G75*
G02*
X30430000Y30540000I0J285000D01*
G01*
X30430000Y31460000D01*
G75*
G02*
X30715000Y31745000I285000J0D01*
G01*
X31285000Y31745000D01*
G75*
G02*
X31570000Y31460000I0J-285000D01*
G01*
G37*
G36*
G01*
X29570000Y31460000D02*
X29570000Y30540000D01*
G75*
G02*
X29285000Y30255000I-285000J0D01*
G01*
X28715000Y30255000D01*
G75*
G02*
X28430000Y30540000I0J285000D01*
G01*
X28430000Y31460000D01*
G75*
G02*
X28715000Y31745000I285000J0D01*
G01*
X29285000Y31745000D01*
G75*
G02*
X29570000Y31460000I0J-285000D01*
G01*
G37*
%TD*%
%TO.C,C303*%
G36*
G01*
X38430000Y35790000D02*
X38430000Y36710000D01*
G75*
G02*
X38715000Y36995000I285000J0D01*
G01*
X39285000Y36995000D01*
G75*
G02*
X39570000Y36710000I0J-285000D01*
G01*
X39570000Y35790000D01*
G75*
G02*
X39285000Y35505000I-285000J0D01*
G01*
X38715000Y35505000D01*
G75*
G02*
X38430000Y35790000I0J285000D01*
G01*
G37*
G36*
G01*
X40430000Y35790000D02*
X40430000Y36710000D01*
G75*
G02*
X40715000Y36995000I285000J0D01*
G01*
X41285000Y36995000D01*
G75*
G02*
X41570000Y36710000I0J-285000D01*
G01*
X41570000Y35790000D01*
G75*
G02*
X41285000Y35505000I-285000J0D01*
G01*
X40715000Y35505000D01*
G75*
G02*
X40430000Y35790000I0J285000D01*
G01*
G37*
%TD*%
%TO.C,C302*%
G36*
G01*
X31570000Y29210000D02*
X31570000Y28290000D01*
G75*
G02*
X31285000Y28005000I-285000J0D01*
G01*
X30715000Y28005000D01*
G75*
G02*
X30430000Y28290000I0J285000D01*
G01*
X30430000Y29210000D01*
G75*
G02*
X30715000Y29495000I285000J0D01*
G01*
X31285000Y29495000D01*
G75*
G02*
X31570000Y29210000I0J-285000D01*
G01*
G37*
G36*
G01*
X29570000Y29210000D02*
X29570000Y28290000D01*
G75*
G02*
X29285000Y28005000I-285000J0D01*
G01*
X28715000Y28005000D01*
G75*
G02*
X28430000Y28290000I0J285000D01*
G01*
X28430000Y29210000D01*
G75*
G02*
X28715000Y29495000I285000J0D01*
G01*
X29285000Y29495000D01*
G75*
G02*
X29570000Y29210000I0J-285000D01*
G01*
G37*
%TD*%
%TO.C,C301*%
G36*
G01*
X33540000Y27070000D02*
X34460000Y27070000D01*
G75*
G02*
X34745000Y26785000I0J-285000D01*
G01*
X34745000Y26215000D01*
G75*
G02*
X34460000Y25930000I-285000J0D01*
G01*
X33540000Y25930000D01*
G75*
G02*
X33255000Y26215000I0J285000D01*
G01*
X33255000Y26785000D01*
G75*
G02*
X33540000Y27070000I285000J0D01*
G01*
G37*
G36*
G01*
X33540000Y25070000D02*
X34460000Y25070000D01*
G75*
G02*
X34745000Y24785000I0J-285000D01*
G01*
X34745000Y24215000D01*
G75*
G02*
X34460000Y23930000I-285000J0D01*
G01*
X33540000Y23930000D01*
G75*
G02*
X33255000Y24215000I0J285000D01*
G01*
X33255000Y24785000D01*
G75*
G02*
X33540000Y25070000I285000J0D01*
G01*
G37*
%TD*%
%TO.C,C218*%
G36*
G01*
X25070000Y32210000D02*
X25070000Y31290000D01*
G75*
G02*
X24785000Y31005000I-285000J0D01*
G01*
X24215000Y31005000D01*
G75*
G02*
X23930000Y31290000I0J285000D01*
G01*
X23930000Y32210000D01*
G75*
G02*
X24215000Y32495000I285000J0D01*
G01*
X24785000Y32495000D01*
G75*
G02*
X25070000Y32210000I0J-285000D01*
G01*
G37*
G36*
G01*
X23070000Y32210000D02*
X23070000Y31290000D01*
G75*
G02*
X22785000Y31005000I-285000J0D01*
G01*
X22215000Y31005000D01*
G75*
G02*
X21930000Y31290000I0J285000D01*
G01*
X21930000Y32210000D01*
G75*
G02*
X22215000Y32495000I285000J0D01*
G01*
X22785000Y32495000D01*
G75*
G02*
X23070000Y32210000I0J-285000D01*
G01*
G37*
%TD*%
%TO.C,C217*%
G36*
G01*
X25070000Y29960000D02*
X25070000Y29040000D01*
G75*
G02*
X24785000Y28755000I-285000J0D01*
G01*
X24215000Y28755000D01*
G75*
G02*
X23930000Y29040000I0J285000D01*
G01*
X23930000Y29960000D01*
G75*
G02*
X24215000Y30245000I285000J0D01*
G01*
X24785000Y30245000D01*
G75*
G02*
X25070000Y29960000I0J-285000D01*
G01*
G37*
G36*
G01*
X23070000Y29960000D02*
X23070000Y29040000D01*
G75*
G02*
X22785000Y28755000I-285000J0D01*
G01*
X22215000Y28755000D01*
G75*
G02*
X21930000Y29040000I0J285000D01*
G01*
X21930000Y29960000D01*
G75*
G02*
X22215000Y30245000I285000J0D01*
G01*
X22785000Y30245000D01*
G75*
G02*
X23070000Y29960000I0J-285000D01*
G01*
G37*
%TD*%
%TO.C,C216*%
G36*
G01*
X25070000Y27710000D02*
X25070000Y26790000D01*
G75*
G02*
X24785000Y26505000I-285000J0D01*
G01*
X24215000Y26505000D01*
G75*
G02*
X23930000Y26790000I0J285000D01*
G01*
X23930000Y27710000D01*
G75*
G02*
X24215000Y27995000I285000J0D01*
G01*
X24785000Y27995000D01*
G75*
G02*
X25070000Y27710000I0J-285000D01*
G01*
G37*
G36*
G01*
X23070000Y27710000D02*
X23070000Y26790000D01*
G75*
G02*
X22785000Y26505000I-285000J0D01*
G01*
X22215000Y26505000D01*
G75*
G02*
X21930000Y26790000I0J285000D01*
G01*
X21930000Y27710000D01*
G75*
G02*
X22215000Y27995000I285000J0D01*
G01*
X22785000Y27995000D01*
G75*
G02*
X23070000Y27710000I0J-285000D01*
G01*
G37*
%TD*%
%TO.C,C215*%
G36*
G01*
X25070000Y25460000D02*
X25070000Y24540000D01*
G75*
G02*
X24785000Y24255000I-285000J0D01*
G01*
X24215000Y24255000D01*
G75*
G02*
X23930000Y24540000I0J285000D01*
G01*
X23930000Y25460000D01*
G75*
G02*
X24215000Y25745000I285000J0D01*
G01*
X24785000Y25745000D01*
G75*
G02*
X25070000Y25460000I0J-285000D01*
G01*
G37*
G36*
G01*
X23070000Y25460000D02*
X23070000Y24540000D01*
G75*
G02*
X22785000Y24255000I-285000J0D01*
G01*
X22215000Y24255000D01*
G75*
G02*
X21930000Y24540000I0J285000D01*
G01*
X21930000Y25460000D01*
G75*
G02*
X22215000Y25745000I285000J0D01*
G01*
X22785000Y25745000D01*
G75*
G02*
X23070000Y25460000I0J-285000D01*
G01*
G37*
%TD*%
%TO.C,C214*%
G36*
G01*
X25070000Y23210000D02*
X25070000Y22290000D01*
G75*
G02*
X24785000Y22005000I-285000J0D01*
G01*
X24215000Y22005000D01*
G75*
G02*
X23930000Y22290000I0J285000D01*
G01*
X23930000Y23210000D01*
G75*
G02*
X24215000Y23495000I285000J0D01*
G01*
X24785000Y23495000D01*
G75*
G02*
X25070000Y23210000I0J-285000D01*
G01*
G37*
G36*
G01*
X23070000Y23210000D02*
X23070000Y22290000D01*
G75*
G02*
X22785000Y22005000I-285000J0D01*
G01*
X22215000Y22005000D01*
G75*
G02*
X21930000Y22290000I0J285000D01*
G01*
X21930000Y23210000D01*
G75*
G02*
X22215000Y23495000I285000J0D01*
G01*
X22785000Y23495000D01*
G75*
G02*
X23070000Y23210000I0J-285000D01*
G01*
G37*
%TD*%
%TO.C,C213*%
G36*
G01*
X16123680Y22835000D02*
X16123680Y22165000D01*
G75*
G02*
X15938680Y21980000I-185000J0D01*
G01*
X15568680Y21980000D01*
G75*
G02*
X15383680Y22165000I0J185000D01*
G01*
X15383680Y22835000D01*
G75*
G02*
X15568680Y23020000I185000J0D01*
G01*
X15938680Y23020000D01*
G75*
G02*
X16123680Y22835000I0J-185000D01*
G01*
G37*
G36*
G01*
X14620000Y22835000D02*
X14620000Y22165000D01*
G75*
G02*
X14435000Y21980000I-185000J0D01*
G01*
X14065000Y21980000D01*
G75*
G02*
X13880000Y22165000I0J185000D01*
G01*
X13880000Y22835000D01*
G75*
G02*
X14065000Y23020000I185000J0D01*
G01*
X14435000Y23020000D01*
G75*
G02*
X14620000Y22835000I0J-185000D01*
G01*
G37*
%TD*%
%TO.C,C212*%
G36*
G01*
X16128160Y28165000D02*
X16128160Y28835000D01*
G75*
G02*
X16313160Y29020000I185000J0D01*
G01*
X16683160Y29020000D01*
G75*
G02*
X16868160Y28835000I0J-185000D01*
G01*
X16868160Y28165000D01*
G75*
G02*
X16683160Y27980000I-185000J0D01*
G01*
X16313160Y27980000D01*
G75*
G02*
X16128160Y28165000I0J185000D01*
G01*
G37*
G36*
G01*
X17631840Y28165000D02*
X17631840Y28835000D01*
G75*
G02*
X17816840Y29020000I185000J0D01*
G01*
X18186840Y29020000D01*
G75*
G02*
X18371840Y28835000I0J-185000D01*
G01*
X18371840Y28165000D01*
G75*
G02*
X18186840Y27980000I-185000J0D01*
G01*
X17816840Y27980000D01*
G75*
G02*
X17631840Y28165000I0J185000D01*
G01*
G37*
%TD*%
%TO.C,C211*%
G36*
G01*
X12878160Y28165000D02*
X12878160Y28835000D01*
G75*
G02*
X13063160Y29020000I185000J0D01*
G01*
X13433160Y29020000D01*
G75*
G02*
X13618160Y28835000I0J-185000D01*
G01*
X13618160Y28165000D01*
G75*
G02*
X13433160Y27980000I-185000J0D01*
G01*
X13063160Y27980000D01*
G75*
G02*
X12878160Y28165000I0J185000D01*
G01*
G37*
G36*
G01*
X14381840Y28165000D02*
X14381840Y28835000D01*
G75*
G02*
X14566840Y29020000I185000J0D01*
G01*
X14936840Y29020000D01*
G75*
G02*
X15121840Y28835000I0J-185000D01*
G01*
X15121840Y28165000D01*
G75*
G02*
X14936840Y27980000I-185000J0D01*
G01*
X14566840Y27980000D01*
G75*
G02*
X14381840Y28165000I0J185000D01*
G01*
G37*
%TD*%
%TO.C,C210*%
G36*
G01*
X12878160Y29915000D02*
X12878160Y30585000D01*
G75*
G02*
X13063160Y30770000I185000J0D01*
G01*
X13433160Y30770000D01*
G75*
G02*
X13618160Y30585000I0J-185000D01*
G01*
X13618160Y29915000D01*
G75*
G02*
X13433160Y29730000I-185000J0D01*
G01*
X13063160Y29730000D01*
G75*
G02*
X12878160Y29915000I0J185000D01*
G01*
G37*
G36*
G01*
X14381840Y29915000D02*
X14381840Y30585000D01*
G75*
G02*
X14566840Y30770000I185000J0D01*
G01*
X14936840Y30770000D01*
G75*
G02*
X15121840Y30585000I0J-185000D01*
G01*
X15121840Y29915000D01*
G75*
G02*
X14936840Y29730000I-185000J0D01*
G01*
X14566840Y29730000D01*
G75*
G02*
X14381840Y29915000I0J185000D01*
G01*
G37*
%TD*%
%TO.C,C209*%
G36*
G01*
X12878160Y31665000D02*
X12878160Y32335000D01*
G75*
G02*
X13063160Y32520000I185000J0D01*
G01*
X13433160Y32520000D01*
G75*
G02*
X13618160Y32335000I0J-185000D01*
G01*
X13618160Y31665000D01*
G75*
G02*
X13433160Y31480000I-185000J0D01*
G01*
X13063160Y31480000D01*
G75*
G02*
X12878160Y31665000I0J185000D01*
G01*
G37*
G36*
G01*
X14381840Y31665000D02*
X14381840Y32335000D01*
G75*
G02*
X14566840Y32520000I185000J0D01*
G01*
X14936840Y32520000D01*
G75*
G02*
X15121840Y32335000I0J-185000D01*
G01*
X15121840Y31665000D01*
G75*
G02*
X14936840Y31480000I-185000J0D01*
G01*
X14566840Y31480000D01*
G75*
G02*
X14381840Y31665000I0J185000D01*
G01*
G37*
%TD*%
%TO.C,C208*%
G36*
G01*
X9665000Y26621840D02*
X10335000Y26621840D01*
G75*
G02*
X10520000Y26436840I0J-185000D01*
G01*
X10520000Y26066840D01*
G75*
G02*
X10335000Y25881840I-185000J0D01*
G01*
X9665000Y25881840D01*
G75*
G02*
X9480000Y26066840I0J185000D01*
G01*
X9480000Y26436840D01*
G75*
G02*
X9665000Y26621840I185000J0D01*
G01*
G37*
G36*
G01*
X9665000Y25118160D02*
X10335000Y25118160D01*
G75*
G02*
X10520000Y24933160I0J-185000D01*
G01*
X10520000Y24563160D01*
G75*
G02*
X10335000Y24378160I-185000J0D01*
G01*
X9665000Y24378160D01*
G75*
G02*
X9480000Y24563160I0J185000D01*
G01*
X9480000Y24933160D01*
G75*
G02*
X9665000Y25118160I185000J0D01*
G01*
G37*
%TD*%
%TO.C,C207*%
G36*
G01*
X5290000Y27070000D02*
X6210000Y27070000D01*
G75*
G02*
X6495000Y26785000I0J-285000D01*
G01*
X6495000Y26215000D01*
G75*
G02*
X6210000Y25930000I-285000J0D01*
G01*
X5290000Y25930000D01*
G75*
G02*
X5005000Y26215000I0J285000D01*
G01*
X5005000Y26785000D01*
G75*
G02*
X5290000Y27070000I285000J0D01*
G01*
G37*
G36*
G01*
X5290000Y25070000D02*
X6210000Y25070000D01*
G75*
G02*
X6495000Y24785000I0J-285000D01*
G01*
X6495000Y24215000D01*
G75*
G02*
X6210000Y23930000I-285000J0D01*
G01*
X5290000Y23930000D01*
G75*
G02*
X5005000Y24215000I0J285000D01*
G01*
X5005000Y24785000D01*
G75*
G02*
X5290000Y25070000I285000J0D01*
G01*
G37*
%TD*%
%TO.C,C206*%
G36*
G01*
X12430000Y33540000D02*
X12430000Y34460000D01*
G75*
G02*
X12715000Y34745000I285000J0D01*
G01*
X13285000Y34745000D01*
G75*
G02*
X13570000Y34460000I0J-285000D01*
G01*
X13570000Y33540000D01*
G75*
G02*
X13285000Y33255000I-285000J0D01*
G01*
X12715000Y33255000D01*
G75*
G02*
X12430000Y33540000I0J285000D01*
G01*
G37*
G36*
G01*
X14430000Y33540000D02*
X14430000Y34460000D01*
G75*
G02*
X14715000Y34745000I285000J0D01*
G01*
X15285000Y34745000D01*
G75*
G02*
X15570000Y34460000I0J-285000D01*
G01*
X15570000Y33540000D01*
G75*
G02*
X15285000Y33255000I-285000J0D01*
G01*
X14715000Y33255000D01*
G75*
G02*
X14430000Y33540000I0J285000D01*
G01*
G37*
%TD*%
%TO.C,C205*%
G36*
G01*
X5570000Y33710000D02*
X5570000Y32790000D01*
G75*
G02*
X5285000Y32505000I-285000J0D01*
G01*
X4715000Y32505000D01*
G75*
G02*
X4430000Y32790000I0J285000D01*
G01*
X4430000Y33710000D01*
G75*
G02*
X4715000Y33995000I285000J0D01*
G01*
X5285000Y33995000D01*
G75*
G02*
X5570000Y33710000I0J-285000D01*
G01*
G37*
G36*
G01*
X3570000Y33710000D02*
X3570000Y32790000D01*
G75*
G02*
X3285000Y32505000I-285000J0D01*
G01*
X2715000Y32505000D01*
G75*
G02*
X2430000Y32790000I0J285000D01*
G01*
X2430000Y33710000D01*
G75*
G02*
X2715000Y33995000I285000J0D01*
G01*
X3285000Y33995000D01*
G75*
G02*
X3570000Y33710000I0J-285000D01*
G01*
G37*
%TD*%
%TO.C,C204*%
G36*
G01*
X5570000Y31460000D02*
X5570000Y30540000D01*
G75*
G02*
X5285000Y30255000I-285000J0D01*
G01*
X4715000Y30255000D01*
G75*
G02*
X4430000Y30540000I0J285000D01*
G01*
X4430000Y31460000D01*
G75*
G02*
X4715000Y31745000I285000J0D01*
G01*
X5285000Y31745000D01*
G75*
G02*
X5570000Y31460000I0J-285000D01*
G01*
G37*
G36*
G01*
X3570000Y31460000D02*
X3570000Y30540000D01*
G75*
G02*
X3285000Y30255000I-285000J0D01*
G01*
X2715000Y30255000D01*
G75*
G02*
X2430000Y30540000I0J285000D01*
G01*
X2430000Y31460000D01*
G75*
G02*
X2715000Y31745000I285000J0D01*
G01*
X3285000Y31745000D01*
G75*
G02*
X3570000Y31460000I0J-285000D01*
G01*
G37*
%TD*%
%TO.C,C203*%
G36*
G01*
X12430000Y35790000D02*
X12430000Y36710000D01*
G75*
G02*
X12715000Y36995000I285000J0D01*
G01*
X13285000Y36995000D01*
G75*
G02*
X13570000Y36710000I0J-285000D01*
G01*
X13570000Y35790000D01*
G75*
G02*
X13285000Y35505000I-285000J0D01*
G01*
X12715000Y35505000D01*
G75*
G02*
X12430000Y35790000I0J285000D01*
G01*
G37*
G36*
G01*
X14430000Y35790000D02*
X14430000Y36710000D01*
G75*
G02*
X14715000Y36995000I285000J0D01*
G01*
X15285000Y36995000D01*
G75*
G02*
X15570000Y36710000I0J-285000D01*
G01*
X15570000Y35790000D01*
G75*
G02*
X15285000Y35505000I-285000J0D01*
G01*
X14715000Y35505000D01*
G75*
G02*
X14430000Y35790000I0J285000D01*
G01*
G37*
%TD*%
%TO.C,C202*%
G36*
G01*
X5570000Y29210000D02*
X5570000Y28290000D01*
G75*
G02*
X5285000Y28005000I-285000J0D01*
G01*
X4715000Y28005000D01*
G75*
G02*
X4430000Y28290000I0J285000D01*
G01*
X4430000Y29210000D01*
G75*
G02*
X4715000Y29495000I285000J0D01*
G01*
X5285000Y29495000D01*
G75*
G02*
X5570000Y29210000I0J-285000D01*
G01*
G37*
G36*
G01*
X3570000Y29210000D02*
X3570000Y28290000D01*
G75*
G02*
X3285000Y28005000I-285000J0D01*
G01*
X2715000Y28005000D01*
G75*
G02*
X2430000Y28290000I0J285000D01*
G01*
X2430000Y29210000D01*
G75*
G02*
X2715000Y29495000I285000J0D01*
G01*
X3285000Y29495000D01*
G75*
G02*
X3570000Y29210000I0J-285000D01*
G01*
G37*
%TD*%
%TO.C,C201*%
G36*
G01*
X7540000Y27070000D02*
X8460000Y27070000D01*
G75*
G02*
X8745000Y26785000I0J-285000D01*
G01*
X8745000Y26215000D01*
G75*
G02*
X8460000Y25930000I-285000J0D01*
G01*
X7540000Y25930000D01*
G75*
G02*
X7255000Y26215000I0J285000D01*
G01*
X7255000Y26785000D01*
G75*
G02*
X7540000Y27070000I285000J0D01*
G01*
G37*
G36*
G01*
X7540000Y25070000D02*
X8460000Y25070000D01*
G75*
G02*
X8745000Y24785000I0J-285000D01*
G01*
X8745000Y24215000D01*
G75*
G02*
X8460000Y23930000I-285000J0D01*
G01*
X7540000Y23930000D01*
G75*
G02*
X7255000Y24215000I0J285000D01*
G01*
X7255000Y24785000D01*
G75*
G02*
X7540000Y25070000I285000J0D01*
G01*
G37*
%TD*%
%TO.C,C101*%
G36*
G01*
X41371840Y4085000D02*
X41371840Y3415000D01*
G75*
G02*
X41186840Y3230000I-185000J0D01*
G01*
X40816840Y3230000D01*
G75*
G02*
X40631840Y3415000I0J185000D01*
G01*
X40631840Y4085000D01*
G75*
G02*
X40816840Y4270000I185000J0D01*
G01*
X41186840Y4270000D01*
G75*
G02*
X41371840Y4085000I0J-185000D01*
G01*
G37*
G36*
G01*
X39868160Y4085000D02*
X39868160Y3415000D01*
G75*
G02*
X39683160Y3230000I-185000J0D01*
G01*
X39313160Y3230000D01*
G75*
G02*
X39128160Y3415000I0J185000D01*
G01*
X39128160Y4085000D01*
G75*
G02*
X39313160Y4270000I185000J0D01*
G01*
X39683160Y4270000D01*
G75*
G02*
X39868160Y4085000I0J-185000D01*
G01*
G37*
%TD*%
M02*
