%TF.GenerationSoftware,KiCad,Pcbnew,5.1.6-c6e7f7d~87~ubuntu20.04.1*%
%TF.CreationDate,2020-09-19T17:37:15+02:00*%
%TF.ProjectId,maxim-optimizer,6d617869-6d2d-46f7-9074-696d697a6572,rev?*%
%TF.SameCoordinates,PX3ef1480PY6acfc00*%
%TF.FileFunction,Copper,L2,Bot*%
%TF.FilePolarity,Positive*%
%FSLAX46Y46*%
G04 Gerber Fmt 4.6, Leading zero omitted, Abs format (unit mm)*
G04 Created by KiCad (PCBNEW 5.1.6-c6e7f7d~87~ubuntu20.04.1) date 2020-09-19 17:37:15*
%MOMM*%
%LPD*%
G01*
G04 APERTURE LIST*
%TA.AperFunction,ComponentPad*%
%ADD10C,4.000000*%
%TD*%
%TA.AperFunction,ViaPad*%
%ADD11C,1.000000*%
%TD*%
%TA.AperFunction,ViaPad*%
%ADD12C,0.800000*%
%TD*%
%TA.AperFunction,Conductor*%
%ADD13C,0.200000*%
%TD*%
G04 APERTURE END LIST*
D10*
%TO.P,SP110,1*%
%TO.N,/Out-*%
X21000000Y5000000D03*
%TD*%
%TO.P,SP109,1*%
%TO.N,/Out+*%
X73000000Y5000000D03*
%TD*%
%TO.P,SP108,1*%
%TO.N,/Out12*%
X32000000Y15000000D03*
%TD*%
%TO.P,SP107,1*%
%TO.N,/Out23*%
X59000000Y15000000D03*
%TD*%
%TO.P,SP106,1*%
%TO.N,/Out-*%
X19000000Y41000000D03*
%TD*%
%TO.P,SP105,1*%
%TO.N,/PV1+*%
X9000000Y41000000D03*
%TD*%
%TO.P,SP104,1*%
%TO.N,/Out12*%
X45000000Y41000000D03*
%TD*%
%TO.P,SP103,1*%
%TO.N,/PV2+*%
X35000000Y41000000D03*
%TD*%
%TO.P,SP102,1*%
%TO.N,/Out23*%
X71000000Y41000000D03*
%TD*%
%TO.P,SP101,1*%
%TO.N,/PV3+*%
X61000000Y41000000D03*
%TD*%
D11*
%TO.N,/Out+*%
X77000000Y36000000D03*
X79000000Y36000000D03*
X79000000Y34000000D03*
X77000000Y34000000D03*
X79000000Y32000000D03*
X79000000Y30000000D03*
X79000000Y28000000D03*
X79000000Y26000000D03*
X79000000Y24000000D03*
X79000000Y22000000D03*
X79000000Y20000000D03*
X77000000Y19000000D03*
X77000000Y10000000D03*
X79000000Y9000000D03*
X79000000Y5000000D03*
X79000000Y2000000D03*
X77000000Y4000000D03*
X69000000Y4000000D03*
X67000000Y6000000D03*
X67000000Y2000000D03*
X70000000Y2000000D03*
X77000000Y2000000D03*
%TO.N,/Out-*%
X16000000Y25500000D03*
X17000000Y35000000D03*
X17500000Y33000000D03*
X17000000Y31000000D03*
X20000000Y31500000D03*
X20000000Y33500000D03*
X20000000Y35500000D03*
X22500000Y36000000D03*
X22500000Y34000000D03*
X21000000Y27500000D03*
X20000000Y26500000D03*
X20000000Y24500000D03*
X20500000Y22500000D03*
X19000000Y20500000D03*
X22500000Y20500000D03*
X22500000Y18500000D03*
X22500000Y17000000D03*
X22500000Y15000000D03*
X22500000Y13500000D03*
X22500000Y11500000D03*
X20500000Y11500000D03*
X19000000Y11500000D03*
X19000000Y13000000D03*
X19000000Y15500000D03*
X19000000Y17500000D03*
X19000000Y19000000D03*
X21000000Y20500000D03*
X20500000Y18500000D03*
X21000000Y16500000D03*
X20500000Y14500000D03*
X2500000Y27000000D03*
X2500000Y25000000D03*
X4000000Y24000000D03*
X7000000Y22500000D03*
X9000000Y23000000D03*
X1500000Y28500000D03*
X1500000Y31000000D03*
X1500000Y33000000D03*
X2500000Y35500000D03*
D12*
%TO.N,/Out12*%
X25000000Y36000000D03*
D11*
X28000000Y36000000D03*
X27000000Y34000000D03*
X27000000Y32000000D03*
X27000000Y29000000D03*
X27000000Y26000000D03*
X29000000Y26000000D03*
X29000000Y23000000D03*
X29000000Y21000000D03*
X26000000Y20000000D03*
X28000000Y18000000D03*
X28000000Y15000000D03*
X28000000Y12000000D03*
X35000000Y20000000D03*
X32000000Y20000000D03*
X36000000Y18000000D03*
X36000000Y13000000D03*
X33500000Y10500000D03*
X45000000Y12000000D03*
X48000000Y12000000D03*
X48000000Y15000000D03*
X45000000Y15000000D03*
X45000000Y18000000D03*
X48000000Y18000000D03*
X48000000Y20000000D03*
X45000000Y20000000D03*
X47000000Y23000000D03*
X46000000Y24000000D03*
X46000000Y26500000D03*
X47000000Y27500000D03*
X45500000Y31500000D03*
X47000000Y32000000D03*
X48000000Y36500000D03*
X46000000Y36500000D03*
X46000000Y34500000D03*
X48000000Y34500000D03*
X42500000Y35000000D03*
X42500000Y33000000D03*
X27000000Y23000000D03*
X42000000Y25500000D03*
%TO.N,/Out23*%
X51000000Y36000000D03*
X54000000Y36000000D03*
X51000000Y34500000D03*
X53500000Y33500000D03*
X53500000Y31500000D03*
X53500000Y29500000D03*
X53500000Y27500000D03*
X53500000Y25000000D03*
X55000000Y26500000D03*
X55500000Y24000000D03*
X54000000Y22500000D03*
X54000000Y20000000D03*
X54000000Y18000000D03*
X54000000Y15500000D03*
X54000000Y12500000D03*
X54000000Y10500000D03*
X57000000Y10500000D03*
X60500000Y10500000D03*
X62000000Y11500000D03*
X62000000Y14000000D03*
X62000000Y17500000D03*
X62000000Y19500000D03*
X59500000Y19500000D03*
X57000000Y19500000D03*
X56000000Y21500000D03*
X70500000Y20500000D03*
X72500000Y20500000D03*
X74000000Y20500000D03*
X74000000Y19000000D03*
X74000000Y17000000D03*
X74000000Y15000000D03*
X74000000Y13000000D03*
X74000000Y11000000D03*
X72000000Y11000000D03*
X71000000Y12500000D03*
X71000000Y15000000D03*
X71000000Y17500000D03*
X72500000Y19000000D03*
X72500000Y16000000D03*
X72500000Y13500000D03*
X72000000Y24000000D03*
X71500000Y26500000D03*
X73000000Y22500000D03*
X72500000Y27500000D03*
X71500000Y31500000D03*
X73000000Y32000000D03*
X73500000Y33500000D03*
X74000000Y34500000D03*
X74500000Y36000000D03*
X72500000Y36000000D03*
X72000000Y34000000D03*
X69000000Y35000000D03*
X69000000Y33000000D03*
X68500000Y31000000D03*
X68000000Y25500000D03*
%TD*%
D13*
%TO.N,/Out12*%
G36*
X48900000Y10100000D02*
G01*
X24100000Y10100000D01*
X24100000Y36900000D01*
X48900000Y36900000D01*
X48900000Y10100000D01*
G37*
X48900000Y10100000D02*
X24100000Y10100000D01*
X24100000Y36900000D01*
X48900000Y36900000D01*
X48900000Y10100000D01*
%TO.N,/Out23*%
G36*
X75183577Y10100000D02*
G01*
X50383577Y10100000D01*
X50383577Y36900000D01*
X75183577Y36900000D01*
X75183577Y10100000D01*
G37*
X75183577Y10100000D02*
X50383577Y10100000D01*
X50383577Y36900000D01*
X75183577Y36900000D01*
X75183577Y10100000D01*
%TO.N,/Out-*%
G36*
X23103572Y10100000D02*
G01*
X325000Y10100000D01*
X325000Y36900000D01*
X23103572Y36900000D01*
X23103572Y10100000D01*
G37*
X23103572Y10100000D02*
X325000Y10100000D01*
X325000Y36900000D01*
X23103572Y36900000D01*
X23103572Y10100000D01*
%TO.N,/Out+*%
G36*
X79675000Y325000D02*
G01*
X66100000Y325000D01*
X66100000Y9700000D01*
X75283577Y9700000D01*
X75342104Y9705764D01*
X75398382Y9722836D01*
X75450248Y9750559D01*
X75495709Y9787868D01*
X75533018Y9833329D01*
X75560741Y9885195D01*
X75577813Y9941473D01*
X75583577Y10000000D01*
X75583577Y36900000D01*
X79675001Y36900000D01*
X79675000Y325000D01*
G37*
X79675000Y325000D02*
X66100000Y325000D01*
X66100000Y9700000D01*
X75283577Y9700000D01*
X75342104Y9705764D01*
X75398382Y9722836D01*
X75450248Y9750559D01*
X75495709Y9787868D01*
X75533018Y9833329D01*
X75560741Y9885195D01*
X75577813Y9941473D01*
X75583577Y10000000D01*
X75583577Y36900000D01*
X79675001Y36900000D01*
X79675000Y325000D01*
%TO.N,/Out-*%
G36*
X79675001Y37300000D02*
G01*
X50283577Y37300000D01*
X50225050Y37294236D01*
X50168772Y37277164D01*
X50116906Y37249441D01*
X50071445Y37212132D01*
X50034136Y37166671D01*
X50006413Y37114805D01*
X49989341Y37058527D01*
X49983577Y37000000D01*
X49983577Y10000000D01*
X49989341Y9941473D01*
X50006413Y9885195D01*
X50034136Y9833329D01*
X50071445Y9787868D01*
X50116906Y9750559D01*
X50168772Y9722836D01*
X50225050Y9705764D01*
X50283577Y9700000D01*
X65700000Y9700000D01*
X65700000Y325000D01*
X325000Y325000D01*
X325000Y9900000D01*
X23203572Y9900000D01*
X23223081Y9901921D01*
X23241840Y9907612D01*
X23259129Y9916853D01*
X23274283Y9929289D01*
X23286719Y9944443D01*
X23295960Y9961732D01*
X23301651Y9980491D01*
X23303572Y10000000D01*
X23303572Y37000000D01*
X23700000Y37000000D01*
X23700000Y10000000D01*
X23705764Y9941473D01*
X23722836Y9885195D01*
X23750559Y9833329D01*
X23787868Y9787868D01*
X23833329Y9750559D01*
X23885195Y9722836D01*
X23941473Y9705764D01*
X24000000Y9700000D01*
X49000000Y9700000D01*
X49058527Y9705764D01*
X49114805Y9722836D01*
X49166671Y9750559D01*
X49212132Y9787868D01*
X49249441Y9833329D01*
X49277164Y9885195D01*
X49294236Y9941473D01*
X49300000Y10000000D01*
X49300000Y37000000D01*
X49294236Y37058527D01*
X49277164Y37114805D01*
X49249441Y37166671D01*
X49212132Y37212132D01*
X49166671Y37249441D01*
X49114805Y37277164D01*
X49058527Y37294236D01*
X49000000Y37300000D01*
X24000000Y37300000D01*
X23941473Y37294236D01*
X23885195Y37277164D01*
X23833329Y37249441D01*
X23787868Y37212132D01*
X23750559Y37166671D01*
X23722836Y37114805D01*
X23705764Y37058527D01*
X23700000Y37000000D01*
X23303572Y37000000D01*
X23301651Y37019509D01*
X23295960Y37038268D01*
X23286719Y37055557D01*
X23274283Y37070711D01*
X23259129Y37083147D01*
X23241840Y37092388D01*
X23223081Y37098079D01*
X23203572Y37100000D01*
X325000Y37100000D01*
X325000Y41226530D01*
X6700000Y41226530D01*
X6700000Y40773470D01*
X6788387Y40329115D01*
X6961766Y39910541D01*
X7213473Y39533835D01*
X7533835Y39213473D01*
X7910541Y38961766D01*
X8329115Y38788387D01*
X8773470Y38700000D01*
X9226530Y38700000D01*
X9670885Y38788387D01*
X10089459Y38961766D01*
X10466165Y39213473D01*
X10786527Y39533835D01*
X11038234Y39910541D01*
X11211613Y40329115D01*
X11300000Y40773470D01*
X11300000Y41226530D01*
X32700000Y41226530D01*
X32700000Y40773470D01*
X32788387Y40329115D01*
X32961766Y39910541D01*
X33213473Y39533835D01*
X33533835Y39213473D01*
X33910541Y38961766D01*
X34329115Y38788387D01*
X34773470Y38700000D01*
X35226530Y38700000D01*
X35670885Y38788387D01*
X36089459Y38961766D01*
X36466165Y39213473D01*
X36786527Y39533835D01*
X37038234Y39910541D01*
X37211613Y40329115D01*
X37300000Y40773470D01*
X37300000Y41226530D01*
X42700000Y41226530D01*
X42700000Y40773470D01*
X42788387Y40329115D01*
X42961766Y39910541D01*
X43213473Y39533835D01*
X43533835Y39213473D01*
X43910541Y38961766D01*
X44329115Y38788387D01*
X44773470Y38700000D01*
X45226530Y38700000D01*
X45670885Y38788387D01*
X46089459Y38961766D01*
X46466165Y39213473D01*
X46786527Y39533835D01*
X47038234Y39910541D01*
X47211613Y40329115D01*
X47300000Y40773470D01*
X47300000Y41226530D01*
X58700000Y41226530D01*
X58700000Y40773470D01*
X58788387Y40329115D01*
X58961766Y39910541D01*
X59213473Y39533835D01*
X59533835Y39213473D01*
X59910541Y38961766D01*
X60329115Y38788387D01*
X60773470Y38700000D01*
X61226530Y38700000D01*
X61670885Y38788387D01*
X62089459Y38961766D01*
X62466165Y39213473D01*
X62786527Y39533835D01*
X63038234Y39910541D01*
X63211613Y40329115D01*
X63300000Y40773470D01*
X63300000Y41226530D01*
X68700000Y41226530D01*
X68700000Y40773470D01*
X68788387Y40329115D01*
X68961766Y39910541D01*
X69213473Y39533835D01*
X69533835Y39213473D01*
X69910541Y38961766D01*
X70329115Y38788387D01*
X70773470Y38700000D01*
X71226530Y38700000D01*
X71670885Y38788387D01*
X72089459Y38961766D01*
X72466165Y39213473D01*
X72786527Y39533835D01*
X73038234Y39910541D01*
X73211613Y40329115D01*
X73300000Y40773470D01*
X73300000Y41226530D01*
X73211613Y41670885D01*
X73038234Y42089459D01*
X72786527Y42466165D01*
X72466165Y42786527D01*
X72089459Y43038234D01*
X71670885Y43211613D01*
X71226530Y43300000D01*
X70773470Y43300000D01*
X70329115Y43211613D01*
X69910541Y43038234D01*
X69533835Y42786527D01*
X69213473Y42466165D01*
X68961766Y42089459D01*
X68788387Y41670885D01*
X68700000Y41226530D01*
X63300000Y41226530D01*
X63211613Y41670885D01*
X63038234Y42089459D01*
X62786527Y42466165D01*
X62466165Y42786527D01*
X62089459Y43038234D01*
X61670885Y43211613D01*
X61226530Y43300000D01*
X60773470Y43300000D01*
X60329115Y43211613D01*
X59910541Y43038234D01*
X59533835Y42786527D01*
X59213473Y42466165D01*
X58961766Y42089459D01*
X58788387Y41670885D01*
X58700000Y41226530D01*
X47300000Y41226530D01*
X47211613Y41670885D01*
X47038234Y42089459D01*
X46786527Y42466165D01*
X46466165Y42786527D01*
X46089459Y43038234D01*
X45670885Y43211613D01*
X45226530Y43300000D01*
X44773470Y43300000D01*
X44329115Y43211613D01*
X43910541Y43038234D01*
X43533835Y42786527D01*
X43213473Y42466165D01*
X42961766Y42089459D01*
X42788387Y41670885D01*
X42700000Y41226530D01*
X37300000Y41226530D01*
X37211613Y41670885D01*
X37038234Y42089459D01*
X36786527Y42466165D01*
X36466165Y42786527D01*
X36089459Y43038234D01*
X35670885Y43211613D01*
X35226530Y43300000D01*
X34773470Y43300000D01*
X34329115Y43211613D01*
X33910541Y43038234D01*
X33533835Y42786527D01*
X33213473Y42466165D01*
X32961766Y42089459D01*
X32788387Y41670885D01*
X32700000Y41226530D01*
X11300000Y41226530D01*
X11211613Y41670885D01*
X11038234Y42089459D01*
X10786527Y42466165D01*
X10466165Y42786527D01*
X10089459Y43038234D01*
X9670885Y43211613D01*
X9226530Y43300000D01*
X8773470Y43300000D01*
X8329115Y43211613D01*
X7910541Y43038234D01*
X7533835Y42786527D01*
X7213473Y42466165D01*
X6961766Y42089459D01*
X6788387Y41670885D01*
X6700000Y41226530D01*
X325000Y41226530D01*
X325000Y44675000D01*
X79675001Y44675000D01*
X79675001Y37300000D01*
G37*
X79675001Y37300000D02*
X50283577Y37300000D01*
X50225050Y37294236D01*
X50168772Y37277164D01*
X50116906Y37249441D01*
X50071445Y37212132D01*
X50034136Y37166671D01*
X50006413Y37114805D01*
X49989341Y37058527D01*
X49983577Y37000000D01*
X49983577Y10000000D01*
X49989341Y9941473D01*
X50006413Y9885195D01*
X50034136Y9833329D01*
X50071445Y9787868D01*
X50116906Y9750559D01*
X50168772Y9722836D01*
X50225050Y9705764D01*
X50283577Y9700000D01*
X65700000Y9700000D01*
X65700000Y325000D01*
X325000Y325000D01*
X325000Y9900000D01*
X23203572Y9900000D01*
X23223081Y9901921D01*
X23241840Y9907612D01*
X23259129Y9916853D01*
X23274283Y9929289D01*
X23286719Y9944443D01*
X23295960Y9961732D01*
X23301651Y9980491D01*
X23303572Y10000000D01*
X23303572Y37000000D01*
X23700000Y37000000D01*
X23700000Y10000000D01*
X23705764Y9941473D01*
X23722836Y9885195D01*
X23750559Y9833329D01*
X23787868Y9787868D01*
X23833329Y9750559D01*
X23885195Y9722836D01*
X23941473Y9705764D01*
X24000000Y9700000D01*
X49000000Y9700000D01*
X49058527Y9705764D01*
X49114805Y9722836D01*
X49166671Y9750559D01*
X49212132Y9787868D01*
X49249441Y9833329D01*
X49277164Y9885195D01*
X49294236Y9941473D01*
X49300000Y10000000D01*
X49300000Y37000000D01*
X49294236Y37058527D01*
X49277164Y37114805D01*
X49249441Y37166671D01*
X49212132Y37212132D01*
X49166671Y37249441D01*
X49114805Y37277164D01*
X49058527Y37294236D01*
X49000000Y37300000D01*
X24000000Y37300000D01*
X23941473Y37294236D01*
X23885195Y37277164D01*
X23833329Y37249441D01*
X23787868Y37212132D01*
X23750559Y37166671D01*
X23722836Y37114805D01*
X23705764Y37058527D01*
X23700000Y37000000D01*
X23303572Y37000000D01*
X23301651Y37019509D01*
X23295960Y37038268D01*
X23286719Y37055557D01*
X23274283Y37070711D01*
X23259129Y37083147D01*
X23241840Y37092388D01*
X23223081Y37098079D01*
X23203572Y37100000D01*
X325000Y37100000D01*
X325000Y41226530D01*
X6700000Y41226530D01*
X6700000Y40773470D01*
X6788387Y40329115D01*
X6961766Y39910541D01*
X7213473Y39533835D01*
X7533835Y39213473D01*
X7910541Y38961766D01*
X8329115Y38788387D01*
X8773470Y38700000D01*
X9226530Y38700000D01*
X9670885Y38788387D01*
X10089459Y38961766D01*
X10466165Y39213473D01*
X10786527Y39533835D01*
X11038234Y39910541D01*
X11211613Y40329115D01*
X11300000Y40773470D01*
X11300000Y41226530D01*
X32700000Y41226530D01*
X32700000Y40773470D01*
X32788387Y40329115D01*
X32961766Y39910541D01*
X33213473Y39533835D01*
X33533835Y39213473D01*
X33910541Y38961766D01*
X34329115Y38788387D01*
X34773470Y38700000D01*
X35226530Y38700000D01*
X35670885Y38788387D01*
X36089459Y38961766D01*
X36466165Y39213473D01*
X36786527Y39533835D01*
X37038234Y39910541D01*
X37211613Y40329115D01*
X37300000Y40773470D01*
X37300000Y41226530D01*
X42700000Y41226530D01*
X42700000Y40773470D01*
X42788387Y40329115D01*
X42961766Y39910541D01*
X43213473Y39533835D01*
X43533835Y39213473D01*
X43910541Y38961766D01*
X44329115Y38788387D01*
X44773470Y38700000D01*
X45226530Y38700000D01*
X45670885Y38788387D01*
X46089459Y38961766D01*
X46466165Y39213473D01*
X46786527Y39533835D01*
X47038234Y39910541D01*
X47211613Y40329115D01*
X47300000Y40773470D01*
X47300000Y41226530D01*
X58700000Y41226530D01*
X58700000Y40773470D01*
X58788387Y40329115D01*
X58961766Y39910541D01*
X59213473Y39533835D01*
X59533835Y39213473D01*
X59910541Y38961766D01*
X60329115Y38788387D01*
X60773470Y38700000D01*
X61226530Y38700000D01*
X61670885Y38788387D01*
X62089459Y38961766D01*
X62466165Y39213473D01*
X62786527Y39533835D01*
X63038234Y39910541D01*
X63211613Y40329115D01*
X63300000Y40773470D01*
X63300000Y41226530D01*
X68700000Y41226530D01*
X68700000Y40773470D01*
X68788387Y40329115D01*
X68961766Y39910541D01*
X69213473Y39533835D01*
X69533835Y39213473D01*
X69910541Y38961766D01*
X70329115Y38788387D01*
X70773470Y38700000D01*
X71226530Y38700000D01*
X71670885Y38788387D01*
X72089459Y38961766D01*
X72466165Y39213473D01*
X72786527Y39533835D01*
X73038234Y39910541D01*
X73211613Y40329115D01*
X73300000Y40773470D01*
X73300000Y41226530D01*
X73211613Y41670885D01*
X73038234Y42089459D01*
X72786527Y42466165D01*
X72466165Y42786527D01*
X72089459Y43038234D01*
X71670885Y43211613D01*
X71226530Y43300000D01*
X70773470Y43300000D01*
X70329115Y43211613D01*
X69910541Y43038234D01*
X69533835Y42786527D01*
X69213473Y42466165D01*
X68961766Y42089459D01*
X68788387Y41670885D01*
X68700000Y41226530D01*
X63300000Y41226530D01*
X63211613Y41670885D01*
X63038234Y42089459D01*
X62786527Y42466165D01*
X62466165Y42786527D01*
X62089459Y43038234D01*
X61670885Y43211613D01*
X61226530Y43300000D01*
X60773470Y43300000D01*
X60329115Y43211613D01*
X59910541Y43038234D01*
X59533835Y42786527D01*
X59213473Y42466165D01*
X58961766Y42089459D01*
X58788387Y41670885D01*
X58700000Y41226530D01*
X47300000Y41226530D01*
X47211613Y41670885D01*
X47038234Y42089459D01*
X46786527Y42466165D01*
X46466165Y42786527D01*
X46089459Y43038234D01*
X45670885Y43211613D01*
X45226530Y43300000D01*
X44773470Y43300000D01*
X44329115Y43211613D01*
X43910541Y43038234D01*
X43533835Y42786527D01*
X43213473Y42466165D01*
X42961766Y42089459D01*
X42788387Y41670885D01*
X42700000Y41226530D01*
X37300000Y41226530D01*
X37211613Y41670885D01*
X37038234Y42089459D01*
X36786527Y42466165D01*
X36466165Y42786527D01*
X36089459Y43038234D01*
X35670885Y43211613D01*
X35226530Y43300000D01*
X34773470Y43300000D01*
X34329115Y43211613D01*
X33910541Y43038234D01*
X33533835Y42786527D01*
X33213473Y42466165D01*
X32961766Y42089459D01*
X32788387Y41670885D01*
X32700000Y41226530D01*
X11300000Y41226530D01*
X11211613Y41670885D01*
X11038234Y42089459D01*
X10786527Y42466165D01*
X10466165Y42786527D01*
X10089459Y43038234D01*
X9670885Y43211613D01*
X9226530Y43300000D01*
X8773470Y43300000D01*
X8329115Y43211613D01*
X7910541Y43038234D01*
X7533835Y42786527D01*
X7213473Y42466165D01*
X6961766Y42089459D01*
X6788387Y41670885D01*
X6700000Y41226530D01*
X325000Y41226530D01*
X325000Y44675000D01*
X79675001Y44675000D01*
X79675001Y37300000D01*
%TD*%
M02*
