%TF.GenerationSoftware,KiCad,Pcbnew,5.1.6-c6e7f7d~87~ubuntu20.04.1*%
%TF.CreationDate,2020-09-19T15:10:49+02:00*%
%TF.ProjectId,maxim-optimizer,6d617869-6d2d-46f7-9074-696d697a6572,rev?*%
%TF.SameCoordinates,PX3ef1480PY6acfc00*%
%TF.FileFunction,Copper,L2,Bot*%
%TF.FilePolarity,Positive*%
%FSLAX46Y46*%
G04 Gerber Fmt 4.6, Leading zero omitted, Abs format (unit mm)*
G04 Created by KiCad (PCBNEW 5.1.6-c6e7f7d~87~ubuntu20.04.1) date 2020-09-19 15:10:49*
%MOMM*%
%LPD*%
G01*
G04 APERTURE LIST*
%TA.AperFunction,ComponentPad*%
%ADD10C,4.000000*%
%TD*%
%TA.AperFunction,ViaPad*%
%ADD11C,1.000000*%
%TD*%
%TA.AperFunction,ViaPad*%
%ADD12C,0.800000*%
%TD*%
%TA.AperFunction,Conductor*%
%ADD13C,0.200000*%
%TD*%
G04 APERTURE END LIST*
D10*
%TO.P,SP110,1*%
%TO.N,/Out-*%
X21000000Y5000000D03*
%TD*%
%TO.P,SP109,1*%
%TO.N,/Out+*%
X73000000Y5000000D03*
%TD*%
%TO.P,SP108,1*%
%TO.N,/Out12*%
X32000000Y15000000D03*
%TD*%
%TO.P,SP107,1*%
%TO.N,/Out23*%
X59000000Y15000000D03*
%TD*%
%TO.P,SP106,1*%
%TO.N,/Out-*%
X19000000Y41000000D03*
%TD*%
%TO.P,SP105,1*%
%TO.N,/PV1+*%
X9000000Y41000000D03*
%TD*%
%TO.P,SP104,1*%
%TO.N,/Out12*%
X45000000Y41000000D03*
%TD*%
%TO.P,SP103,1*%
%TO.N,/PV2+*%
X35000000Y41000000D03*
%TD*%
%TO.P,SP102,1*%
%TO.N,/Out23*%
X71000000Y41000000D03*
%TD*%
%TO.P,SP101,1*%
%TO.N,/PV3+*%
X61000000Y41000000D03*
%TD*%
D11*
%TO.N,/Out-*%
X16000000Y25500000D03*
X17000000Y35000000D03*
X17500000Y33000000D03*
X17000000Y31000000D03*
X20000000Y31500000D03*
X20000000Y33500000D03*
X20000000Y35500000D03*
X22500000Y36000000D03*
X22500000Y34000000D03*
X21000000Y27500000D03*
X20000000Y26500000D03*
X20000000Y24500000D03*
X20500000Y22500000D03*
X19000000Y20500000D03*
X22500000Y20500000D03*
X22500000Y18500000D03*
X22500000Y17000000D03*
X22500000Y15000000D03*
X22500000Y13500000D03*
X22500000Y11500000D03*
X20500000Y11500000D03*
X19000000Y11500000D03*
X19000000Y13000000D03*
X19000000Y15500000D03*
X19000000Y17500000D03*
X19000000Y19000000D03*
X21000000Y20500000D03*
X20500000Y18500000D03*
X21000000Y16500000D03*
X20500000Y14500000D03*
X2500000Y27000000D03*
X2500000Y25000000D03*
X4000000Y24000000D03*
X7000000Y22500000D03*
X9000000Y23000000D03*
X1500000Y28500000D03*
X1500000Y31000000D03*
X1500000Y33000000D03*
X2500000Y35500000D03*
D12*
%TO.N,/Out12*%
X25000000Y36000000D03*
D11*
X28000000Y36000000D03*
X27000000Y34000000D03*
X27000000Y32000000D03*
X27000000Y29000000D03*
X27000000Y26000000D03*
X29000000Y26000000D03*
X29000000Y23000000D03*
X29000000Y21000000D03*
X26000000Y20000000D03*
X28000000Y18000000D03*
X28000000Y15000000D03*
X28000000Y12000000D03*
X35000000Y20000000D03*
X32000000Y20000000D03*
X36000000Y18000000D03*
X36000000Y13000000D03*
X33500000Y10500000D03*
X45000000Y12000000D03*
X48000000Y12000000D03*
X48000000Y15000000D03*
X45000000Y15000000D03*
X45000000Y18000000D03*
X48000000Y18000000D03*
X48000000Y20000000D03*
X45000000Y20000000D03*
X47000000Y23000000D03*
X46000000Y24000000D03*
X46000000Y26500000D03*
X47000000Y27500000D03*
X45500000Y31500000D03*
X47000000Y32000000D03*
X48000000Y36500000D03*
X46000000Y36500000D03*
X46000000Y34500000D03*
X48000000Y34500000D03*
X42500000Y35000000D03*
X42500000Y33000000D03*
X27000000Y23000000D03*
X42000000Y25500000D03*
%TO.N,/Out23*%
X51000000Y36000000D03*
X54000000Y36000000D03*
X51000000Y34500000D03*
X53500000Y33500000D03*
X53500000Y31500000D03*
X53500000Y29500000D03*
X53500000Y27500000D03*
X53500000Y25000000D03*
X55000000Y26500000D03*
X55500000Y24000000D03*
X54000000Y22500000D03*
X54000000Y20000000D03*
X54000000Y18000000D03*
X54000000Y15500000D03*
X54000000Y12500000D03*
X54000000Y10500000D03*
X57000000Y10500000D03*
X60500000Y10500000D03*
X62000000Y11500000D03*
X62000000Y14000000D03*
X62000000Y17500000D03*
X62000000Y19500000D03*
X59500000Y19500000D03*
X57000000Y19500000D03*
X56000000Y21500000D03*
X70500000Y20500000D03*
X72500000Y20500000D03*
X74000000Y20500000D03*
X74000000Y19000000D03*
X74000000Y17000000D03*
X74000000Y15000000D03*
X74000000Y13000000D03*
X74000000Y11000000D03*
X72000000Y11000000D03*
X71000000Y12500000D03*
X71000000Y15000000D03*
X71000000Y17500000D03*
X72500000Y19000000D03*
X72500000Y16000000D03*
X72500000Y13500000D03*
X72000000Y24000000D03*
X71500000Y26500000D03*
X73000000Y22500000D03*
X72500000Y27500000D03*
X71500000Y31500000D03*
X73000000Y32000000D03*
X73500000Y33500000D03*
X74000000Y34500000D03*
X74500000Y36000000D03*
X72500000Y36000000D03*
X72000000Y34000000D03*
X69000000Y35000000D03*
X69000000Y33000000D03*
X68500000Y31000000D03*
X68000000Y25500000D03*
%TD*%
D13*
%TO.N,/Out12*%
G36*
X48900000Y10100000D02*
G01*
X24100000Y10100000D01*
X24100000Y36900000D01*
X48900000Y36900000D01*
X48900000Y10100000D01*
G37*
X48900000Y10100000D02*
X24100000Y10100000D01*
X24100000Y36900000D01*
X48900000Y36900000D01*
X48900000Y10100000D01*
%TO.N,/Out23*%
G36*
X75183577Y10100000D02*
G01*
X50383577Y10100000D01*
X50383577Y36900000D01*
X75183577Y36900000D01*
X75183577Y10100000D01*
G37*
X75183577Y10100000D02*
X50383577Y10100000D01*
X50383577Y36900000D01*
X75183577Y36900000D01*
X75183577Y10100000D01*
%TO.N,/Out-*%
G36*
X23103572Y10100000D02*
G01*
X325000Y10100000D01*
X325000Y36900000D01*
X23103572Y36900000D01*
X23103572Y10100000D01*
G37*
X23103572Y10100000D02*
X325000Y10100000D01*
X325000Y36900000D01*
X23103572Y36900000D01*
X23103572Y10100000D01*
%TD*%
M02*
