%TF.GenerationSoftware,KiCad,Pcbnew,5.1.6-c6e7f7d~87~ubuntu20.04.1*%
%TF.CreationDate,2020-09-19T15:10:49+02:00*%
%TF.ProjectId,maxim-optimizer,6d617869-6d2d-46f7-9074-696d697a6572,rev?*%
%TF.SameCoordinates,PX3ef1480PY6acfc00*%
%TF.FileFunction,Legend,Top*%
%TF.FilePolarity,Positive*%
%FSLAX46Y46*%
G04 Gerber Fmt 4.6, Leading zero omitted, Abs format (unit mm)*
G04 Created by KiCad (PCBNEW 5.1.6-c6e7f7d~87~ubuntu20.04.1) date 2020-09-19 15:10:49*
%MOMM*%
%LPD*%
G01*
G04 APERTURE LIST*
%ADD10C,0.120000*%
%ADD11C,0.100000*%
%ADD12C,0.200000*%
%ADD13C,0.130000*%
%ADD14C,0.150000*%
G04 APERTURE END LIST*
D10*
%TO.C,SP110*%
X23250000Y5000000D02*
G75*
G03*
X23250000Y5000000I-2250000J0D01*
G01*
%TO.C,SP109*%
X75250000Y5000000D02*
G75*
G03*
X75250000Y5000000I-2250000J0D01*
G01*
%TO.C,SP108*%
X34250000Y15000000D02*
G75*
G03*
X34250000Y15000000I-2250000J0D01*
G01*
%TO.C,SP107*%
X61250000Y15000000D02*
G75*
G03*
X61250000Y15000000I-2250000J0D01*
G01*
%TO.C,SP106*%
X21250000Y41000000D02*
G75*
G03*
X21250000Y41000000I-2250000J0D01*
G01*
%TO.C,SP105*%
X11250000Y41000000D02*
G75*
G03*
X11250000Y41000000I-2250000J0D01*
G01*
%TO.C,SP104*%
X47250000Y41000000D02*
G75*
G03*
X47250000Y41000000I-2250000J0D01*
G01*
%TO.C,SP103*%
X37250000Y41000000D02*
G75*
G03*
X37250000Y41000000I-2250000J0D01*
G01*
%TO.C,SP102*%
X73250000Y41000000D02*
G75*
G03*
X73250000Y41000000I-2250000J0D01*
G01*
%TO.C,SP101*%
X63250000Y41000000D02*
G75*
G03*
X63250000Y41000000I-2250000J0D01*
G01*
D11*
%TO.C,R101*%
X36050000Y3000000D02*
X38450000Y3000000D01*
X38450000Y4500000D02*
X36050000Y4500000D01*
D12*
%TO.C,L401*%
X64900000Y17550000D02*
X64900000Y21150000D01*
X64900000Y21150000D02*
X78600000Y21150000D01*
X78600000Y21150000D02*
X78600000Y17550000D01*
X64900000Y11950000D02*
X64900000Y8350000D01*
X64900000Y8350000D02*
X78600000Y8350000D01*
X78600000Y8350000D02*
X78600000Y11950000D01*
%TO.C,L301*%
X38900000Y17550000D02*
X38900000Y21150000D01*
X38900000Y21150000D02*
X52600000Y21150000D01*
X52600000Y21150000D02*
X52600000Y17550000D01*
X38900000Y11950000D02*
X38900000Y8350000D01*
X38900000Y8350000D02*
X52600000Y8350000D01*
X52600000Y8350000D02*
X52600000Y11950000D01*
%TO.C,L201*%
X12900000Y17550000D02*
X12900000Y21150000D01*
X12900000Y21150000D02*
X26600000Y21150000D01*
X26600000Y21150000D02*
X26600000Y17550000D01*
X12900000Y11950000D02*
X12900000Y8350000D01*
X12900000Y8350000D02*
X26600000Y8350000D01*
X26600000Y8350000D02*
X26600000Y11950000D01*
D11*
%TO.C,D101*%
X44150000Y7350000D02*
X51350000Y7350000D01*
X51350000Y7350000D02*
X51350000Y150000D01*
X51350000Y150000D02*
X44150000Y150000D01*
%TO.C,C418*%
X77200000Y30850000D02*
X73800000Y30850000D01*
X73800000Y32650000D02*
X77200000Y32650000D01*
%TO.C,C417*%
X77200000Y28600000D02*
X73800000Y28600000D01*
X73800000Y30400000D02*
X77200000Y30400000D01*
%TO.C,C416*%
X77200000Y26350000D02*
X73800000Y26350000D01*
X73800000Y28150000D02*
X77200000Y28150000D01*
%TO.C,C415*%
X77200000Y24100000D02*
X73800000Y24100000D01*
X73800000Y25900000D02*
X77200000Y25900000D01*
%TO.C,C414*%
X77200000Y21850000D02*
X73800000Y21850000D01*
X73800000Y23650000D02*
X77200000Y23650000D01*
%TO.C,C413*%
X68201840Y23250000D02*
X65801840Y23250000D01*
X65801840Y21750000D02*
X68201840Y21750000D01*
%TO.C,C412*%
X68050000Y27750000D02*
X70450000Y27750000D01*
X70450000Y29250000D02*
X68050000Y29250000D01*
%TO.C,C411*%
X64800000Y27750000D02*
X67200000Y27750000D01*
X67200000Y29250000D02*
X64800000Y29250000D01*
%TO.C,C410*%
X64800000Y29500000D02*
X67200000Y29500000D01*
X67200000Y31000000D02*
X64800000Y31000000D01*
%TO.C,C409*%
X64800000Y31250000D02*
X67200000Y31250000D01*
X67200000Y32750000D02*
X64800000Y32750000D01*
%TO.C,C408*%
X61250000Y26700000D02*
X61250000Y24300000D01*
X62750000Y24300000D02*
X62750000Y26700000D01*
%TO.C,C407*%
X58650000Y27200000D02*
X58650000Y23800000D01*
X56850000Y23800000D02*
X56850000Y27200000D01*
%TO.C,C406*%
X64300000Y34900000D02*
X67700000Y34900000D01*
X67700000Y33100000D02*
X64300000Y33100000D01*
%TO.C,C405*%
X57700000Y32350000D02*
X54300000Y32350000D01*
X54300000Y34150000D02*
X57700000Y34150000D01*
%TO.C,C404*%
X57700000Y30100000D02*
X54300000Y30100000D01*
X54300000Y31900000D02*
X57700000Y31900000D01*
%TO.C,C403*%
X64300000Y37150000D02*
X67700000Y37150000D01*
X67700000Y35350000D02*
X64300000Y35350000D01*
%TO.C,C402*%
X57700000Y27850000D02*
X54300000Y27850000D01*
X54300000Y29650000D02*
X57700000Y29650000D01*
%TO.C,C401*%
X60900000Y27200000D02*
X60900000Y23800000D01*
X59100000Y23800000D02*
X59100000Y27200000D01*
%TO.C,C318*%
X51200000Y30850000D02*
X47800000Y30850000D01*
X47800000Y32650000D02*
X51200000Y32650000D01*
%TO.C,C317*%
X51200000Y28600000D02*
X47800000Y28600000D01*
X47800000Y30400000D02*
X51200000Y30400000D01*
%TO.C,C316*%
X51200000Y26350000D02*
X47800000Y26350000D01*
X47800000Y28150000D02*
X51200000Y28150000D01*
%TO.C,C315*%
X51200000Y24100000D02*
X47800000Y24100000D01*
X47800000Y25900000D02*
X51200000Y25900000D01*
%TO.C,C314*%
X51200000Y21850000D02*
X47800000Y21850000D01*
X47800000Y23650000D02*
X51200000Y23650000D01*
%TO.C,C313*%
X42201840Y23250000D02*
X39801840Y23250000D01*
X39801840Y21750000D02*
X42201840Y21750000D01*
%TO.C,C312*%
X42050000Y27750000D02*
X44450000Y27750000D01*
X44450000Y29250000D02*
X42050000Y29250000D01*
%TO.C,C311*%
X38800000Y27750000D02*
X41200000Y27750000D01*
X41200000Y29250000D02*
X38800000Y29250000D01*
%TO.C,C310*%
X38800000Y29500000D02*
X41200000Y29500000D01*
X41200000Y31000000D02*
X38800000Y31000000D01*
%TO.C,C309*%
X38800000Y31250000D02*
X41200000Y31250000D01*
X41200000Y32750000D02*
X38800000Y32750000D01*
%TO.C,C308*%
X35250000Y26700000D02*
X35250000Y24300000D01*
X36750000Y24300000D02*
X36750000Y26700000D01*
%TO.C,C307*%
X32650000Y27200000D02*
X32650000Y23800000D01*
X30850000Y23800000D02*
X30850000Y27200000D01*
%TO.C,C306*%
X38300000Y34900000D02*
X41700000Y34900000D01*
X41700000Y33100000D02*
X38300000Y33100000D01*
%TO.C,C305*%
X31700000Y32350000D02*
X28300000Y32350000D01*
X28300000Y34150000D02*
X31700000Y34150000D01*
%TO.C,C304*%
X31700000Y30100000D02*
X28300000Y30100000D01*
X28300000Y31900000D02*
X31700000Y31900000D01*
%TO.C,C303*%
X38300000Y37150000D02*
X41700000Y37150000D01*
X41700000Y35350000D02*
X38300000Y35350000D01*
%TO.C,C302*%
X31700000Y27850000D02*
X28300000Y27850000D01*
X28300000Y29650000D02*
X31700000Y29650000D01*
%TO.C,C301*%
X34900000Y27200000D02*
X34900000Y23800000D01*
X33100000Y23800000D02*
X33100000Y27200000D01*
%TO.C,C218*%
X25200000Y30850000D02*
X21800000Y30850000D01*
X21800000Y32650000D02*
X25200000Y32650000D01*
%TO.C,C217*%
X25200000Y28600000D02*
X21800000Y28600000D01*
X21800000Y30400000D02*
X25200000Y30400000D01*
%TO.C,C216*%
X25200000Y26350000D02*
X21800000Y26350000D01*
X21800000Y28150000D02*
X25200000Y28150000D01*
%TO.C,C215*%
X25200000Y24100000D02*
X21800000Y24100000D01*
X21800000Y25900000D02*
X25200000Y25900000D01*
%TO.C,C214*%
X25200000Y21850000D02*
X21800000Y21850000D01*
X21800000Y23650000D02*
X25200000Y23650000D01*
%TO.C,C213*%
X16201840Y23250000D02*
X13801840Y23250000D01*
X13801840Y21750000D02*
X16201840Y21750000D01*
%TO.C,C212*%
X16050000Y27750000D02*
X18450000Y27750000D01*
X18450000Y29250000D02*
X16050000Y29250000D01*
%TO.C,C211*%
X12800000Y27750000D02*
X15200000Y27750000D01*
X15200000Y29250000D02*
X12800000Y29250000D01*
%TO.C,C210*%
X12800000Y29500000D02*
X15200000Y29500000D01*
X15200000Y31000000D02*
X12800000Y31000000D01*
%TO.C,C209*%
X12800000Y31250000D02*
X15200000Y31250000D01*
X15200000Y32750000D02*
X12800000Y32750000D01*
%TO.C,C208*%
X9250000Y26700000D02*
X9250000Y24300000D01*
X10750000Y24300000D02*
X10750000Y26700000D01*
%TO.C,C207*%
X6650000Y27200000D02*
X6650000Y23800000D01*
X4850000Y23800000D02*
X4850000Y27200000D01*
%TO.C,C206*%
X12300000Y34900000D02*
X15700000Y34900000D01*
X15700000Y33100000D02*
X12300000Y33100000D01*
%TO.C,C205*%
X5700000Y32350000D02*
X2300000Y32350000D01*
X2300000Y34150000D02*
X5700000Y34150000D01*
%TO.C,C204*%
X5700000Y30100000D02*
X2300000Y30100000D01*
X2300000Y31900000D02*
X5700000Y31900000D01*
%TO.C,C203*%
X12300000Y37150000D02*
X15700000Y37150000D01*
X15700000Y35350000D02*
X12300000Y35350000D01*
%TO.C,C202*%
X5700000Y27850000D02*
X2300000Y27850000D01*
X2300000Y29650000D02*
X5700000Y29650000D01*
%TO.C,C201*%
X8900000Y27200000D02*
X8900000Y23800000D01*
X7100000Y23800000D02*
X7100000Y27200000D01*
%TO.C,C101*%
X41450000Y4500000D02*
X39050000Y4500000D01*
X39050000Y3000000D02*
X41450000Y3000000D01*
%TO.C,U201*%
D13*
X18161904Y24028572D02*
X18809523Y24028572D01*
X18885714Y24066667D01*
X18923809Y24104762D01*
X18961904Y24180953D01*
X18961904Y24333334D01*
X18923809Y24409524D01*
X18885714Y24447620D01*
X18809523Y24485715D01*
X18161904Y24485715D01*
X18238095Y24828572D02*
X18200000Y24866667D01*
X18161904Y24942858D01*
X18161904Y25133334D01*
X18200000Y25209524D01*
X18238095Y25247620D01*
X18314285Y25285715D01*
X18390476Y25285715D01*
X18504761Y25247620D01*
X18961904Y24790477D01*
X18961904Y25285715D01*
X18161904Y25780953D02*
X18161904Y25857143D01*
X18200000Y25933334D01*
X18238095Y25971429D01*
X18314285Y26009524D01*
X18466666Y26047620D01*
X18657142Y26047620D01*
X18809523Y26009524D01*
X18885714Y25971429D01*
X18923809Y25933334D01*
X18961904Y25857143D01*
X18961904Y25780953D01*
X18923809Y25704762D01*
X18885714Y25666667D01*
X18809523Y25628572D01*
X18657142Y25590477D01*
X18466666Y25590477D01*
X18314285Y25628572D01*
X18238095Y25666667D01*
X18200000Y25704762D01*
X18161904Y25780953D01*
X18961904Y26809524D02*
X18961904Y26352381D01*
X18961904Y26580953D02*
X18161904Y26580953D01*
X18276190Y26504762D01*
X18352380Y26428572D01*
X18390476Y26352381D01*
%TO.C,U401*%
X70161904Y24028572D02*
X70809523Y24028572D01*
X70885714Y24066667D01*
X70923809Y24104762D01*
X70961904Y24180953D01*
X70961904Y24333334D01*
X70923809Y24409524D01*
X70885714Y24447620D01*
X70809523Y24485715D01*
X70161904Y24485715D01*
X70428571Y25209524D02*
X70961904Y25209524D01*
X70123809Y25019048D02*
X70695238Y24828572D01*
X70695238Y25323810D01*
X70161904Y25780953D02*
X70161904Y25857143D01*
X70200000Y25933334D01*
X70238095Y25971429D01*
X70314285Y26009524D01*
X70466666Y26047620D01*
X70657142Y26047620D01*
X70809523Y26009524D01*
X70885714Y25971429D01*
X70923809Y25933334D01*
X70961904Y25857143D01*
X70961904Y25780953D01*
X70923809Y25704762D01*
X70885714Y25666667D01*
X70809523Y25628572D01*
X70657142Y25590477D01*
X70466666Y25590477D01*
X70314285Y25628572D01*
X70238095Y25666667D01*
X70200000Y25704762D01*
X70161904Y25780953D01*
X70961904Y26809524D02*
X70961904Y26352381D01*
X70961904Y26580953D02*
X70161904Y26580953D01*
X70276190Y26504762D01*
X70352380Y26428572D01*
X70390476Y26352381D01*
%TO.C,U301*%
X44161904Y24028572D02*
X44809523Y24028572D01*
X44885714Y24066667D01*
X44923809Y24104762D01*
X44961904Y24180953D01*
X44961904Y24333334D01*
X44923809Y24409524D01*
X44885714Y24447620D01*
X44809523Y24485715D01*
X44161904Y24485715D01*
X44161904Y24790477D02*
X44161904Y25285715D01*
X44466666Y25019048D01*
X44466666Y25133334D01*
X44504761Y25209524D01*
X44542857Y25247620D01*
X44619047Y25285715D01*
X44809523Y25285715D01*
X44885714Y25247620D01*
X44923809Y25209524D01*
X44961904Y25133334D01*
X44961904Y24904762D01*
X44923809Y24828572D01*
X44885714Y24790477D01*
X44161904Y25780953D02*
X44161904Y25857143D01*
X44200000Y25933334D01*
X44238095Y25971429D01*
X44314285Y26009524D01*
X44466666Y26047620D01*
X44657142Y26047620D01*
X44809523Y26009524D01*
X44885714Y25971429D01*
X44923809Y25933334D01*
X44961904Y25857143D01*
X44961904Y25780953D01*
X44923809Y25704762D01*
X44885714Y25666667D01*
X44809523Y25628572D01*
X44657142Y25590477D01*
X44466666Y25590477D01*
X44314285Y25628572D01*
X44238095Y25666667D01*
X44200000Y25704762D01*
X44161904Y25780953D01*
X44961904Y26809524D02*
X44961904Y26352381D01*
X44961904Y26580953D02*
X44161904Y26580953D01*
X44276190Y26504762D01*
X44352380Y26428572D01*
X44390476Y26352381D01*
%TO.C,SP110*%
D14*
X19880952Y2047620D02*
X20071428Y2047620D01*
X20166666Y2000000D01*
X20261904Y1904762D01*
X20309523Y1714286D01*
X20309523Y1380953D01*
X20261904Y1190477D01*
X20166666Y1095239D01*
X20071428Y1047620D01*
X19880952Y1047620D01*
X19785714Y1095239D01*
X19690476Y1190477D01*
X19642857Y1380953D01*
X19642857Y1714286D01*
X19690476Y1904762D01*
X19785714Y2000000D01*
X19880952Y2047620D01*
X20738095Y2047620D02*
X20738095Y1238096D01*
X20785714Y1142858D01*
X20833333Y1095239D01*
X20928571Y1047620D01*
X21119047Y1047620D01*
X21214285Y1095239D01*
X21261904Y1142858D01*
X21309523Y1238096D01*
X21309523Y2047620D01*
X21642857Y2047620D02*
X22214285Y2047620D01*
X21928571Y1047620D02*
X21928571Y2047620D01*
X22547619Y1428572D02*
X23309523Y1428572D01*
%TO.C,SP109*%
X71880952Y2047620D02*
X72071428Y2047620D01*
X72166666Y2000000D01*
X72261904Y1904762D01*
X72309523Y1714286D01*
X72309523Y1380953D01*
X72261904Y1190477D01*
X72166666Y1095239D01*
X72071428Y1047620D01*
X71880952Y1047620D01*
X71785714Y1095239D01*
X71690476Y1190477D01*
X71642857Y1380953D01*
X71642857Y1714286D01*
X71690476Y1904762D01*
X71785714Y2000000D01*
X71880952Y2047620D01*
X72738095Y2047620D02*
X72738095Y1238096D01*
X72785714Y1142858D01*
X72833333Y1095239D01*
X72928571Y1047620D01*
X73119047Y1047620D01*
X73214285Y1095239D01*
X73261904Y1142858D01*
X73309523Y1238096D01*
X73309523Y2047620D01*
X73642857Y2047620D02*
X74214285Y2047620D01*
X73928571Y1047620D02*
X73928571Y2047620D01*
X74547619Y1428572D02*
X75309523Y1428572D01*
X74928571Y1047620D02*
X74928571Y1809524D01*
%TO.C,SP108*%
X30047619Y12447620D02*
X30238095Y12447620D01*
X30333333Y12400000D01*
X30428571Y12304762D01*
X30476190Y12114286D01*
X30476190Y11780953D01*
X30428571Y11590477D01*
X30333333Y11495239D01*
X30238095Y11447620D01*
X30047619Y11447620D01*
X29952380Y11495239D01*
X29857142Y11590477D01*
X29809523Y11780953D01*
X29809523Y12114286D01*
X29857142Y12304762D01*
X29952380Y12400000D01*
X30047619Y12447620D01*
X30904761Y12447620D02*
X30904761Y11638096D01*
X30952380Y11542858D01*
X31000000Y11495239D01*
X31095238Y11447620D01*
X31285714Y11447620D01*
X31380952Y11495239D01*
X31428571Y11542858D01*
X31476190Y11638096D01*
X31476190Y12447620D01*
X31809523Y12447620D02*
X32380952Y12447620D01*
X32095238Y11447620D02*
X32095238Y12447620D01*
X33238095Y11447620D02*
X32666666Y11447620D01*
X32952380Y11447620D02*
X32952380Y12447620D01*
X32857142Y12304762D01*
X32761904Y12209524D01*
X32666666Y12161905D01*
X33619047Y12352381D02*
X33666666Y12400000D01*
X33761904Y12447620D01*
X34000000Y12447620D01*
X34095238Y12400000D01*
X34142857Y12352381D01*
X34190476Y12257143D01*
X34190476Y12161905D01*
X34142857Y12019048D01*
X33571428Y11447620D01*
X34190476Y11447620D01*
%TO.C,SP107*%
X57047619Y12447620D02*
X57238095Y12447620D01*
X57333333Y12400000D01*
X57428571Y12304762D01*
X57476190Y12114286D01*
X57476190Y11780953D01*
X57428571Y11590477D01*
X57333333Y11495239D01*
X57238095Y11447620D01*
X57047619Y11447620D01*
X56952380Y11495239D01*
X56857142Y11590477D01*
X56809523Y11780953D01*
X56809523Y12114286D01*
X56857142Y12304762D01*
X56952380Y12400000D01*
X57047619Y12447620D01*
X57904761Y12447620D02*
X57904761Y11638096D01*
X57952380Y11542858D01*
X58000000Y11495239D01*
X58095238Y11447620D01*
X58285714Y11447620D01*
X58380952Y11495239D01*
X58428571Y11542858D01*
X58476190Y11638096D01*
X58476190Y12447620D01*
X58809523Y12447620D02*
X59380952Y12447620D01*
X59095238Y11447620D02*
X59095238Y12447620D01*
X59666666Y12352381D02*
X59714285Y12400000D01*
X59809523Y12447620D01*
X60047619Y12447620D01*
X60142857Y12400000D01*
X60190476Y12352381D01*
X60238095Y12257143D01*
X60238095Y12161905D01*
X60190476Y12019048D01*
X59619047Y11447620D01*
X60238095Y11447620D01*
X60571428Y12447620D02*
X61190476Y12447620D01*
X60857142Y12066667D01*
X61000000Y12066667D01*
X61095238Y12019048D01*
X61142857Y11971429D01*
X61190476Y11876191D01*
X61190476Y11638096D01*
X61142857Y11542858D01*
X61095238Y11495239D01*
X61000000Y11447620D01*
X60714285Y11447620D01*
X60619047Y11495239D01*
X60571428Y11542858D01*
%TO.C,SP106*%
X22214285Y40547620D02*
X22214285Y41547620D01*
X22595238Y41547620D01*
X22690476Y41500000D01*
X22738095Y41452381D01*
X22785714Y41357143D01*
X22785714Y41214286D01*
X22738095Y41119048D01*
X22690476Y41071429D01*
X22595238Y41023810D01*
X22214285Y41023810D01*
X23071428Y41547620D02*
X23404761Y40547620D01*
X23738095Y41547620D01*
X24595238Y40547620D02*
X24023809Y40547620D01*
X24309523Y40547620D02*
X24309523Y41547620D01*
X24214285Y41404762D01*
X24119047Y41309524D01*
X24023809Y41261905D01*
X25023809Y40928572D02*
X25785714Y40928572D01*
%TO.C,SP105*%
X2214285Y40547620D02*
X2214285Y41547620D01*
X2595238Y41547620D01*
X2690476Y41500000D01*
X2738095Y41452381D01*
X2785714Y41357143D01*
X2785714Y41214286D01*
X2738095Y41119048D01*
X2690476Y41071429D01*
X2595238Y41023810D01*
X2214285Y41023810D01*
X3071428Y41547620D02*
X3404761Y40547620D01*
X3738095Y41547620D01*
X4595238Y40547620D02*
X4023809Y40547620D01*
X4309523Y40547620D02*
X4309523Y41547620D01*
X4214285Y41404762D01*
X4119047Y41309524D01*
X4023809Y41261905D01*
X5023809Y40928572D02*
X5785714Y40928572D01*
X5404761Y40547620D02*
X5404761Y41309524D01*
%TO.C,SP104*%
X47714285Y40547620D02*
X47714285Y41547620D01*
X48095238Y41547620D01*
X48190476Y41500000D01*
X48238095Y41452381D01*
X48285714Y41357143D01*
X48285714Y41214286D01*
X48238095Y41119048D01*
X48190476Y41071429D01*
X48095238Y41023810D01*
X47714285Y41023810D01*
X48571428Y41547620D02*
X48904761Y40547620D01*
X49238095Y41547620D01*
X49523809Y41452381D02*
X49571428Y41500000D01*
X49666666Y41547620D01*
X49904761Y41547620D01*
X50000000Y41500000D01*
X50047619Y41452381D01*
X50095238Y41357143D01*
X50095238Y41261905D01*
X50047619Y41119048D01*
X49476190Y40547620D01*
X50095238Y40547620D01*
X50523809Y40928572D02*
X51285714Y40928572D01*
%TO.C,SP103*%
X28714285Y40547620D02*
X28714285Y41547620D01*
X29095238Y41547620D01*
X29190476Y41500000D01*
X29238095Y41452381D01*
X29285714Y41357143D01*
X29285714Y41214286D01*
X29238095Y41119048D01*
X29190476Y41071429D01*
X29095238Y41023810D01*
X28714285Y41023810D01*
X29571428Y41547620D02*
X29904761Y40547620D01*
X30238095Y41547620D01*
X30523809Y41452381D02*
X30571428Y41500000D01*
X30666666Y41547620D01*
X30904761Y41547620D01*
X31000000Y41500000D01*
X31047619Y41452381D01*
X31095238Y41357143D01*
X31095238Y41261905D01*
X31047619Y41119048D01*
X30476190Y40547620D01*
X31095238Y40547620D01*
X31523809Y40928572D02*
X32285714Y40928572D01*
X31904761Y40547620D02*
X31904761Y41309524D01*
%TO.C,SP102*%
X73714285Y40547620D02*
X73714285Y41547620D01*
X74095238Y41547620D01*
X74190476Y41500000D01*
X74238095Y41452381D01*
X74285714Y41357143D01*
X74285714Y41214286D01*
X74238095Y41119048D01*
X74190476Y41071429D01*
X74095238Y41023810D01*
X73714285Y41023810D01*
X74571428Y41547620D02*
X74904761Y40547620D01*
X75238095Y41547620D01*
X75476190Y41547620D02*
X76095238Y41547620D01*
X75761904Y41166667D01*
X75904761Y41166667D01*
X76000000Y41119048D01*
X76047619Y41071429D01*
X76095238Y40976191D01*
X76095238Y40738096D01*
X76047619Y40642858D01*
X76000000Y40595239D01*
X75904761Y40547620D01*
X75619047Y40547620D01*
X75523809Y40595239D01*
X75476190Y40642858D01*
X76523809Y40928572D02*
X77285714Y40928572D01*
%TO.C,SP101*%
X54714285Y40547620D02*
X54714285Y41547620D01*
X55095238Y41547620D01*
X55190476Y41500000D01*
X55238095Y41452381D01*
X55285714Y41357143D01*
X55285714Y41214286D01*
X55238095Y41119048D01*
X55190476Y41071429D01*
X55095238Y41023810D01*
X54714285Y41023810D01*
X55571428Y41547620D02*
X55904761Y40547620D01*
X56238095Y41547620D01*
X56476190Y41547620D02*
X57095238Y41547620D01*
X56761904Y41166667D01*
X56904761Y41166667D01*
X57000000Y41119048D01*
X57047619Y41071429D01*
X57095238Y40976191D01*
X57095238Y40738096D01*
X57047619Y40642858D01*
X57000000Y40595239D01*
X56904761Y40547620D01*
X56619047Y40547620D01*
X56523809Y40595239D01*
X56476190Y40642858D01*
X57523809Y40928572D02*
X58285714Y40928572D01*
X57904761Y40547620D02*
X57904761Y41309524D01*
%TO.C,R101*%
D13*
X33354761Y3388096D02*
X33088095Y3769048D01*
X32897619Y3388096D02*
X32897619Y4188096D01*
X33202380Y4188096D01*
X33278571Y4150000D01*
X33316666Y4111905D01*
X33354761Y4035715D01*
X33354761Y3921429D01*
X33316666Y3845239D01*
X33278571Y3807143D01*
X33202380Y3769048D01*
X32897619Y3769048D01*
X34116666Y3388096D02*
X33659523Y3388096D01*
X33888095Y3388096D02*
X33888095Y4188096D01*
X33811904Y4073810D01*
X33735714Y3997620D01*
X33659523Y3959524D01*
X34611904Y4188096D02*
X34688095Y4188096D01*
X34764285Y4150000D01*
X34802380Y4111905D01*
X34840476Y4035715D01*
X34878571Y3883334D01*
X34878571Y3692858D01*
X34840476Y3540477D01*
X34802380Y3464286D01*
X34764285Y3426191D01*
X34688095Y3388096D01*
X34611904Y3388096D01*
X34535714Y3426191D01*
X34497619Y3464286D01*
X34459523Y3540477D01*
X34421428Y3692858D01*
X34421428Y3883334D01*
X34459523Y4035715D01*
X34497619Y4111905D01*
X34535714Y4150000D01*
X34611904Y4188096D01*
X35640476Y3388096D02*
X35183333Y3388096D01*
X35411904Y3388096D02*
X35411904Y4188096D01*
X35335714Y4073810D01*
X35259523Y3997620D01*
X35183333Y3959524D01*
%TO.C,L401*%
X64211904Y13854762D02*
X64211904Y13473810D01*
X63411904Y13473810D01*
X63678571Y14464286D02*
X64211904Y14464286D01*
X63373809Y14273810D02*
X63945238Y14083334D01*
X63945238Y14578572D01*
X63411904Y15035715D02*
X63411904Y15111905D01*
X63450000Y15188096D01*
X63488095Y15226191D01*
X63564285Y15264286D01*
X63716666Y15302381D01*
X63907142Y15302381D01*
X64059523Y15264286D01*
X64135714Y15226191D01*
X64173809Y15188096D01*
X64211904Y15111905D01*
X64211904Y15035715D01*
X64173809Y14959524D01*
X64135714Y14921429D01*
X64059523Y14883334D01*
X63907142Y14845239D01*
X63716666Y14845239D01*
X63564285Y14883334D01*
X63488095Y14921429D01*
X63450000Y14959524D01*
X63411904Y15035715D01*
X64211904Y16064286D02*
X64211904Y15607143D01*
X64211904Y15835715D02*
X63411904Y15835715D01*
X63526190Y15759524D01*
X63602380Y15683334D01*
X63640476Y15607143D01*
%TO.C,L301*%
X38211904Y13854762D02*
X38211904Y13473810D01*
X37411904Y13473810D01*
X37411904Y14045239D02*
X37411904Y14540477D01*
X37716666Y14273810D01*
X37716666Y14388096D01*
X37754761Y14464286D01*
X37792857Y14502381D01*
X37869047Y14540477D01*
X38059523Y14540477D01*
X38135714Y14502381D01*
X38173809Y14464286D01*
X38211904Y14388096D01*
X38211904Y14159524D01*
X38173809Y14083334D01*
X38135714Y14045239D01*
X37411904Y15035715D02*
X37411904Y15111905D01*
X37450000Y15188096D01*
X37488095Y15226191D01*
X37564285Y15264286D01*
X37716666Y15302381D01*
X37907142Y15302381D01*
X38059523Y15264286D01*
X38135714Y15226191D01*
X38173809Y15188096D01*
X38211904Y15111905D01*
X38211904Y15035715D01*
X38173809Y14959524D01*
X38135714Y14921429D01*
X38059523Y14883334D01*
X37907142Y14845239D01*
X37716666Y14845239D01*
X37564285Y14883334D01*
X37488095Y14921429D01*
X37450000Y14959524D01*
X37411904Y15035715D01*
X38211904Y16064286D02*
X38211904Y15607143D01*
X38211904Y15835715D02*
X37411904Y15835715D01*
X37526190Y15759524D01*
X37602380Y15683334D01*
X37640476Y15607143D01*
%TO.C,L201*%
X12211904Y13854762D02*
X12211904Y13473810D01*
X11411904Y13473810D01*
X11488095Y14083334D02*
X11450000Y14121429D01*
X11411904Y14197620D01*
X11411904Y14388096D01*
X11450000Y14464286D01*
X11488095Y14502381D01*
X11564285Y14540477D01*
X11640476Y14540477D01*
X11754761Y14502381D01*
X12211904Y14045239D01*
X12211904Y14540477D01*
X11411904Y15035715D02*
X11411904Y15111905D01*
X11450000Y15188096D01*
X11488095Y15226191D01*
X11564285Y15264286D01*
X11716666Y15302381D01*
X11907142Y15302381D01*
X12059523Y15264286D01*
X12135714Y15226191D01*
X12173809Y15188096D01*
X12211904Y15111905D01*
X12211904Y15035715D01*
X12173809Y14959524D01*
X12135714Y14921429D01*
X12059523Y14883334D01*
X11907142Y14845239D01*
X11716666Y14845239D01*
X11564285Y14883334D01*
X11488095Y14921429D01*
X11450000Y14959524D01*
X11411904Y15035715D01*
X12211904Y16064286D02*
X12211904Y15607143D01*
X12211904Y15835715D02*
X11411904Y15835715D01*
X11526190Y15759524D01*
X11602380Y15683334D01*
X11640476Y15607143D01*
%TO.C,D101*%
X51897619Y3138096D02*
X51897619Y3938096D01*
X52088095Y3938096D01*
X52202380Y3900000D01*
X52278571Y3823810D01*
X52316666Y3747620D01*
X52354761Y3595239D01*
X52354761Y3480953D01*
X52316666Y3328572D01*
X52278571Y3252381D01*
X52202380Y3176191D01*
X52088095Y3138096D01*
X51897619Y3138096D01*
X53116666Y3138096D02*
X52659523Y3138096D01*
X52888095Y3138096D02*
X52888095Y3938096D01*
X52811904Y3823810D01*
X52735714Y3747620D01*
X52659523Y3709524D01*
X53611904Y3938096D02*
X53688095Y3938096D01*
X53764285Y3900000D01*
X53802380Y3861905D01*
X53840476Y3785715D01*
X53878571Y3633334D01*
X53878571Y3442858D01*
X53840476Y3290477D01*
X53802380Y3214286D01*
X53764285Y3176191D01*
X53688095Y3138096D01*
X53611904Y3138096D01*
X53535714Y3176191D01*
X53497619Y3214286D01*
X53459523Y3290477D01*
X53421428Y3442858D01*
X53421428Y3633334D01*
X53459523Y3785715D01*
X53497619Y3861905D01*
X53535714Y3900000D01*
X53611904Y3938096D01*
X54640476Y3138096D02*
X54183333Y3138096D01*
X54411904Y3138096D02*
X54411904Y3938096D01*
X54335714Y3823810D01*
X54259523Y3747620D01*
X54183333Y3709524D01*
%TO.C,C418*%
X78285714Y30854762D02*
X78323809Y30816667D01*
X78361904Y30702381D01*
X78361904Y30626191D01*
X78323809Y30511905D01*
X78247619Y30435715D01*
X78171428Y30397620D01*
X78019047Y30359524D01*
X77904761Y30359524D01*
X77752380Y30397620D01*
X77676190Y30435715D01*
X77600000Y30511905D01*
X77561904Y30626191D01*
X77561904Y30702381D01*
X77600000Y30816667D01*
X77638095Y30854762D01*
X77828571Y31540477D02*
X78361904Y31540477D01*
X77523809Y31350000D02*
X78095238Y31159524D01*
X78095238Y31654762D01*
X78361904Y32378572D02*
X78361904Y31921429D01*
X78361904Y32150000D02*
X77561904Y32150000D01*
X77676190Y32073810D01*
X77752380Y31997620D01*
X77790476Y31921429D01*
X77904761Y32835715D02*
X77866666Y32759524D01*
X77828571Y32721429D01*
X77752380Y32683334D01*
X77714285Y32683334D01*
X77638095Y32721429D01*
X77600000Y32759524D01*
X77561904Y32835715D01*
X77561904Y32988096D01*
X77600000Y33064286D01*
X77638095Y33102381D01*
X77714285Y33140477D01*
X77752380Y33140477D01*
X77828571Y33102381D01*
X77866666Y33064286D01*
X77904761Y32988096D01*
X77904761Y32835715D01*
X77942857Y32759524D01*
X77980952Y32721429D01*
X78057142Y32683334D01*
X78209523Y32683334D01*
X78285714Y32721429D01*
X78323809Y32759524D01*
X78361904Y32835715D01*
X78361904Y32988096D01*
X78323809Y33064286D01*
X78285714Y33102381D01*
X78209523Y33140477D01*
X78057142Y33140477D01*
X77980952Y33102381D01*
X77942857Y33064286D01*
X77904761Y32988096D01*
%TO.C,C417*%
X73285714Y28604762D02*
X73323809Y28566667D01*
X73361904Y28452381D01*
X73361904Y28376191D01*
X73323809Y28261905D01*
X73247619Y28185715D01*
X73171428Y28147620D01*
X73019047Y28109524D01*
X72904761Y28109524D01*
X72752380Y28147620D01*
X72676190Y28185715D01*
X72600000Y28261905D01*
X72561904Y28376191D01*
X72561904Y28452381D01*
X72600000Y28566667D01*
X72638095Y28604762D01*
X72828571Y29290477D02*
X73361904Y29290477D01*
X72523809Y29100000D02*
X73095238Y28909524D01*
X73095238Y29404762D01*
X73361904Y30128572D02*
X73361904Y29671429D01*
X73361904Y29900000D02*
X72561904Y29900000D01*
X72676190Y29823810D01*
X72752380Y29747620D01*
X72790476Y29671429D01*
X72561904Y30395239D02*
X72561904Y30928572D01*
X73361904Y30585715D01*
%TO.C,C416*%
X78285714Y26354762D02*
X78323809Y26316667D01*
X78361904Y26202381D01*
X78361904Y26126191D01*
X78323809Y26011905D01*
X78247619Y25935715D01*
X78171428Y25897620D01*
X78019047Y25859524D01*
X77904761Y25859524D01*
X77752380Y25897620D01*
X77676190Y25935715D01*
X77600000Y26011905D01*
X77561904Y26126191D01*
X77561904Y26202381D01*
X77600000Y26316667D01*
X77638095Y26354762D01*
X77828571Y27040477D02*
X78361904Y27040477D01*
X77523809Y26850000D02*
X78095238Y26659524D01*
X78095238Y27154762D01*
X78361904Y27878572D02*
X78361904Y27421429D01*
X78361904Y27650000D02*
X77561904Y27650000D01*
X77676190Y27573810D01*
X77752380Y27497620D01*
X77790476Y27421429D01*
X77561904Y28564286D02*
X77561904Y28411905D01*
X77600000Y28335715D01*
X77638095Y28297620D01*
X77752380Y28221429D01*
X77904761Y28183334D01*
X78209523Y28183334D01*
X78285714Y28221429D01*
X78323809Y28259524D01*
X78361904Y28335715D01*
X78361904Y28488096D01*
X78323809Y28564286D01*
X78285714Y28602381D01*
X78209523Y28640477D01*
X78019047Y28640477D01*
X77942857Y28602381D01*
X77904761Y28564286D01*
X77866666Y28488096D01*
X77866666Y28335715D01*
X77904761Y28259524D01*
X77942857Y28221429D01*
X78019047Y28183334D01*
%TO.C,C415*%
X73285714Y24104762D02*
X73323809Y24066667D01*
X73361904Y23952381D01*
X73361904Y23876191D01*
X73323809Y23761905D01*
X73247619Y23685715D01*
X73171428Y23647620D01*
X73019047Y23609524D01*
X72904761Y23609524D01*
X72752380Y23647620D01*
X72676190Y23685715D01*
X72600000Y23761905D01*
X72561904Y23876191D01*
X72561904Y23952381D01*
X72600000Y24066667D01*
X72638095Y24104762D01*
X72828571Y24790477D02*
X73361904Y24790477D01*
X72523809Y24600000D02*
X73095238Y24409524D01*
X73095238Y24904762D01*
X73361904Y25628572D02*
X73361904Y25171429D01*
X73361904Y25400000D02*
X72561904Y25400000D01*
X72676190Y25323810D01*
X72752380Y25247620D01*
X72790476Y25171429D01*
X72561904Y26352381D02*
X72561904Y25971429D01*
X72942857Y25933334D01*
X72904761Y25971429D01*
X72866666Y26047620D01*
X72866666Y26238096D01*
X72904761Y26314286D01*
X72942857Y26352381D01*
X73019047Y26390477D01*
X73209523Y26390477D01*
X73285714Y26352381D01*
X73323809Y26314286D01*
X73361904Y26238096D01*
X73361904Y26047620D01*
X73323809Y25971429D01*
X73285714Y25933334D01*
%TO.C,C414*%
X78285714Y22104762D02*
X78323809Y22066667D01*
X78361904Y21952381D01*
X78361904Y21876191D01*
X78323809Y21761905D01*
X78247619Y21685715D01*
X78171428Y21647620D01*
X78019047Y21609524D01*
X77904761Y21609524D01*
X77752380Y21647620D01*
X77676190Y21685715D01*
X77600000Y21761905D01*
X77561904Y21876191D01*
X77561904Y21952381D01*
X77600000Y22066667D01*
X77638095Y22104762D01*
X77828571Y22790477D02*
X78361904Y22790477D01*
X77523809Y22600000D02*
X78095238Y22409524D01*
X78095238Y22904762D01*
X78361904Y23628572D02*
X78361904Y23171429D01*
X78361904Y23400000D02*
X77561904Y23400000D01*
X77676190Y23323810D01*
X77752380Y23247620D01*
X77790476Y23171429D01*
X77828571Y24314286D02*
X78361904Y24314286D01*
X77523809Y24123810D02*
X78095238Y23933334D01*
X78095238Y24428572D01*
%TO.C,C413*%
X69354761Y22214286D02*
X69316666Y22176191D01*
X69202380Y22138096D01*
X69126190Y22138096D01*
X69011904Y22176191D01*
X68935714Y22252381D01*
X68897619Y22328572D01*
X68859523Y22480953D01*
X68859523Y22595239D01*
X68897619Y22747620D01*
X68935714Y22823810D01*
X69011904Y22900000D01*
X69126190Y22938096D01*
X69202380Y22938096D01*
X69316666Y22900000D01*
X69354761Y22861905D01*
X70040476Y22671429D02*
X70040476Y22138096D01*
X69850000Y22976191D02*
X69659523Y22404762D01*
X70154761Y22404762D01*
X70878571Y22138096D02*
X70421428Y22138096D01*
X70650000Y22138096D02*
X70650000Y22938096D01*
X70573809Y22823810D01*
X70497619Y22747620D01*
X70421428Y22709524D01*
X71145238Y22938096D02*
X71640476Y22938096D01*
X71373809Y22633334D01*
X71488095Y22633334D01*
X71564285Y22595239D01*
X71602380Y22557143D01*
X71640476Y22480953D01*
X71640476Y22290477D01*
X71602380Y22214286D01*
X71564285Y22176191D01*
X71488095Y22138096D01*
X71259523Y22138096D01*
X71183333Y22176191D01*
X71145238Y22214286D01*
%TO.C,C412*%
X71785714Y28104762D02*
X71823809Y28066667D01*
X71861904Y27952381D01*
X71861904Y27876191D01*
X71823809Y27761905D01*
X71747619Y27685715D01*
X71671428Y27647620D01*
X71519047Y27609524D01*
X71404761Y27609524D01*
X71252380Y27647620D01*
X71176190Y27685715D01*
X71100000Y27761905D01*
X71061904Y27876191D01*
X71061904Y27952381D01*
X71100000Y28066667D01*
X71138095Y28104762D01*
X71328571Y28790477D02*
X71861904Y28790477D01*
X71023809Y28600000D02*
X71595238Y28409524D01*
X71595238Y28904762D01*
X71861904Y29628572D02*
X71861904Y29171429D01*
X71861904Y29400000D02*
X71061904Y29400000D01*
X71176190Y29323810D01*
X71252380Y29247620D01*
X71290476Y29171429D01*
X71138095Y29933334D02*
X71100000Y29971429D01*
X71061904Y30047620D01*
X71061904Y30238096D01*
X71100000Y30314286D01*
X71138095Y30352381D01*
X71214285Y30390477D01*
X71290476Y30390477D01*
X71404761Y30352381D01*
X71861904Y29895239D01*
X71861904Y30390477D01*
%TO.C,C411*%
X62104761Y28214286D02*
X62066666Y28176191D01*
X61952380Y28138096D01*
X61876190Y28138096D01*
X61761904Y28176191D01*
X61685714Y28252381D01*
X61647619Y28328572D01*
X61609523Y28480953D01*
X61609523Y28595239D01*
X61647619Y28747620D01*
X61685714Y28823810D01*
X61761904Y28900000D01*
X61876190Y28938096D01*
X61952380Y28938096D01*
X62066666Y28900000D01*
X62104761Y28861905D01*
X62790476Y28671429D02*
X62790476Y28138096D01*
X62600000Y28976191D02*
X62409523Y28404762D01*
X62904761Y28404762D01*
X63628571Y28138096D02*
X63171428Y28138096D01*
X63400000Y28138096D02*
X63400000Y28938096D01*
X63323809Y28823810D01*
X63247619Y28747620D01*
X63171428Y28709524D01*
X64390476Y28138096D02*
X63933333Y28138096D01*
X64161904Y28138096D02*
X64161904Y28938096D01*
X64085714Y28823810D01*
X64009523Y28747620D01*
X63933333Y28709524D01*
%TO.C,C410*%
X68354761Y29714286D02*
X68316666Y29676191D01*
X68202380Y29638096D01*
X68126190Y29638096D01*
X68011904Y29676191D01*
X67935714Y29752381D01*
X67897619Y29828572D01*
X67859523Y29980953D01*
X67859523Y30095239D01*
X67897619Y30247620D01*
X67935714Y30323810D01*
X68011904Y30400000D01*
X68126190Y30438096D01*
X68202380Y30438096D01*
X68316666Y30400000D01*
X68354761Y30361905D01*
X69040476Y30171429D02*
X69040476Y29638096D01*
X68850000Y30476191D02*
X68659523Y29904762D01*
X69154761Y29904762D01*
X69878571Y29638096D02*
X69421428Y29638096D01*
X69650000Y29638096D02*
X69650000Y30438096D01*
X69573809Y30323810D01*
X69497619Y30247620D01*
X69421428Y30209524D01*
X70373809Y30438096D02*
X70450000Y30438096D01*
X70526190Y30400000D01*
X70564285Y30361905D01*
X70602380Y30285715D01*
X70640476Y30133334D01*
X70640476Y29942858D01*
X70602380Y29790477D01*
X70564285Y29714286D01*
X70526190Y29676191D01*
X70450000Y29638096D01*
X70373809Y29638096D01*
X70297619Y29676191D01*
X70259523Y29714286D01*
X70221428Y29790477D01*
X70183333Y29942858D01*
X70183333Y30133334D01*
X70221428Y30285715D01*
X70259523Y30361905D01*
X70297619Y30400000D01*
X70373809Y30438096D01*
%TO.C,C409*%
X68354761Y31714286D02*
X68316666Y31676191D01*
X68202380Y31638096D01*
X68126190Y31638096D01*
X68011904Y31676191D01*
X67935714Y31752381D01*
X67897619Y31828572D01*
X67859523Y31980953D01*
X67859523Y32095239D01*
X67897619Y32247620D01*
X67935714Y32323810D01*
X68011904Y32400000D01*
X68126190Y32438096D01*
X68202380Y32438096D01*
X68316666Y32400000D01*
X68354761Y32361905D01*
X69040476Y32171429D02*
X69040476Y31638096D01*
X68850000Y32476191D02*
X68659523Y31904762D01*
X69154761Y31904762D01*
X69611904Y32438096D02*
X69688095Y32438096D01*
X69764285Y32400000D01*
X69802380Y32361905D01*
X69840476Y32285715D01*
X69878571Y32133334D01*
X69878571Y31942858D01*
X69840476Y31790477D01*
X69802380Y31714286D01*
X69764285Y31676191D01*
X69688095Y31638096D01*
X69611904Y31638096D01*
X69535714Y31676191D01*
X69497619Y31714286D01*
X69459523Y31790477D01*
X69421428Y31942858D01*
X69421428Y32133334D01*
X69459523Y32285715D01*
X69497619Y32361905D01*
X69535714Y32400000D01*
X69611904Y32438096D01*
X70259523Y31638096D02*
X70411904Y31638096D01*
X70488095Y31676191D01*
X70526190Y31714286D01*
X70602380Y31828572D01*
X70640476Y31980953D01*
X70640476Y32285715D01*
X70602380Y32361905D01*
X70564285Y32400000D01*
X70488095Y32438096D01*
X70335714Y32438096D01*
X70259523Y32400000D01*
X70221428Y32361905D01*
X70183333Y32285715D01*
X70183333Y32095239D01*
X70221428Y32019048D01*
X70259523Y31980953D01*
X70335714Y31942858D01*
X70488095Y31942858D01*
X70564285Y31980953D01*
X70602380Y32019048D01*
X70640476Y32095239D01*
%TO.C,C408*%
X62285714Y21104762D02*
X62323809Y21066667D01*
X62361904Y20952381D01*
X62361904Y20876191D01*
X62323809Y20761905D01*
X62247619Y20685715D01*
X62171428Y20647620D01*
X62019047Y20609524D01*
X61904761Y20609524D01*
X61752380Y20647620D01*
X61676190Y20685715D01*
X61600000Y20761905D01*
X61561904Y20876191D01*
X61561904Y20952381D01*
X61600000Y21066667D01*
X61638095Y21104762D01*
X61828571Y21790477D02*
X62361904Y21790477D01*
X61523809Y21600000D02*
X62095238Y21409524D01*
X62095238Y21904762D01*
X61561904Y22361905D02*
X61561904Y22438096D01*
X61600000Y22514286D01*
X61638095Y22552381D01*
X61714285Y22590477D01*
X61866666Y22628572D01*
X62057142Y22628572D01*
X62209523Y22590477D01*
X62285714Y22552381D01*
X62323809Y22514286D01*
X62361904Y22438096D01*
X62361904Y22361905D01*
X62323809Y22285715D01*
X62285714Y22247620D01*
X62209523Y22209524D01*
X62057142Y22171429D01*
X61866666Y22171429D01*
X61714285Y22209524D01*
X61638095Y22247620D01*
X61600000Y22285715D01*
X61561904Y22361905D01*
X61904761Y23085715D02*
X61866666Y23009524D01*
X61828571Y22971429D01*
X61752380Y22933334D01*
X61714285Y22933334D01*
X61638095Y22971429D01*
X61600000Y23009524D01*
X61561904Y23085715D01*
X61561904Y23238096D01*
X61600000Y23314286D01*
X61638095Y23352381D01*
X61714285Y23390477D01*
X61752380Y23390477D01*
X61828571Y23352381D01*
X61866666Y23314286D01*
X61904761Y23238096D01*
X61904761Y23085715D01*
X61942857Y23009524D01*
X61980952Y22971429D01*
X62057142Y22933334D01*
X62209523Y22933334D01*
X62285714Y22971429D01*
X62323809Y23009524D01*
X62361904Y23085715D01*
X62361904Y23238096D01*
X62323809Y23314286D01*
X62285714Y23352381D01*
X62209523Y23390477D01*
X62057142Y23390477D01*
X61980952Y23352381D01*
X61942857Y23314286D01*
X61904761Y23238096D01*
%TO.C,C407*%
X58035714Y21104762D02*
X58073809Y21066667D01*
X58111904Y20952381D01*
X58111904Y20876191D01*
X58073809Y20761905D01*
X57997619Y20685715D01*
X57921428Y20647620D01*
X57769047Y20609524D01*
X57654761Y20609524D01*
X57502380Y20647620D01*
X57426190Y20685715D01*
X57350000Y20761905D01*
X57311904Y20876191D01*
X57311904Y20952381D01*
X57350000Y21066667D01*
X57388095Y21104762D01*
X57578571Y21790477D02*
X58111904Y21790477D01*
X57273809Y21600000D02*
X57845238Y21409524D01*
X57845238Y21904762D01*
X57311904Y22361905D02*
X57311904Y22438096D01*
X57350000Y22514286D01*
X57388095Y22552381D01*
X57464285Y22590477D01*
X57616666Y22628572D01*
X57807142Y22628572D01*
X57959523Y22590477D01*
X58035714Y22552381D01*
X58073809Y22514286D01*
X58111904Y22438096D01*
X58111904Y22361905D01*
X58073809Y22285715D01*
X58035714Y22247620D01*
X57959523Y22209524D01*
X57807142Y22171429D01*
X57616666Y22171429D01*
X57464285Y22209524D01*
X57388095Y22247620D01*
X57350000Y22285715D01*
X57311904Y22361905D01*
X57311904Y22895239D02*
X57311904Y23428572D01*
X58111904Y23085715D01*
%TO.C,C406*%
X68604761Y33714286D02*
X68566666Y33676191D01*
X68452380Y33638096D01*
X68376190Y33638096D01*
X68261904Y33676191D01*
X68185714Y33752381D01*
X68147619Y33828572D01*
X68109523Y33980953D01*
X68109523Y34095239D01*
X68147619Y34247620D01*
X68185714Y34323810D01*
X68261904Y34400000D01*
X68376190Y34438096D01*
X68452380Y34438096D01*
X68566666Y34400000D01*
X68604761Y34361905D01*
X69290476Y34171429D02*
X69290476Y33638096D01*
X69100000Y34476191D02*
X68909523Y33904762D01*
X69404761Y33904762D01*
X69861904Y34438096D02*
X69938095Y34438096D01*
X70014285Y34400000D01*
X70052380Y34361905D01*
X70090476Y34285715D01*
X70128571Y34133334D01*
X70128571Y33942858D01*
X70090476Y33790477D01*
X70052380Y33714286D01*
X70014285Y33676191D01*
X69938095Y33638096D01*
X69861904Y33638096D01*
X69785714Y33676191D01*
X69747619Y33714286D01*
X69709523Y33790477D01*
X69671428Y33942858D01*
X69671428Y34133334D01*
X69709523Y34285715D01*
X69747619Y34361905D01*
X69785714Y34400000D01*
X69861904Y34438096D01*
X70814285Y34438096D02*
X70661904Y34438096D01*
X70585714Y34400000D01*
X70547619Y34361905D01*
X70471428Y34247620D01*
X70433333Y34095239D01*
X70433333Y33790477D01*
X70471428Y33714286D01*
X70509523Y33676191D01*
X70585714Y33638096D01*
X70738095Y33638096D01*
X70814285Y33676191D01*
X70852380Y33714286D01*
X70890476Y33790477D01*
X70890476Y33980953D01*
X70852380Y34057143D01*
X70814285Y34095239D01*
X70738095Y34133334D01*
X70585714Y34133334D01*
X70509523Y34095239D01*
X70471428Y34057143D01*
X70433333Y33980953D01*
%TO.C,C405*%
X58604761Y32964286D02*
X58566666Y32926191D01*
X58452380Y32888096D01*
X58376190Y32888096D01*
X58261904Y32926191D01*
X58185714Y33002381D01*
X58147619Y33078572D01*
X58109523Y33230953D01*
X58109523Y33345239D01*
X58147619Y33497620D01*
X58185714Y33573810D01*
X58261904Y33650000D01*
X58376190Y33688096D01*
X58452380Y33688096D01*
X58566666Y33650000D01*
X58604761Y33611905D01*
X59290476Y33421429D02*
X59290476Y32888096D01*
X59100000Y33726191D02*
X58909523Y33154762D01*
X59404761Y33154762D01*
X59861904Y33688096D02*
X59938095Y33688096D01*
X60014285Y33650000D01*
X60052380Y33611905D01*
X60090476Y33535715D01*
X60128571Y33383334D01*
X60128571Y33192858D01*
X60090476Y33040477D01*
X60052380Y32964286D01*
X60014285Y32926191D01*
X59938095Y32888096D01*
X59861904Y32888096D01*
X59785714Y32926191D01*
X59747619Y32964286D01*
X59709523Y33040477D01*
X59671428Y33192858D01*
X59671428Y33383334D01*
X59709523Y33535715D01*
X59747619Y33611905D01*
X59785714Y33650000D01*
X59861904Y33688096D01*
X60852380Y33688096D02*
X60471428Y33688096D01*
X60433333Y33307143D01*
X60471428Y33345239D01*
X60547619Y33383334D01*
X60738095Y33383334D01*
X60814285Y33345239D01*
X60852380Y33307143D01*
X60890476Y33230953D01*
X60890476Y33040477D01*
X60852380Y32964286D01*
X60814285Y32926191D01*
X60738095Y32888096D01*
X60547619Y32888096D01*
X60471428Y32926191D01*
X60433333Y32964286D01*
%TO.C,C404*%
X58604761Y30714286D02*
X58566666Y30676191D01*
X58452380Y30638096D01*
X58376190Y30638096D01*
X58261904Y30676191D01*
X58185714Y30752381D01*
X58147619Y30828572D01*
X58109523Y30980953D01*
X58109523Y31095239D01*
X58147619Y31247620D01*
X58185714Y31323810D01*
X58261904Y31400000D01*
X58376190Y31438096D01*
X58452380Y31438096D01*
X58566666Y31400000D01*
X58604761Y31361905D01*
X59290476Y31171429D02*
X59290476Y30638096D01*
X59100000Y31476191D02*
X58909523Y30904762D01*
X59404761Y30904762D01*
X59861904Y31438096D02*
X59938095Y31438096D01*
X60014285Y31400000D01*
X60052380Y31361905D01*
X60090476Y31285715D01*
X60128571Y31133334D01*
X60128571Y30942858D01*
X60090476Y30790477D01*
X60052380Y30714286D01*
X60014285Y30676191D01*
X59938095Y30638096D01*
X59861904Y30638096D01*
X59785714Y30676191D01*
X59747619Y30714286D01*
X59709523Y30790477D01*
X59671428Y30942858D01*
X59671428Y31133334D01*
X59709523Y31285715D01*
X59747619Y31361905D01*
X59785714Y31400000D01*
X59861904Y31438096D01*
X60814285Y31171429D02*
X60814285Y30638096D01*
X60623809Y31476191D02*
X60433333Y30904762D01*
X60928571Y30904762D01*
%TO.C,C403*%
X68604761Y35964286D02*
X68566666Y35926191D01*
X68452380Y35888096D01*
X68376190Y35888096D01*
X68261904Y35926191D01*
X68185714Y36002381D01*
X68147619Y36078572D01*
X68109523Y36230953D01*
X68109523Y36345239D01*
X68147619Y36497620D01*
X68185714Y36573810D01*
X68261904Y36650000D01*
X68376190Y36688096D01*
X68452380Y36688096D01*
X68566666Y36650000D01*
X68604761Y36611905D01*
X69290476Y36421429D02*
X69290476Y35888096D01*
X69100000Y36726191D02*
X68909523Y36154762D01*
X69404761Y36154762D01*
X69861904Y36688096D02*
X69938095Y36688096D01*
X70014285Y36650000D01*
X70052380Y36611905D01*
X70090476Y36535715D01*
X70128571Y36383334D01*
X70128571Y36192858D01*
X70090476Y36040477D01*
X70052380Y35964286D01*
X70014285Y35926191D01*
X69938095Y35888096D01*
X69861904Y35888096D01*
X69785714Y35926191D01*
X69747619Y35964286D01*
X69709523Y36040477D01*
X69671428Y36192858D01*
X69671428Y36383334D01*
X69709523Y36535715D01*
X69747619Y36611905D01*
X69785714Y36650000D01*
X69861904Y36688096D01*
X70395238Y36688096D02*
X70890476Y36688096D01*
X70623809Y36383334D01*
X70738095Y36383334D01*
X70814285Y36345239D01*
X70852380Y36307143D01*
X70890476Y36230953D01*
X70890476Y36040477D01*
X70852380Y35964286D01*
X70814285Y35926191D01*
X70738095Y35888096D01*
X70509523Y35888096D01*
X70433333Y35926191D01*
X70395238Y35964286D01*
%TO.C,C402*%
X58604761Y28464286D02*
X58566666Y28426191D01*
X58452380Y28388096D01*
X58376190Y28388096D01*
X58261904Y28426191D01*
X58185714Y28502381D01*
X58147619Y28578572D01*
X58109523Y28730953D01*
X58109523Y28845239D01*
X58147619Y28997620D01*
X58185714Y29073810D01*
X58261904Y29150000D01*
X58376190Y29188096D01*
X58452380Y29188096D01*
X58566666Y29150000D01*
X58604761Y29111905D01*
X59290476Y28921429D02*
X59290476Y28388096D01*
X59100000Y29226191D02*
X58909523Y28654762D01*
X59404761Y28654762D01*
X59861904Y29188096D02*
X59938095Y29188096D01*
X60014285Y29150000D01*
X60052380Y29111905D01*
X60090476Y29035715D01*
X60128571Y28883334D01*
X60128571Y28692858D01*
X60090476Y28540477D01*
X60052380Y28464286D01*
X60014285Y28426191D01*
X59938095Y28388096D01*
X59861904Y28388096D01*
X59785714Y28426191D01*
X59747619Y28464286D01*
X59709523Y28540477D01*
X59671428Y28692858D01*
X59671428Y28883334D01*
X59709523Y29035715D01*
X59747619Y29111905D01*
X59785714Y29150000D01*
X59861904Y29188096D01*
X60433333Y29111905D02*
X60471428Y29150000D01*
X60547619Y29188096D01*
X60738095Y29188096D01*
X60814285Y29150000D01*
X60852380Y29111905D01*
X60890476Y29035715D01*
X60890476Y28959524D01*
X60852380Y28845239D01*
X60395238Y28388096D01*
X60890476Y28388096D01*
%TO.C,C401*%
X60285714Y21104762D02*
X60323809Y21066667D01*
X60361904Y20952381D01*
X60361904Y20876191D01*
X60323809Y20761905D01*
X60247619Y20685715D01*
X60171428Y20647620D01*
X60019047Y20609524D01*
X59904761Y20609524D01*
X59752380Y20647620D01*
X59676190Y20685715D01*
X59600000Y20761905D01*
X59561904Y20876191D01*
X59561904Y20952381D01*
X59600000Y21066667D01*
X59638095Y21104762D01*
X59828571Y21790477D02*
X60361904Y21790477D01*
X59523809Y21600000D02*
X60095238Y21409524D01*
X60095238Y21904762D01*
X59561904Y22361905D02*
X59561904Y22438096D01*
X59600000Y22514286D01*
X59638095Y22552381D01*
X59714285Y22590477D01*
X59866666Y22628572D01*
X60057142Y22628572D01*
X60209523Y22590477D01*
X60285714Y22552381D01*
X60323809Y22514286D01*
X60361904Y22438096D01*
X60361904Y22361905D01*
X60323809Y22285715D01*
X60285714Y22247620D01*
X60209523Y22209524D01*
X60057142Y22171429D01*
X59866666Y22171429D01*
X59714285Y22209524D01*
X59638095Y22247620D01*
X59600000Y22285715D01*
X59561904Y22361905D01*
X60361904Y23390477D02*
X60361904Y22933334D01*
X60361904Y23161905D02*
X59561904Y23161905D01*
X59676190Y23085715D01*
X59752380Y23009524D01*
X59790476Y22933334D01*
%TO.C,C318*%
X52285714Y30854762D02*
X52323809Y30816667D01*
X52361904Y30702381D01*
X52361904Y30626191D01*
X52323809Y30511905D01*
X52247619Y30435715D01*
X52171428Y30397620D01*
X52019047Y30359524D01*
X51904761Y30359524D01*
X51752380Y30397620D01*
X51676190Y30435715D01*
X51600000Y30511905D01*
X51561904Y30626191D01*
X51561904Y30702381D01*
X51600000Y30816667D01*
X51638095Y30854762D01*
X51561904Y31121429D02*
X51561904Y31616667D01*
X51866666Y31350000D01*
X51866666Y31464286D01*
X51904761Y31540477D01*
X51942857Y31578572D01*
X52019047Y31616667D01*
X52209523Y31616667D01*
X52285714Y31578572D01*
X52323809Y31540477D01*
X52361904Y31464286D01*
X52361904Y31235715D01*
X52323809Y31159524D01*
X52285714Y31121429D01*
X52361904Y32378572D02*
X52361904Y31921429D01*
X52361904Y32150000D02*
X51561904Y32150000D01*
X51676190Y32073810D01*
X51752380Y31997620D01*
X51790476Y31921429D01*
X51904761Y32835715D02*
X51866666Y32759524D01*
X51828571Y32721429D01*
X51752380Y32683334D01*
X51714285Y32683334D01*
X51638095Y32721429D01*
X51600000Y32759524D01*
X51561904Y32835715D01*
X51561904Y32988096D01*
X51600000Y33064286D01*
X51638095Y33102381D01*
X51714285Y33140477D01*
X51752380Y33140477D01*
X51828571Y33102381D01*
X51866666Y33064286D01*
X51904761Y32988096D01*
X51904761Y32835715D01*
X51942857Y32759524D01*
X51980952Y32721429D01*
X52057142Y32683334D01*
X52209523Y32683334D01*
X52285714Y32721429D01*
X52323809Y32759524D01*
X52361904Y32835715D01*
X52361904Y32988096D01*
X52323809Y33064286D01*
X52285714Y33102381D01*
X52209523Y33140477D01*
X52057142Y33140477D01*
X51980952Y33102381D01*
X51942857Y33064286D01*
X51904761Y32988096D01*
%TO.C,C317*%
X47285714Y28604762D02*
X47323809Y28566667D01*
X47361904Y28452381D01*
X47361904Y28376191D01*
X47323809Y28261905D01*
X47247619Y28185715D01*
X47171428Y28147620D01*
X47019047Y28109524D01*
X46904761Y28109524D01*
X46752380Y28147620D01*
X46676190Y28185715D01*
X46600000Y28261905D01*
X46561904Y28376191D01*
X46561904Y28452381D01*
X46600000Y28566667D01*
X46638095Y28604762D01*
X46561904Y28871429D02*
X46561904Y29366667D01*
X46866666Y29100000D01*
X46866666Y29214286D01*
X46904761Y29290477D01*
X46942857Y29328572D01*
X47019047Y29366667D01*
X47209523Y29366667D01*
X47285714Y29328572D01*
X47323809Y29290477D01*
X47361904Y29214286D01*
X47361904Y28985715D01*
X47323809Y28909524D01*
X47285714Y28871429D01*
X47361904Y30128572D02*
X47361904Y29671429D01*
X47361904Y29900000D02*
X46561904Y29900000D01*
X46676190Y29823810D01*
X46752380Y29747620D01*
X46790476Y29671429D01*
X46561904Y30395239D02*
X46561904Y30928572D01*
X47361904Y30585715D01*
%TO.C,C316*%
X52285714Y26354762D02*
X52323809Y26316667D01*
X52361904Y26202381D01*
X52361904Y26126191D01*
X52323809Y26011905D01*
X52247619Y25935715D01*
X52171428Y25897620D01*
X52019047Y25859524D01*
X51904761Y25859524D01*
X51752380Y25897620D01*
X51676190Y25935715D01*
X51600000Y26011905D01*
X51561904Y26126191D01*
X51561904Y26202381D01*
X51600000Y26316667D01*
X51638095Y26354762D01*
X51561904Y26621429D02*
X51561904Y27116667D01*
X51866666Y26850000D01*
X51866666Y26964286D01*
X51904761Y27040477D01*
X51942857Y27078572D01*
X52019047Y27116667D01*
X52209523Y27116667D01*
X52285714Y27078572D01*
X52323809Y27040477D01*
X52361904Y26964286D01*
X52361904Y26735715D01*
X52323809Y26659524D01*
X52285714Y26621429D01*
X52361904Y27878572D02*
X52361904Y27421429D01*
X52361904Y27650000D02*
X51561904Y27650000D01*
X51676190Y27573810D01*
X51752380Y27497620D01*
X51790476Y27421429D01*
X51561904Y28564286D02*
X51561904Y28411905D01*
X51600000Y28335715D01*
X51638095Y28297620D01*
X51752380Y28221429D01*
X51904761Y28183334D01*
X52209523Y28183334D01*
X52285714Y28221429D01*
X52323809Y28259524D01*
X52361904Y28335715D01*
X52361904Y28488096D01*
X52323809Y28564286D01*
X52285714Y28602381D01*
X52209523Y28640477D01*
X52019047Y28640477D01*
X51942857Y28602381D01*
X51904761Y28564286D01*
X51866666Y28488096D01*
X51866666Y28335715D01*
X51904761Y28259524D01*
X51942857Y28221429D01*
X52019047Y28183334D01*
%TO.C,C315*%
X47285714Y24104762D02*
X47323809Y24066667D01*
X47361904Y23952381D01*
X47361904Y23876191D01*
X47323809Y23761905D01*
X47247619Y23685715D01*
X47171428Y23647620D01*
X47019047Y23609524D01*
X46904761Y23609524D01*
X46752380Y23647620D01*
X46676190Y23685715D01*
X46600000Y23761905D01*
X46561904Y23876191D01*
X46561904Y23952381D01*
X46600000Y24066667D01*
X46638095Y24104762D01*
X46561904Y24371429D02*
X46561904Y24866667D01*
X46866666Y24600000D01*
X46866666Y24714286D01*
X46904761Y24790477D01*
X46942857Y24828572D01*
X47019047Y24866667D01*
X47209523Y24866667D01*
X47285714Y24828572D01*
X47323809Y24790477D01*
X47361904Y24714286D01*
X47361904Y24485715D01*
X47323809Y24409524D01*
X47285714Y24371429D01*
X47361904Y25628572D02*
X47361904Y25171429D01*
X47361904Y25400000D02*
X46561904Y25400000D01*
X46676190Y25323810D01*
X46752380Y25247620D01*
X46790476Y25171429D01*
X46561904Y26352381D02*
X46561904Y25971429D01*
X46942857Y25933334D01*
X46904761Y25971429D01*
X46866666Y26047620D01*
X46866666Y26238096D01*
X46904761Y26314286D01*
X46942857Y26352381D01*
X47019047Y26390477D01*
X47209523Y26390477D01*
X47285714Y26352381D01*
X47323809Y26314286D01*
X47361904Y26238096D01*
X47361904Y26047620D01*
X47323809Y25971429D01*
X47285714Y25933334D01*
%TO.C,C314*%
X52285714Y22104762D02*
X52323809Y22066667D01*
X52361904Y21952381D01*
X52361904Y21876191D01*
X52323809Y21761905D01*
X52247619Y21685715D01*
X52171428Y21647620D01*
X52019047Y21609524D01*
X51904761Y21609524D01*
X51752380Y21647620D01*
X51676190Y21685715D01*
X51600000Y21761905D01*
X51561904Y21876191D01*
X51561904Y21952381D01*
X51600000Y22066667D01*
X51638095Y22104762D01*
X51561904Y22371429D02*
X51561904Y22866667D01*
X51866666Y22600000D01*
X51866666Y22714286D01*
X51904761Y22790477D01*
X51942857Y22828572D01*
X52019047Y22866667D01*
X52209523Y22866667D01*
X52285714Y22828572D01*
X52323809Y22790477D01*
X52361904Y22714286D01*
X52361904Y22485715D01*
X52323809Y22409524D01*
X52285714Y22371429D01*
X52361904Y23628572D02*
X52361904Y23171429D01*
X52361904Y23400000D02*
X51561904Y23400000D01*
X51676190Y23323810D01*
X51752380Y23247620D01*
X51790476Y23171429D01*
X51828571Y24314286D02*
X52361904Y24314286D01*
X51523809Y24123810D02*
X52095238Y23933334D01*
X52095238Y24428572D01*
%TO.C,C313*%
X43354761Y22214286D02*
X43316666Y22176191D01*
X43202380Y22138096D01*
X43126190Y22138096D01*
X43011904Y22176191D01*
X42935714Y22252381D01*
X42897619Y22328572D01*
X42859523Y22480953D01*
X42859523Y22595239D01*
X42897619Y22747620D01*
X42935714Y22823810D01*
X43011904Y22900000D01*
X43126190Y22938096D01*
X43202380Y22938096D01*
X43316666Y22900000D01*
X43354761Y22861905D01*
X43621428Y22938096D02*
X44116666Y22938096D01*
X43850000Y22633334D01*
X43964285Y22633334D01*
X44040476Y22595239D01*
X44078571Y22557143D01*
X44116666Y22480953D01*
X44116666Y22290477D01*
X44078571Y22214286D01*
X44040476Y22176191D01*
X43964285Y22138096D01*
X43735714Y22138096D01*
X43659523Y22176191D01*
X43621428Y22214286D01*
X44878571Y22138096D02*
X44421428Y22138096D01*
X44650000Y22138096D02*
X44650000Y22938096D01*
X44573809Y22823810D01*
X44497619Y22747620D01*
X44421428Y22709524D01*
X45145238Y22938096D02*
X45640476Y22938096D01*
X45373809Y22633334D01*
X45488095Y22633334D01*
X45564285Y22595239D01*
X45602380Y22557143D01*
X45640476Y22480953D01*
X45640476Y22290477D01*
X45602380Y22214286D01*
X45564285Y22176191D01*
X45488095Y22138096D01*
X45259523Y22138096D01*
X45183333Y22176191D01*
X45145238Y22214286D01*
%TO.C,C312*%
X45785714Y28104762D02*
X45823809Y28066667D01*
X45861904Y27952381D01*
X45861904Y27876191D01*
X45823809Y27761905D01*
X45747619Y27685715D01*
X45671428Y27647620D01*
X45519047Y27609524D01*
X45404761Y27609524D01*
X45252380Y27647620D01*
X45176190Y27685715D01*
X45100000Y27761905D01*
X45061904Y27876191D01*
X45061904Y27952381D01*
X45100000Y28066667D01*
X45138095Y28104762D01*
X45061904Y28371429D02*
X45061904Y28866667D01*
X45366666Y28600000D01*
X45366666Y28714286D01*
X45404761Y28790477D01*
X45442857Y28828572D01*
X45519047Y28866667D01*
X45709523Y28866667D01*
X45785714Y28828572D01*
X45823809Y28790477D01*
X45861904Y28714286D01*
X45861904Y28485715D01*
X45823809Y28409524D01*
X45785714Y28371429D01*
X45861904Y29628572D02*
X45861904Y29171429D01*
X45861904Y29400000D02*
X45061904Y29400000D01*
X45176190Y29323810D01*
X45252380Y29247620D01*
X45290476Y29171429D01*
X45138095Y29933334D02*
X45100000Y29971429D01*
X45061904Y30047620D01*
X45061904Y30238096D01*
X45100000Y30314286D01*
X45138095Y30352381D01*
X45214285Y30390477D01*
X45290476Y30390477D01*
X45404761Y30352381D01*
X45861904Y29895239D01*
X45861904Y30390477D01*
%TO.C,C311*%
X36104761Y28214286D02*
X36066666Y28176191D01*
X35952380Y28138096D01*
X35876190Y28138096D01*
X35761904Y28176191D01*
X35685714Y28252381D01*
X35647619Y28328572D01*
X35609523Y28480953D01*
X35609523Y28595239D01*
X35647619Y28747620D01*
X35685714Y28823810D01*
X35761904Y28900000D01*
X35876190Y28938096D01*
X35952380Y28938096D01*
X36066666Y28900000D01*
X36104761Y28861905D01*
X36371428Y28938096D02*
X36866666Y28938096D01*
X36600000Y28633334D01*
X36714285Y28633334D01*
X36790476Y28595239D01*
X36828571Y28557143D01*
X36866666Y28480953D01*
X36866666Y28290477D01*
X36828571Y28214286D01*
X36790476Y28176191D01*
X36714285Y28138096D01*
X36485714Y28138096D01*
X36409523Y28176191D01*
X36371428Y28214286D01*
X37628571Y28138096D02*
X37171428Y28138096D01*
X37400000Y28138096D02*
X37400000Y28938096D01*
X37323809Y28823810D01*
X37247619Y28747620D01*
X37171428Y28709524D01*
X38390476Y28138096D02*
X37933333Y28138096D01*
X38161904Y28138096D02*
X38161904Y28938096D01*
X38085714Y28823810D01*
X38009523Y28747620D01*
X37933333Y28709524D01*
%TO.C,C310*%
X42354761Y29964286D02*
X42316666Y29926191D01*
X42202380Y29888096D01*
X42126190Y29888096D01*
X42011904Y29926191D01*
X41935714Y30002381D01*
X41897619Y30078572D01*
X41859523Y30230953D01*
X41859523Y30345239D01*
X41897619Y30497620D01*
X41935714Y30573810D01*
X42011904Y30650000D01*
X42126190Y30688096D01*
X42202380Y30688096D01*
X42316666Y30650000D01*
X42354761Y30611905D01*
X42621428Y30688096D02*
X43116666Y30688096D01*
X42850000Y30383334D01*
X42964285Y30383334D01*
X43040476Y30345239D01*
X43078571Y30307143D01*
X43116666Y30230953D01*
X43116666Y30040477D01*
X43078571Y29964286D01*
X43040476Y29926191D01*
X42964285Y29888096D01*
X42735714Y29888096D01*
X42659523Y29926191D01*
X42621428Y29964286D01*
X43878571Y29888096D02*
X43421428Y29888096D01*
X43650000Y29888096D02*
X43650000Y30688096D01*
X43573809Y30573810D01*
X43497619Y30497620D01*
X43421428Y30459524D01*
X44373809Y30688096D02*
X44450000Y30688096D01*
X44526190Y30650000D01*
X44564285Y30611905D01*
X44602380Y30535715D01*
X44640476Y30383334D01*
X44640476Y30192858D01*
X44602380Y30040477D01*
X44564285Y29964286D01*
X44526190Y29926191D01*
X44450000Y29888096D01*
X44373809Y29888096D01*
X44297619Y29926191D01*
X44259523Y29964286D01*
X44221428Y30040477D01*
X44183333Y30192858D01*
X44183333Y30383334D01*
X44221428Y30535715D01*
X44259523Y30611905D01*
X44297619Y30650000D01*
X44373809Y30688096D01*
%TO.C,C309*%
X42354761Y31714286D02*
X42316666Y31676191D01*
X42202380Y31638096D01*
X42126190Y31638096D01*
X42011904Y31676191D01*
X41935714Y31752381D01*
X41897619Y31828572D01*
X41859523Y31980953D01*
X41859523Y32095239D01*
X41897619Y32247620D01*
X41935714Y32323810D01*
X42011904Y32400000D01*
X42126190Y32438096D01*
X42202380Y32438096D01*
X42316666Y32400000D01*
X42354761Y32361905D01*
X42621428Y32438096D02*
X43116666Y32438096D01*
X42850000Y32133334D01*
X42964285Y32133334D01*
X43040476Y32095239D01*
X43078571Y32057143D01*
X43116666Y31980953D01*
X43116666Y31790477D01*
X43078571Y31714286D01*
X43040476Y31676191D01*
X42964285Y31638096D01*
X42735714Y31638096D01*
X42659523Y31676191D01*
X42621428Y31714286D01*
X43611904Y32438096D02*
X43688095Y32438096D01*
X43764285Y32400000D01*
X43802380Y32361905D01*
X43840476Y32285715D01*
X43878571Y32133334D01*
X43878571Y31942858D01*
X43840476Y31790477D01*
X43802380Y31714286D01*
X43764285Y31676191D01*
X43688095Y31638096D01*
X43611904Y31638096D01*
X43535714Y31676191D01*
X43497619Y31714286D01*
X43459523Y31790477D01*
X43421428Y31942858D01*
X43421428Y32133334D01*
X43459523Y32285715D01*
X43497619Y32361905D01*
X43535714Y32400000D01*
X43611904Y32438096D01*
X44259523Y31638096D02*
X44411904Y31638096D01*
X44488095Y31676191D01*
X44526190Y31714286D01*
X44602380Y31828572D01*
X44640476Y31980953D01*
X44640476Y32285715D01*
X44602380Y32361905D01*
X44564285Y32400000D01*
X44488095Y32438096D01*
X44335714Y32438096D01*
X44259523Y32400000D01*
X44221428Y32361905D01*
X44183333Y32285715D01*
X44183333Y32095239D01*
X44221428Y32019048D01*
X44259523Y31980953D01*
X44335714Y31942858D01*
X44488095Y31942858D01*
X44564285Y31980953D01*
X44602380Y32019048D01*
X44640476Y32095239D01*
%TO.C,C308*%
X36285714Y21104762D02*
X36323809Y21066667D01*
X36361904Y20952381D01*
X36361904Y20876191D01*
X36323809Y20761905D01*
X36247619Y20685715D01*
X36171428Y20647620D01*
X36019047Y20609524D01*
X35904761Y20609524D01*
X35752380Y20647620D01*
X35676190Y20685715D01*
X35600000Y20761905D01*
X35561904Y20876191D01*
X35561904Y20952381D01*
X35600000Y21066667D01*
X35638095Y21104762D01*
X35561904Y21371429D02*
X35561904Y21866667D01*
X35866666Y21600000D01*
X35866666Y21714286D01*
X35904761Y21790477D01*
X35942857Y21828572D01*
X36019047Y21866667D01*
X36209523Y21866667D01*
X36285714Y21828572D01*
X36323809Y21790477D01*
X36361904Y21714286D01*
X36361904Y21485715D01*
X36323809Y21409524D01*
X36285714Y21371429D01*
X35561904Y22361905D02*
X35561904Y22438096D01*
X35600000Y22514286D01*
X35638095Y22552381D01*
X35714285Y22590477D01*
X35866666Y22628572D01*
X36057142Y22628572D01*
X36209523Y22590477D01*
X36285714Y22552381D01*
X36323809Y22514286D01*
X36361904Y22438096D01*
X36361904Y22361905D01*
X36323809Y22285715D01*
X36285714Y22247620D01*
X36209523Y22209524D01*
X36057142Y22171429D01*
X35866666Y22171429D01*
X35714285Y22209524D01*
X35638095Y22247620D01*
X35600000Y22285715D01*
X35561904Y22361905D01*
X35904761Y23085715D02*
X35866666Y23009524D01*
X35828571Y22971429D01*
X35752380Y22933334D01*
X35714285Y22933334D01*
X35638095Y22971429D01*
X35600000Y23009524D01*
X35561904Y23085715D01*
X35561904Y23238096D01*
X35600000Y23314286D01*
X35638095Y23352381D01*
X35714285Y23390477D01*
X35752380Y23390477D01*
X35828571Y23352381D01*
X35866666Y23314286D01*
X35904761Y23238096D01*
X35904761Y23085715D01*
X35942857Y23009524D01*
X35980952Y22971429D01*
X36057142Y22933334D01*
X36209523Y22933334D01*
X36285714Y22971429D01*
X36323809Y23009524D01*
X36361904Y23085715D01*
X36361904Y23238096D01*
X36323809Y23314286D01*
X36285714Y23352381D01*
X36209523Y23390477D01*
X36057142Y23390477D01*
X35980952Y23352381D01*
X35942857Y23314286D01*
X35904761Y23238096D01*
%TO.C,C307*%
X32035714Y21104762D02*
X32073809Y21066667D01*
X32111904Y20952381D01*
X32111904Y20876191D01*
X32073809Y20761905D01*
X31997619Y20685715D01*
X31921428Y20647620D01*
X31769047Y20609524D01*
X31654761Y20609524D01*
X31502380Y20647620D01*
X31426190Y20685715D01*
X31350000Y20761905D01*
X31311904Y20876191D01*
X31311904Y20952381D01*
X31350000Y21066667D01*
X31388095Y21104762D01*
X31311904Y21371429D02*
X31311904Y21866667D01*
X31616666Y21600000D01*
X31616666Y21714286D01*
X31654761Y21790477D01*
X31692857Y21828572D01*
X31769047Y21866667D01*
X31959523Y21866667D01*
X32035714Y21828572D01*
X32073809Y21790477D01*
X32111904Y21714286D01*
X32111904Y21485715D01*
X32073809Y21409524D01*
X32035714Y21371429D01*
X31311904Y22361905D02*
X31311904Y22438096D01*
X31350000Y22514286D01*
X31388095Y22552381D01*
X31464285Y22590477D01*
X31616666Y22628572D01*
X31807142Y22628572D01*
X31959523Y22590477D01*
X32035714Y22552381D01*
X32073809Y22514286D01*
X32111904Y22438096D01*
X32111904Y22361905D01*
X32073809Y22285715D01*
X32035714Y22247620D01*
X31959523Y22209524D01*
X31807142Y22171429D01*
X31616666Y22171429D01*
X31464285Y22209524D01*
X31388095Y22247620D01*
X31350000Y22285715D01*
X31311904Y22361905D01*
X31311904Y22895239D02*
X31311904Y23428572D01*
X32111904Y23085715D01*
%TO.C,C306*%
X42604761Y33714286D02*
X42566666Y33676191D01*
X42452380Y33638096D01*
X42376190Y33638096D01*
X42261904Y33676191D01*
X42185714Y33752381D01*
X42147619Y33828572D01*
X42109523Y33980953D01*
X42109523Y34095239D01*
X42147619Y34247620D01*
X42185714Y34323810D01*
X42261904Y34400000D01*
X42376190Y34438096D01*
X42452380Y34438096D01*
X42566666Y34400000D01*
X42604761Y34361905D01*
X42871428Y34438096D02*
X43366666Y34438096D01*
X43100000Y34133334D01*
X43214285Y34133334D01*
X43290476Y34095239D01*
X43328571Y34057143D01*
X43366666Y33980953D01*
X43366666Y33790477D01*
X43328571Y33714286D01*
X43290476Y33676191D01*
X43214285Y33638096D01*
X42985714Y33638096D01*
X42909523Y33676191D01*
X42871428Y33714286D01*
X43861904Y34438096D02*
X43938095Y34438096D01*
X44014285Y34400000D01*
X44052380Y34361905D01*
X44090476Y34285715D01*
X44128571Y34133334D01*
X44128571Y33942858D01*
X44090476Y33790477D01*
X44052380Y33714286D01*
X44014285Y33676191D01*
X43938095Y33638096D01*
X43861904Y33638096D01*
X43785714Y33676191D01*
X43747619Y33714286D01*
X43709523Y33790477D01*
X43671428Y33942858D01*
X43671428Y34133334D01*
X43709523Y34285715D01*
X43747619Y34361905D01*
X43785714Y34400000D01*
X43861904Y34438096D01*
X44814285Y34438096D02*
X44661904Y34438096D01*
X44585714Y34400000D01*
X44547619Y34361905D01*
X44471428Y34247620D01*
X44433333Y34095239D01*
X44433333Y33790477D01*
X44471428Y33714286D01*
X44509523Y33676191D01*
X44585714Y33638096D01*
X44738095Y33638096D01*
X44814285Y33676191D01*
X44852380Y33714286D01*
X44890476Y33790477D01*
X44890476Y33980953D01*
X44852380Y34057143D01*
X44814285Y34095239D01*
X44738095Y34133334D01*
X44585714Y34133334D01*
X44509523Y34095239D01*
X44471428Y34057143D01*
X44433333Y33980953D01*
%TO.C,C305*%
X32604761Y32964286D02*
X32566666Y32926191D01*
X32452380Y32888096D01*
X32376190Y32888096D01*
X32261904Y32926191D01*
X32185714Y33002381D01*
X32147619Y33078572D01*
X32109523Y33230953D01*
X32109523Y33345239D01*
X32147619Y33497620D01*
X32185714Y33573810D01*
X32261904Y33650000D01*
X32376190Y33688096D01*
X32452380Y33688096D01*
X32566666Y33650000D01*
X32604761Y33611905D01*
X32871428Y33688096D02*
X33366666Y33688096D01*
X33100000Y33383334D01*
X33214285Y33383334D01*
X33290476Y33345239D01*
X33328571Y33307143D01*
X33366666Y33230953D01*
X33366666Y33040477D01*
X33328571Y32964286D01*
X33290476Y32926191D01*
X33214285Y32888096D01*
X32985714Y32888096D01*
X32909523Y32926191D01*
X32871428Y32964286D01*
X33861904Y33688096D02*
X33938095Y33688096D01*
X34014285Y33650000D01*
X34052380Y33611905D01*
X34090476Y33535715D01*
X34128571Y33383334D01*
X34128571Y33192858D01*
X34090476Y33040477D01*
X34052380Y32964286D01*
X34014285Y32926191D01*
X33938095Y32888096D01*
X33861904Y32888096D01*
X33785714Y32926191D01*
X33747619Y32964286D01*
X33709523Y33040477D01*
X33671428Y33192858D01*
X33671428Y33383334D01*
X33709523Y33535715D01*
X33747619Y33611905D01*
X33785714Y33650000D01*
X33861904Y33688096D01*
X34852380Y33688096D02*
X34471428Y33688096D01*
X34433333Y33307143D01*
X34471428Y33345239D01*
X34547619Y33383334D01*
X34738095Y33383334D01*
X34814285Y33345239D01*
X34852380Y33307143D01*
X34890476Y33230953D01*
X34890476Y33040477D01*
X34852380Y32964286D01*
X34814285Y32926191D01*
X34738095Y32888096D01*
X34547619Y32888096D01*
X34471428Y32926191D01*
X34433333Y32964286D01*
%TO.C,C304*%
X32604761Y30714286D02*
X32566666Y30676191D01*
X32452380Y30638096D01*
X32376190Y30638096D01*
X32261904Y30676191D01*
X32185714Y30752381D01*
X32147619Y30828572D01*
X32109523Y30980953D01*
X32109523Y31095239D01*
X32147619Y31247620D01*
X32185714Y31323810D01*
X32261904Y31400000D01*
X32376190Y31438096D01*
X32452380Y31438096D01*
X32566666Y31400000D01*
X32604761Y31361905D01*
X32871428Y31438096D02*
X33366666Y31438096D01*
X33100000Y31133334D01*
X33214285Y31133334D01*
X33290476Y31095239D01*
X33328571Y31057143D01*
X33366666Y30980953D01*
X33366666Y30790477D01*
X33328571Y30714286D01*
X33290476Y30676191D01*
X33214285Y30638096D01*
X32985714Y30638096D01*
X32909523Y30676191D01*
X32871428Y30714286D01*
X33861904Y31438096D02*
X33938095Y31438096D01*
X34014285Y31400000D01*
X34052380Y31361905D01*
X34090476Y31285715D01*
X34128571Y31133334D01*
X34128571Y30942858D01*
X34090476Y30790477D01*
X34052380Y30714286D01*
X34014285Y30676191D01*
X33938095Y30638096D01*
X33861904Y30638096D01*
X33785714Y30676191D01*
X33747619Y30714286D01*
X33709523Y30790477D01*
X33671428Y30942858D01*
X33671428Y31133334D01*
X33709523Y31285715D01*
X33747619Y31361905D01*
X33785714Y31400000D01*
X33861904Y31438096D01*
X34814285Y31171429D02*
X34814285Y30638096D01*
X34623809Y31476191D02*
X34433333Y30904762D01*
X34928571Y30904762D01*
%TO.C,C303*%
X42604761Y35964286D02*
X42566666Y35926191D01*
X42452380Y35888096D01*
X42376190Y35888096D01*
X42261904Y35926191D01*
X42185714Y36002381D01*
X42147619Y36078572D01*
X42109523Y36230953D01*
X42109523Y36345239D01*
X42147619Y36497620D01*
X42185714Y36573810D01*
X42261904Y36650000D01*
X42376190Y36688096D01*
X42452380Y36688096D01*
X42566666Y36650000D01*
X42604761Y36611905D01*
X42871428Y36688096D02*
X43366666Y36688096D01*
X43100000Y36383334D01*
X43214285Y36383334D01*
X43290476Y36345239D01*
X43328571Y36307143D01*
X43366666Y36230953D01*
X43366666Y36040477D01*
X43328571Y35964286D01*
X43290476Y35926191D01*
X43214285Y35888096D01*
X42985714Y35888096D01*
X42909523Y35926191D01*
X42871428Y35964286D01*
X43861904Y36688096D02*
X43938095Y36688096D01*
X44014285Y36650000D01*
X44052380Y36611905D01*
X44090476Y36535715D01*
X44128571Y36383334D01*
X44128571Y36192858D01*
X44090476Y36040477D01*
X44052380Y35964286D01*
X44014285Y35926191D01*
X43938095Y35888096D01*
X43861904Y35888096D01*
X43785714Y35926191D01*
X43747619Y35964286D01*
X43709523Y36040477D01*
X43671428Y36192858D01*
X43671428Y36383334D01*
X43709523Y36535715D01*
X43747619Y36611905D01*
X43785714Y36650000D01*
X43861904Y36688096D01*
X44395238Y36688096D02*
X44890476Y36688096D01*
X44623809Y36383334D01*
X44738095Y36383334D01*
X44814285Y36345239D01*
X44852380Y36307143D01*
X44890476Y36230953D01*
X44890476Y36040477D01*
X44852380Y35964286D01*
X44814285Y35926191D01*
X44738095Y35888096D01*
X44509523Y35888096D01*
X44433333Y35926191D01*
X44395238Y35964286D01*
%TO.C,C302*%
X32604761Y28464286D02*
X32566666Y28426191D01*
X32452380Y28388096D01*
X32376190Y28388096D01*
X32261904Y28426191D01*
X32185714Y28502381D01*
X32147619Y28578572D01*
X32109523Y28730953D01*
X32109523Y28845239D01*
X32147619Y28997620D01*
X32185714Y29073810D01*
X32261904Y29150000D01*
X32376190Y29188096D01*
X32452380Y29188096D01*
X32566666Y29150000D01*
X32604761Y29111905D01*
X32871428Y29188096D02*
X33366666Y29188096D01*
X33100000Y28883334D01*
X33214285Y28883334D01*
X33290476Y28845239D01*
X33328571Y28807143D01*
X33366666Y28730953D01*
X33366666Y28540477D01*
X33328571Y28464286D01*
X33290476Y28426191D01*
X33214285Y28388096D01*
X32985714Y28388096D01*
X32909523Y28426191D01*
X32871428Y28464286D01*
X33861904Y29188096D02*
X33938095Y29188096D01*
X34014285Y29150000D01*
X34052380Y29111905D01*
X34090476Y29035715D01*
X34128571Y28883334D01*
X34128571Y28692858D01*
X34090476Y28540477D01*
X34052380Y28464286D01*
X34014285Y28426191D01*
X33938095Y28388096D01*
X33861904Y28388096D01*
X33785714Y28426191D01*
X33747619Y28464286D01*
X33709523Y28540477D01*
X33671428Y28692858D01*
X33671428Y28883334D01*
X33709523Y29035715D01*
X33747619Y29111905D01*
X33785714Y29150000D01*
X33861904Y29188096D01*
X34433333Y29111905D02*
X34471428Y29150000D01*
X34547619Y29188096D01*
X34738095Y29188096D01*
X34814285Y29150000D01*
X34852380Y29111905D01*
X34890476Y29035715D01*
X34890476Y28959524D01*
X34852380Y28845239D01*
X34395238Y28388096D01*
X34890476Y28388096D01*
%TO.C,C301*%
X34285714Y21104762D02*
X34323809Y21066667D01*
X34361904Y20952381D01*
X34361904Y20876191D01*
X34323809Y20761905D01*
X34247619Y20685715D01*
X34171428Y20647620D01*
X34019047Y20609524D01*
X33904761Y20609524D01*
X33752380Y20647620D01*
X33676190Y20685715D01*
X33600000Y20761905D01*
X33561904Y20876191D01*
X33561904Y20952381D01*
X33600000Y21066667D01*
X33638095Y21104762D01*
X33561904Y21371429D02*
X33561904Y21866667D01*
X33866666Y21600000D01*
X33866666Y21714286D01*
X33904761Y21790477D01*
X33942857Y21828572D01*
X34019047Y21866667D01*
X34209523Y21866667D01*
X34285714Y21828572D01*
X34323809Y21790477D01*
X34361904Y21714286D01*
X34361904Y21485715D01*
X34323809Y21409524D01*
X34285714Y21371429D01*
X33561904Y22361905D02*
X33561904Y22438096D01*
X33600000Y22514286D01*
X33638095Y22552381D01*
X33714285Y22590477D01*
X33866666Y22628572D01*
X34057142Y22628572D01*
X34209523Y22590477D01*
X34285714Y22552381D01*
X34323809Y22514286D01*
X34361904Y22438096D01*
X34361904Y22361905D01*
X34323809Y22285715D01*
X34285714Y22247620D01*
X34209523Y22209524D01*
X34057142Y22171429D01*
X33866666Y22171429D01*
X33714285Y22209524D01*
X33638095Y22247620D01*
X33600000Y22285715D01*
X33561904Y22361905D01*
X34361904Y23390477D02*
X34361904Y22933334D01*
X34361904Y23161905D02*
X33561904Y23161905D01*
X33676190Y23085715D01*
X33752380Y23009524D01*
X33790476Y22933334D01*
%TO.C,C218*%
X26285714Y30854762D02*
X26323809Y30816667D01*
X26361904Y30702381D01*
X26361904Y30626191D01*
X26323809Y30511905D01*
X26247619Y30435715D01*
X26171428Y30397620D01*
X26019047Y30359524D01*
X25904761Y30359524D01*
X25752380Y30397620D01*
X25676190Y30435715D01*
X25600000Y30511905D01*
X25561904Y30626191D01*
X25561904Y30702381D01*
X25600000Y30816667D01*
X25638095Y30854762D01*
X25638095Y31159524D02*
X25600000Y31197620D01*
X25561904Y31273810D01*
X25561904Y31464286D01*
X25600000Y31540477D01*
X25638095Y31578572D01*
X25714285Y31616667D01*
X25790476Y31616667D01*
X25904761Y31578572D01*
X26361904Y31121429D01*
X26361904Y31616667D01*
X26361904Y32378572D02*
X26361904Y31921429D01*
X26361904Y32150000D02*
X25561904Y32150000D01*
X25676190Y32073810D01*
X25752380Y31997620D01*
X25790476Y31921429D01*
X25904761Y32835715D02*
X25866666Y32759524D01*
X25828571Y32721429D01*
X25752380Y32683334D01*
X25714285Y32683334D01*
X25638095Y32721429D01*
X25600000Y32759524D01*
X25561904Y32835715D01*
X25561904Y32988096D01*
X25600000Y33064286D01*
X25638095Y33102381D01*
X25714285Y33140477D01*
X25752380Y33140477D01*
X25828571Y33102381D01*
X25866666Y33064286D01*
X25904761Y32988096D01*
X25904761Y32835715D01*
X25942857Y32759524D01*
X25980952Y32721429D01*
X26057142Y32683334D01*
X26209523Y32683334D01*
X26285714Y32721429D01*
X26323809Y32759524D01*
X26361904Y32835715D01*
X26361904Y32988096D01*
X26323809Y33064286D01*
X26285714Y33102381D01*
X26209523Y33140477D01*
X26057142Y33140477D01*
X25980952Y33102381D01*
X25942857Y33064286D01*
X25904761Y32988096D01*
%TO.C,C217*%
X21285714Y28604762D02*
X21323809Y28566667D01*
X21361904Y28452381D01*
X21361904Y28376191D01*
X21323809Y28261905D01*
X21247619Y28185715D01*
X21171428Y28147620D01*
X21019047Y28109524D01*
X20904761Y28109524D01*
X20752380Y28147620D01*
X20676190Y28185715D01*
X20600000Y28261905D01*
X20561904Y28376191D01*
X20561904Y28452381D01*
X20600000Y28566667D01*
X20638095Y28604762D01*
X20638095Y28909524D02*
X20600000Y28947620D01*
X20561904Y29023810D01*
X20561904Y29214286D01*
X20600000Y29290477D01*
X20638095Y29328572D01*
X20714285Y29366667D01*
X20790476Y29366667D01*
X20904761Y29328572D01*
X21361904Y28871429D01*
X21361904Y29366667D01*
X21361904Y30128572D02*
X21361904Y29671429D01*
X21361904Y29900000D02*
X20561904Y29900000D01*
X20676190Y29823810D01*
X20752380Y29747620D01*
X20790476Y29671429D01*
X20561904Y30395239D02*
X20561904Y30928572D01*
X21361904Y30585715D01*
%TO.C,C216*%
X26285714Y26354762D02*
X26323809Y26316667D01*
X26361904Y26202381D01*
X26361904Y26126191D01*
X26323809Y26011905D01*
X26247619Y25935715D01*
X26171428Y25897620D01*
X26019047Y25859524D01*
X25904761Y25859524D01*
X25752380Y25897620D01*
X25676190Y25935715D01*
X25600000Y26011905D01*
X25561904Y26126191D01*
X25561904Y26202381D01*
X25600000Y26316667D01*
X25638095Y26354762D01*
X25638095Y26659524D02*
X25600000Y26697620D01*
X25561904Y26773810D01*
X25561904Y26964286D01*
X25600000Y27040477D01*
X25638095Y27078572D01*
X25714285Y27116667D01*
X25790476Y27116667D01*
X25904761Y27078572D01*
X26361904Y26621429D01*
X26361904Y27116667D01*
X26361904Y27878572D02*
X26361904Y27421429D01*
X26361904Y27650000D02*
X25561904Y27650000D01*
X25676190Y27573810D01*
X25752380Y27497620D01*
X25790476Y27421429D01*
X25561904Y28564286D02*
X25561904Y28411905D01*
X25600000Y28335715D01*
X25638095Y28297620D01*
X25752380Y28221429D01*
X25904761Y28183334D01*
X26209523Y28183334D01*
X26285714Y28221429D01*
X26323809Y28259524D01*
X26361904Y28335715D01*
X26361904Y28488096D01*
X26323809Y28564286D01*
X26285714Y28602381D01*
X26209523Y28640477D01*
X26019047Y28640477D01*
X25942857Y28602381D01*
X25904761Y28564286D01*
X25866666Y28488096D01*
X25866666Y28335715D01*
X25904761Y28259524D01*
X25942857Y28221429D01*
X26019047Y28183334D01*
%TO.C,C215*%
X21285714Y24104762D02*
X21323809Y24066667D01*
X21361904Y23952381D01*
X21361904Y23876191D01*
X21323809Y23761905D01*
X21247619Y23685715D01*
X21171428Y23647620D01*
X21019047Y23609524D01*
X20904761Y23609524D01*
X20752380Y23647620D01*
X20676190Y23685715D01*
X20600000Y23761905D01*
X20561904Y23876191D01*
X20561904Y23952381D01*
X20600000Y24066667D01*
X20638095Y24104762D01*
X20638095Y24409524D02*
X20600000Y24447620D01*
X20561904Y24523810D01*
X20561904Y24714286D01*
X20600000Y24790477D01*
X20638095Y24828572D01*
X20714285Y24866667D01*
X20790476Y24866667D01*
X20904761Y24828572D01*
X21361904Y24371429D01*
X21361904Y24866667D01*
X21361904Y25628572D02*
X21361904Y25171429D01*
X21361904Y25400000D02*
X20561904Y25400000D01*
X20676190Y25323810D01*
X20752380Y25247620D01*
X20790476Y25171429D01*
X20561904Y26352381D02*
X20561904Y25971429D01*
X20942857Y25933334D01*
X20904761Y25971429D01*
X20866666Y26047620D01*
X20866666Y26238096D01*
X20904761Y26314286D01*
X20942857Y26352381D01*
X21019047Y26390477D01*
X21209523Y26390477D01*
X21285714Y26352381D01*
X21323809Y26314286D01*
X21361904Y26238096D01*
X21361904Y26047620D01*
X21323809Y25971429D01*
X21285714Y25933334D01*
%TO.C,C214*%
X26285714Y22104762D02*
X26323809Y22066667D01*
X26361904Y21952381D01*
X26361904Y21876191D01*
X26323809Y21761905D01*
X26247619Y21685715D01*
X26171428Y21647620D01*
X26019047Y21609524D01*
X25904761Y21609524D01*
X25752380Y21647620D01*
X25676190Y21685715D01*
X25600000Y21761905D01*
X25561904Y21876191D01*
X25561904Y21952381D01*
X25600000Y22066667D01*
X25638095Y22104762D01*
X25638095Y22409524D02*
X25600000Y22447620D01*
X25561904Y22523810D01*
X25561904Y22714286D01*
X25600000Y22790477D01*
X25638095Y22828572D01*
X25714285Y22866667D01*
X25790476Y22866667D01*
X25904761Y22828572D01*
X26361904Y22371429D01*
X26361904Y22866667D01*
X26361904Y23628572D02*
X26361904Y23171429D01*
X26361904Y23400000D02*
X25561904Y23400000D01*
X25676190Y23323810D01*
X25752380Y23247620D01*
X25790476Y23171429D01*
X25828571Y24314286D02*
X26361904Y24314286D01*
X25523809Y24123810D02*
X26095238Y23933334D01*
X26095238Y24428572D01*
%TO.C,C213*%
X17354761Y22214286D02*
X17316666Y22176191D01*
X17202380Y22138096D01*
X17126190Y22138096D01*
X17011904Y22176191D01*
X16935714Y22252381D01*
X16897619Y22328572D01*
X16859523Y22480953D01*
X16859523Y22595239D01*
X16897619Y22747620D01*
X16935714Y22823810D01*
X17011904Y22900000D01*
X17126190Y22938096D01*
X17202380Y22938096D01*
X17316666Y22900000D01*
X17354761Y22861905D01*
X17659523Y22861905D02*
X17697619Y22900000D01*
X17773809Y22938096D01*
X17964285Y22938096D01*
X18040476Y22900000D01*
X18078571Y22861905D01*
X18116666Y22785715D01*
X18116666Y22709524D01*
X18078571Y22595239D01*
X17621428Y22138096D01*
X18116666Y22138096D01*
X18878571Y22138096D02*
X18421428Y22138096D01*
X18650000Y22138096D02*
X18650000Y22938096D01*
X18573809Y22823810D01*
X18497619Y22747620D01*
X18421428Y22709524D01*
X19145238Y22938096D02*
X19640476Y22938096D01*
X19373809Y22633334D01*
X19488095Y22633334D01*
X19564285Y22595239D01*
X19602380Y22557143D01*
X19640476Y22480953D01*
X19640476Y22290477D01*
X19602380Y22214286D01*
X19564285Y22176191D01*
X19488095Y22138096D01*
X19259523Y22138096D01*
X19183333Y22176191D01*
X19145238Y22214286D01*
%TO.C,C212*%
X19785714Y28104762D02*
X19823809Y28066667D01*
X19861904Y27952381D01*
X19861904Y27876191D01*
X19823809Y27761905D01*
X19747619Y27685715D01*
X19671428Y27647620D01*
X19519047Y27609524D01*
X19404761Y27609524D01*
X19252380Y27647620D01*
X19176190Y27685715D01*
X19100000Y27761905D01*
X19061904Y27876191D01*
X19061904Y27952381D01*
X19100000Y28066667D01*
X19138095Y28104762D01*
X19138095Y28409524D02*
X19100000Y28447620D01*
X19061904Y28523810D01*
X19061904Y28714286D01*
X19100000Y28790477D01*
X19138095Y28828572D01*
X19214285Y28866667D01*
X19290476Y28866667D01*
X19404761Y28828572D01*
X19861904Y28371429D01*
X19861904Y28866667D01*
X19861904Y29628572D02*
X19861904Y29171429D01*
X19861904Y29400000D02*
X19061904Y29400000D01*
X19176190Y29323810D01*
X19252380Y29247620D01*
X19290476Y29171429D01*
X19138095Y29933334D02*
X19100000Y29971429D01*
X19061904Y30047620D01*
X19061904Y30238096D01*
X19100000Y30314286D01*
X19138095Y30352381D01*
X19214285Y30390477D01*
X19290476Y30390477D01*
X19404761Y30352381D01*
X19861904Y29895239D01*
X19861904Y30390477D01*
%TO.C,C211*%
X10104761Y28214286D02*
X10066666Y28176191D01*
X9952380Y28138096D01*
X9876190Y28138096D01*
X9761904Y28176191D01*
X9685714Y28252381D01*
X9647619Y28328572D01*
X9609523Y28480953D01*
X9609523Y28595239D01*
X9647619Y28747620D01*
X9685714Y28823810D01*
X9761904Y28900000D01*
X9876190Y28938096D01*
X9952380Y28938096D01*
X10066666Y28900000D01*
X10104761Y28861905D01*
X10409523Y28861905D02*
X10447619Y28900000D01*
X10523809Y28938096D01*
X10714285Y28938096D01*
X10790476Y28900000D01*
X10828571Y28861905D01*
X10866666Y28785715D01*
X10866666Y28709524D01*
X10828571Y28595239D01*
X10371428Y28138096D01*
X10866666Y28138096D01*
X11628571Y28138096D02*
X11171428Y28138096D01*
X11400000Y28138096D02*
X11400000Y28938096D01*
X11323809Y28823810D01*
X11247619Y28747620D01*
X11171428Y28709524D01*
X12390476Y28138096D02*
X11933333Y28138096D01*
X12161904Y28138096D02*
X12161904Y28938096D01*
X12085714Y28823810D01*
X12009523Y28747620D01*
X11933333Y28709524D01*
%TO.C,C210*%
X16354761Y29964286D02*
X16316666Y29926191D01*
X16202380Y29888096D01*
X16126190Y29888096D01*
X16011904Y29926191D01*
X15935714Y30002381D01*
X15897619Y30078572D01*
X15859523Y30230953D01*
X15859523Y30345239D01*
X15897619Y30497620D01*
X15935714Y30573810D01*
X16011904Y30650000D01*
X16126190Y30688096D01*
X16202380Y30688096D01*
X16316666Y30650000D01*
X16354761Y30611905D01*
X16659523Y30611905D02*
X16697619Y30650000D01*
X16773809Y30688096D01*
X16964285Y30688096D01*
X17040476Y30650000D01*
X17078571Y30611905D01*
X17116666Y30535715D01*
X17116666Y30459524D01*
X17078571Y30345239D01*
X16621428Y29888096D01*
X17116666Y29888096D01*
X17878571Y29888096D02*
X17421428Y29888096D01*
X17650000Y29888096D02*
X17650000Y30688096D01*
X17573809Y30573810D01*
X17497619Y30497620D01*
X17421428Y30459524D01*
X18373809Y30688096D02*
X18450000Y30688096D01*
X18526190Y30650000D01*
X18564285Y30611905D01*
X18602380Y30535715D01*
X18640476Y30383334D01*
X18640476Y30192858D01*
X18602380Y30040477D01*
X18564285Y29964286D01*
X18526190Y29926191D01*
X18450000Y29888096D01*
X18373809Y29888096D01*
X18297619Y29926191D01*
X18259523Y29964286D01*
X18221428Y30040477D01*
X18183333Y30192858D01*
X18183333Y30383334D01*
X18221428Y30535715D01*
X18259523Y30611905D01*
X18297619Y30650000D01*
X18373809Y30688096D01*
%TO.C,C209*%
X16354761Y31714286D02*
X16316666Y31676191D01*
X16202380Y31638096D01*
X16126190Y31638096D01*
X16011904Y31676191D01*
X15935714Y31752381D01*
X15897619Y31828572D01*
X15859523Y31980953D01*
X15859523Y32095239D01*
X15897619Y32247620D01*
X15935714Y32323810D01*
X16011904Y32400000D01*
X16126190Y32438096D01*
X16202380Y32438096D01*
X16316666Y32400000D01*
X16354761Y32361905D01*
X16659523Y32361905D02*
X16697619Y32400000D01*
X16773809Y32438096D01*
X16964285Y32438096D01*
X17040476Y32400000D01*
X17078571Y32361905D01*
X17116666Y32285715D01*
X17116666Y32209524D01*
X17078571Y32095239D01*
X16621428Y31638096D01*
X17116666Y31638096D01*
X17611904Y32438096D02*
X17688095Y32438096D01*
X17764285Y32400000D01*
X17802380Y32361905D01*
X17840476Y32285715D01*
X17878571Y32133334D01*
X17878571Y31942858D01*
X17840476Y31790477D01*
X17802380Y31714286D01*
X17764285Y31676191D01*
X17688095Y31638096D01*
X17611904Y31638096D01*
X17535714Y31676191D01*
X17497619Y31714286D01*
X17459523Y31790477D01*
X17421428Y31942858D01*
X17421428Y32133334D01*
X17459523Y32285715D01*
X17497619Y32361905D01*
X17535714Y32400000D01*
X17611904Y32438096D01*
X18259523Y31638096D02*
X18411904Y31638096D01*
X18488095Y31676191D01*
X18526190Y31714286D01*
X18602380Y31828572D01*
X18640476Y31980953D01*
X18640476Y32285715D01*
X18602380Y32361905D01*
X18564285Y32400000D01*
X18488095Y32438096D01*
X18335714Y32438096D01*
X18259523Y32400000D01*
X18221428Y32361905D01*
X18183333Y32285715D01*
X18183333Y32095239D01*
X18221428Y32019048D01*
X18259523Y31980953D01*
X18335714Y31942858D01*
X18488095Y31942858D01*
X18564285Y31980953D01*
X18602380Y32019048D01*
X18640476Y32095239D01*
%TO.C,C208*%
X10285714Y21104762D02*
X10323809Y21066667D01*
X10361904Y20952381D01*
X10361904Y20876191D01*
X10323809Y20761905D01*
X10247619Y20685715D01*
X10171428Y20647620D01*
X10019047Y20609524D01*
X9904761Y20609524D01*
X9752380Y20647620D01*
X9676190Y20685715D01*
X9600000Y20761905D01*
X9561904Y20876191D01*
X9561904Y20952381D01*
X9600000Y21066667D01*
X9638095Y21104762D01*
X9638095Y21409524D02*
X9600000Y21447620D01*
X9561904Y21523810D01*
X9561904Y21714286D01*
X9600000Y21790477D01*
X9638095Y21828572D01*
X9714285Y21866667D01*
X9790476Y21866667D01*
X9904761Y21828572D01*
X10361904Y21371429D01*
X10361904Y21866667D01*
X9561904Y22361905D02*
X9561904Y22438096D01*
X9600000Y22514286D01*
X9638095Y22552381D01*
X9714285Y22590477D01*
X9866666Y22628572D01*
X10057142Y22628572D01*
X10209523Y22590477D01*
X10285714Y22552381D01*
X10323809Y22514286D01*
X10361904Y22438096D01*
X10361904Y22361905D01*
X10323809Y22285715D01*
X10285714Y22247620D01*
X10209523Y22209524D01*
X10057142Y22171429D01*
X9866666Y22171429D01*
X9714285Y22209524D01*
X9638095Y22247620D01*
X9600000Y22285715D01*
X9561904Y22361905D01*
X9904761Y23085715D02*
X9866666Y23009524D01*
X9828571Y22971429D01*
X9752380Y22933334D01*
X9714285Y22933334D01*
X9638095Y22971429D01*
X9600000Y23009524D01*
X9561904Y23085715D01*
X9561904Y23238096D01*
X9600000Y23314286D01*
X9638095Y23352381D01*
X9714285Y23390477D01*
X9752380Y23390477D01*
X9828571Y23352381D01*
X9866666Y23314286D01*
X9904761Y23238096D01*
X9904761Y23085715D01*
X9942857Y23009524D01*
X9980952Y22971429D01*
X10057142Y22933334D01*
X10209523Y22933334D01*
X10285714Y22971429D01*
X10323809Y23009524D01*
X10361904Y23085715D01*
X10361904Y23238096D01*
X10323809Y23314286D01*
X10285714Y23352381D01*
X10209523Y23390477D01*
X10057142Y23390477D01*
X9980952Y23352381D01*
X9942857Y23314286D01*
X9904761Y23238096D01*
%TO.C,C207*%
X6035714Y21104762D02*
X6073809Y21066667D01*
X6111904Y20952381D01*
X6111904Y20876191D01*
X6073809Y20761905D01*
X5997619Y20685715D01*
X5921428Y20647620D01*
X5769047Y20609524D01*
X5654761Y20609524D01*
X5502380Y20647620D01*
X5426190Y20685715D01*
X5350000Y20761905D01*
X5311904Y20876191D01*
X5311904Y20952381D01*
X5350000Y21066667D01*
X5388095Y21104762D01*
X5388095Y21409524D02*
X5350000Y21447620D01*
X5311904Y21523810D01*
X5311904Y21714286D01*
X5350000Y21790477D01*
X5388095Y21828572D01*
X5464285Y21866667D01*
X5540476Y21866667D01*
X5654761Y21828572D01*
X6111904Y21371429D01*
X6111904Y21866667D01*
X5311904Y22361905D02*
X5311904Y22438096D01*
X5350000Y22514286D01*
X5388095Y22552381D01*
X5464285Y22590477D01*
X5616666Y22628572D01*
X5807142Y22628572D01*
X5959523Y22590477D01*
X6035714Y22552381D01*
X6073809Y22514286D01*
X6111904Y22438096D01*
X6111904Y22361905D01*
X6073809Y22285715D01*
X6035714Y22247620D01*
X5959523Y22209524D01*
X5807142Y22171429D01*
X5616666Y22171429D01*
X5464285Y22209524D01*
X5388095Y22247620D01*
X5350000Y22285715D01*
X5311904Y22361905D01*
X5311904Y22895239D02*
X5311904Y23428572D01*
X6111904Y23085715D01*
%TO.C,C206*%
X16604761Y33714286D02*
X16566666Y33676191D01*
X16452380Y33638096D01*
X16376190Y33638096D01*
X16261904Y33676191D01*
X16185714Y33752381D01*
X16147619Y33828572D01*
X16109523Y33980953D01*
X16109523Y34095239D01*
X16147619Y34247620D01*
X16185714Y34323810D01*
X16261904Y34400000D01*
X16376190Y34438096D01*
X16452380Y34438096D01*
X16566666Y34400000D01*
X16604761Y34361905D01*
X16909523Y34361905D02*
X16947619Y34400000D01*
X17023809Y34438096D01*
X17214285Y34438096D01*
X17290476Y34400000D01*
X17328571Y34361905D01*
X17366666Y34285715D01*
X17366666Y34209524D01*
X17328571Y34095239D01*
X16871428Y33638096D01*
X17366666Y33638096D01*
X17861904Y34438096D02*
X17938095Y34438096D01*
X18014285Y34400000D01*
X18052380Y34361905D01*
X18090476Y34285715D01*
X18128571Y34133334D01*
X18128571Y33942858D01*
X18090476Y33790477D01*
X18052380Y33714286D01*
X18014285Y33676191D01*
X17938095Y33638096D01*
X17861904Y33638096D01*
X17785714Y33676191D01*
X17747619Y33714286D01*
X17709523Y33790477D01*
X17671428Y33942858D01*
X17671428Y34133334D01*
X17709523Y34285715D01*
X17747619Y34361905D01*
X17785714Y34400000D01*
X17861904Y34438096D01*
X18814285Y34438096D02*
X18661904Y34438096D01*
X18585714Y34400000D01*
X18547619Y34361905D01*
X18471428Y34247620D01*
X18433333Y34095239D01*
X18433333Y33790477D01*
X18471428Y33714286D01*
X18509523Y33676191D01*
X18585714Y33638096D01*
X18738095Y33638096D01*
X18814285Y33676191D01*
X18852380Y33714286D01*
X18890476Y33790477D01*
X18890476Y33980953D01*
X18852380Y34057143D01*
X18814285Y34095239D01*
X18738095Y34133334D01*
X18585714Y34133334D01*
X18509523Y34095239D01*
X18471428Y34057143D01*
X18433333Y33980953D01*
%TO.C,C205*%
X6604761Y32964286D02*
X6566666Y32926191D01*
X6452380Y32888096D01*
X6376190Y32888096D01*
X6261904Y32926191D01*
X6185714Y33002381D01*
X6147619Y33078572D01*
X6109523Y33230953D01*
X6109523Y33345239D01*
X6147619Y33497620D01*
X6185714Y33573810D01*
X6261904Y33650000D01*
X6376190Y33688096D01*
X6452380Y33688096D01*
X6566666Y33650000D01*
X6604761Y33611905D01*
X6909523Y33611905D02*
X6947619Y33650000D01*
X7023809Y33688096D01*
X7214285Y33688096D01*
X7290476Y33650000D01*
X7328571Y33611905D01*
X7366666Y33535715D01*
X7366666Y33459524D01*
X7328571Y33345239D01*
X6871428Y32888096D01*
X7366666Y32888096D01*
X7861904Y33688096D02*
X7938095Y33688096D01*
X8014285Y33650000D01*
X8052380Y33611905D01*
X8090476Y33535715D01*
X8128571Y33383334D01*
X8128571Y33192858D01*
X8090476Y33040477D01*
X8052380Y32964286D01*
X8014285Y32926191D01*
X7938095Y32888096D01*
X7861904Y32888096D01*
X7785714Y32926191D01*
X7747619Y32964286D01*
X7709523Y33040477D01*
X7671428Y33192858D01*
X7671428Y33383334D01*
X7709523Y33535715D01*
X7747619Y33611905D01*
X7785714Y33650000D01*
X7861904Y33688096D01*
X8852380Y33688096D02*
X8471428Y33688096D01*
X8433333Y33307143D01*
X8471428Y33345239D01*
X8547619Y33383334D01*
X8738095Y33383334D01*
X8814285Y33345239D01*
X8852380Y33307143D01*
X8890476Y33230953D01*
X8890476Y33040477D01*
X8852380Y32964286D01*
X8814285Y32926191D01*
X8738095Y32888096D01*
X8547619Y32888096D01*
X8471428Y32926191D01*
X8433333Y32964286D01*
%TO.C,C204*%
X6604761Y30714286D02*
X6566666Y30676191D01*
X6452380Y30638096D01*
X6376190Y30638096D01*
X6261904Y30676191D01*
X6185714Y30752381D01*
X6147619Y30828572D01*
X6109523Y30980953D01*
X6109523Y31095239D01*
X6147619Y31247620D01*
X6185714Y31323810D01*
X6261904Y31400000D01*
X6376190Y31438096D01*
X6452380Y31438096D01*
X6566666Y31400000D01*
X6604761Y31361905D01*
X6909523Y31361905D02*
X6947619Y31400000D01*
X7023809Y31438096D01*
X7214285Y31438096D01*
X7290476Y31400000D01*
X7328571Y31361905D01*
X7366666Y31285715D01*
X7366666Y31209524D01*
X7328571Y31095239D01*
X6871428Y30638096D01*
X7366666Y30638096D01*
X7861904Y31438096D02*
X7938095Y31438096D01*
X8014285Y31400000D01*
X8052380Y31361905D01*
X8090476Y31285715D01*
X8128571Y31133334D01*
X8128571Y30942858D01*
X8090476Y30790477D01*
X8052380Y30714286D01*
X8014285Y30676191D01*
X7938095Y30638096D01*
X7861904Y30638096D01*
X7785714Y30676191D01*
X7747619Y30714286D01*
X7709523Y30790477D01*
X7671428Y30942858D01*
X7671428Y31133334D01*
X7709523Y31285715D01*
X7747619Y31361905D01*
X7785714Y31400000D01*
X7861904Y31438096D01*
X8814285Y31171429D02*
X8814285Y30638096D01*
X8623809Y31476191D02*
X8433333Y30904762D01*
X8928571Y30904762D01*
%TO.C,C203*%
X16604761Y35964286D02*
X16566666Y35926191D01*
X16452380Y35888096D01*
X16376190Y35888096D01*
X16261904Y35926191D01*
X16185714Y36002381D01*
X16147619Y36078572D01*
X16109523Y36230953D01*
X16109523Y36345239D01*
X16147619Y36497620D01*
X16185714Y36573810D01*
X16261904Y36650000D01*
X16376190Y36688096D01*
X16452380Y36688096D01*
X16566666Y36650000D01*
X16604761Y36611905D01*
X16909523Y36611905D02*
X16947619Y36650000D01*
X17023809Y36688096D01*
X17214285Y36688096D01*
X17290476Y36650000D01*
X17328571Y36611905D01*
X17366666Y36535715D01*
X17366666Y36459524D01*
X17328571Y36345239D01*
X16871428Y35888096D01*
X17366666Y35888096D01*
X17861904Y36688096D02*
X17938095Y36688096D01*
X18014285Y36650000D01*
X18052380Y36611905D01*
X18090476Y36535715D01*
X18128571Y36383334D01*
X18128571Y36192858D01*
X18090476Y36040477D01*
X18052380Y35964286D01*
X18014285Y35926191D01*
X17938095Y35888096D01*
X17861904Y35888096D01*
X17785714Y35926191D01*
X17747619Y35964286D01*
X17709523Y36040477D01*
X17671428Y36192858D01*
X17671428Y36383334D01*
X17709523Y36535715D01*
X17747619Y36611905D01*
X17785714Y36650000D01*
X17861904Y36688096D01*
X18395238Y36688096D02*
X18890476Y36688096D01*
X18623809Y36383334D01*
X18738095Y36383334D01*
X18814285Y36345239D01*
X18852380Y36307143D01*
X18890476Y36230953D01*
X18890476Y36040477D01*
X18852380Y35964286D01*
X18814285Y35926191D01*
X18738095Y35888096D01*
X18509523Y35888096D01*
X18433333Y35926191D01*
X18395238Y35964286D01*
%TO.C,C202*%
X6604761Y28464286D02*
X6566666Y28426191D01*
X6452380Y28388096D01*
X6376190Y28388096D01*
X6261904Y28426191D01*
X6185714Y28502381D01*
X6147619Y28578572D01*
X6109523Y28730953D01*
X6109523Y28845239D01*
X6147619Y28997620D01*
X6185714Y29073810D01*
X6261904Y29150000D01*
X6376190Y29188096D01*
X6452380Y29188096D01*
X6566666Y29150000D01*
X6604761Y29111905D01*
X6909523Y29111905D02*
X6947619Y29150000D01*
X7023809Y29188096D01*
X7214285Y29188096D01*
X7290476Y29150000D01*
X7328571Y29111905D01*
X7366666Y29035715D01*
X7366666Y28959524D01*
X7328571Y28845239D01*
X6871428Y28388096D01*
X7366666Y28388096D01*
X7861904Y29188096D02*
X7938095Y29188096D01*
X8014285Y29150000D01*
X8052380Y29111905D01*
X8090476Y29035715D01*
X8128571Y28883334D01*
X8128571Y28692858D01*
X8090476Y28540477D01*
X8052380Y28464286D01*
X8014285Y28426191D01*
X7938095Y28388096D01*
X7861904Y28388096D01*
X7785714Y28426191D01*
X7747619Y28464286D01*
X7709523Y28540477D01*
X7671428Y28692858D01*
X7671428Y28883334D01*
X7709523Y29035715D01*
X7747619Y29111905D01*
X7785714Y29150000D01*
X7861904Y29188096D01*
X8433333Y29111905D02*
X8471428Y29150000D01*
X8547619Y29188096D01*
X8738095Y29188096D01*
X8814285Y29150000D01*
X8852380Y29111905D01*
X8890476Y29035715D01*
X8890476Y28959524D01*
X8852380Y28845239D01*
X8395238Y28388096D01*
X8890476Y28388096D01*
%TO.C,C201*%
X8285714Y21104762D02*
X8323809Y21066667D01*
X8361904Y20952381D01*
X8361904Y20876191D01*
X8323809Y20761905D01*
X8247619Y20685715D01*
X8171428Y20647620D01*
X8019047Y20609524D01*
X7904761Y20609524D01*
X7752380Y20647620D01*
X7676190Y20685715D01*
X7600000Y20761905D01*
X7561904Y20876191D01*
X7561904Y20952381D01*
X7600000Y21066667D01*
X7638095Y21104762D01*
X7638095Y21409524D02*
X7600000Y21447620D01*
X7561904Y21523810D01*
X7561904Y21714286D01*
X7600000Y21790477D01*
X7638095Y21828572D01*
X7714285Y21866667D01*
X7790476Y21866667D01*
X7904761Y21828572D01*
X8361904Y21371429D01*
X8361904Y21866667D01*
X7561904Y22361905D02*
X7561904Y22438096D01*
X7600000Y22514286D01*
X7638095Y22552381D01*
X7714285Y22590477D01*
X7866666Y22628572D01*
X8057142Y22628572D01*
X8209523Y22590477D01*
X8285714Y22552381D01*
X8323809Y22514286D01*
X8361904Y22438096D01*
X8361904Y22361905D01*
X8323809Y22285715D01*
X8285714Y22247620D01*
X8209523Y22209524D01*
X8057142Y22171429D01*
X7866666Y22171429D01*
X7714285Y22209524D01*
X7638095Y22247620D01*
X7600000Y22285715D01*
X7561904Y22361905D01*
X8361904Y23390477D02*
X8361904Y22933334D01*
X8361904Y23161905D02*
X7561904Y23161905D01*
X7676190Y23085715D01*
X7752380Y23009524D01*
X7790476Y22933334D01*
%TO.C,C101*%
X36604761Y1464286D02*
X36566666Y1426191D01*
X36452380Y1388096D01*
X36376190Y1388096D01*
X36261904Y1426191D01*
X36185714Y1502381D01*
X36147619Y1578572D01*
X36109523Y1730953D01*
X36109523Y1845239D01*
X36147619Y1997620D01*
X36185714Y2073810D01*
X36261904Y2150000D01*
X36376190Y2188096D01*
X36452380Y2188096D01*
X36566666Y2150000D01*
X36604761Y2111905D01*
X37366666Y1388096D02*
X36909523Y1388096D01*
X37138095Y1388096D02*
X37138095Y2188096D01*
X37061904Y2073810D01*
X36985714Y1997620D01*
X36909523Y1959524D01*
X37861904Y2188096D02*
X37938095Y2188096D01*
X38014285Y2150000D01*
X38052380Y2111905D01*
X38090476Y2035715D01*
X38128571Y1883334D01*
X38128571Y1692858D01*
X38090476Y1540477D01*
X38052380Y1464286D01*
X38014285Y1426191D01*
X37938095Y1388096D01*
X37861904Y1388096D01*
X37785714Y1426191D01*
X37747619Y1464286D01*
X37709523Y1540477D01*
X37671428Y1692858D01*
X37671428Y1883334D01*
X37709523Y2035715D01*
X37747619Y2111905D01*
X37785714Y2150000D01*
X37861904Y2188096D01*
X38890476Y1388096D02*
X38433333Y1388096D01*
X38661904Y1388096D02*
X38661904Y2188096D01*
X38585714Y2073810D01*
X38509523Y1997620D01*
X38433333Y1959524D01*
%TD*%
M02*
