%TF.GenerationSoftware,KiCad,Pcbnew,5.1.6-c6e7f7d~87~ubuntu20.04.1*%
%TF.CreationDate,2020-09-19T17:37:15+02:00*%
%TF.ProjectId,maxim-optimizer,6d617869-6d2d-46f7-9074-696d697a6572,rev?*%
%TF.SameCoordinates,PX3ef1480PY6acfc00*%
%TF.FileFunction,Copper,L1,Top*%
%TF.FilePolarity,Positive*%
%FSLAX46Y46*%
G04 Gerber Fmt 4.6, Leading zero omitted, Abs format (unit mm)*
G04 Created by KiCad (PCBNEW 5.1.6-c6e7f7d~87~ubuntu20.04.1) date 2020-09-19 17:37:15*
%MOMM*%
%LPD*%
G01*
G04 APERTURE LIST*
%TA.AperFunction,ComponentPad*%
%ADD10C,4.000000*%
%TD*%
%TA.AperFunction,SMDPad,CuDef*%
%ADD11R,3.100000X5.000000*%
%TD*%
%TA.AperFunction,SMDPad,CuDef*%
%ADD12R,3.500000X3.500000*%
%TD*%
%TA.AperFunction,ViaPad*%
%ADD13C,1.000000*%
%TD*%
%TA.AperFunction,ViaPad*%
%ADD14C,0.800000*%
%TD*%
%TA.AperFunction,Conductor*%
%ADD15C,0.250000*%
%TD*%
%TA.AperFunction,Conductor*%
%ADD16C,0.200000*%
%TD*%
G04 APERTURE END LIST*
%TO.P,U201,10*%
%TO.N,/Out-*%
%TA.AperFunction,SMDPad,CuDef*%
G36*
G01*
X16825542Y27300000D02*
X17612458Y27300000D01*
G75*
G02*
X17700000Y27212458I0J-87542D01*
G01*
X17700000Y26174542D01*
G75*
G02*
X17612458Y26087000I-87542J0D01*
G01*
X16825542Y26087000D01*
G75*
G02*
X16738000Y26174542I0J87542D01*
G01*
X16738000Y27212458D01*
G75*
G02*
X16825542Y27300000I87542J0D01*
G01*
G37*
%TD.AperFunction*%
%TO.P,U201,8*%
%TA.AperFunction,SMDPad,CuDef*%
G36*
G01*
X16825542Y24913000D02*
X17612458Y24913000D01*
G75*
G02*
X17700000Y24825458I0J-87542D01*
G01*
X17700000Y23787542D01*
G75*
G02*
X17612458Y23700000I-87542J0D01*
G01*
X16825542Y23700000D01*
G75*
G02*
X16738000Y23787542I0J87542D01*
G01*
X16738000Y24825458D01*
G75*
G02*
X16825542Y24913000I87542J0D01*
G01*
G37*
%TD.AperFunction*%
%TO.P,U201,9*%
%TA.AperFunction,SMDPad,CuDef*%
G36*
G01*
X16750124Y25812000D02*
X17611876Y25812000D01*
G75*
G02*
X17700000Y25723876I0J-88124D01*
G01*
X17700000Y25275124D01*
G75*
G02*
X17611876Y25187000I-88124J0D01*
G01*
X16750124Y25187000D01*
G75*
G02*
X16662000Y25275124I0J88124D01*
G01*
X16662000Y25723876D01*
G75*
G02*
X16750124Y25812000I88124J0D01*
G01*
G37*
%TD.AperFunction*%
%TO.P,U201,1*%
%TO.N,Net-(C212-Pad1)*%
%TA.AperFunction,SMDPad,CuDef*%
G36*
G01*
X16225075Y27300000D02*
X16373925Y27300000D01*
G75*
G02*
X16462000Y27211925I0J-88075D01*
G01*
X16462000Y26350075D01*
G75*
G02*
X16373925Y26262000I-88075J0D01*
G01*
X16225075Y26262000D01*
G75*
G02*
X16137000Y26350075I0J88075D01*
G01*
X16137000Y27211925D01*
G75*
G02*
X16225075Y27300000I88075J0D01*
G01*
G37*
%TD.AperFunction*%
%TO.P,U201,2*%
%TO.N,/Out-*%
%TA.AperFunction,SMDPad,CuDef*%
G36*
G01*
X15625075Y27300000D02*
X15773925Y27300000D01*
G75*
G02*
X15862000Y27211925I0J-88075D01*
G01*
X15862000Y26350075D01*
G75*
G02*
X15773925Y26262000I-88075J0D01*
G01*
X15625075Y26262000D01*
G75*
G02*
X15537000Y26350075I0J88075D01*
G01*
X15537000Y27211925D01*
G75*
G02*
X15625075Y27300000I88075J0D01*
G01*
G37*
%TD.AperFunction*%
%TO.P,U201,6*%
%TO.N,Net-(C213-Pad1)*%
%TA.AperFunction,SMDPad,CuDef*%
G36*
G01*
X15625075Y24738000D02*
X15773925Y24738000D01*
G75*
G02*
X15862000Y24649925I0J-88075D01*
G01*
X15862000Y23788075D01*
G75*
G02*
X15773925Y23700000I-88075J0D01*
G01*
X15625075Y23700000D01*
G75*
G02*
X15537000Y23788075I0J88075D01*
G01*
X15537000Y24649925D01*
G75*
G02*
X15625075Y24738000I88075J0D01*
G01*
G37*
%TD.AperFunction*%
%TO.P,U201,7*%
%TO.N,/Out-*%
%TA.AperFunction,SMDPad,CuDef*%
G36*
G01*
X16225075Y24738000D02*
X16373925Y24738000D01*
G75*
G02*
X16462000Y24649925I0J-88075D01*
G01*
X16462000Y23788075D01*
G75*
G02*
X16373925Y23700000I-88075J0D01*
G01*
X16225075Y23700000D01*
G75*
G02*
X16137000Y23788075I0J88075D01*
G01*
X16137000Y24649925D01*
G75*
G02*
X16225075Y24738000I88075J0D01*
G01*
G37*
%TD.AperFunction*%
%TO.P,U201,3*%
%TA.AperFunction,SMDPad,CuDef*%
G36*
G01*
X14525275Y27300000D02*
X15173725Y27300000D01*
G75*
G02*
X15262000Y27211725I0J-88275D01*
G01*
X15262000Y26175275D01*
G75*
G02*
X15173725Y26087000I-88275J0D01*
G01*
X14525275Y26087000D01*
G75*
G02*
X14437000Y26175275I0J88275D01*
G01*
X14437000Y27211725D01*
G75*
G02*
X14525275Y27300000I88275J0D01*
G01*
G37*
%TD.AperFunction*%
%TO.P,U201,4*%
%TO.N,/PV1+*%
%TA.AperFunction,SMDPad,CuDef*%
G36*
G01*
X11388549Y27300000D02*
X14074451Y27300000D01*
G75*
G02*
X14163000Y27211451I0J-88549D01*
G01*
X14163000Y26175549D01*
G75*
G02*
X14074451Y26087000I-88549J0D01*
G01*
X11388549Y26087000D01*
G75*
G02*
X11300000Y26175549I0J88549D01*
G01*
X11300000Y27211451D01*
G75*
G02*
X11388549Y27300000I88549J0D01*
G01*
G37*
%TD.AperFunction*%
%TO.P,U201,5*%
%TO.N,/Channel 1/sw*%
%TA.AperFunction,SMDPad,CuDef*%
G36*
G01*
X11388549Y24913000D02*
X15174451Y24913000D01*
G75*
G02*
X15263000Y24824451I0J-88549D01*
G01*
X15263000Y23788549D01*
G75*
G02*
X15174451Y23700000I-88549J0D01*
G01*
X11388549Y23700000D01*
G75*
G02*
X11300000Y23788549I0J88549D01*
G01*
X11300000Y24824451D01*
G75*
G02*
X11388549Y24913000I88549J0D01*
G01*
G37*
%TD.AperFunction*%
%TD*%
%TO.P,U401,10*%
%TO.N,/Out23*%
%TA.AperFunction,SMDPad,CuDef*%
G36*
G01*
X68825542Y27300000D02*
X69612458Y27300000D01*
G75*
G02*
X69700000Y27212458I0J-87542D01*
G01*
X69700000Y26174542D01*
G75*
G02*
X69612458Y26087000I-87542J0D01*
G01*
X68825542Y26087000D01*
G75*
G02*
X68738000Y26174542I0J87542D01*
G01*
X68738000Y27212458D01*
G75*
G02*
X68825542Y27300000I87542J0D01*
G01*
G37*
%TD.AperFunction*%
%TO.P,U401,8*%
%TA.AperFunction,SMDPad,CuDef*%
G36*
G01*
X68825542Y24913000D02*
X69612458Y24913000D01*
G75*
G02*
X69700000Y24825458I0J-87542D01*
G01*
X69700000Y23787542D01*
G75*
G02*
X69612458Y23700000I-87542J0D01*
G01*
X68825542Y23700000D01*
G75*
G02*
X68738000Y23787542I0J87542D01*
G01*
X68738000Y24825458D01*
G75*
G02*
X68825542Y24913000I87542J0D01*
G01*
G37*
%TD.AperFunction*%
%TO.P,U401,9*%
%TA.AperFunction,SMDPad,CuDef*%
G36*
G01*
X68750124Y25812000D02*
X69611876Y25812000D01*
G75*
G02*
X69700000Y25723876I0J-88124D01*
G01*
X69700000Y25275124D01*
G75*
G02*
X69611876Y25187000I-88124J0D01*
G01*
X68750124Y25187000D01*
G75*
G02*
X68662000Y25275124I0J88124D01*
G01*
X68662000Y25723876D01*
G75*
G02*
X68750124Y25812000I88124J0D01*
G01*
G37*
%TD.AperFunction*%
%TO.P,U401,1*%
%TO.N,Net-(C412-Pad1)*%
%TA.AperFunction,SMDPad,CuDef*%
G36*
G01*
X68225075Y27300000D02*
X68373925Y27300000D01*
G75*
G02*
X68462000Y27211925I0J-88075D01*
G01*
X68462000Y26350075D01*
G75*
G02*
X68373925Y26262000I-88075J0D01*
G01*
X68225075Y26262000D01*
G75*
G02*
X68137000Y26350075I0J88075D01*
G01*
X68137000Y27211925D01*
G75*
G02*
X68225075Y27300000I88075J0D01*
G01*
G37*
%TD.AperFunction*%
%TO.P,U401,2*%
%TO.N,/Out23*%
%TA.AperFunction,SMDPad,CuDef*%
G36*
G01*
X67625075Y27300000D02*
X67773925Y27300000D01*
G75*
G02*
X67862000Y27211925I0J-88075D01*
G01*
X67862000Y26350075D01*
G75*
G02*
X67773925Y26262000I-88075J0D01*
G01*
X67625075Y26262000D01*
G75*
G02*
X67537000Y26350075I0J88075D01*
G01*
X67537000Y27211925D01*
G75*
G02*
X67625075Y27300000I88075J0D01*
G01*
G37*
%TD.AperFunction*%
%TO.P,U401,6*%
%TO.N,Net-(C413-Pad1)*%
%TA.AperFunction,SMDPad,CuDef*%
G36*
G01*
X67625075Y24738000D02*
X67773925Y24738000D01*
G75*
G02*
X67862000Y24649925I0J-88075D01*
G01*
X67862000Y23788075D01*
G75*
G02*
X67773925Y23700000I-88075J0D01*
G01*
X67625075Y23700000D01*
G75*
G02*
X67537000Y23788075I0J88075D01*
G01*
X67537000Y24649925D01*
G75*
G02*
X67625075Y24738000I88075J0D01*
G01*
G37*
%TD.AperFunction*%
%TO.P,U401,7*%
%TO.N,/Out23*%
%TA.AperFunction,SMDPad,CuDef*%
G36*
G01*
X68225075Y24738000D02*
X68373925Y24738000D01*
G75*
G02*
X68462000Y24649925I0J-88075D01*
G01*
X68462000Y23788075D01*
G75*
G02*
X68373925Y23700000I-88075J0D01*
G01*
X68225075Y23700000D01*
G75*
G02*
X68137000Y23788075I0J88075D01*
G01*
X68137000Y24649925D01*
G75*
G02*
X68225075Y24738000I88075J0D01*
G01*
G37*
%TD.AperFunction*%
%TO.P,U401,3*%
%TA.AperFunction,SMDPad,CuDef*%
G36*
G01*
X66525275Y27300000D02*
X67173725Y27300000D01*
G75*
G02*
X67262000Y27211725I0J-88275D01*
G01*
X67262000Y26175275D01*
G75*
G02*
X67173725Y26087000I-88275J0D01*
G01*
X66525275Y26087000D01*
G75*
G02*
X66437000Y26175275I0J88275D01*
G01*
X66437000Y27211725D01*
G75*
G02*
X66525275Y27300000I88275J0D01*
G01*
G37*
%TD.AperFunction*%
%TO.P,U401,4*%
%TO.N,/PV3+*%
%TA.AperFunction,SMDPad,CuDef*%
G36*
G01*
X63388549Y27300000D02*
X66074451Y27300000D01*
G75*
G02*
X66163000Y27211451I0J-88549D01*
G01*
X66163000Y26175549D01*
G75*
G02*
X66074451Y26087000I-88549J0D01*
G01*
X63388549Y26087000D01*
G75*
G02*
X63300000Y26175549I0J88549D01*
G01*
X63300000Y27211451D01*
G75*
G02*
X63388549Y27300000I88549J0D01*
G01*
G37*
%TD.AperFunction*%
%TO.P,U401,5*%
%TO.N,/Channel 3/sw*%
%TA.AperFunction,SMDPad,CuDef*%
G36*
G01*
X63388549Y24913000D02*
X67174451Y24913000D01*
G75*
G02*
X67263000Y24824451I0J-88549D01*
G01*
X67263000Y23788549D01*
G75*
G02*
X67174451Y23700000I-88549J0D01*
G01*
X63388549Y23700000D01*
G75*
G02*
X63300000Y23788549I0J88549D01*
G01*
X63300000Y24824451D01*
G75*
G02*
X63388549Y24913000I88549J0D01*
G01*
G37*
%TD.AperFunction*%
%TD*%
%TO.P,U301,10*%
%TO.N,/Out12*%
%TA.AperFunction,SMDPad,CuDef*%
G36*
G01*
X42825542Y27300000D02*
X43612458Y27300000D01*
G75*
G02*
X43700000Y27212458I0J-87542D01*
G01*
X43700000Y26174542D01*
G75*
G02*
X43612458Y26087000I-87542J0D01*
G01*
X42825542Y26087000D01*
G75*
G02*
X42738000Y26174542I0J87542D01*
G01*
X42738000Y27212458D01*
G75*
G02*
X42825542Y27300000I87542J0D01*
G01*
G37*
%TD.AperFunction*%
%TO.P,U301,8*%
%TA.AperFunction,SMDPad,CuDef*%
G36*
G01*
X42825542Y24913000D02*
X43612458Y24913000D01*
G75*
G02*
X43700000Y24825458I0J-87542D01*
G01*
X43700000Y23787542D01*
G75*
G02*
X43612458Y23700000I-87542J0D01*
G01*
X42825542Y23700000D01*
G75*
G02*
X42738000Y23787542I0J87542D01*
G01*
X42738000Y24825458D01*
G75*
G02*
X42825542Y24913000I87542J0D01*
G01*
G37*
%TD.AperFunction*%
%TO.P,U301,9*%
%TA.AperFunction,SMDPad,CuDef*%
G36*
G01*
X42750124Y25812000D02*
X43611876Y25812000D01*
G75*
G02*
X43700000Y25723876I0J-88124D01*
G01*
X43700000Y25275124D01*
G75*
G02*
X43611876Y25187000I-88124J0D01*
G01*
X42750124Y25187000D01*
G75*
G02*
X42662000Y25275124I0J88124D01*
G01*
X42662000Y25723876D01*
G75*
G02*
X42750124Y25812000I88124J0D01*
G01*
G37*
%TD.AperFunction*%
%TO.P,U301,1*%
%TO.N,Net-(C312-Pad1)*%
%TA.AperFunction,SMDPad,CuDef*%
G36*
G01*
X42225075Y27300000D02*
X42373925Y27300000D01*
G75*
G02*
X42462000Y27211925I0J-88075D01*
G01*
X42462000Y26350075D01*
G75*
G02*
X42373925Y26262000I-88075J0D01*
G01*
X42225075Y26262000D01*
G75*
G02*
X42137000Y26350075I0J88075D01*
G01*
X42137000Y27211925D01*
G75*
G02*
X42225075Y27300000I88075J0D01*
G01*
G37*
%TD.AperFunction*%
%TO.P,U301,2*%
%TO.N,/Out12*%
%TA.AperFunction,SMDPad,CuDef*%
G36*
G01*
X41625075Y27300000D02*
X41773925Y27300000D01*
G75*
G02*
X41862000Y27211925I0J-88075D01*
G01*
X41862000Y26350075D01*
G75*
G02*
X41773925Y26262000I-88075J0D01*
G01*
X41625075Y26262000D01*
G75*
G02*
X41537000Y26350075I0J88075D01*
G01*
X41537000Y27211925D01*
G75*
G02*
X41625075Y27300000I88075J0D01*
G01*
G37*
%TD.AperFunction*%
%TO.P,U301,6*%
%TO.N,Net-(C313-Pad1)*%
%TA.AperFunction,SMDPad,CuDef*%
G36*
G01*
X41625075Y24738000D02*
X41773925Y24738000D01*
G75*
G02*
X41862000Y24649925I0J-88075D01*
G01*
X41862000Y23788075D01*
G75*
G02*
X41773925Y23700000I-88075J0D01*
G01*
X41625075Y23700000D01*
G75*
G02*
X41537000Y23788075I0J88075D01*
G01*
X41537000Y24649925D01*
G75*
G02*
X41625075Y24738000I88075J0D01*
G01*
G37*
%TD.AperFunction*%
%TO.P,U301,7*%
%TO.N,/Out12*%
%TA.AperFunction,SMDPad,CuDef*%
G36*
G01*
X42225075Y24738000D02*
X42373925Y24738000D01*
G75*
G02*
X42462000Y24649925I0J-88075D01*
G01*
X42462000Y23788075D01*
G75*
G02*
X42373925Y23700000I-88075J0D01*
G01*
X42225075Y23700000D01*
G75*
G02*
X42137000Y23788075I0J88075D01*
G01*
X42137000Y24649925D01*
G75*
G02*
X42225075Y24738000I88075J0D01*
G01*
G37*
%TD.AperFunction*%
%TO.P,U301,3*%
%TA.AperFunction,SMDPad,CuDef*%
G36*
G01*
X40525275Y27300000D02*
X41173725Y27300000D01*
G75*
G02*
X41262000Y27211725I0J-88275D01*
G01*
X41262000Y26175275D01*
G75*
G02*
X41173725Y26087000I-88275J0D01*
G01*
X40525275Y26087000D01*
G75*
G02*
X40437000Y26175275I0J88275D01*
G01*
X40437000Y27211725D01*
G75*
G02*
X40525275Y27300000I88275J0D01*
G01*
G37*
%TD.AperFunction*%
%TO.P,U301,4*%
%TO.N,/PV2+*%
%TA.AperFunction,SMDPad,CuDef*%
G36*
G01*
X37388549Y27300000D02*
X40074451Y27300000D01*
G75*
G02*
X40163000Y27211451I0J-88549D01*
G01*
X40163000Y26175549D01*
G75*
G02*
X40074451Y26087000I-88549J0D01*
G01*
X37388549Y26087000D01*
G75*
G02*
X37300000Y26175549I0J88549D01*
G01*
X37300000Y27211451D01*
G75*
G02*
X37388549Y27300000I88549J0D01*
G01*
G37*
%TD.AperFunction*%
%TO.P,U301,5*%
%TO.N,/Channel 2/sw*%
%TA.AperFunction,SMDPad,CuDef*%
G36*
G01*
X37388549Y24913000D02*
X41174451Y24913000D01*
G75*
G02*
X41263000Y24824451I0J-88549D01*
G01*
X41263000Y23788549D01*
G75*
G02*
X41174451Y23700000I-88549J0D01*
G01*
X37388549Y23700000D01*
G75*
G02*
X37300000Y23788549I0J88549D01*
G01*
X37300000Y24824451D01*
G75*
G02*
X37388549Y24913000I88549J0D01*
G01*
G37*
%TD.AperFunction*%
%TD*%
D10*
%TO.P,SP110,1*%
%TO.N,/Out-*%
X21000000Y5000000D03*
%TD*%
%TO.P,SP109,1*%
%TO.N,/Out+*%
X73000000Y5000000D03*
%TD*%
%TO.P,SP108,1*%
%TO.N,/Out12*%
X32000000Y15000000D03*
%TD*%
%TO.P,SP107,1*%
%TO.N,/Out23*%
X59000000Y15000000D03*
%TD*%
%TO.P,SP106,1*%
%TO.N,/Out-*%
X19000000Y41000000D03*
%TD*%
%TO.P,SP105,1*%
%TO.N,/PV1+*%
X9000000Y41000000D03*
%TD*%
%TO.P,SP104,1*%
%TO.N,/Out12*%
X45000000Y41000000D03*
%TD*%
%TO.P,SP103,1*%
%TO.N,/PV2+*%
X35000000Y41000000D03*
%TD*%
%TO.P,SP102,1*%
%TO.N,/Out23*%
X71000000Y41000000D03*
%TD*%
%TO.P,SP101,1*%
%TO.N,/PV3+*%
X61000000Y41000000D03*
%TD*%
%TO.P,R101,2*%
%TO.N,/Out-*%
%TA.AperFunction,SMDPad,CuDef*%
G36*
G01*
X36800000Y4050000D02*
X36800000Y3450000D01*
G75*
G02*
X36650000Y3300000I-150000J0D01*
G01*
X36350000Y3300000D01*
G75*
G02*
X36200000Y3450000I0J150000D01*
G01*
X36200000Y4050000D01*
G75*
G02*
X36350000Y4200000I150000J0D01*
G01*
X36650000Y4200000D01*
G75*
G02*
X36800000Y4050000I0J-150000D01*
G01*
G37*
%TD.AperFunction*%
%TO.P,R101,1*%
%TO.N,Net-(C101-Pad2)*%
%TA.AperFunction,SMDPad,CuDef*%
G36*
G01*
X38300000Y4050000D02*
X38300000Y3450000D01*
G75*
G02*
X38150000Y3300000I-150000J0D01*
G01*
X37850000Y3300000D01*
G75*
G02*
X37700000Y3450000I0J150000D01*
G01*
X37700000Y4050000D01*
G75*
G02*
X37850000Y4200000I150000J0D01*
G01*
X38150000Y4200000D01*
G75*
G02*
X38300000Y4050000I0J-150000D01*
G01*
G37*
%TD.AperFunction*%
%TD*%
D11*
%TO.P,L401,2*%
%TO.N,/Out+*%
X77300000Y14750000D03*
%TO.P,L401,1*%
%TO.N,/Channel 3/sw*%
X66200000Y14750000D03*
%TD*%
%TO.P,L301,2*%
%TO.N,/Out23*%
X51300000Y14750000D03*
%TO.P,L301,1*%
%TO.N,/Channel 2/sw*%
X40200000Y14750000D03*
%TD*%
%TO.P,L201,2*%
%TO.N,/Out12*%
X25300000Y14750000D03*
%TO.P,L201,1*%
%TO.N,/Channel 1/sw*%
X14200000Y14750000D03*
%TD*%
D12*
%TO.P,D101,2*%
%TO.N,/Out+*%
X46000000Y2000000D03*
X46000000Y5500000D03*
X49500000Y2000000D03*
X49500000Y5500000D03*
%TO.P,D101,3*%
%TO.N,/Out-*%
%TA.AperFunction,SMDPad,CuDef*%
G36*
G01*
X39975000Y2200000D02*
X41725000Y2200000D01*
G75*
G02*
X42100000Y1825000I0J-375000D01*
G01*
X42100000Y1075000D01*
G75*
G02*
X41725000Y700000I-375000J0D01*
G01*
X39975000Y700000D01*
G75*
G02*
X39600000Y1075000I0J375000D01*
G01*
X39600000Y1825000D01*
G75*
G02*
X39975000Y2200000I375000J0D01*
G01*
G37*
%TD.AperFunction*%
%TO.P,D101,1*%
%TA.AperFunction,SMDPad,CuDef*%
G36*
G01*
X39975000Y6800000D02*
X41725000Y6800000D01*
G75*
G02*
X42100000Y6425000I0J-375000D01*
G01*
X42100000Y5675000D01*
G75*
G02*
X41725000Y5300000I-375000J0D01*
G01*
X39975000Y5300000D01*
G75*
G02*
X39600000Y5675000I0J375000D01*
G01*
X39600000Y6425000D01*
G75*
G02*
X39975000Y6800000I375000J0D01*
G01*
G37*
%TD.AperFunction*%
%TD*%
%TO.P,C418,1*%
%TO.N,/Out+*%
%TA.AperFunction,SMDPad,CuDef*%
G36*
G01*
X77000000Y32175000D02*
X77000000Y31325000D01*
G75*
G02*
X76750000Y31075000I-250000J0D01*
G01*
X76250000Y31075000D01*
G75*
G02*
X76000000Y31325000I0J250000D01*
G01*
X76000000Y32175000D01*
G75*
G02*
X76250000Y32425000I250000J0D01*
G01*
X76750000Y32425000D01*
G75*
G02*
X77000000Y32175000I0J-250000D01*
G01*
G37*
%TD.AperFunction*%
%TO.P,C418,2*%
%TO.N,/Out23*%
%TA.AperFunction,SMDPad,CuDef*%
G36*
G01*
X75000000Y32175000D02*
X75000000Y31325000D01*
G75*
G02*
X74750000Y31075000I-250000J0D01*
G01*
X74250000Y31075000D01*
G75*
G02*
X74000000Y31325000I0J250000D01*
G01*
X74000000Y32175000D01*
G75*
G02*
X74250000Y32425000I250000J0D01*
G01*
X74750000Y32425000D01*
G75*
G02*
X75000000Y32175000I0J-250000D01*
G01*
G37*
%TD.AperFunction*%
%TD*%
%TO.P,C417,1*%
%TO.N,/Out+*%
%TA.AperFunction,SMDPad,CuDef*%
G36*
G01*
X77000000Y29925000D02*
X77000000Y29075000D01*
G75*
G02*
X76750000Y28825000I-250000J0D01*
G01*
X76250000Y28825000D01*
G75*
G02*
X76000000Y29075000I0J250000D01*
G01*
X76000000Y29925000D01*
G75*
G02*
X76250000Y30175000I250000J0D01*
G01*
X76750000Y30175000D01*
G75*
G02*
X77000000Y29925000I0J-250000D01*
G01*
G37*
%TD.AperFunction*%
%TO.P,C417,2*%
%TO.N,/Out23*%
%TA.AperFunction,SMDPad,CuDef*%
G36*
G01*
X75000000Y29925000D02*
X75000000Y29075000D01*
G75*
G02*
X74750000Y28825000I-250000J0D01*
G01*
X74250000Y28825000D01*
G75*
G02*
X74000000Y29075000I0J250000D01*
G01*
X74000000Y29925000D01*
G75*
G02*
X74250000Y30175000I250000J0D01*
G01*
X74750000Y30175000D01*
G75*
G02*
X75000000Y29925000I0J-250000D01*
G01*
G37*
%TD.AperFunction*%
%TD*%
%TO.P,C416,1*%
%TO.N,/Out+*%
%TA.AperFunction,SMDPad,CuDef*%
G36*
G01*
X77000000Y27675000D02*
X77000000Y26825000D01*
G75*
G02*
X76750000Y26575000I-250000J0D01*
G01*
X76250000Y26575000D01*
G75*
G02*
X76000000Y26825000I0J250000D01*
G01*
X76000000Y27675000D01*
G75*
G02*
X76250000Y27925000I250000J0D01*
G01*
X76750000Y27925000D01*
G75*
G02*
X77000000Y27675000I0J-250000D01*
G01*
G37*
%TD.AperFunction*%
%TO.P,C416,2*%
%TO.N,/Out23*%
%TA.AperFunction,SMDPad,CuDef*%
G36*
G01*
X75000000Y27675000D02*
X75000000Y26825000D01*
G75*
G02*
X74750000Y26575000I-250000J0D01*
G01*
X74250000Y26575000D01*
G75*
G02*
X74000000Y26825000I0J250000D01*
G01*
X74000000Y27675000D01*
G75*
G02*
X74250000Y27925000I250000J0D01*
G01*
X74750000Y27925000D01*
G75*
G02*
X75000000Y27675000I0J-250000D01*
G01*
G37*
%TD.AperFunction*%
%TD*%
%TO.P,C415,1*%
%TO.N,/Out+*%
%TA.AperFunction,SMDPad,CuDef*%
G36*
G01*
X77000000Y25425000D02*
X77000000Y24575000D01*
G75*
G02*
X76750000Y24325000I-250000J0D01*
G01*
X76250000Y24325000D01*
G75*
G02*
X76000000Y24575000I0J250000D01*
G01*
X76000000Y25425000D01*
G75*
G02*
X76250000Y25675000I250000J0D01*
G01*
X76750000Y25675000D01*
G75*
G02*
X77000000Y25425000I0J-250000D01*
G01*
G37*
%TD.AperFunction*%
%TO.P,C415,2*%
%TO.N,/Out23*%
%TA.AperFunction,SMDPad,CuDef*%
G36*
G01*
X75000000Y25425000D02*
X75000000Y24575000D01*
G75*
G02*
X74750000Y24325000I-250000J0D01*
G01*
X74250000Y24325000D01*
G75*
G02*
X74000000Y24575000I0J250000D01*
G01*
X74000000Y25425000D01*
G75*
G02*
X74250000Y25675000I250000J0D01*
G01*
X74750000Y25675000D01*
G75*
G02*
X75000000Y25425000I0J-250000D01*
G01*
G37*
%TD.AperFunction*%
%TD*%
%TO.P,C414,1*%
%TO.N,/Out+*%
%TA.AperFunction,SMDPad,CuDef*%
G36*
G01*
X77000000Y23175000D02*
X77000000Y22325000D01*
G75*
G02*
X76750000Y22075000I-250000J0D01*
G01*
X76250000Y22075000D01*
G75*
G02*
X76000000Y22325000I0J250000D01*
G01*
X76000000Y23175000D01*
G75*
G02*
X76250000Y23425000I250000J0D01*
G01*
X76750000Y23425000D01*
G75*
G02*
X77000000Y23175000I0J-250000D01*
G01*
G37*
%TD.AperFunction*%
%TO.P,C414,2*%
%TO.N,/Out23*%
%TA.AperFunction,SMDPad,CuDef*%
G36*
G01*
X75000000Y23175000D02*
X75000000Y22325000D01*
G75*
G02*
X74750000Y22075000I-250000J0D01*
G01*
X74250000Y22075000D01*
G75*
G02*
X74000000Y22325000I0J250000D01*
G01*
X74000000Y23175000D01*
G75*
G02*
X74250000Y23425000I250000J0D01*
G01*
X74750000Y23425000D01*
G75*
G02*
X75000000Y23175000I0J-250000D01*
G01*
G37*
%TD.AperFunction*%
%TD*%
%TO.P,C413,1*%
%TO.N,Net-(C413-Pad1)*%
%TA.AperFunction,SMDPad,CuDef*%
G36*
G01*
X68053680Y22800000D02*
X68053680Y22200000D01*
G75*
G02*
X67903680Y22050000I-150000J0D01*
G01*
X67603680Y22050000D01*
G75*
G02*
X67453680Y22200000I0J150000D01*
G01*
X67453680Y22800000D01*
G75*
G02*
X67603680Y22950000I150000J0D01*
G01*
X67903680Y22950000D01*
G75*
G02*
X68053680Y22800000I0J-150000D01*
G01*
G37*
%TD.AperFunction*%
%TO.P,C413,2*%
%TO.N,/Channel 3/sw*%
%TA.AperFunction,SMDPad,CuDef*%
G36*
G01*
X66550000Y22800000D02*
X66550000Y22200000D01*
G75*
G02*
X66400000Y22050000I-150000J0D01*
G01*
X66100000Y22050000D01*
G75*
G02*
X65950000Y22200000I0J150000D01*
G01*
X65950000Y22800000D01*
G75*
G02*
X66100000Y22950000I150000J0D01*
G01*
X66400000Y22950000D01*
G75*
G02*
X66550000Y22800000I0J-150000D01*
G01*
G37*
%TD.AperFunction*%
%TD*%
%TO.P,C412,1*%
%TO.N,Net-(C412-Pad1)*%
%TA.AperFunction,SMDPad,CuDef*%
G36*
G01*
X68198160Y28200000D02*
X68198160Y28800000D01*
G75*
G02*
X68348160Y28950000I150000J0D01*
G01*
X68648160Y28950000D01*
G75*
G02*
X68798160Y28800000I0J-150000D01*
G01*
X68798160Y28200000D01*
G75*
G02*
X68648160Y28050000I-150000J0D01*
G01*
X68348160Y28050000D01*
G75*
G02*
X68198160Y28200000I0J150000D01*
G01*
G37*
%TD.AperFunction*%
%TO.P,C412,2*%
%TO.N,/Out23*%
%TA.AperFunction,SMDPad,CuDef*%
G36*
G01*
X69701840Y28200000D02*
X69701840Y28800000D01*
G75*
G02*
X69851840Y28950000I150000J0D01*
G01*
X70151840Y28950000D01*
G75*
G02*
X70301840Y28800000I0J-150000D01*
G01*
X70301840Y28200000D01*
G75*
G02*
X70151840Y28050000I-150000J0D01*
G01*
X69851840Y28050000D01*
G75*
G02*
X69701840Y28200000I0J150000D01*
G01*
G37*
%TD.AperFunction*%
%TD*%
%TO.P,C411,1*%
%TO.N,/PV3+*%
%TA.AperFunction,SMDPad,CuDef*%
G36*
G01*
X64948160Y28200000D02*
X64948160Y28800000D01*
G75*
G02*
X65098160Y28950000I150000J0D01*
G01*
X65398160Y28950000D01*
G75*
G02*
X65548160Y28800000I0J-150000D01*
G01*
X65548160Y28200000D01*
G75*
G02*
X65398160Y28050000I-150000J0D01*
G01*
X65098160Y28050000D01*
G75*
G02*
X64948160Y28200000I0J150000D01*
G01*
G37*
%TD.AperFunction*%
%TO.P,C411,2*%
%TO.N,/Out23*%
%TA.AperFunction,SMDPad,CuDef*%
G36*
G01*
X66451840Y28200000D02*
X66451840Y28800000D01*
G75*
G02*
X66601840Y28950000I150000J0D01*
G01*
X66901840Y28950000D01*
G75*
G02*
X67051840Y28800000I0J-150000D01*
G01*
X67051840Y28200000D01*
G75*
G02*
X66901840Y28050000I-150000J0D01*
G01*
X66601840Y28050000D01*
G75*
G02*
X66451840Y28200000I0J150000D01*
G01*
G37*
%TD.AperFunction*%
%TD*%
%TO.P,C410,1*%
%TO.N,/PV3+*%
%TA.AperFunction,SMDPad,CuDef*%
G36*
G01*
X64948160Y29950000D02*
X64948160Y30550000D01*
G75*
G02*
X65098160Y30700000I150000J0D01*
G01*
X65398160Y30700000D01*
G75*
G02*
X65548160Y30550000I0J-150000D01*
G01*
X65548160Y29950000D01*
G75*
G02*
X65398160Y29800000I-150000J0D01*
G01*
X65098160Y29800000D01*
G75*
G02*
X64948160Y29950000I0J150000D01*
G01*
G37*
%TD.AperFunction*%
%TO.P,C410,2*%
%TO.N,/Out23*%
%TA.AperFunction,SMDPad,CuDef*%
G36*
G01*
X66451840Y29950000D02*
X66451840Y30550000D01*
G75*
G02*
X66601840Y30700000I150000J0D01*
G01*
X66901840Y30700000D01*
G75*
G02*
X67051840Y30550000I0J-150000D01*
G01*
X67051840Y29950000D01*
G75*
G02*
X66901840Y29800000I-150000J0D01*
G01*
X66601840Y29800000D01*
G75*
G02*
X66451840Y29950000I0J150000D01*
G01*
G37*
%TD.AperFunction*%
%TD*%
%TO.P,C409,1*%
%TO.N,/PV3+*%
%TA.AperFunction,SMDPad,CuDef*%
G36*
G01*
X64948160Y31700000D02*
X64948160Y32300000D01*
G75*
G02*
X65098160Y32450000I150000J0D01*
G01*
X65398160Y32450000D01*
G75*
G02*
X65548160Y32300000I0J-150000D01*
G01*
X65548160Y31700000D01*
G75*
G02*
X65398160Y31550000I-150000J0D01*
G01*
X65098160Y31550000D01*
G75*
G02*
X64948160Y31700000I0J150000D01*
G01*
G37*
%TD.AperFunction*%
%TO.P,C409,2*%
%TO.N,/Out23*%
%TA.AperFunction,SMDPad,CuDef*%
G36*
G01*
X66451840Y31700000D02*
X66451840Y32300000D01*
G75*
G02*
X66601840Y32450000I150000J0D01*
G01*
X66901840Y32450000D01*
G75*
G02*
X67051840Y32300000I0J-150000D01*
G01*
X67051840Y31700000D01*
G75*
G02*
X66901840Y31550000I-150000J0D01*
G01*
X66601840Y31550000D01*
G75*
G02*
X66451840Y31700000I0J150000D01*
G01*
G37*
%TD.AperFunction*%
%TD*%
%TO.P,C408,1*%
%TO.N,/PV3+*%
%TA.AperFunction,SMDPad,CuDef*%
G36*
G01*
X61700000Y26551840D02*
X62300000Y26551840D01*
G75*
G02*
X62450000Y26401840I0J-150000D01*
G01*
X62450000Y26101840D01*
G75*
G02*
X62300000Y25951840I-150000J0D01*
G01*
X61700000Y25951840D01*
G75*
G02*
X61550000Y26101840I0J150000D01*
G01*
X61550000Y26401840D01*
G75*
G02*
X61700000Y26551840I150000J0D01*
G01*
G37*
%TD.AperFunction*%
%TO.P,C408,2*%
%TO.N,/Out23*%
%TA.AperFunction,SMDPad,CuDef*%
G36*
G01*
X61700000Y25048160D02*
X62300000Y25048160D01*
G75*
G02*
X62450000Y24898160I0J-150000D01*
G01*
X62450000Y24598160D01*
G75*
G02*
X62300000Y24448160I-150000J0D01*
G01*
X61700000Y24448160D01*
G75*
G02*
X61550000Y24598160I0J150000D01*
G01*
X61550000Y24898160D01*
G75*
G02*
X61700000Y25048160I150000J0D01*
G01*
G37*
%TD.AperFunction*%
%TD*%
%TO.P,C407,1*%
%TO.N,/PV3+*%
%TA.AperFunction,SMDPad,CuDef*%
G36*
G01*
X57325000Y27000000D02*
X58175000Y27000000D01*
G75*
G02*
X58425000Y26750000I0J-250000D01*
G01*
X58425000Y26250000D01*
G75*
G02*
X58175000Y26000000I-250000J0D01*
G01*
X57325000Y26000000D01*
G75*
G02*
X57075000Y26250000I0J250000D01*
G01*
X57075000Y26750000D01*
G75*
G02*
X57325000Y27000000I250000J0D01*
G01*
G37*
%TD.AperFunction*%
%TO.P,C407,2*%
%TO.N,/Out23*%
%TA.AperFunction,SMDPad,CuDef*%
G36*
G01*
X57325000Y25000000D02*
X58175000Y25000000D01*
G75*
G02*
X58425000Y24750000I0J-250000D01*
G01*
X58425000Y24250000D01*
G75*
G02*
X58175000Y24000000I-250000J0D01*
G01*
X57325000Y24000000D01*
G75*
G02*
X57075000Y24250000I0J250000D01*
G01*
X57075000Y24750000D01*
G75*
G02*
X57325000Y25000000I250000J0D01*
G01*
G37*
%TD.AperFunction*%
%TD*%
%TO.P,C406,1*%
%TO.N,/PV3+*%
%TA.AperFunction,SMDPad,CuDef*%
G36*
G01*
X64500000Y33575000D02*
X64500000Y34425000D01*
G75*
G02*
X64750000Y34675000I250000J0D01*
G01*
X65250000Y34675000D01*
G75*
G02*
X65500000Y34425000I0J-250000D01*
G01*
X65500000Y33575000D01*
G75*
G02*
X65250000Y33325000I-250000J0D01*
G01*
X64750000Y33325000D01*
G75*
G02*
X64500000Y33575000I0J250000D01*
G01*
G37*
%TD.AperFunction*%
%TO.P,C406,2*%
%TO.N,/Out23*%
%TA.AperFunction,SMDPad,CuDef*%
G36*
G01*
X66500000Y33575000D02*
X66500000Y34425000D01*
G75*
G02*
X66750000Y34675000I250000J0D01*
G01*
X67250000Y34675000D01*
G75*
G02*
X67500000Y34425000I0J-250000D01*
G01*
X67500000Y33575000D01*
G75*
G02*
X67250000Y33325000I-250000J0D01*
G01*
X66750000Y33325000D01*
G75*
G02*
X66500000Y33575000I0J250000D01*
G01*
G37*
%TD.AperFunction*%
%TD*%
%TO.P,C405,1*%
%TO.N,/PV3+*%
%TA.AperFunction,SMDPad,CuDef*%
G36*
G01*
X57500000Y33675000D02*
X57500000Y32825000D01*
G75*
G02*
X57250000Y32575000I-250000J0D01*
G01*
X56750000Y32575000D01*
G75*
G02*
X56500000Y32825000I0J250000D01*
G01*
X56500000Y33675000D01*
G75*
G02*
X56750000Y33925000I250000J0D01*
G01*
X57250000Y33925000D01*
G75*
G02*
X57500000Y33675000I0J-250000D01*
G01*
G37*
%TD.AperFunction*%
%TO.P,C405,2*%
%TO.N,/Out23*%
%TA.AperFunction,SMDPad,CuDef*%
G36*
G01*
X55500000Y33675000D02*
X55500000Y32825000D01*
G75*
G02*
X55250000Y32575000I-250000J0D01*
G01*
X54750000Y32575000D01*
G75*
G02*
X54500000Y32825000I0J250000D01*
G01*
X54500000Y33675000D01*
G75*
G02*
X54750000Y33925000I250000J0D01*
G01*
X55250000Y33925000D01*
G75*
G02*
X55500000Y33675000I0J-250000D01*
G01*
G37*
%TD.AperFunction*%
%TD*%
%TO.P,C404,1*%
%TO.N,/PV3+*%
%TA.AperFunction,SMDPad,CuDef*%
G36*
G01*
X57500000Y31425000D02*
X57500000Y30575000D01*
G75*
G02*
X57250000Y30325000I-250000J0D01*
G01*
X56750000Y30325000D01*
G75*
G02*
X56500000Y30575000I0J250000D01*
G01*
X56500000Y31425000D01*
G75*
G02*
X56750000Y31675000I250000J0D01*
G01*
X57250000Y31675000D01*
G75*
G02*
X57500000Y31425000I0J-250000D01*
G01*
G37*
%TD.AperFunction*%
%TO.P,C404,2*%
%TO.N,/Out23*%
%TA.AperFunction,SMDPad,CuDef*%
G36*
G01*
X55500000Y31425000D02*
X55500000Y30575000D01*
G75*
G02*
X55250000Y30325000I-250000J0D01*
G01*
X54750000Y30325000D01*
G75*
G02*
X54500000Y30575000I0J250000D01*
G01*
X54500000Y31425000D01*
G75*
G02*
X54750000Y31675000I250000J0D01*
G01*
X55250000Y31675000D01*
G75*
G02*
X55500000Y31425000I0J-250000D01*
G01*
G37*
%TD.AperFunction*%
%TD*%
%TO.P,C403,1*%
%TO.N,/PV3+*%
%TA.AperFunction,SMDPad,CuDef*%
G36*
G01*
X64500000Y35825000D02*
X64500000Y36675000D01*
G75*
G02*
X64750000Y36925000I250000J0D01*
G01*
X65250000Y36925000D01*
G75*
G02*
X65500000Y36675000I0J-250000D01*
G01*
X65500000Y35825000D01*
G75*
G02*
X65250000Y35575000I-250000J0D01*
G01*
X64750000Y35575000D01*
G75*
G02*
X64500000Y35825000I0J250000D01*
G01*
G37*
%TD.AperFunction*%
%TO.P,C403,2*%
%TO.N,/Out23*%
%TA.AperFunction,SMDPad,CuDef*%
G36*
G01*
X66500000Y35825000D02*
X66500000Y36675000D01*
G75*
G02*
X66750000Y36925000I250000J0D01*
G01*
X67250000Y36925000D01*
G75*
G02*
X67500000Y36675000I0J-250000D01*
G01*
X67500000Y35825000D01*
G75*
G02*
X67250000Y35575000I-250000J0D01*
G01*
X66750000Y35575000D01*
G75*
G02*
X66500000Y35825000I0J250000D01*
G01*
G37*
%TD.AperFunction*%
%TD*%
%TO.P,C402,1*%
%TO.N,/PV3+*%
%TA.AperFunction,SMDPad,CuDef*%
G36*
G01*
X57500000Y29175000D02*
X57500000Y28325000D01*
G75*
G02*
X57250000Y28075000I-250000J0D01*
G01*
X56750000Y28075000D01*
G75*
G02*
X56500000Y28325000I0J250000D01*
G01*
X56500000Y29175000D01*
G75*
G02*
X56750000Y29425000I250000J0D01*
G01*
X57250000Y29425000D01*
G75*
G02*
X57500000Y29175000I0J-250000D01*
G01*
G37*
%TD.AperFunction*%
%TO.P,C402,2*%
%TO.N,/Out23*%
%TA.AperFunction,SMDPad,CuDef*%
G36*
G01*
X55500000Y29175000D02*
X55500000Y28325000D01*
G75*
G02*
X55250000Y28075000I-250000J0D01*
G01*
X54750000Y28075000D01*
G75*
G02*
X54500000Y28325000I0J250000D01*
G01*
X54500000Y29175000D01*
G75*
G02*
X54750000Y29425000I250000J0D01*
G01*
X55250000Y29425000D01*
G75*
G02*
X55500000Y29175000I0J-250000D01*
G01*
G37*
%TD.AperFunction*%
%TD*%
%TO.P,C401,1*%
%TO.N,/PV3+*%
%TA.AperFunction,SMDPad,CuDef*%
G36*
G01*
X59575000Y27000000D02*
X60425000Y27000000D01*
G75*
G02*
X60675000Y26750000I0J-250000D01*
G01*
X60675000Y26250000D01*
G75*
G02*
X60425000Y26000000I-250000J0D01*
G01*
X59575000Y26000000D01*
G75*
G02*
X59325000Y26250000I0J250000D01*
G01*
X59325000Y26750000D01*
G75*
G02*
X59575000Y27000000I250000J0D01*
G01*
G37*
%TD.AperFunction*%
%TO.P,C401,2*%
%TO.N,/Out23*%
%TA.AperFunction,SMDPad,CuDef*%
G36*
G01*
X59575000Y25000000D02*
X60425000Y25000000D01*
G75*
G02*
X60675000Y24750000I0J-250000D01*
G01*
X60675000Y24250000D01*
G75*
G02*
X60425000Y24000000I-250000J0D01*
G01*
X59575000Y24000000D01*
G75*
G02*
X59325000Y24250000I0J250000D01*
G01*
X59325000Y24750000D01*
G75*
G02*
X59575000Y25000000I250000J0D01*
G01*
G37*
%TD.AperFunction*%
%TD*%
%TO.P,C318,1*%
%TO.N,/Out23*%
%TA.AperFunction,SMDPad,CuDef*%
G36*
G01*
X51000000Y32175000D02*
X51000000Y31325000D01*
G75*
G02*
X50750000Y31075000I-250000J0D01*
G01*
X50250000Y31075000D01*
G75*
G02*
X50000000Y31325000I0J250000D01*
G01*
X50000000Y32175000D01*
G75*
G02*
X50250000Y32425000I250000J0D01*
G01*
X50750000Y32425000D01*
G75*
G02*
X51000000Y32175000I0J-250000D01*
G01*
G37*
%TD.AperFunction*%
%TO.P,C318,2*%
%TO.N,/Out12*%
%TA.AperFunction,SMDPad,CuDef*%
G36*
G01*
X49000000Y32175000D02*
X49000000Y31325000D01*
G75*
G02*
X48750000Y31075000I-250000J0D01*
G01*
X48250000Y31075000D01*
G75*
G02*
X48000000Y31325000I0J250000D01*
G01*
X48000000Y32175000D01*
G75*
G02*
X48250000Y32425000I250000J0D01*
G01*
X48750000Y32425000D01*
G75*
G02*
X49000000Y32175000I0J-250000D01*
G01*
G37*
%TD.AperFunction*%
%TD*%
%TO.P,C317,1*%
%TO.N,/Out23*%
%TA.AperFunction,SMDPad,CuDef*%
G36*
G01*
X51000000Y29925000D02*
X51000000Y29075000D01*
G75*
G02*
X50750000Y28825000I-250000J0D01*
G01*
X50250000Y28825000D01*
G75*
G02*
X50000000Y29075000I0J250000D01*
G01*
X50000000Y29925000D01*
G75*
G02*
X50250000Y30175000I250000J0D01*
G01*
X50750000Y30175000D01*
G75*
G02*
X51000000Y29925000I0J-250000D01*
G01*
G37*
%TD.AperFunction*%
%TO.P,C317,2*%
%TO.N,/Out12*%
%TA.AperFunction,SMDPad,CuDef*%
G36*
G01*
X49000000Y29925000D02*
X49000000Y29075000D01*
G75*
G02*
X48750000Y28825000I-250000J0D01*
G01*
X48250000Y28825000D01*
G75*
G02*
X48000000Y29075000I0J250000D01*
G01*
X48000000Y29925000D01*
G75*
G02*
X48250000Y30175000I250000J0D01*
G01*
X48750000Y30175000D01*
G75*
G02*
X49000000Y29925000I0J-250000D01*
G01*
G37*
%TD.AperFunction*%
%TD*%
%TO.P,C316,1*%
%TO.N,/Out23*%
%TA.AperFunction,SMDPad,CuDef*%
G36*
G01*
X51000000Y27675000D02*
X51000000Y26825000D01*
G75*
G02*
X50750000Y26575000I-250000J0D01*
G01*
X50250000Y26575000D01*
G75*
G02*
X50000000Y26825000I0J250000D01*
G01*
X50000000Y27675000D01*
G75*
G02*
X50250000Y27925000I250000J0D01*
G01*
X50750000Y27925000D01*
G75*
G02*
X51000000Y27675000I0J-250000D01*
G01*
G37*
%TD.AperFunction*%
%TO.P,C316,2*%
%TO.N,/Out12*%
%TA.AperFunction,SMDPad,CuDef*%
G36*
G01*
X49000000Y27675000D02*
X49000000Y26825000D01*
G75*
G02*
X48750000Y26575000I-250000J0D01*
G01*
X48250000Y26575000D01*
G75*
G02*
X48000000Y26825000I0J250000D01*
G01*
X48000000Y27675000D01*
G75*
G02*
X48250000Y27925000I250000J0D01*
G01*
X48750000Y27925000D01*
G75*
G02*
X49000000Y27675000I0J-250000D01*
G01*
G37*
%TD.AperFunction*%
%TD*%
%TO.P,C315,1*%
%TO.N,/Out23*%
%TA.AperFunction,SMDPad,CuDef*%
G36*
G01*
X51000000Y25425000D02*
X51000000Y24575000D01*
G75*
G02*
X50750000Y24325000I-250000J0D01*
G01*
X50250000Y24325000D01*
G75*
G02*
X50000000Y24575000I0J250000D01*
G01*
X50000000Y25425000D01*
G75*
G02*
X50250000Y25675000I250000J0D01*
G01*
X50750000Y25675000D01*
G75*
G02*
X51000000Y25425000I0J-250000D01*
G01*
G37*
%TD.AperFunction*%
%TO.P,C315,2*%
%TO.N,/Out12*%
%TA.AperFunction,SMDPad,CuDef*%
G36*
G01*
X49000000Y25425000D02*
X49000000Y24575000D01*
G75*
G02*
X48750000Y24325000I-250000J0D01*
G01*
X48250000Y24325000D01*
G75*
G02*
X48000000Y24575000I0J250000D01*
G01*
X48000000Y25425000D01*
G75*
G02*
X48250000Y25675000I250000J0D01*
G01*
X48750000Y25675000D01*
G75*
G02*
X49000000Y25425000I0J-250000D01*
G01*
G37*
%TD.AperFunction*%
%TD*%
%TO.P,C314,1*%
%TO.N,/Out23*%
%TA.AperFunction,SMDPad,CuDef*%
G36*
G01*
X51000000Y23175000D02*
X51000000Y22325000D01*
G75*
G02*
X50750000Y22075000I-250000J0D01*
G01*
X50250000Y22075000D01*
G75*
G02*
X50000000Y22325000I0J250000D01*
G01*
X50000000Y23175000D01*
G75*
G02*
X50250000Y23425000I250000J0D01*
G01*
X50750000Y23425000D01*
G75*
G02*
X51000000Y23175000I0J-250000D01*
G01*
G37*
%TD.AperFunction*%
%TO.P,C314,2*%
%TO.N,/Out12*%
%TA.AperFunction,SMDPad,CuDef*%
G36*
G01*
X49000000Y23175000D02*
X49000000Y22325000D01*
G75*
G02*
X48750000Y22075000I-250000J0D01*
G01*
X48250000Y22075000D01*
G75*
G02*
X48000000Y22325000I0J250000D01*
G01*
X48000000Y23175000D01*
G75*
G02*
X48250000Y23425000I250000J0D01*
G01*
X48750000Y23425000D01*
G75*
G02*
X49000000Y23175000I0J-250000D01*
G01*
G37*
%TD.AperFunction*%
%TD*%
%TO.P,C313,1*%
%TO.N,Net-(C313-Pad1)*%
%TA.AperFunction,SMDPad,CuDef*%
G36*
G01*
X42053680Y22800000D02*
X42053680Y22200000D01*
G75*
G02*
X41903680Y22050000I-150000J0D01*
G01*
X41603680Y22050000D01*
G75*
G02*
X41453680Y22200000I0J150000D01*
G01*
X41453680Y22800000D01*
G75*
G02*
X41603680Y22950000I150000J0D01*
G01*
X41903680Y22950000D01*
G75*
G02*
X42053680Y22800000I0J-150000D01*
G01*
G37*
%TD.AperFunction*%
%TO.P,C313,2*%
%TO.N,/Channel 2/sw*%
%TA.AperFunction,SMDPad,CuDef*%
G36*
G01*
X40550000Y22800000D02*
X40550000Y22200000D01*
G75*
G02*
X40400000Y22050000I-150000J0D01*
G01*
X40100000Y22050000D01*
G75*
G02*
X39950000Y22200000I0J150000D01*
G01*
X39950000Y22800000D01*
G75*
G02*
X40100000Y22950000I150000J0D01*
G01*
X40400000Y22950000D01*
G75*
G02*
X40550000Y22800000I0J-150000D01*
G01*
G37*
%TD.AperFunction*%
%TD*%
%TO.P,C312,1*%
%TO.N,Net-(C312-Pad1)*%
%TA.AperFunction,SMDPad,CuDef*%
G36*
G01*
X42198160Y28200000D02*
X42198160Y28800000D01*
G75*
G02*
X42348160Y28950000I150000J0D01*
G01*
X42648160Y28950000D01*
G75*
G02*
X42798160Y28800000I0J-150000D01*
G01*
X42798160Y28200000D01*
G75*
G02*
X42648160Y28050000I-150000J0D01*
G01*
X42348160Y28050000D01*
G75*
G02*
X42198160Y28200000I0J150000D01*
G01*
G37*
%TD.AperFunction*%
%TO.P,C312,2*%
%TO.N,/Out12*%
%TA.AperFunction,SMDPad,CuDef*%
G36*
G01*
X43701840Y28200000D02*
X43701840Y28800000D01*
G75*
G02*
X43851840Y28950000I150000J0D01*
G01*
X44151840Y28950000D01*
G75*
G02*
X44301840Y28800000I0J-150000D01*
G01*
X44301840Y28200000D01*
G75*
G02*
X44151840Y28050000I-150000J0D01*
G01*
X43851840Y28050000D01*
G75*
G02*
X43701840Y28200000I0J150000D01*
G01*
G37*
%TD.AperFunction*%
%TD*%
%TO.P,C311,1*%
%TO.N,/PV2+*%
%TA.AperFunction,SMDPad,CuDef*%
G36*
G01*
X38948160Y28200000D02*
X38948160Y28800000D01*
G75*
G02*
X39098160Y28950000I150000J0D01*
G01*
X39398160Y28950000D01*
G75*
G02*
X39548160Y28800000I0J-150000D01*
G01*
X39548160Y28200000D01*
G75*
G02*
X39398160Y28050000I-150000J0D01*
G01*
X39098160Y28050000D01*
G75*
G02*
X38948160Y28200000I0J150000D01*
G01*
G37*
%TD.AperFunction*%
%TO.P,C311,2*%
%TO.N,/Out12*%
%TA.AperFunction,SMDPad,CuDef*%
G36*
G01*
X40451840Y28200000D02*
X40451840Y28800000D01*
G75*
G02*
X40601840Y28950000I150000J0D01*
G01*
X40901840Y28950000D01*
G75*
G02*
X41051840Y28800000I0J-150000D01*
G01*
X41051840Y28200000D01*
G75*
G02*
X40901840Y28050000I-150000J0D01*
G01*
X40601840Y28050000D01*
G75*
G02*
X40451840Y28200000I0J150000D01*
G01*
G37*
%TD.AperFunction*%
%TD*%
%TO.P,C310,1*%
%TO.N,/PV2+*%
%TA.AperFunction,SMDPad,CuDef*%
G36*
G01*
X38948160Y29950000D02*
X38948160Y30550000D01*
G75*
G02*
X39098160Y30700000I150000J0D01*
G01*
X39398160Y30700000D01*
G75*
G02*
X39548160Y30550000I0J-150000D01*
G01*
X39548160Y29950000D01*
G75*
G02*
X39398160Y29800000I-150000J0D01*
G01*
X39098160Y29800000D01*
G75*
G02*
X38948160Y29950000I0J150000D01*
G01*
G37*
%TD.AperFunction*%
%TO.P,C310,2*%
%TO.N,/Out12*%
%TA.AperFunction,SMDPad,CuDef*%
G36*
G01*
X40451840Y29950000D02*
X40451840Y30550000D01*
G75*
G02*
X40601840Y30700000I150000J0D01*
G01*
X40901840Y30700000D01*
G75*
G02*
X41051840Y30550000I0J-150000D01*
G01*
X41051840Y29950000D01*
G75*
G02*
X40901840Y29800000I-150000J0D01*
G01*
X40601840Y29800000D01*
G75*
G02*
X40451840Y29950000I0J150000D01*
G01*
G37*
%TD.AperFunction*%
%TD*%
%TO.P,C309,1*%
%TO.N,/PV2+*%
%TA.AperFunction,SMDPad,CuDef*%
G36*
G01*
X38948160Y31700000D02*
X38948160Y32300000D01*
G75*
G02*
X39098160Y32450000I150000J0D01*
G01*
X39398160Y32450000D01*
G75*
G02*
X39548160Y32300000I0J-150000D01*
G01*
X39548160Y31700000D01*
G75*
G02*
X39398160Y31550000I-150000J0D01*
G01*
X39098160Y31550000D01*
G75*
G02*
X38948160Y31700000I0J150000D01*
G01*
G37*
%TD.AperFunction*%
%TO.P,C309,2*%
%TO.N,/Out12*%
%TA.AperFunction,SMDPad,CuDef*%
G36*
G01*
X40451840Y31700000D02*
X40451840Y32300000D01*
G75*
G02*
X40601840Y32450000I150000J0D01*
G01*
X40901840Y32450000D01*
G75*
G02*
X41051840Y32300000I0J-150000D01*
G01*
X41051840Y31700000D01*
G75*
G02*
X40901840Y31550000I-150000J0D01*
G01*
X40601840Y31550000D01*
G75*
G02*
X40451840Y31700000I0J150000D01*
G01*
G37*
%TD.AperFunction*%
%TD*%
%TO.P,C308,1*%
%TO.N,/PV2+*%
%TA.AperFunction,SMDPad,CuDef*%
G36*
G01*
X35700000Y26551840D02*
X36300000Y26551840D01*
G75*
G02*
X36450000Y26401840I0J-150000D01*
G01*
X36450000Y26101840D01*
G75*
G02*
X36300000Y25951840I-150000J0D01*
G01*
X35700000Y25951840D01*
G75*
G02*
X35550000Y26101840I0J150000D01*
G01*
X35550000Y26401840D01*
G75*
G02*
X35700000Y26551840I150000J0D01*
G01*
G37*
%TD.AperFunction*%
%TO.P,C308,2*%
%TO.N,/Out12*%
%TA.AperFunction,SMDPad,CuDef*%
G36*
G01*
X35700000Y25048160D02*
X36300000Y25048160D01*
G75*
G02*
X36450000Y24898160I0J-150000D01*
G01*
X36450000Y24598160D01*
G75*
G02*
X36300000Y24448160I-150000J0D01*
G01*
X35700000Y24448160D01*
G75*
G02*
X35550000Y24598160I0J150000D01*
G01*
X35550000Y24898160D01*
G75*
G02*
X35700000Y25048160I150000J0D01*
G01*
G37*
%TD.AperFunction*%
%TD*%
%TO.P,C307,1*%
%TO.N,/PV2+*%
%TA.AperFunction,SMDPad,CuDef*%
G36*
G01*
X31325000Y27000000D02*
X32175000Y27000000D01*
G75*
G02*
X32425000Y26750000I0J-250000D01*
G01*
X32425000Y26250000D01*
G75*
G02*
X32175000Y26000000I-250000J0D01*
G01*
X31325000Y26000000D01*
G75*
G02*
X31075000Y26250000I0J250000D01*
G01*
X31075000Y26750000D01*
G75*
G02*
X31325000Y27000000I250000J0D01*
G01*
G37*
%TD.AperFunction*%
%TO.P,C307,2*%
%TO.N,/Out12*%
%TA.AperFunction,SMDPad,CuDef*%
G36*
G01*
X31325000Y25000000D02*
X32175000Y25000000D01*
G75*
G02*
X32425000Y24750000I0J-250000D01*
G01*
X32425000Y24250000D01*
G75*
G02*
X32175000Y24000000I-250000J0D01*
G01*
X31325000Y24000000D01*
G75*
G02*
X31075000Y24250000I0J250000D01*
G01*
X31075000Y24750000D01*
G75*
G02*
X31325000Y25000000I250000J0D01*
G01*
G37*
%TD.AperFunction*%
%TD*%
%TO.P,C306,1*%
%TO.N,/PV2+*%
%TA.AperFunction,SMDPad,CuDef*%
G36*
G01*
X38500000Y33575000D02*
X38500000Y34425000D01*
G75*
G02*
X38750000Y34675000I250000J0D01*
G01*
X39250000Y34675000D01*
G75*
G02*
X39500000Y34425000I0J-250000D01*
G01*
X39500000Y33575000D01*
G75*
G02*
X39250000Y33325000I-250000J0D01*
G01*
X38750000Y33325000D01*
G75*
G02*
X38500000Y33575000I0J250000D01*
G01*
G37*
%TD.AperFunction*%
%TO.P,C306,2*%
%TO.N,/Out12*%
%TA.AperFunction,SMDPad,CuDef*%
G36*
G01*
X40500000Y33575000D02*
X40500000Y34425000D01*
G75*
G02*
X40750000Y34675000I250000J0D01*
G01*
X41250000Y34675000D01*
G75*
G02*
X41500000Y34425000I0J-250000D01*
G01*
X41500000Y33575000D01*
G75*
G02*
X41250000Y33325000I-250000J0D01*
G01*
X40750000Y33325000D01*
G75*
G02*
X40500000Y33575000I0J250000D01*
G01*
G37*
%TD.AperFunction*%
%TD*%
%TO.P,C305,1*%
%TO.N,/PV2+*%
%TA.AperFunction,SMDPad,CuDef*%
G36*
G01*
X31500000Y33675000D02*
X31500000Y32825000D01*
G75*
G02*
X31250000Y32575000I-250000J0D01*
G01*
X30750000Y32575000D01*
G75*
G02*
X30500000Y32825000I0J250000D01*
G01*
X30500000Y33675000D01*
G75*
G02*
X30750000Y33925000I250000J0D01*
G01*
X31250000Y33925000D01*
G75*
G02*
X31500000Y33675000I0J-250000D01*
G01*
G37*
%TD.AperFunction*%
%TO.P,C305,2*%
%TO.N,/Out12*%
%TA.AperFunction,SMDPad,CuDef*%
G36*
G01*
X29500000Y33675000D02*
X29500000Y32825000D01*
G75*
G02*
X29250000Y32575000I-250000J0D01*
G01*
X28750000Y32575000D01*
G75*
G02*
X28500000Y32825000I0J250000D01*
G01*
X28500000Y33675000D01*
G75*
G02*
X28750000Y33925000I250000J0D01*
G01*
X29250000Y33925000D01*
G75*
G02*
X29500000Y33675000I0J-250000D01*
G01*
G37*
%TD.AperFunction*%
%TD*%
%TO.P,C304,1*%
%TO.N,/PV2+*%
%TA.AperFunction,SMDPad,CuDef*%
G36*
G01*
X31500000Y31425000D02*
X31500000Y30575000D01*
G75*
G02*
X31250000Y30325000I-250000J0D01*
G01*
X30750000Y30325000D01*
G75*
G02*
X30500000Y30575000I0J250000D01*
G01*
X30500000Y31425000D01*
G75*
G02*
X30750000Y31675000I250000J0D01*
G01*
X31250000Y31675000D01*
G75*
G02*
X31500000Y31425000I0J-250000D01*
G01*
G37*
%TD.AperFunction*%
%TO.P,C304,2*%
%TO.N,/Out12*%
%TA.AperFunction,SMDPad,CuDef*%
G36*
G01*
X29500000Y31425000D02*
X29500000Y30575000D01*
G75*
G02*
X29250000Y30325000I-250000J0D01*
G01*
X28750000Y30325000D01*
G75*
G02*
X28500000Y30575000I0J250000D01*
G01*
X28500000Y31425000D01*
G75*
G02*
X28750000Y31675000I250000J0D01*
G01*
X29250000Y31675000D01*
G75*
G02*
X29500000Y31425000I0J-250000D01*
G01*
G37*
%TD.AperFunction*%
%TD*%
%TO.P,C303,1*%
%TO.N,/PV2+*%
%TA.AperFunction,SMDPad,CuDef*%
G36*
G01*
X38500000Y35825000D02*
X38500000Y36675000D01*
G75*
G02*
X38750000Y36925000I250000J0D01*
G01*
X39250000Y36925000D01*
G75*
G02*
X39500000Y36675000I0J-250000D01*
G01*
X39500000Y35825000D01*
G75*
G02*
X39250000Y35575000I-250000J0D01*
G01*
X38750000Y35575000D01*
G75*
G02*
X38500000Y35825000I0J250000D01*
G01*
G37*
%TD.AperFunction*%
%TO.P,C303,2*%
%TO.N,/Out12*%
%TA.AperFunction,SMDPad,CuDef*%
G36*
G01*
X40500000Y35825000D02*
X40500000Y36675000D01*
G75*
G02*
X40750000Y36925000I250000J0D01*
G01*
X41250000Y36925000D01*
G75*
G02*
X41500000Y36675000I0J-250000D01*
G01*
X41500000Y35825000D01*
G75*
G02*
X41250000Y35575000I-250000J0D01*
G01*
X40750000Y35575000D01*
G75*
G02*
X40500000Y35825000I0J250000D01*
G01*
G37*
%TD.AperFunction*%
%TD*%
%TO.P,C302,1*%
%TO.N,/PV2+*%
%TA.AperFunction,SMDPad,CuDef*%
G36*
G01*
X31500000Y29175000D02*
X31500000Y28325000D01*
G75*
G02*
X31250000Y28075000I-250000J0D01*
G01*
X30750000Y28075000D01*
G75*
G02*
X30500000Y28325000I0J250000D01*
G01*
X30500000Y29175000D01*
G75*
G02*
X30750000Y29425000I250000J0D01*
G01*
X31250000Y29425000D01*
G75*
G02*
X31500000Y29175000I0J-250000D01*
G01*
G37*
%TD.AperFunction*%
%TO.P,C302,2*%
%TO.N,/Out12*%
%TA.AperFunction,SMDPad,CuDef*%
G36*
G01*
X29500000Y29175000D02*
X29500000Y28325000D01*
G75*
G02*
X29250000Y28075000I-250000J0D01*
G01*
X28750000Y28075000D01*
G75*
G02*
X28500000Y28325000I0J250000D01*
G01*
X28500000Y29175000D01*
G75*
G02*
X28750000Y29425000I250000J0D01*
G01*
X29250000Y29425000D01*
G75*
G02*
X29500000Y29175000I0J-250000D01*
G01*
G37*
%TD.AperFunction*%
%TD*%
%TO.P,C301,1*%
%TO.N,/PV2+*%
%TA.AperFunction,SMDPad,CuDef*%
G36*
G01*
X33575000Y27000000D02*
X34425000Y27000000D01*
G75*
G02*
X34675000Y26750000I0J-250000D01*
G01*
X34675000Y26250000D01*
G75*
G02*
X34425000Y26000000I-250000J0D01*
G01*
X33575000Y26000000D01*
G75*
G02*
X33325000Y26250000I0J250000D01*
G01*
X33325000Y26750000D01*
G75*
G02*
X33575000Y27000000I250000J0D01*
G01*
G37*
%TD.AperFunction*%
%TO.P,C301,2*%
%TO.N,/Out12*%
%TA.AperFunction,SMDPad,CuDef*%
G36*
G01*
X33575000Y25000000D02*
X34425000Y25000000D01*
G75*
G02*
X34675000Y24750000I0J-250000D01*
G01*
X34675000Y24250000D01*
G75*
G02*
X34425000Y24000000I-250000J0D01*
G01*
X33575000Y24000000D01*
G75*
G02*
X33325000Y24250000I0J250000D01*
G01*
X33325000Y24750000D01*
G75*
G02*
X33575000Y25000000I250000J0D01*
G01*
G37*
%TD.AperFunction*%
%TD*%
%TO.P,C218,1*%
%TO.N,/Out12*%
%TA.AperFunction,SMDPad,CuDef*%
G36*
G01*
X25000000Y32175000D02*
X25000000Y31325000D01*
G75*
G02*
X24750000Y31075000I-250000J0D01*
G01*
X24250000Y31075000D01*
G75*
G02*
X24000000Y31325000I0J250000D01*
G01*
X24000000Y32175000D01*
G75*
G02*
X24250000Y32425000I250000J0D01*
G01*
X24750000Y32425000D01*
G75*
G02*
X25000000Y32175000I0J-250000D01*
G01*
G37*
%TD.AperFunction*%
%TO.P,C218,2*%
%TO.N,/Out-*%
%TA.AperFunction,SMDPad,CuDef*%
G36*
G01*
X23000000Y32175000D02*
X23000000Y31325000D01*
G75*
G02*
X22750000Y31075000I-250000J0D01*
G01*
X22250000Y31075000D01*
G75*
G02*
X22000000Y31325000I0J250000D01*
G01*
X22000000Y32175000D01*
G75*
G02*
X22250000Y32425000I250000J0D01*
G01*
X22750000Y32425000D01*
G75*
G02*
X23000000Y32175000I0J-250000D01*
G01*
G37*
%TD.AperFunction*%
%TD*%
%TO.P,C217,1*%
%TO.N,/Out12*%
%TA.AperFunction,SMDPad,CuDef*%
G36*
G01*
X25000000Y29925000D02*
X25000000Y29075000D01*
G75*
G02*
X24750000Y28825000I-250000J0D01*
G01*
X24250000Y28825000D01*
G75*
G02*
X24000000Y29075000I0J250000D01*
G01*
X24000000Y29925000D01*
G75*
G02*
X24250000Y30175000I250000J0D01*
G01*
X24750000Y30175000D01*
G75*
G02*
X25000000Y29925000I0J-250000D01*
G01*
G37*
%TD.AperFunction*%
%TO.P,C217,2*%
%TO.N,/Out-*%
%TA.AperFunction,SMDPad,CuDef*%
G36*
G01*
X23000000Y29925000D02*
X23000000Y29075000D01*
G75*
G02*
X22750000Y28825000I-250000J0D01*
G01*
X22250000Y28825000D01*
G75*
G02*
X22000000Y29075000I0J250000D01*
G01*
X22000000Y29925000D01*
G75*
G02*
X22250000Y30175000I250000J0D01*
G01*
X22750000Y30175000D01*
G75*
G02*
X23000000Y29925000I0J-250000D01*
G01*
G37*
%TD.AperFunction*%
%TD*%
%TO.P,C216,1*%
%TO.N,/Out12*%
%TA.AperFunction,SMDPad,CuDef*%
G36*
G01*
X25000000Y27675000D02*
X25000000Y26825000D01*
G75*
G02*
X24750000Y26575000I-250000J0D01*
G01*
X24250000Y26575000D01*
G75*
G02*
X24000000Y26825000I0J250000D01*
G01*
X24000000Y27675000D01*
G75*
G02*
X24250000Y27925000I250000J0D01*
G01*
X24750000Y27925000D01*
G75*
G02*
X25000000Y27675000I0J-250000D01*
G01*
G37*
%TD.AperFunction*%
%TO.P,C216,2*%
%TO.N,/Out-*%
%TA.AperFunction,SMDPad,CuDef*%
G36*
G01*
X23000000Y27675000D02*
X23000000Y26825000D01*
G75*
G02*
X22750000Y26575000I-250000J0D01*
G01*
X22250000Y26575000D01*
G75*
G02*
X22000000Y26825000I0J250000D01*
G01*
X22000000Y27675000D01*
G75*
G02*
X22250000Y27925000I250000J0D01*
G01*
X22750000Y27925000D01*
G75*
G02*
X23000000Y27675000I0J-250000D01*
G01*
G37*
%TD.AperFunction*%
%TD*%
%TO.P,C215,1*%
%TO.N,/Out12*%
%TA.AperFunction,SMDPad,CuDef*%
G36*
G01*
X25000000Y25425000D02*
X25000000Y24575000D01*
G75*
G02*
X24750000Y24325000I-250000J0D01*
G01*
X24250000Y24325000D01*
G75*
G02*
X24000000Y24575000I0J250000D01*
G01*
X24000000Y25425000D01*
G75*
G02*
X24250000Y25675000I250000J0D01*
G01*
X24750000Y25675000D01*
G75*
G02*
X25000000Y25425000I0J-250000D01*
G01*
G37*
%TD.AperFunction*%
%TO.P,C215,2*%
%TO.N,/Out-*%
%TA.AperFunction,SMDPad,CuDef*%
G36*
G01*
X23000000Y25425000D02*
X23000000Y24575000D01*
G75*
G02*
X22750000Y24325000I-250000J0D01*
G01*
X22250000Y24325000D01*
G75*
G02*
X22000000Y24575000I0J250000D01*
G01*
X22000000Y25425000D01*
G75*
G02*
X22250000Y25675000I250000J0D01*
G01*
X22750000Y25675000D01*
G75*
G02*
X23000000Y25425000I0J-250000D01*
G01*
G37*
%TD.AperFunction*%
%TD*%
%TO.P,C214,1*%
%TO.N,/Out12*%
%TA.AperFunction,SMDPad,CuDef*%
G36*
G01*
X25000000Y23175000D02*
X25000000Y22325000D01*
G75*
G02*
X24750000Y22075000I-250000J0D01*
G01*
X24250000Y22075000D01*
G75*
G02*
X24000000Y22325000I0J250000D01*
G01*
X24000000Y23175000D01*
G75*
G02*
X24250000Y23425000I250000J0D01*
G01*
X24750000Y23425000D01*
G75*
G02*
X25000000Y23175000I0J-250000D01*
G01*
G37*
%TD.AperFunction*%
%TO.P,C214,2*%
%TO.N,/Out-*%
%TA.AperFunction,SMDPad,CuDef*%
G36*
G01*
X23000000Y23175000D02*
X23000000Y22325000D01*
G75*
G02*
X22750000Y22075000I-250000J0D01*
G01*
X22250000Y22075000D01*
G75*
G02*
X22000000Y22325000I0J250000D01*
G01*
X22000000Y23175000D01*
G75*
G02*
X22250000Y23425000I250000J0D01*
G01*
X22750000Y23425000D01*
G75*
G02*
X23000000Y23175000I0J-250000D01*
G01*
G37*
%TD.AperFunction*%
%TD*%
%TO.P,C213,1*%
%TO.N,Net-(C213-Pad1)*%
%TA.AperFunction,SMDPad,CuDef*%
G36*
G01*
X16053680Y22800000D02*
X16053680Y22200000D01*
G75*
G02*
X15903680Y22050000I-150000J0D01*
G01*
X15603680Y22050000D01*
G75*
G02*
X15453680Y22200000I0J150000D01*
G01*
X15453680Y22800000D01*
G75*
G02*
X15603680Y22950000I150000J0D01*
G01*
X15903680Y22950000D01*
G75*
G02*
X16053680Y22800000I0J-150000D01*
G01*
G37*
%TD.AperFunction*%
%TO.P,C213,2*%
%TO.N,/Channel 1/sw*%
%TA.AperFunction,SMDPad,CuDef*%
G36*
G01*
X14550000Y22800000D02*
X14550000Y22200000D01*
G75*
G02*
X14400000Y22050000I-150000J0D01*
G01*
X14100000Y22050000D01*
G75*
G02*
X13950000Y22200000I0J150000D01*
G01*
X13950000Y22800000D01*
G75*
G02*
X14100000Y22950000I150000J0D01*
G01*
X14400000Y22950000D01*
G75*
G02*
X14550000Y22800000I0J-150000D01*
G01*
G37*
%TD.AperFunction*%
%TD*%
%TO.P,C212,1*%
%TO.N,Net-(C212-Pad1)*%
%TA.AperFunction,SMDPad,CuDef*%
G36*
G01*
X16198160Y28200000D02*
X16198160Y28800000D01*
G75*
G02*
X16348160Y28950000I150000J0D01*
G01*
X16648160Y28950000D01*
G75*
G02*
X16798160Y28800000I0J-150000D01*
G01*
X16798160Y28200000D01*
G75*
G02*
X16648160Y28050000I-150000J0D01*
G01*
X16348160Y28050000D01*
G75*
G02*
X16198160Y28200000I0J150000D01*
G01*
G37*
%TD.AperFunction*%
%TO.P,C212,2*%
%TO.N,/Out-*%
%TA.AperFunction,SMDPad,CuDef*%
G36*
G01*
X17701840Y28200000D02*
X17701840Y28800000D01*
G75*
G02*
X17851840Y28950000I150000J0D01*
G01*
X18151840Y28950000D01*
G75*
G02*
X18301840Y28800000I0J-150000D01*
G01*
X18301840Y28200000D01*
G75*
G02*
X18151840Y28050000I-150000J0D01*
G01*
X17851840Y28050000D01*
G75*
G02*
X17701840Y28200000I0J150000D01*
G01*
G37*
%TD.AperFunction*%
%TD*%
%TO.P,C211,1*%
%TO.N,/PV1+*%
%TA.AperFunction,SMDPad,CuDef*%
G36*
G01*
X12948160Y28200000D02*
X12948160Y28800000D01*
G75*
G02*
X13098160Y28950000I150000J0D01*
G01*
X13398160Y28950000D01*
G75*
G02*
X13548160Y28800000I0J-150000D01*
G01*
X13548160Y28200000D01*
G75*
G02*
X13398160Y28050000I-150000J0D01*
G01*
X13098160Y28050000D01*
G75*
G02*
X12948160Y28200000I0J150000D01*
G01*
G37*
%TD.AperFunction*%
%TO.P,C211,2*%
%TO.N,/Out-*%
%TA.AperFunction,SMDPad,CuDef*%
G36*
G01*
X14451840Y28200000D02*
X14451840Y28800000D01*
G75*
G02*
X14601840Y28950000I150000J0D01*
G01*
X14901840Y28950000D01*
G75*
G02*
X15051840Y28800000I0J-150000D01*
G01*
X15051840Y28200000D01*
G75*
G02*
X14901840Y28050000I-150000J0D01*
G01*
X14601840Y28050000D01*
G75*
G02*
X14451840Y28200000I0J150000D01*
G01*
G37*
%TD.AperFunction*%
%TD*%
%TO.P,C210,1*%
%TO.N,/PV1+*%
%TA.AperFunction,SMDPad,CuDef*%
G36*
G01*
X12948160Y29950000D02*
X12948160Y30550000D01*
G75*
G02*
X13098160Y30700000I150000J0D01*
G01*
X13398160Y30700000D01*
G75*
G02*
X13548160Y30550000I0J-150000D01*
G01*
X13548160Y29950000D01*
G75*
G02*
X13398160Y29800000I-150000J0D01*
G01*
X13098160Y29800000D01*
G75*
G02*
X12948160Y29950000I0J150000D01*
G01*
G37*
%TD.AperFunction*%
%TO.P,C210,2*%
%TO.N,/Out-*%
%TA.AperFunction,SMDPad,CuDef*%
G36*
G01*
X14451840Y29950000D02*
X14451840Y30550000D01*
G75*
G02*
X14601840Y30700000I150000J0D01*
G01*
X14901840Y30700000D01*
G75*
G02*
X15051840Y30550000I0J-150000D01*
G01*
X15051840Y29950000D01*
G75*
G02*
X14901840Y29800000I-150000J0D01*
G01*
X14601840Y29800000D01*
G75*
G02*
X14451840Y29950000I0J150000D01*
G01*
G37*
%TD.AperFunction*%
%TD*%
%TO.P,C209,1*%
%TO.N,/PV1+*%
%TA.AperFunction,SMDPad,CuDef*%
G36*
G01*
X12948160Y31700000D02*
X12948160Y32300000D01*
G75*
G02*
X13098160Y32450000I150000J0D01*
G01*
X13398160Y32450000D01*
G75*
G02*
X13548160Y32300000I0J-150000D01*
G01*
X13548160Y31700000D01*
G75*
G02*
X13398160Y31550000I-150000J0D01*
G01*
X13098160Y31550000D01*
G75*
G02*
X12948160Y31700000I0J150000D01*
G01*
G37*
%TD.AperFunction*%
%TO.P,C209,2*%
%TO.N,/Out-*%
%TA.AperFunction,SMDPad,CuDef*%
G36*
G01*
X14451840Y31700000D02*
X14451840Y32300000D01*
G75*
G02*
X14601840Y32450000I150000J0D01*
G01*
X14901840Y32450000D01*
G75*
G02*
X15051840Y32300000I0J-150000D01*
G01*
X15051840Y31700000D01*
G75*
G02*
X14901840Y31550000I-150000J0D01*
G01*
X14601840Y31550000D01*
G75*
G02*
X14451840Y31700000I0J150000D01*
G01*
G37*
%TD.AperFunction*%
%TD*%
%TO.P,C208,1*%
%TO.N,/PV1+*%
%TA.AperFunction,SMDPad,CuDef*%
G36*
G01*
X9700000Y26551840D02*
X10300000Y26551840D01*
G75*
G02*
X10450000Y26401840I0J-150000D01*
G01*
X10450000Y26101840D01*
G75*
G02*
X10300000Y25951840I-150000J0D01*
G01*
X9700000Y25951840D01*
G75*
G02*
X9550000Y26101840I0J150000D01*
G01*
X9550000Y26401840D01*
G75*
G02*
X9700000Y26551840I150000J0D01*
G01*
G37*
%TD.AperFunction*%
%TO.P,C208,2*%
%TO.N,/Out-*%
%TA.AperFunction,SMDPad,CuDef*%
G36*
G01*
X9700000Y25048160D02*
X10300000Y25048160D01*
G75*
G02*
X10450000Y24898160I0J-150000D01*
G01*
X10450000Y24598160D01*
G75*
G02*
X10300000Y24448160I-150000J0D01*
G01*
X9700000Y24448160D01*
G75*
G02*
X9550000Y24598160I0J150000D01*
G01*
X9550000Y24898160D01*
G75*
G02*
X9700000Y25048160I150000J0D01*
G01*
G37*
%TD.AperFunction*%
%TD*%
%TO.P,C207,1*%
%TO.N,/PV1+*%
%TA.AperFunction,SMDPad,CuDef*%
G36*
G01*
X5325000Y27000000D02*
X6175000Y27000000D01*
G75*
G02*
X6425000Y26750000I0J-250000D01*
G01*
X6425000Y26250000D01*
G75*
G02*
X6175000Y26000000I-250000J0D01*
G01*
X5325000Y26000000D01*
G75*
G02*
X5075000Y26250000I0J250000D01*
G01*
X5075000Y26750000D01*
G75*
G02*
X5325000Y27000000I250000J0D01*
G01*
G37*
%TD.AperFunction*%
%TO.P,C207,2*%
%TO.N,/Out-*%
%TA.AperFunction,SMDPad,CuDef*%
G36*
G01*
X5325000Y25000000D02*
X6175000Y25000000D01*
G75*
G02*
X6425000Y24750000I0J-250000D01*
G01*
X6425000Y24250000D01*
G75*
G02*
X6175000Y24000000I-250000J0D01*
G01*
X5325000Y24000000D01*
G75*
G02*
X5075000Y24250000I0J250000D01*
G01*
X5075000Y24750000D01*
G75*
G02*
X5325000Y25000000I250000J0D01*
G01*
G37*
%TD.AperFunction*%
%TD*%
%TO.P,C206,1*%
%TO.N,/PV1+*%
%TA.AperFunction,SMDPad,CuDef*%
G36*
G01*
X12500000Y33575000D02*
X12500000Y34425000D01*
G75*
G02*
X12750000Y34675000I250000J0D01*
G01*
X13250000Y34675000D01*
G75*
G02*
X13500000Y34425000I0J-250000D01*
G01*
X13500000Y33575000D01*
G75*
G02*
X13250000Y33325000I-250000J0D01*
G01*
X12750000Y33325000D01*
G75*
G02*
X12500000Y33575000I0J250000D01*
G01*
G37*
%TD.AperFunction*%
%TO.P,C206,2*%
%TO.N,/Out-*%
%TA.AperFunction,SMDPad,CuDef*%
G36*
G01*
X14500000Y33575000D02*
X14500000Y34425000D01*
G75*
G02*
X14750000Y34675000I250000J0D01*
G01*
X15250000Y34675000D01*
G75*
G02*
X15500000Y34425000I0J-250000D01*
G01*
X15500000Y33575000D01*
G75*
G02*
X15250000Y33325000I-250000J0D01*
G01*
X14750000Y33325000D01*
G75*
G02*
X14500000Y33575000I0J250000D01*
G01*
G37*
%TD.AperFunction*%
%TD*%
%TO.P,C205,1*%
%TO.N,/PV1+*%
%TA.AperFunction,SMDPad,CuDef*%
G36*
G01*
X5500000Y33675000D02*
X5500000Y32825000D01*
G75*
G02*
X5250000Y32575000I-250000J0D01*
G01*
X4750000Y32575000D01*
G75*
G02*
X4500000Y32825000I0J250000D01*
G01*
X4500000Y33675000D01*
G75*
G02*
X4750000Y33925000I250000J0D01*
G01*
X5250000Y33925000D01*
G75*
G02*
X5500000Y33675000I0J-250000D01*
G01*
G37*
%TD.AperFunction*%
%TO.P,C205,2*%
%TO.N,/Out-*%
%TA.AperFunction,SMDPad,CuDef*%
G36*
G01*
X3500000Y33675000D02*
X3500000Y32825000D01*
G75*
G02*
X3250000Y32575000I-250000J0D01*
G01*
X2750000Y32575000D01*
G75*
G02*
X2500000Y32825000I0J250000D01*
G01*
X2500000Y33675000D01*
G75*
G02*
X2750000Y33925000I250000J0D01*
G01*
X3250000Y33925000D01*
G75*
G02*
X3500000Y33675000I0J-250000D01*
G01*
G37*
%TD.AperFunction*%
%TD*%
%TO.P,C204,1*%
%TO.N,/PV1+*%
%TA.AperFunction,SMDPad,CuDef*%
G36*
G01*
X5500000Y31425000D02*
X5500000Y30575000D01*
G75*
G02*
X5250000Y30325000I-250000J0D01*
G01*
X4750000Y30325000D01*
G75*
G02*
X4500000Y30575000I0J250000D01*
G01*
X4500000Y31425000D01*
G75*
G02*
X4750000Y31675000I250000J0D01*
G01*
X5250000Y31675000D01*
G75*
G02*
X5500000Y31425000I0J-250000D01*
G01*
G37*
%TD.AperFunction*%
%TO.P,C204,2*%
%TO.N,/Out-*%
%TA.AperFunction,SMDPad,CuDef*%
G36*
G01*
X3500000Y31425000D02*
X3500000Y30575000D01*
G75*
G02*
X3250000Y30325000I-250000J0D01*
G01*
X2750000Y30325000D01*
G75*
G02*
X2500000Y30575000I0J250000D01*
G01*
X2500000Y31425000D01*
G75*
G02*
X2750000Y31675000I250000J0D01*
G01*
X3250000Y31675000D01*
G75*
G02*
X3500000Y31425000I0J-250000D01*
G01*
G37*
%TD.AperFunction*%
%TD*%
%TO.P,C203,1*%
%TO.N,/PV1+*%
%TA.AperFunction,SMDPad,CuDef*%
G36*
G01*
X12500000Y35825000D02*
X12500000Y36675000D01*
G75*
G02*
X12750000Y36925000I250000J0D01*
G01*
X13250000Y36925000D01*
G75*
G02*
X13500000Y36675000I0J-250000D01*
G01*
X13500000Y35825000D01*
G75*
G02*
X13250000Y35575000I-250000J0D01*
G01*
X12750000Y35575000D01*
G75*
G02*
X12500000Y35825000I0J250000D01*
G01*
G37*
%TD.AperFunction*%
%TO.P,C203,2*%
%TO.N,/Out-*%
%TA.AperFunction,SMDPad,CuDef*%
G36*
G01*
X14500000Y35825000D02*
X14500000Y36675000D01*
G75*
G02*
X14750000Y36925000I250000J0D01*
G01*
X15250000Y36925000D01*
G75*
G02*
X15500000Y36675000I0J-250000D01*
G01*
X15500000Y35825000D01*
G75*
G02*
X15250000Y35575000I-250000J0D01*
G01*
X14750000Y35575000D01*
G75*
G02*
X14500000Y35825000I0J250000D01*
G01*
G37*
%TD.AperFunction*%
%TD*%
%TO.P,C202,1*%
%TO.N,/PV1+*%
%TA.AperFunction,SMDPad,CuDef*%
G36*
G01*
X5500000Y29175000D02*
X5500000Y28325000D01*
G75*
G02*
X5250000Y28075000I-250000J0D01*
G01*
X4750000Y28075000D01*
G75*
G02*
X4500000Y28325000I0J250000D01*
G01*
X4500000Y29175000D01*
G75*
G02*
X4750000Y29425000I250000J0D01*
G01*
X5250000Y29425000D01*
G75*
G02*
X5500000Y29175000I0J-250000D01*
G01*
G37*
%TD.AperFunction*%
%TO.P,C202,2*%
%TO.N,/Out-*%
%TA.AperFunction,SMDPad,CuDef*%
G36*
G01*
X3500000Y29175000D02*
X3500000Y28325000D01*
G75*
G02*
X3250000Y28075000I-250000J0D01*
G01*
X2750000Y28075000D01*
G75*
G02*
X2500000Y28325000I0J250000D01*
G01*
X2500000Y29175000D01*
G75*
G02*
X2750000Y29425000I250000J0D01*
G01*
X3250000Y29425000D01*
G75*
G02*
X3500000Y29175000I0J-250000D01*
G01*
G37*
%TD.AperFunction*%
%TD*%
%TO.P,C201,1*%
%TO.N,/PV1+*%
%TA.AperFunction,SMDPad,CuDef*%
G36*
G01*
X7575000Y27000000D02*
X8425000Y27000000D01*
G75*
G02*
X8675000Y26750000I0J-250000D01*
G01*
X8675000Y26250000D01*
G75*
G02*
X8425000Y26000000I-250000J0D01*
G01*
X7575000Y26000000D01*
G75*
G02*
X7325000Y26250000I0J250000D01*
G01*
X7325000Y26750000D01*
G75*
G02*
X7575000Y27000000I250000J0D01*
G01*
G37*
%TD.AperFunction*%
%TO.P,C201,2*%
%TO.N,/Out-*%
%TA.AperFunction,SMDPad,CuDef*%
G36*
G01*
X7575000Y25000000D02*
X8425000Y25000000D01*
G75*
G02*
X8675000Y24750000I0J-250000D01*
G01*
X8675000Y24250000D01*
G75*
G02*
X8425000Y24000000I-250000J0D01*
G01*
X7575000Y24000000D01*
G75*
G02*
X7325000Y24250000I0J250000D01*
G01*
X7325000Y24750000D01*
G75*
G02*
X7575000Y25000000I250000J0D01*
G01*
G37*
%TD.AperFunction*%
%TD*%
%TO.P,C101,1*%
%TO.N,/Out+*%
%TA.AperFunction,SMDPad,CuDef*%
G36*
G01*
X41301840Y4050000D02*
X41301840Y3450000D01*
G75*
G02*
X41151840Y3300000I-150000J0D01*
G01*
X40851840Y3300000D01*
G75*
G02*
X40701840Y3450000I0J150000D01*
G01*
X40701840Y4050000D01*
G75*
G02*
X40851840Y4200000I150000J0D01*
G01*
X41151840Y4200000D01*
G75*
G02*
X41301840Y4050000I0J-150000D01*
G01*
G37*
%TD.AperFunction*%
%TO.P,C101,2*%
%TO.N,Net-(C101-Pad2)*%
%TA.AperFunction,SMDPad,CuDef*%
G36*
G01*
X39798160Y4050000D02*
X39798160Y3450000D01*
G75*
G02*
X39648160Y3300000I-150000J0D01*
G01*
X39348160Y3300000D01*
G75*
G02*
X39198160Y3450000I0J150000D01*
G01*
X39198160Y4050000D01*
G75*
G02*
X39348160Y4200000I150000J0D01*
G01*
X39648160Y4200000D01*
G75*
G02*
X39798160Y4050000I0J-150000D01*
G01*
G37*
%TD.AperFunction*%
%TD*%
D13*
%TO.N,/Out+*%
X77000000Y36000000D03*
X79000000Y36000000D03*
X79000000Y34000000D03*
X77000000Y34000000D03*
X79000000Y32000000D03*
X79000000Y30000000D03*
X79000000Y28000000D03*
X79000000Y26000000D03*
X79000000Y24000000D03*
X79000000Y22000000D03*
X79000000Y20000000D03*
X77000000Y19000000D03*
X77000000Y10000000D03*
X79000000Y9000000D03*
X79000000Y5000000D03*
X79000000Y2000000D03*
X77000000Y4000000D03*
X69000000Y4000000D03*
X67000000Y6000000D03*
X67000000Y2000000D03*
X70000000Y2000000D03*
X77000000Y2000000D03*
%TO.N,/Out-*%
X16000000Y25500000D03*
X17000000Y35000000D03*
X17500000Y33000000D03*
X17000000Y31000000D03*
X20000000Y31500000D03*
X20000000Y33500000D03*
X20000000Y35500000D03*
X22500000Y36000000D03*
X22500000Y34000000D03*
X21000000Y27500000D03*
X20000000Y26500000D03*
X20000000Y24500000D03*
X20500000Y22500000D03*
X19000000Y20500000D03*
X22500000Y20500000D03*
X22500000Y18500000D03*
X22500000Y17000000D03*
X22500000Y15000000D03*
X22500000Y13500000D03*
X22500000Y11500000D03*
X20500000Y11500000D03*
X19000000Y11500000D03*
X19000000Y13000000D03*
X19000000Y15500000D03*
X19000000Y17500000D03*
X19000000Y19000000D03*
X21000000Y20500000D03*
X20500000Y18500000D03*
X21000000Y16500000D03*
X20500000Y14500000D03*
X2500000Y27000000D03*
X2500000Y25000000D03*
X4000000Y24000000D03*
X7000000Y22500000D03*
X9000000Y23000000D03*
X1500000Y28500000D03*
X1500000Y31000000D03*
X1500000Y33000000D03*
X2500000Y35500000D03*
D14*
%TO.N,/Out12*%
X25000000Y36000000D03*
D13*
X28000000Y36000000D03*
X27000000Y34000000D03*
X27000000Y32000000D03*
X27000000Y29000000D03*
X27000000Y26000000D03*
X29000000Y26000000D03*
X29000000Y23000000D03*
X29000000Y21000000D03*
X26000000Y20000000D03*
X28000000Y18000000D03*
X28000000Y15000000D03*
X28000000Y12000000D03*
X35000000Y20000000D03*
X32000000Y20000000D03*
X36000000Y18000000D03*
X36000000Y13000000D03*
X33500000Y10500000D03*
X45000000Y12000000D03*
X48000000Y12000000D03*
X48000000Y15000000D03*
X45000000Y15000000D03*
X45000000Y18000000D03*
X48000000Y18000000D03*
X48000000Y20000000D03*
X45000000Y20000000D03*
X47000000Y23000000D03*
X46000000Y24000000D03*
X46000000Y26500000D03*
X47000000Y27500000D03*
X45500000Y31500000D03*
X47000000Y32000000D03*
X48000000Y36500000D03*
X46000000Y36500000D03*
X46000000Y34500000D03*
X48000000Y34500000D03*
X42500000Y35000000D03*
X42500000Y33000000D03*
X27000000Y23000000D03*
X42000000Y25500000D03*
%TO.N,/Out23*%
X51000000Y36000000D03*
X54000000Y36000000D03*
X51000000Y34500000D03*
X53500000Y33500000D03*
X53500000Y31500000D03*
X53500000Y29500000D03*
X53500000Y27500000D03*
X53500000Y25000000D03*
X55000000Y26500000D03*
X55500000Y24000000D03*
X54000000Y22500000D03*
X54000000Y20000000D03*
X54000000Y18000000D03*
X54000000Y15500000D03*
X54000000Y12500000D03*
X54000000Y10500000D03*
X57000000Y10500000D03*
X60500000Y10500000D03*
X62000000Y11500000D03*
X62000000Y14000000D03*
X62000000Y17500000D03*
X62000000Y19500000D03*
X59500000Y19500000D03*
X57000000Y19500000D03*
X56000000Y21500000D03*
X70500000Y20500000D03*
X72500000Y20500000D03*
X74000000Y20500000D03*
X74000000Y19000000D03*
X74000000Y17000000D03*
X74000000Y15000000D03*
X74000000Y13000000D03*
X74000000Y11000000D03*
X72000000Y11000000D03*
X71000000Y12500000D03*
X71000000Y15000000D03*
X71000000Y17500000D03*
X72500000Y19000000D03*
X72500000Y16000000D03*
X72500000Y13500000D03*
X72000000Y24000000D03*
X71500000Y26500000D03*
X73000000Y22500000D03*
X72500000Y27500000D03*
X71500000Y31500000D03*
X73000000Y32000000D03*
X73500000Y33500000D03*
X74000000Y34500000D03*
X74500000Y36000000D03*
X72500000Y36000000D03*
X72000000Y34000000D03*
X69000000Y35000000D03*
X69000000Y33000000D03*
X68500000Y31000000D03*
X68000000Y25500000D03*
%TD*%
D15*
%TO.N,Net-(C101-Pad2)*%
X38000000Y3750000D02*
X39498160Y3750000D01*
%TO.N,Net-(C212-Pad1)*%
X16299500Y28301340D02*
X16498160Y28500000D01*
X16299500Y26781000D02*
X16299500Y28301340D01*
%TO.N,Net-(C213-Pad1)*%
X15699500Y22554180D02*
X15753680Y22500000D01*
X15699500Y24219000D02*
X15699500Y22554180D01*
%TO.N,Net-(C312-Pad1)*%
X42299500Y28301340D02*
X42498160Y28500000D01*
X42299500Y26781000D02*
X42299500Y28301340D01*
%TO.N,Net-(C313-Pad1)*%
X41699500Y22554180D02*
X41753680Y22500000D01*
X41699500Y24219000D02*
X41699500Y22554180D01*
%TO.N,Net-(C412-Pad1)*%
X68299500Y28301340D02*
X68498160Y28500000D01*
X68299500Y26781000D02*
X68299500Y28301340D01*
%TO.N,Net-(C413-Pad1)*%
X67699500Y22554180D02*
X67753680Y22500000D01*
X67699500Y24219000D02*
X67699500Y22554180D01*
%TO.N,/Out+*%
X44250000Y3750000D02*
X46000000Y2000000D01*
X41001840Y3750000D02*
X44250000Y3750000D01*
%TD*%
D16*
%TO.N,/PV1+*%
G36*
X13900000Y28000000D02*
G01*
X13901921Y27980491D01*
X13907612Y27961732D01*
X13916853Y27944443D01*
X13929289Y27929289D01*
X14150000Y27708578D01*
X14150000Y27310711D01*
X14143037Y27287757D01*
X14135549Y27211725D01*
X14135549Y26175275D01*
X14143037Y26099243D01*
X14150000Y26076289D01*
X14150000Y25600000D01*
X4100000Y25600000D01*
X4100000Y44675000D01*
X13900000Y44675000D01*
X13900000Y28000000D01*
G37*
X13900000Y28000000D02*
X13901921Y27980491D01*
X13907612Y27961732D01*
X13916853Y27944443D01*
X13929289Y27929289D01*
X14150000Y27708578D01*
X14150000Y27310711D01*
X14143037Y27287757D01*
X14135549Y27211725D01*
X14135549Y26175275D01*
X14143037Y26099243D01*
X14150000Y26076289D01*
X14150000Y25600000D01*
X4100000Y25600000D01*
X4100000Y44675000D01*
X13900000Y44675000D01*
X13900000Y28000000D01*
%TO.N,/Out-*%
G36*
X3700000Y25500000D02*
G01*
X3705764Y25441473D01*
X3722836Y25385195D01*
X3750559Y25333329D01*
X3787868Y25287868D01*
X3833329Y25250559D01*
X3885195Y25222836D01*
X3941473Y25205764D01*
X4000000Y25200000D01*
X10700000Y25200000D01*
X10700000Y8500000D01*
X10705764Y8441473D01*
X10722836Y8385195D01*
X10750559Y8333329D01*
X10787868Y8287868D01*
X10833329Y8250559D01*
X10885195Y8222836D01*
X10941473Y8205764D01*
X11000000Y8200000D01*
X18000000Y8200000D01*
X18058527Y8205764D01*
X18114805Y8222836D01*
X18166671Y8250559D01*
X18212132Y8287868D01*
X18249441Y8333329D01*
X18277164Y8385195D01*
X18294236Y8441473D01*
X18300000Y8500000D01*
X18300000Y19500000D01*
X18294236Y19558527D01*
X18277164Y19614805D01*
X18249441Y19666671D01*
X18212132Y19712132D01*
X16118741Y21805523D01*
X16154493Y21824632D01*
X16222904Y21880776D01*
X16279048Y21949187D01*
X16320766Y22027237D01*
X16346456Y22111926D01*
X16355131Y22200000D01*
X16355131Y22800000D01*
X16346456Y22888074D01*
X16320766Y22972763D01*
X16279048Y23050813D01*
X16222904Y23119224D01*
X16154493Y23175368D01*
X16124500Y23191399D01*
X16124500Y23621611D01*
X16133800Y23639010D01*
X16155966Y23712082D01*
X16163451Y23788075D01*
X16163451Y24649925D01*
X16155966Y24725918D01*
X16133800Y24798990D01*
X16097804Y24866334D01*
X16049361Y24925361D01*
X15990334Y24973804D01*
X15922990Y25009800D01*
X15849918Y25031966D01*
X15796332Y25037244D01*
X15794236Y25058527D01*
X15777164Y25114805D01*
X15749441Y25166671D01*
X15712132Y25212132D01*
X15212132Y25712132D01*
X15166671Y25749441D01*
X15114805Y25777164D01*
X15058527Y25794236D01*
X15000000Y25800000D01*
X14550000Y25800000D01*
X14550000Y27211925D01*
X15835549Y27211925D01*
X15835549Y26350075D01*
X15843034Y26274082D01*
X15865200Y26201010D01*
X15901196Y26133666D01*
X15949639Y26074639D01*
X16008666Y26026196D01*
X16076010Y25990200D01*
X16149082Y25968034D01*
X16225075Y25960549D01*
X16373925Y25960549D01*
X16449918Y25968034D01*
X16522990Y25990200D01*
X16590334Y26026196D01*
X16649361Y26074639D01*
X16697804Y26133666D01*
X16733800Y26201010D01*
X16755966Y26274082D01*
X16763451Y26350075D01*
X16763451Y27211925D01*
X16755966Y27287918D01*
X16733800Y27360990D01*
X16724500Y27378389D01*
X16724500Y27756068D01*
X16736234Y27757224D01*
X16820923Y27782914D01*
X16898973Y27824632D01*
X16967384Y27880776D01*
X17023528Y27949187D01*
X17065246Y28027237D01*
X17090936Y28111926D01*
X17099611Y28200000D01*
X17099611Y28800000D01*
X17090936Y28888074D01*
X17065246Y28972763D01*
X17023528Y29050813D01*
X16967384Y29119224D01*
X16898973Y29175368D01*
X16820923Y29217086D01*
X16736234Y29242776D01*
X16648160Y29251451D01*
X16348160Y29251451D01*
X16260086Y29242776D01*
X16175397Y29217086D01*
X16097347Y29175368D01*
X16028936Y29119224D01*
X15972792Y29050813D01*
X15931074Y28972763D01*
X15905384Y28888074D01*
X15896709Y28800000D01*
X15896709Y28437591D01*
X15880650Y28384654D01*
X15872445Y28301340D01*
X15874501Y28280464D01*
X15874500Y27378390D01*
X15865200Y27360990D01*
X15843034Y27287918D01*
X15835549Y27211925D01*
X14550000Y27211925D01*
X14550000Y27750000D01*
X14544236Y27808527D01*
X14527164Y27864805D01*
X14499441Y27916671D01*
X14462132Y27962132D01*
X14300000Y28124264D01*
X14300000Y44675000D01*
X23400000Y44675000D01*
X23400000Y9000000D01*
X23401921Y8980491D01*
X23407612Y8961732D01*
X23416853Y8944443D01*
X23429289Y8929289D01*
X23444443Y8916853D01*
X23461732Y8907612D01*
X23480491Y8901921D01*
X23500000Y8900000D01*
X36700000Y8900000D01*
X36700000Y8500000D01*
X36705764Y8441473D01*
X36722836Y8385195D01*
X36750559Y8333329D01*
X36787868Y8287868D01*
X36833329Y8250559D01*
X36885195Y8222836D01*
X36941473Y8205764D01*
X37000000Y8200000D01*
X43900000Y8200000D01*
X43900000Y4175000D01*
X41583415Y4175000D01*
X41568926Y4222763D01*
X41527208Y4300813D01*
X41471064Y4369224D01*
X41402653Y4425368D01*
X41324603Y4467086D01*
X41239914Y4492776D01*
X41151840Y4501451D01*
X40851840Y4501451D01*
X40763766Y4492776D01*
X40679077Y4467086D01*
X40601027Y4425368D01*
X40532616Y4369224D01*
X40476472Y4300813D01*
X40434754Y4222763D01*
X40409064Y4138074D01*
X40400389Y4050000D01*
X40400389Y3450000D01*
X40409064Y3361926D01*
X40434754Y3277237D01*
X40476472Y3199187D01*
X40532616Y3130776D01*
X40601027Y3074632D01*
X40679077Y3032914D01*
X40763766Y3007224D01*
X40851840Y2998549D01*
X41151840Y2998549D01*
X41239914Y3007224D01*
X41324603Y3032914D01*
X41402653Y3074632D01*
X41471064Y3130776D01*
X41527208Y3199187D01*
X41568926Y3277237D01*
X41583415Y3325000D01*
X43900000Y3325000D01*
X43900000Y325000D01*
X325000Y325000D01*
X325000Y4050000D01*
X37398549Y4050000D01*
X37398549Y3450000D01*
X37407224Y3361926D01*
X37432914Y3277237D01*
X37474632Y3199187D01*
X37530776Y3130776D01*
X37599187Y3074632D01*
X37677237Y3032914D01*
X37761926Y3007224D01*
X37850000Y2998549D01*
X38150000Y2998549D01*
X38238074Y3007224D01*
X38322763Y3032914D01*
X38400813Y3074632D01*
X38469224Y3130776D01*
X38525368Y3199187D01*
X38567086Y3277237D01*
X38581575Y3325000D01*
X38916585Y3325000D01*
X38931074Y3277237D01*
X38972792Y3199187D01*
X39028936Y3130776D01*
X39097347Y3074632D01*
X39175397Y3032914D01*
X39260086Y3007224D01*
X39348160Y2998549D01*
X39648160Y2998549D01*
X39736234Y3007224D01*
X39820923Y3032914D01*
X39898973Y3074632D01*
X39967384Y3130776D01*
X40023528Y3199187D01*
X40065246Y3277237D01*
X40090936Y3361926D01*
X40099611Y3450000D01*
X40099611Y4050000D01*
X40090936Y4138074D01*
X40065246Y4222763D01*
X40023528Y4300813D01*
X39967384Y4369224D01*
X39898973Y4425368D01*
X39820923Y4467086D01*
X39736234Y4492776D01*
X39648160Y4501451D01*
X39348160Y4501451D01*
X39260086Y4492776D01*
X39175397Y4467086D01*
X39097347Y4425368D01*
X39028936Y4369224D01*
X38972792Y4300813D01*
X38931074Y4222763D01*
X38916585Y4175000D01*
X38581575Y4175000D01*
X38567086Y4222763D01*
X38525368Y4300813D01*
X38469224Y4369224D01*
X38400813Y4425368D01*
X38322763Y4467086D01*
X38238074Y4492776D01*
X38150000Y4501451D01*
X37850000Y4501451D01*
X37761926Y4492776D01*
X37677237Y4467086D01*
X37599187Y4425368D01*
X37530776Y4369224D01*
X37474632Y4300813D01*
X37432914Y4222763D01*
X37407224Y4138074D01*
X37398549Y4050000D01*
X325000Y4050000D01*
X325000Y44675000D01*
X3700000Y44675000D01*
X3700000Y25500000D01*
G37*
X3700000Y25500000D02*
X3705764Y25441473D01*
X3722836Y25385195D01*
X3750559Y25333329D01*
X3787868Y25287868D01*
X3833329Y25250559D01*
X3885195Y25222836D01*
X3941473Y25205764D01*
X4000000Y25200000D01*
X10700000Y25200000D01*
X10700000Y8500000D01*
X10705764Y8441473D01*
X10722836Y8385195D01*
X10750559Y8333329D01*
X10787868Y8287868D01*
X10833329Y8250559D01*
X10885195Y8222836D01*
X10941473Y8205764D01*
X11000000Y8200000D01*
X18000000Y8200000D01*
X18058527Y8205764D01*
X18114805Y8222836D01*
X18166671Y8250559D01*
X18212132Y8287868D01*
X18249441Y8333329D01*
X18277164Y8385195D01*
X18294236Y8441473D01*
X18300000Y8500000D01*
X18300000Y19500000D01*
X18294236Y19558527D01*
X18277164Y19614805D01*
X18249441Y19666671D01*
X18212132Y19712132D01*
X16118741Y21805523D01*
X16154493Y21824632D01*
X16222904Y21880776D01*
X16279048Y21949187D01*
X16320766Y22027237D01*
X16346456Y22111926D01*
X16355131Y22200000D01*
X16355131Y22800000D01*
X16346456Y22888074D01*
X16320766Y22972763D01*
X16279048Y23050813D01*
X16222904Y23119224D01*
X16154493Y23175368D01*
X16124500Y23191399D01*
X16124500Y23621611D01*
X16133800Y23639010D01*
X16155966Y23712082D01*
X16163451Y23788075D01*
X16163451Y24649925D01*
X16155966Y24725918D01*
X16133800Y24798990D01*
X16097804Y24866334D01*
X16049361Y24925361D01*
X15990334Y24973804D01*
X15922990Y25009800D01*
X15849918Y25031966D01*
X15796332Y25037244D01*
X15794236Y25058527D01*
X15777164Y25114805D01*
X15749441Y25166671D01*
X15712132Y25212132D01*
X15212132Y25712132D01*
X15166671Y25749441D01*
X15114805Y25777164D01*
X15058527Y25794236D01*
X15000000Y25800000D01*
X14550000Y25800000D01*
X14550000Y27211925D01*
X15835549Y27211925D01*
X15835549Y26350075D01*
X15843034Y26274082D01*
X15865200Y26201010D01*
X15901196Y26133666D01*
X15949639Y26074639D01*
X16008666Y26026196D01*
X16076010Y25990200D01*
X16149082Y25968034D01*
X16225075Y25960549D01*
X16373925Y25960549D01*
X16449918Y25968034D01*
X16522990Y25990200D01*
X16590334Y26026196D01*
X16649361Y26074639D01*
X16697804Y26133666D01*
X16733800Y26201010D01*
X16755966Y26274082D01*
X16763451Y26350075D01*
X16763451Y27211925D01*
X16755966Y27287918D01*
X16733800Y27360990D01*
X16724500Y27378389D01*
X16724500Y27756068D01*
X16736234Y27757224D01*
X16820923Y27782914D01*
X16898973Y27824632D01*
X16967384Y27880776D01*
X17023528Y27949187D01*
X17065246Y28027237D01*
X17090936Y28111926D01*
X17099611Y28200000D01*
X17099611Y28800000D01*
X17090936Y28888074D01*
X17065246Y28972763D01*
X17023528Y29050813D01*
X16967384Y29119224D01*
X16898973Y29175368D01*
X16820923Y29217086D01*
X16736234Y29242776D01*
X16648160Y29251451D01*
X16348160Y29251451D01*
X16260086Y29242776D01*
X16175397Y29217086D01*
X16097347Y29175368D01*
X16028936Y29119224D01*
X15972792Y29050813D01*
X15931074Y28972763D01*
X15905384Y28888074D01*
X15896709Y28800000D01*
X15896709Y28437591D01*
X15880650Y28384654D01*
X15872445Y28301340D01*
X15874501Y28280464D01*
X15874500Y27378390D01*
X15865200Y27360990D01*
X15843034Y27287918D01*
X15835549Y27211925D01*
X14550000Y27211925D01*
X14550000Y27750000D01*
X14544236Y27808527D01*
X14527164Y27864805D01*
X14499441Y27916671D01*
X14462132Y27962132D01*
X14300000Y28124264D01*
X14300000Y44675000D01*
X23400000Y44675000D01*
X23400000Y9000000D01*
X23401921Y8980491D01*
X23407612Y8961732D01*
X23416853Y8944443D01*
X23429289Y8929289D01*
X23444443Y8916853D01*
X23461732Y8907612D01*
X23480491Y8901921D01*
X23500000Y8900000D01*
X36700000Y8900000D01*
X36700000Y8500000D01*
X36705764Y8441473D01*
X36722836Y8385195D01*
X36750559Y8333329D01*
X36787868Y8287868D01*
X36833329Y8250559D01*
X36885195Y8222836D01*
X36941473Y8205764D01*
X37000000Y8200000D01*
X43900000Y8200000D01*
X43900000Y4175000D01*
X41583415Y4175000D01*
X41568926Y4222763D01*
X41527208Y4300813D01*
X41471064Y4369224D01*
X41402653Y4425368D01*
X41324603Y4467086D01*
X41239914Y4492776D01*
X41151840Y4501451D01*
X40851840Y4501451D01*
X40763766Y4492776D01*
X40679077Y4467086D01*
X40601027Y4425368D01*
X40532616Y4369224D01*
X40476472Y4300813D01*
X40434754Y4222763D01*
X40409064Y4138074D01*
X40400389Y4050000D01*
X40400389Y3450000D01*
X40409064Y3361926D01*
X40434754Y3277237D01*
X40476472Y3199187D01*
X40532616Y3130776D01*
X40601027Y3074632D01*
X40679077Y3032914D01*
X40763766Y3007224D01*
X40851840Y2998549D01*
X41151840Y2998549D01*
X41239914Y3007224D01*
X41324603Y3032914D01*
X41402653Y3074632D01*
X41471064Y3130776D01*
X41527208Y3199187D01*
X41568926Y3277237D01*
X41583415Y3325000D01*
X43900000Y3325000D01*
X43900000Y325000D01*
X325000Y325000D01*
X325000Y4050000D01*
X37398549Y4050000D01*
X37398549Y3450000D01*
X37407224Y3361926D01*
X37432914Y3277237D01*
X37474632Y3199187D01*
X37530776Y3130776D01*
X37599187Y3074632D01*
X37677237Y3032914D01*
X37761926Y3007224D01*
X37850000Y2998549D01*
X38150000Y2998549D01*
X38238074Y3007224D01*
X38322763Y3032914D01*
X38400813Y3074632D01*
X38469224Y3130776D01*
X38525368Y3199187D01*
X38567086Y3277237D01*
X38581575Y3325000D01*
X38916585Y3325000D01*
X38931074Y3277237D01*
X38972792Y3199187D01*
X39028936Y3130776D01*
X39097347Y3074632D01*
X39175397Y3032914D01*
X39260086Y3007224D01*
X39348160Y2998549D01*
X39648160Y2998549D01*
X39736234Y3007224D01*
X39820923Y3032914D01*
X39898973Y3074632D01*
X39967384Y3130776D01*
X40023528Y3199187D01*
X40065246Y3277237D01*
X40090936Y3361926D01*
X40099611Y3450000D01*
X40099611Y4050000D01*
X40090936Y4138074D01*
X40065246Y4222763D01*
X40023528Y4300813D01*
X39967384Y4369224D01*
X39898973Y4425368D01*
X39820923Y4467086D01*
X39736234Y4492776D01*
X39648160Y4501451D01*
X39348160Y4501451D01*
X39260086Y4492776D01*
X39175397Y4467086D01*
X39097347Y4425368D01*
X39028936Y4369224D01*
X38972792Y4300813D01*
X38931074Y4222763D01*
X38916585Y4175000D01*
X38581575Y4175000D01*
X38567086Y4222763D01*
X38525368Y4300813D01*
X38469224Y4369224D01*
X38400813Y4425368D01*
X38322763Y4467086D01*
X38238074Y4492776D01*
X38150000Y4501451D01*
X37850000Y4501451D01*
X37761926Y4492776D01*
X37677237Y4467086D01*
X37599187Y4425368D01*
X37530776Y4369224D01*
X37474632Y4300813D01*
X37432914Y4222763D01*
X37407224Y4138074D01*
X37398549Y4050000D01*
X325000Y4050000D01*
X325000Y44675000D01*
X3700000Y44675000D01*
X3700000Y25500000D01*
%TO.N,/Channel 1/sw*%
G36*
X15395544Y24963034D02*
G01*
X15349639Y24925361D01*
X15301196Y24866334D01*
X15265200Y24798990D01*
X15243034Y24725918D01*
X15235549Y24649925D01*
X15235549Y23788075D01*
X15243034Y23712082D01*
X15265200Y23639010D01*
X15274500Y23621610D01*
X15274501Y23107094D01*
X15228312Y23050813D01*
X15186594Y22972763D01*
X15160904Y22888074D01*
X15152229Y22800000D01*
X15152229Y22200000D01*
X15160904Y22111926D01*
X15186594Y22027237D01*
X15228312Y21949187D01*
X15284456Y21880776D01*
X15352867Y21824632D01*
X15430917Y21782914D01*
X15515606Y21757224D01*
X15603680Y21748549D01*
X15610029Y21748549D01*
X17900000Y19458578D01*
X17900000Y8600000D01*
X11100000Y8600000D01*
X11100000Y25200000D01*
X14250000Y25200000D01*
X14308527Y25205764D01*
X14364805Y25222836D01*
X14416671Y25250559D01*
X14462132Y25287868D01*
X14499441Y25333329D01*
X14527164Y25385195D01*
X14531655Y25400000D01*
X14958578Y25400000D01*
X15395544Y24963034D01*
G37*
X15395544Y24963034D02*
X15349639Y24925361D01*
X15301196Y24866334D01*
X15265200Y24798990D01*
X15243034Y24725918D01*
X15235549Y24649925D01*
X15235549Y23788075D01*
X15243034Y23712082D01*
X15265200Y23639010D01*
X15274500Y23621610D01*
X15274501Y23107094D01*
X15228312Y23050813D01*
X15186594Y22972763D01*
X15160904Y22888074D01*
X15152229Y22800000D01*
X15152229Y22200000D01*
X15160904Y22111926D01*
X15186594Y22027237D01*
X15228312Y21949187D01*
X15284456Y21880776D01*
X15352867Y21824632D01*
X15430917Y21782914D01*
X15515606Y21757224D01*
X15603680Y21748549D01*
X15610029Y21748549D01*
X17900000Y19458578D01*
X17900000Y8600000D01*
X11100000Y8600000D01*
X11100000Y25200000D01*
X14250000Y25200000D01*
X14308527Y25205764D01*
X14364805Y25222836D01*
X14416671Y25250559D01*
X14462132Y25287868D01*
X14499441Y25333329D01*
X14527164Y25385195D01*
X14531655Y25400000D01*
X14958578Y25400000D01*
X15395544Y24963034D01*
%TO.N,/Channel 2/sw*%
G36*
X41395544Y24963034D02*
G01*
X41349639Y24925361D01*
X41301196Y24866334D01*
X41265200Y24798990D01*
X41243034Y24725918D01*
X41235549Y24649925D01*
X41235549Y23788075D01*
X41243034Y23712082D01*
X41265200Y23639010D01*
X41274500Y23621610D01*
X41274501Y23107094D01*
X41228312Y23050813D01*
X41186594Y22972763D01*
X41160904Y22888074D01*
X41152229Y22800000D01*
X41152229Y22200000D01*
X41160904Y22111926D01*
X41186594Y22027237D01*
X41228312Y21949187D01*
X41284456Y21880776D01*
X41352867Y21824632D01*
X41430917Y21782914D01*
X41515606Y21757224D01*
X41603680Y21748549D01*
X41610029Y21748549D01*
X43900000Y19458578D01*
X43900000Y8600000D01*
X37100000Y8600000D01*
X37100000Y25200000D01*
X40250000Y25200000D01*
X40308527Y25205764D01*
X40364805Y25222836D01*
X40416671Y25250559D01*
X40462132Y25287868D01*
X40499441Y25333329D01*
X40527164Y25385195D01*
X40531655Y25400000D01*
X40958578Y25400000D01*
X41395544Y24963034D01*
G37*
X41395544Y24963034D02*
X41349639Y24925361D01*
X41301196Y24866334D01*
X41265200Y24798990D01*
X41243034Y24725918D01*
X41235549Y24649925D01*
X41235549Y23788075D01*
X41243034Y23712082D01*
X41265200Y23639010D01*
X41274500Y23621610D01*
X41274501Y23107094D01*
X41228312Y23050813D01*
X41186594Y22972763D01*
X41160904Y22888074D01*
X41152229Y22800000D01*
X41152229Y22200000D01*
X41160904Y22111926D01*
X41186594Y22027237D01*
X41228312Y21949187D01*
X41284456Y21880776D01*
X41352867Y21824632D01*
X41430917Y21782914D01*
X41515606Y21757224D01*
X41603680Y21748549D01*
X41610029Y21748549D01*
X43900000Y19458578D01*
X43900000Y8600000D01*
X37100000Y8600000D01*
X37100000Y25200000D01*
X40250000Y25200000D01*
X40308527Y25205764D01*
X40364805Y25222836D01*
X40416671Y25250559D01*
X40462132Y25287868D01*
X40499441Y25333329D01*
X40527164Y25385195D01*
X40531655Y25400000D01*
X40958578Y25400000D01*
X41395544Y24963034D01*
%TO.N,/Out12*%
G36*
X49400000Y8600000D02*
G01*
X44300000Y8600000D01*
X44300000Y19500000D01*
X44294236Y19558527D01*
X44277164Y19614805D01*
X44249441Y19666671D01*
X44212132Y19712132D01*
X42118741Y21805523D01*
X42154493Y21824632D01*
X42222904Y21880776D01*
X42279048Y21949187D01*
X42320766Y22027237D01*
X42346456Y22111926D01*
X42355131Y22200000D01*
X42355131Y22800000D01*
X42346456Y22888074D01*
X42320766Y22972763D01*
X42279048Y23050813D01*
X42222904Y23119224D01*
X42154493Y23175368D01*
X42124500Y23191399D01*
X42124500Y23621611D01*
X42133800Y23639010D01*
X42155966Y23712082D01*
X42163451Y23788075D01*
X42163451Y24649925D01*
X42155966Y24725918D01*
X42133800Y24798990D01*
X42097804Y24866334D01*
X42049361Y24925361D01*
X41990334Y24973804D01*
X41922990Y25009800D01*
X41849918Y25031966D01*
X41796332Y25037244D01*
X41794236Y25058527D01*
X41777164Y25114805D01*
X41749441Y25166671D01*
X41712132Y25212132D01*
X41212132Y25712132D01*
X41166671Y25749441D01*
X41114805Y25777164D01*
X41058527Y25794236D01*
X41000000Y25800000D01*
X40550000Y25800000D01*
X40550000Y27211925D01*
X41835549Y27211925D01*
X41835549Y26350075D01*
X41843034Y26274082D01*
X41865200Y26201010D01*
X41901196Y26133666D01*
X41949639Y26074639D01*
X42008666Y26026196D01*
X42076010Y25990200D01*
X42149082Y25968034D01*
X42225075Y25960549D01*
X42373925Y25960549D01*
X42449918Y25968034D01*
X42522990Y25990200D01*
X42590334Y26026196D01*
X42649361Y26074639D01*
X42697804Y26133666D01*
X42733800Y26201010D01*
X42755966Y26274082D01*
X42763451Y26350075D01*
X42763451Y27211925D01*
X42755966Y27287918D01*
X42733800Y27360990D01*
X42724500Y27378389D01*
X42724500Y27756068D01*
X42736234Y27757224D01*
X42820923Y27782914D01*
X42898973Y27824632D01*
X42967384Y27880776D01*
X43023528Y27949187D01*
X43065246Y28027237D01*
X43090936Y28111926D01*
X43099611Y28200000D01*
X43099611Y28800000D01*
X43090936Y28888074D01*
X43065246Y28972763D01*
X43023528Y29050813D01*
X42967384Y29119224D01*
X42898973Y29175368D01*
X42820923Y29217086D01*
X42736234Y29242776D01*
X42648160Y29251451D01*
X42348160Y29251451D01*
X42260086Y29242776D01*
X42175397Y29217086D01*
X42097347Y29175368D01*
X42028936Y29119224D01*
X41972792Y29050813D01*
X41931074Y28972763D01*
X41905384Y28888074D01*
X41896709Y28800000D01*
X41896709Y28437591D01*
X41880650Y28384654D01*
X41872445Y28301340D01*
X41874501Y28280464D01*
X41874500Y27378390D01*
X41865200Y27360990D01*
X41843034Y27287918D01*
X41835549Y27211925D01*
X40550000Y27211925D01*
X40550000Y27750000D01*
X40544236Y27808527D01*
X40527164Y27864805D01*
X40499441Y27916671D01*
X40462132Y27962132D01*
X40300000Y28124264D01*
X40300000Y44675000D01*
X49400000Y44675000D01*
X49400000Y8600000D01*
G37*
X49400000Y8600000D02*
X44300000Y8600000D01*
X44300000Y19500000D01*
X44294236Y19558527D01*
X44277164Y19614805D01*
X44249441Y19666671D01*
X44212132Y19712132D01*
X42118741Y21805523D01*
X42154493Y21824632D01*
X42222904Y21880776D01*
X42279048Y21949187D01*
X42320766Y22027237D01*
X42346456Y22111926D01*
X42355131Y22200000D01*
X42355131Y22800000D01*
X42346456Y22888074D01*
X42320766Y22972763D01*
X42279048Y23050813D01*
X42222904Y23119224D01*
X42154493Y23175368D01*
X42124500Y23191399D01*
X42124500Y23621611D01*
X42133800Y23639010D01*
X42155966Y23712082D01*
X42163451Y23788075D01*
X42163451Y24649925D01*
X42155966Y24725918D01*
X42133800Y24798990D01*
X42097804Y24866334D01*
X42049361Y24925361D01*
X41990334Y24973804D01*
X41922990Y25009800D01*
X41849918Y25031966D01*
X41796332Y25037244D01*
X41794236Y25058527D01*
X41777164Y25114805D01*
X41749441Y25166671D01*
X41712132Y25212132D01*
X41212132Y25712132D01*
X41166671Y25749441D01*
X41114805Y25777164D01*
X41058527Y25794236D01*
X41000000Y25800000D01*
X40550000Y25800000D01*
X40550000Y27211925D01*
X41835549Y27211925D01*
X41835549Y26350075D01*
X41843034Y26274082D01*
X41865200Y26201010D01*
X41901196Y26133666D01*
X41949639Y26074639D01*
X42008666Y26026196D01*
X42076010Y25990200D01*
X42149082Y25968034D01*
X42225075Y25960549D01*
X42373925Y25960549D01*
X42449918Y25968034D01*
X42522990Y25990200D01*
X42590334Y26026196D01*
X42649361Y26074639D01*
X42697804Y26133666D01*
X42733800Y26201010D01*
X42755966Y26274082D01*
X42763451Y26350075D01*
X42763451Y27211925D01*
X42755966Y27287918D01*
X42733800Y27360990D01*
X42724500Y27378389D01*
X42724500Y27756068D01*
X42736234Y27757224D01*
X42820923Y27782914D01*
X42898973Y27824632D01*
X42967384Y27880776D01*
X43023528Y27949187D01*
X43065246Y28027237D01*
X43090936Y28111926D01*
X43099611Y28200000D01*
X43099611Y28800000D01*
X43090936Y28888074D01*
X43065246Y28972763D01*
X43023528Y29050813D01*
X42967384Y29119224D01*
X42898973Y29175368D01*
X42820923Y29217086D01*
X42736234Y29242776D01*
X42648160Y29251451D01*
X42348160Y29251451D01*
X42260086Y29242776D01*
X42175397Y29217086D01*
X42097347Y29175368D01*
X42028936Y29119224D01*
X41972792Y29050813D01*
X41931074Y28972763D01*
X41905384Y28888074D01*
X41896709Y28800000D01*
X41896709Y28437591D01*
X41880650Y28384654D01*
X41872445Y28301340D01*
X41874501Y28280464D01*
X41874500Y27378390D01*
X41865200Y27360990D01*
X41843034Y27287918D01*
X41835549Y27211925D01*
X40550000Y27211925D01*
X40550000Y27750000D01*
X40544236Y27808527D01*
X40527164Y27864805D01*
X40499441Y27916671D01*
X40462132Y27962132D01*
X40300000Y28124264D01*
X40300000Y44675000D01*
X49400000Y44675000D01*
X49400000Y8600000D01*
%TO.N,/PV3+*%
G36*
X65900000Y28000000D02*
G01*
X65901921Y27980491D01*
X65907612Y27961732D01*
X65916853Y27944443D01*
X65929289Y27929289D01*
X66150000Y27708578D01*
X66150000Y27310711D01*
X66143037Y27287757D01*
X66135549Y27211725D01*
X66135549Y26175275D01*
X66143037Y26099243D01*
X66150000Y26076289D01*
X66150000Y25600000D01*
X56100000Y25600000D01*
X56100000Y44675000D01*
X65900000Y44675000D01*
X65900000Y28000000D01*
G37*
X65900000Y28000000D02*
X65901921Y27980491D01*
X65907612Y27961732D01*
X65916853Y27944443D01*
X65929289Y27929289D01*
X66150000Y27708578D01*
X66150000Y27310711D01*
X66143037Y27287757D01*
X66135549Y27211725D01*
X66135549Y26175275D01*
X66143037Y26099243D01*
X66150000Y26076289D01*
X66150000Y25600000D01*
X56100000Y25600000D01*
X56100000Y44675000D01*
X65900000Y44675000D01*
X65900000Y28000000D01*
%TO.N,/Channel 3/sw*%
G36*
X67395544Y24963034D02*
G01*
X67349639Y24925361D01*
X67301196Y24866334D01*
X67265200Y24798990D01*
X67243034Y24725918D01*
X67235549Y24649925D01*
X67235549Y23788075D01*
X67243034Y23712082D01*
X67265200Y23639010D01*
X67274500Y23621610D01*
X67274501Y23107094D01*
X67228312Y23050813D01*
X67186594Y22972763D01*
X67160904Y22888074D01*
X67152229Y22800000D01*
X67152229Y22200000D01*
X67160904Y22111926D01*
X67186594Y22027237D01*
X67228312Y21949187D01*
X67284456Y21880776D01*
X67352867Y21824632D01*
X67430917Y21782914D01*
X67515606Y21757224D01*
X67603680Y21748549D01*
X67610029Y21748549D01*
X69900000Y19458578D01*
X69900000Y8600000D01*
X63100000Y8600000D01*
X63100000Y25200000D01*
X66250000Y25200000D01*
X66308527Y25205764D01*
X66364805Y25222836D01*
X66416671Y25250559D01*
X66462132Y25287868D01*
X66499441Y25333329D01*
X66527164Y25385195D01*
X66531655Y25400000D01*
X66958578Y25400000D01*
X67395544Y24963034D01*
G37*
X67395544Y24963034D02*
X67349639Y24925361D01*
X67301196Y24866334D01*
X67265200Y24798990D01*
X67243034Y24725918D01*
X67235549Y24649925D01*
X67235549Y23788075D01*
X67243034Y23712082D01*
X67265200Y23639010D01*
X67274500Y23621610D01*
X67274501Y23107094D01*
X67228312Y23050813D01*
X67186594Y22972763D01*
X67160904Y22888074D01*
X67152229Y22800000D01*
X67152229Y22200000D01*
X67160904Y22111926D01*
X67186594Y22027237D01*
X67228312Y21949187D01*
X67284456Y21880776D01*
X67352867Y21824632D01*
X67430917Y21782914D01*
X67515606Y21757224D01*
X67603680Y21748549D01*
X67610029Y21748549D01*
X69900000Y19458578D01*
X69900000Y8600000D01*
X63100000Y8600000D01*
X63100000Y25200000D01*
X66250000Y25200000D01*
X66308527Y25205764D01*
X66364805Y25222836D01*
X66416671Y25250559D01*
X66462132Y25287868D01*
X66499441Y25333329D01*
X66527164Y25385195D01*
X66531655Y25400000D01*
X66958578Y25400000D01*
X67395544Y24963034D01*
%TO.N,/Out23*%
G36*
X75400000Y8600000D02*
G01*
X70300000Y8600000D01*
X70300000Y19500000D01*
X70294236Y19558527D01*
X70277164Y19614805D01*
X70249441Y19666671D01*
X70212132Y19712132D01*
X68118741Y21805523D01*
X68154493Y21824632D01*
X68222904Y21880776D01*
X68279048Y21949187D01*
X68320766Y22027237D01*
X68346456Y22111926D01*
X68355131Y22200000D01*
X68355131Y22800000D01*
X68346456Y22888074D01*
X68320766Y22972763D01*
X68279048Y23050813D01*
X68222904Y23119224D01*
X68154493Y23175368D01*
X68124500Y23191399D01*
X68124500Y23621611D01*
X68133800Y23639010D01*
X68155966Y23712082D01*
X68163451Y23788075D01*
X68163451Y24649925D01*
X68155966Y24725918D01*
X68133800Y24798990D01*
X68097804Y24866334D01*
X68049361Y24925361D01*
X67990334Y24973804D01*
X67922990Y25009800D01*
X67849918Y25031966D01*
X67796332Y25037244D01*
X67794236Y25058527D01*
X67777164Y25114805D01*
X67749441Y25166671D01*
X67712132Y25212132D01*
X67212132Y25712132D01*
X67166671Y25749441D01*
X67114805Y25777164D01*
X67058527Y25794236D01*
X67000000Y25800000D01*
X66550000Y25800000D01*
X66550000Y27211925D01*
X67835549Y27211925D01*
X67835549Y26350075D01*
X67843034Y26274082D01*
X67865200Y26201010D01*
X67901196Y26133666D01*
X67949639Y26074639D01*
X68008666Y26026196D01*
X68076010Y25990200D01*
X68149082Y25968034D01*
X68225075Y25960549D01*
X68373925Y25960549D01*
X68449918Y25968034D01*
X68522990Y25990200D01*
X68590334Y26026196D01*
X68649361Y26074639D01*
X68697804Y26133666D01*
X68733800Y26201010D01*
X68755966Y26274082D01*
X68763451Y26350075D01*
X68763451Y27211925D01*
X68755966Y27287918D01*
X68733800Y27360990D01*
X68724500Y27378389D01*
X68724500Y27756068D01*
X68736234Y27757224D01*
X68820923Y27782914D01*
X68898973Y27824632D01*
X68967384Y27880776D01*
X69023528Y27949187D01*
X69065246Y28027237D01*
X69090936Y28111926D01*
X69099611Y28200000D01*
X69099611Y28800000D01*
X69090936Y28888074D01*
X69065246Y28972763D01*
X69023528Y29050813D01*
X68967384Y29119224D01*
X68898973Y29175368D01*
X68820923Y29217086D01*
X68736234Y29242776D01*
X68648160Y29251451D01*
X68348160Y29251451D01*
X68260086Y29242776D01*
X68175397Y29217086D01*
X68097347Y29175368D01*
X68028936Y29119224D01*
X67972792Y29050813D01*
X67931074Y28972763D01*
X67905384Y28888074D01*
X67896709Y28800000D01*
X67896709Y28437591D01*
X67880650Y28384654D01*
X67872445Y28301340D01*
X67874501Y28280464D01*
X67874500Y27378390D01*
X67865200Y27360990D01*
X67843034Y27287918D01*
X67835549Y27211925D01*
X66550000Y27211925D01*
X66550000Y27750000D01*
X66544236Y27808527D01*
X66527164Y27864805D01*
X66499441Y27916671D01*
X66462132Y27962132D01*
X66300000Y28124264D01*
X66300000Y44675000D01*
X75400000Y44675000D01*
X75400000Y8600000D01*
G37*
X75400000Y8600000D02*
X70300000Y8600000D01*
X70300000Y19500000D01*
X70294236Y19558527D01*
X70277164Y19614805D01*
X70249441Y19666671D01*
X70212132Y19712132D01*
X68118741Y21805523D01*
X68154493Y21824632D01*
X68222904Y21880776D01*
X68279048Y21949187D01*
X68320766Y22027237D01*
X68346456Y22111926D01*
X68355131Y22200000D01*
X68355131Y22800000D01*
X68346456Y22888074D01*
X68320766Y22972763D01*
X68279048Y23050813D01*
X68222904Y23119224D01*
X68154493Y23175368D01*
X68124500Y23191399D01*
X68124500Y23621611D01*
X68133800Y23639010D01*
X68155966Y23712082D01*
X68163451Y23788075D01*
X68163451Y24649925D01*
X68155966Y24725918D01*
X68133800Y24798990D01*
X68097804Y24866334D01*
X68049361Y24925361D01*
X67990334Y24973804D01*
X67922990Y25009800D01*
X67849918Y25031966D01*
X67796332Y25037244D01*
X67794236Y25058527D01*
X67777164Y25114805D01*
X67749441Y25166671D01*
X67712132Y25212132D01*
X67212132Y25712132D01*
X67166671Y25749441D01*
X67114805Y25777164D01*
X67058527Y25794236D01*
X67000000Y25800000D01*
X66550000Y25800000D01*
X66550000Y27211925D01*
X67835549Y27211925D01*
X67835549Y26350075D01*
X67843034Y26274082D01*
X67865200Y26201010D01*
X67901196Y26133666D01*
X67949639Y26074639D01*
X68008666Y26026196D01*
X68076010Y25990200D01*
X68149082Y25968034D01*
X68225075Y25960549D01*
X68373925Y25960549D01*
X68449918Y25968034D01*
X68522990Y25990200D01*
X68590334Y26026196D01*
X68649361Y26074639D01*
X68697804Y26133666D01*
X68733800Y26201010D01*
X68755966Y26274082D01*
X68763451Y26350075D01*
X68763451Y27211925D01*
X68755966Y27287918D01*
X68733800Y27360990D01*
X68724500Y27378389D01*
X68724500Y27756068D01*
X68736234Y27757224D01*
X68820923Y27782914D01*
X68898973Y27824632D01*
X68967384Y27880776D01*
X69023528Y27949187D01*
X69065246Y28027237D01*
X69090936Y28111926D01*
X69099611Y28200000D01*
X69099611Y28800000D01*
X69090936Y28888074D01*
X69065246Y28972763D01*
X69023528Y29050813D01*
X68967384Y29119224D01*
X68898973Y29175368D01*
X68820923Y29217086D01*
X68736234Y29242776D01*
X68648160Y29251451D01*
X68348160Y29251451D01*
X68260086Y29242776D01*
X68175397Y29217086D01*
X68097347Y29175368D01*
X68028936Y29119224D01*
X67972792Y29050813D01*
X67931074Y28972763D01*
X67905384Y28888074D01*
X67896709Y28800000D01*
X67896709Y28437591D01*
X67880650Y28384654D01*
X67872445Y28301340D01*
X67874501Y28280464D01*
X67874500Y27378390D01*
X67865200Y27360990D01*
X67843034Y27287918D01*
X67835549Y27211925D01*
X66550000Y27211925D01*
X66550000Y27750000D01*
X66544236Y27808527D01*
X66527164Y27864805D01*
X66499441Y27916671D01*
X66462132Y27962132D01*
X66300000Y28124264D01*
X66300000Y44675000D01*
X75400000Y44675000D01*
X75400000Y8600000D01*
%TO.N,/PV2+*%
G36*
X39900000Y28000000D02*
G01*
X39901921Y27980491D01*
X39907612Y27961732D01*
X39916853Y27944443D01*
X39929289Y27929289D01*
X40150000Y27708578D01*
X40150000Y27310711D01*
X40143037Y27287757D01*
X40135549Y27211725D01*
X40135549Y26175275D01*
X40143037Y26099243D01*
X40150000Y26076289D01*
X40150000Y25600000D01*
X30100000Y25600000D01*
X30100000Y44675000D01*
X39900000Y44675000D01*
X39900000Y28000000D01*
G37*
X39900000Y28000000D02*
X39901921Y27980491D01*
X39907612Y27961732D01*
X39916853Y27944443D01*
X39929289Y27929289D01*
X40150000Y27708578D01*
X40150000Y27310711D01*
X40143037Y27287757D01*
X40135549Y27211725D01*
X40135549Y26175275D01*
X40143037Y26099243D01*
X40150000Y26076289D01*
X40150000Y25600000D01*
X30100000Y25600000D01*
X30100000Y44675000D01*
X39900000Y44675000D01*
X39900000Y28000000D01*
%TO.N,/Out12*%
G36*
X29700000Y25500000D02*
G01*
X29705764Y25441473D01*
X29722836Y25385195D01*
X29750559Y25333329D01*
X29787868Y25287868D01*
X29833329Y25250559D01*
X29885195Y25222836D01*
X29941473Y25205764D01*
X30000000Y25200000D01*
X36700000Y25200000D01*
X36700000Y9300000D01*
X23800000Y9300000D01*
X23800000Y44675000D01*
X29700000Y44675000D01*
X29700000Y25500000D01*
G37*
X29700000Y25500000D02*
X29705764Y25441473D01*
X29722836Y25385195D01*
X29750559Y25333329D01*
X29787868Y25287868D01*
X29833329Y25250559D01*
X29885195Y25222836D01*
X29941473Y25205764D01*
X30000000Y25200000D01*
X36700000Y25200000D01*
X36700000Y9300000D01*
X23800000Y9300000D01*
X23800000Y44675000D01*
X29700000Y44675000D01*
X29700000Y25500000D01*
%TO.N,/Out23*%
G36*
X55700000Y25500000D02*
G01*
X55705764Y25441473D01*
X55722836Y25385195D01*
X55750559Y25333329D01*
X55787868Y25287868D01*
X55833329Y25250559D01*
X55885195Y25222836D01*
X55941473Y25205764D01*
X56000000Y25200000D01*
X62700000Y25200000D01*
X62700000Y9300000D01*
X49800000Y9300000D01*
X49800000Y44675000D01*
X55700000Y44675000D01*
X55700000Y25500000D01*
G37*
X55700000Y25500000D02*
X55705764Y25441473D01*
X55722836Y25385195D01*
X55750559Y25333329D01*
X55787868Y25287868D01*
X55833329Y25250559D01*
X55885195Y25222836D01*
X55941473Y25205764D01*
X56000000Y25200000D01*
X62700000Y25200000D01*
X62700000Y9300000D01*
X49800000Y9300000D01*
X49800000Y44675000D01*
X55700000Y44675000D01*
X55700000Y25500000D01*
%TO.N,/Out+*%
G36*
X79675000Y325000D02*
G01*
X44300000Y325000D01*
X44300000Y8200000D01*
X49500000Y8200000D01*
X49558527Y8205764D01*
X49614805Y8222836D01*
X49666671Y8250559D01*
X49712132Y8287868D01*
X49749441Y8333329D01*
X49777164Y8385195D01*
X49794236Y8441473D01*
X49800000Y8500000D01*
X49800000Y8900000D01*
X62700000Y8900000D01*
X62700000Y8500000D01*
X62705764Y8441473D01*
X62722836Y8385195D01*
X62750559Y8333329D01*
X62787868Y8287868D01*
X62833329Y8250559D01*
X62885195Y8222836D01*
X62941473Y8205764D01*
X63000000Y8200000D01*
X75500000Y8200000D01*
X75558527Y8205764D01*
X75614805Y8222836D01*
X75666671Y8250559D01*
X75712132Y8287868D01*
X75749441Y8333329D01*
X75777164Y8385195D01*
X75794236Y8441473D01*
X75800000Y8500000D01*
X75800000Y44675000D01*
X79675001Y44675000D01*
X79675000Y325000D01*
G37*
X79675000Y325000D02*
X44300000Y325000D01*
X44300000Y8200000D01*
X49500000Y8200000D01*
X49558527Y8205764D01*
X49614805Y8222836D01*
X49666671Y8250559D01*
X49712132Y8287868D01*
X49749441Y8333329D01*
X49777164Y8385195D01*
X49794236Y8441473D01*
X49800000Y8500000D01*
X49800000Y8900000D01*
X62700000Y8900000D01*
X62700000Y8500000D01*
X62705764Y8441473D01*
X62722836Y8385195D01*
X62750559Y8333329D01*
X62787868Y8287868D01*
X62833329Y8250559D01*
X62885195Y8222836D01*
X62941473Y8205764D01*
X63000000Y8200000D01*
X75500000Y8200000D01*
X75558527Y8205764D01*
X75614805Y8222836D01*
X75666671Y8250559D01*
X75712132Y8287868D01*
X75749441Y8333329D01*
X75777164Y8385195D01*
X75794236Y8441473D01*
X75800000Y8500000D01*
X75800000Y44675000D01*
X79675001Y44675000D01*
X79675000Y325000D01*
%TD*%
M02*
