%TF.GenerationSoftware,KiCad,Pcbnew,5.1.6-c6e7f7d~87~ubuntu20.04.1*%
%TF.CreationDate,2020-09-19T15:10:49+02:00*%
%TF.ProjectId,maxim-optimizer,6d617869-6d2d-46f7-9074-696d697a6572,rev?*%
%TF.SameCoordinates,PX3ef1480PY6acfc00*%
%TF.FileFunction,Paste,Top*%
%TF.FilePolarity,Positive*%
%FSLAX46Y46*%
G04 Gerber Fmt 4.6, Leading zero omitted, Abs format (unit mm)*
G04 Created by KiCad (PCBNEW 5.1.6-c6e7f7d~87~ubuntu20.04.1) date 2020-09-19 15:10:49*
%MOMM*%
%LPD*%
G01*
G04 APERTURE LIST*
%ADD10R,3.100000X5.000000*%
%ADD11R,2.500000X2.500000*%
G04 APERTURE END LIST*
%TO.C,U201*%
G36*
G01*
X16877076Y27237000D02*
X17560924Y27237000D01*
G75*
G02*
X17637000Y27160924I0J-76076D01*
G01*
X17637000Y26226076D01*
G75*
G02*
X17560924Y26150000I-76076J0D01*
G01*
X16877076Y26150000D01*
G75*
G02*
X16801000Y26226076I0J76076D01*
G01*
X16801000Y27160924D01*
G75*
G02*
X16877076Y27237000I76076J0D01*
G01*
G37*
G36*
G01*
X16877076Y24850000D02*
X17560924Y24850000D01*
G75*
G02*
X17637000Y24773924I0J-76076D01*
G01*
X17637000Y23839076D01*
G75*
G02*
X17560924Y23763000I-76076J0D01*
G01*
X16877076Y23763000D01*
G75*
G02*
X16801000Y23839076I0J76076D01*
G01*
X16801000Y24773924D01*
G75*
G02*
X16877076Y24850000I76076J0D01*
G01*
G37*
G36*
G01*
X16795359Y25749000D02*
X17566641Y25749000D01*
G75*
G02*
X17637000Y25678641I0J-70359D01*
G01*
X17637000Y25320359D01*
G75*
G02*
X17566641Y25250000I-70359J0D01*
G01*
X16795359Y25250000D01*
G75*
G02*
X16725000Y25320359I0J70359D01*
G01*
X16725000Y25678641D01*
G75*
G02*
X16795359Y25749000I70359J0D01*
G01*
G37*
G36*
G01*
X16253929Y27237000D02*
X16345071Y27237000D01*
G75*
G02*
X16399000Y27183071I0J-53929D01*
G01*
X16399000Y26378929D01*
G75*
G02*
X16345071Y26325000I-53929J0D01*
G01*
X16253929Y26325000D01*
G75*
G02*
X16200000Y26378929I0J53929D01*
G01*
X16200000Y27183071D01*
G75*
G02*
X16253929Y27237000I53929J0D01*
G01*
G37*
G36*
G01*
X15653929Y27237000D02*
X15745071Y27237000D01*
G75*
G02*
X15799000Y27183071I0J-53929D01*
G01*
X15799000Y26378929D01*
G75*
G02*
X15745071Y26325000I-53929J0D01*
G01*
X15653929Y26325000D01*
G75*
G02*
X15600000Y26378929I0J53929D01*
G01*
X15600000Y27183071D01*
G75*
G02*
X15653929Y27237000I53929J0D01*
G01*
G37*
G36*
G01*
X15653929Y24675000D02*
X15745071Y24675000D01*
G75*
G02*
X15799000Y24621071I0J-53929D01*
G01*
X15799000Y23816929D01*
G75*
G02*
X15745071Y23763000I-53929J0D01*
G01*
X15653929Y23763000D01*
G75*
G02*
X15600000Y23816929I0J53929D01*
G01*
X15600000Y24621071D01*
G75*
G02*
X15653929Y24675000I53929J0D01*
G01*
G37*
G36*
G01*
X16253929Y24675000D02*
X16345071Y24675000D01*
G75*
G02*
X16399000Y24621071I0J-53929D01*
G01*
X16399000Y23816929D01*
G75*
G02*
X16345071Y23763000I-53929J0D01*
G01*
X16253929Y23763000D01*
G75*
G02*
X16200000Y23816929I0J53929D01*
G01*
X16200000Y24621071D01*
G75*
G02*
X16253929Y24675000I53929J0D01*
G01*
G37*
G36*
G01*
X14574793Y27237000D02*
X15124207Y27237000D01*
G75*
G02*
X15199000Y27162207I0J-74793D01*
G01*
X15199000Y26224793D01*
G75*
G02*
X15124207Y26150000I-74793J0D01*
G01*
X14574793Y26150000D01*
G75*
G02*
X14500000Y26224793I0J74793D01*
G01*
X14500000Y27162207D01*
G75*
G02*
X14574793Y27237000I74793J0D01*
G01*
G37*
G36*
G01*
X11442351Y27237000D02*
X14020649Y27237000D01*
G75*
G02*
X14100000Y27157649I0J-79351D01*
G01*
X14100000Y26229351D01*
G75*
G02*
X14020649Y26150000I-79351J0D01*
G01*
X11442351Y26150000D01*
G75*
G02*
X11363000Y26229351I0J79351D01*
G01*
X11363000Y27157649D01*
G75*
G02*
X11442351Y27237000I79351J0D01*
G01*
G37*
G36*
G01*
X11442351Y24850000D02*
X15120649Y24850000D01*
G75*
G02*
X15200000Y24770649I0J-79351D01*
G01*
X15200000Y23842351D01*
G75*
G02*
X15120649Y23763000I-79351J0D01*
G01*
X11442351Y23763000D01*
G75*
G02*
X11363000Y23842351I0J79351D01*
G01*
X11363000Y24770649D01*
G75*
G02*
X11442351Y24850000I79351J0D01*
G01*
G37*
%TD*%
%TO.C,U401*%
G36*
G01*
X68877076Y27237000D02*
X69560924Y27237000D01*
G75*
G02*
X69637000Y27160924I0J-76076D01*
G01*
X69637000Y26226076D01*
G75*
G02*
X69560924Y26150000I-76076J0D01*
G01*
X68877076Y26150000D01*
G75*
G02*
X68801000Y26226076I0J76076D01*
G01*
X68801000Y27160924D01*
G75*
G02*
X68877076Y27237000I76076J0D01*
G01*
G37*
G36*
G01*
X68877076Y24850000D02*
X69560924Y24850000D01*
G75*
G02*
X69637000Y24773924I0J-76076D01*
G01*
X69637000Y23839076D01*
G75*
G02*
X69560924Y23763000I-76076J0D01*
G01*
X68877076Y23763000D01*
G75*
G02*
X68801000Y23839076I0J76076D01*
G01*
X68801000Y24773924D01*
G75*
G02*
X68877076Y24850000I76076J0D01*
G01*
G37*
G36*
G01*
X68795359Y25749000D02*
X69566641Y25749000D01*
G75*
G02*
X69637000Y25678641I0J-70359D01*
G01*
X69637000Y25320359D01*
G75*
G02*
X69566641Y25250000I-70359J0D01*
G01*
X68795359Y25250000D01*
G75*
G02*
X68725000Y25320359I0J70359D01*
G01*
X68725000Y25678641D01*
G75*
G02*
X68795359Y25749000I70359J0D01*
G01*
G37*
G36*
G01*
X68253929Y27237000D02*
X68345071Y27237000D01*
G75*
G02*
X68399000Y27183071I0J-53929D01*
G01*
X68399000Y26378929D01*
G75*
G02*
X68345071Y26325000I-53929J0D01*
G01*
X68253929Y26325000D01*
G75*
G02*
X68200000Y26378929I0J53929D01*
G01*
X68200000Y27183071D01*
G75*
G02*
X68253929Y27237000I53929J0D01*
G01*
G37*
G36*
G01*
X67653929Y27237000D02*
X67745071Y27237000D01*
G75*
G02*
X67799000Y27183071I0J-53929D01*
G01*
X67799000Y26378929D01*
G75*
G02*
X67745071Y26325000I-53929J0D01*
G01*
X67653929Y26325000D01*
G75*
G02*
X67600000Y26378929I0J53929D01*
G01*
X67600000Y27183071D01*
G75*
G02*
X67653929Y27237000I53929J0D01*
G01*
G37*
G36*
G01*
X67653929Y24675000D02*
X67745071Y24675000D01*
G75*
G02*
X67799000Y24621071I0J-53929D01*
G01*
X67799000Y23816929D01*
G75*
G02*
X67745071Y23763000I-53929J0D01*
G01*
X67653929Y23763000D01*
G75*
G02*
X67600000Y23816929I0J53929D01*
G01*
X67600000Y24621071D01*
G75*
G02*
X67653929Y24675000I53929J0D01*
G01*
G37*
G36*
G01*
X68253929Y24675000D02*
X68345071Y24675000D01*
G75*
G02*
X68399000Y24621071I0J-53929D01*
G01*
X68399000Y23816929D01*
G75*
G02*
X68345071Y23763000I-53929J0D01*
G01*
X68253929Y23763000D01*
G75*
G02*
X68200000Y23816929I0J53929D01*
G01*
X68200000Y24621071D01*
G75*
G02*
X68253929Y24675000I53929J0D01*
G01*
G37*
G36*
G01*
X66574793Y27237000D02*
X67124207Y27237000D01*
G75*
G02*
X67199000Y27162207I0J-74793D01*
G01*
X67199000Y26224793D01*
G75*
G02*
X67124207Y26150000I-74793J0D01*
G01*
X66574793Y26150000D01*
G75*
G02*
X66500000Y26224793I0J74793D01*
G01*
X66500000Y27162207D01*
G75*
G02*
X66574793Y27237000I74793J0D01*
G01*
G37*
G36*
G01*
X63442351Y27237000D02*
X66020649Y27237000D01*
G75*
G02*
X66100000Y27157649I0J-79351D01*
G01*
X66100000Y26229351D01*
G75*
G02*
X66020649Y26150000I-79351J0D01*
G01*
X63442351Y26150000D01*
G75*
G02*
X63363000Y26229351I0J79351D01*
G01*
X63363000Y27157649D01*
G75*
G02*
X63442351Y27237000I79351J0D01*
G01*
G37*
G36*
G01*
X63442351Y24850000D02*
X67120649Y24850000D01*
G75*
G02*
X67200000Y24770649I0J-79351D01*
G01*
X67200000Y23842351D01*
G75*
G02*
X67120649Y23763000I-79351J0D01*
G01*
X63442351Y23763000D01*
G75*
G02*
X63363000Y23842351I0J79351D01*
G01*
X63363000Y24770649D01*
G75*
G02*
X63442351Y24850000I79351J0D01*
G01*
G37*
%TD*%
%TO.C,U301*%
G36*
G01*
X42877076Y27237000D02*
X43560924Y27237000D01*
G75*
G02*
X43637000Y27160924I0J-76076D01*
G01*
X43637000Y26226076D01*
G75*
G02*
X43560924Y26150000I-76076J0D01*
G01*
X42877076Y26150000D01*
G75*
G02*
X42801000Y26226076I0J76076D01*
G01*
X42801000Y27160924D01*
G75*
G02*
X42877076Y27237000I76076J0D01*
G01*
G37*
G36*
G01*
X42877076Y24850000D02*
X43560924Y24850000D01*
G75*
G02*
X43637000Y24773924I0J-76076D01*
G01*
X43637000Y23839076D01*
G75*
G02*
X43560924Y23763000I-76076J0D01*
G01*
X42877076Y23763000D01*
G75*
G02*
X42801000Y23839076I0J76076D01*
G01*
X42801000Y24773924D01*
G75*
G02*
X42877076Y24850000I76076J0D01*
G01*
G37*
G36*
G01*
X42795359Y25749000D02*
X43566641Y25749000D01*
G75*
G02*
X43637000Y25678641I0J-70359D01*
G01*
X43637000Y25320359D01*
G75*
G02*
X43566641Y25250000I-70359J0D01*
G01*
X42795359Y25250000D01*
G75*
G02*
X42725000Y25320359I0J70359D01*
G01*
X42725000Y25678641D01*
G75*
G02*
X42795359Y25749000I70359J0D01*
G01*
G37*
G36*
G01*
X42253929Y27237000D02*
X42345071Y27237000D01*
G75*
G02*
X42399000Y27183071I0J-53929D01*
G01*
X42399000Y26378929D01*
G75*
G02*
X42345071Y26325000I-53929J0D01*
G01*
X42253929Y26325000D01*
G75*
G02*
X42200000Y26378929I0J53929D01*
G01*
X42200000Y27183071D01*
G75*
G02*
X42253929Y27237000I53929J0D01*
G01*
G37*
G36*
G01*
X41653929Y27237000D02*
X41745071Y27237000D01*
G75*
G02*
X41799000Y27183071I0J-53929D01*
G01*
X41799000Y26378929D01*
G75*
G02*
X41745071Y26325000I-53929J0D01*
G01*
X41653929Y26325000D01*
G75*
G02*
X41600000Y26378929I0J53929D01*
G01*
X41600000Y27183071D01*
G75*
G02*
X41653929Y27237000I53929J0D01*
G01*
G37*
G36*
G01*
X41653929Y24675000D02*
X41745071Y24675000D01*
G75*
G02*
X41799000Y24621071I0J-53929D01*
G01*
X41799000Y23816929D01*
G75*
G02*
X41745071Y23763000I-53929J0D01*
G01*
X41653929Y23763000D01*
G75*
G02*
X41600000Y23816929I0J53929D01*
G01*
X41600000Y24621071D01*
G75*
G02*
X41653929Y24675000I53929J0D01*
G01*
G37*
G36*
G01*
X42253929Y24675000D02*
X42345071Y24675000D01*
G75*
G02*
X42399000Y24621071I0J-53929D01*
G01*
X42399000Y23816929D01*
G75*
G02*
X42345071Y23763000I-53929J0D01*
G01*
X42253929Y23763000D01*
G75*
G02*
X42200000Y23816929I0J53929D01*
G01*
X42200000Y24621071D01*
G75*
G02*
X42253929Y24675000I53929J0D01*
G01*
G37*
G36*
G01*
X40574793Y27237000D02*
X41124207Y27237000D01*
G75*
G02*
X41199000Y27162207I0J-74793D01*
G01*
X41199000Y26224793D01*
G75*
G02*
X41124207Y26150000I-74793J0D01*
G01*
X40574793Y26150000D01*
G75*
G02*
X40500000Y26224793I0J74793D01*
G01*
X40500000Y27162207D01*
G75*
G02*
X40574793Y27237000I74793J0D01*
G01*
G37*
G36*
G01*
X37442351Y27237000D02*
X40020649Y27237000D01*
G75*
G02*
X40100000Y27157649I0J-79351D01*
G01*
X40100000Y26229351D01*
G75*
G02*
X40020649Y26150000I-79351J0D01*
G01*
X37442351Y26150000D01*
G75*
G02*
X37363000Y26229351I0J79351D01*
G01*
X37363000Y27157649D01*
G75*
G02*
X37442351Y27237000I79351J0D01*
G01*
G37*
G36*
G01*
X37442351Y24850000D02*
X41120649Y24850000D01*
G75*
G02*
X41200000Y24770649I0J-79351D01*
G01*
X41200000Y23842351D01*
G75*
G02*
X41120649Y23763000I-79351J0D01*
G01*
X37442351Y23763000D01*
G75*
G02*
X37363000Y23842351I0J79351D01*
G01*
X37363000Y24770649D01*
G75*
G02*
X37442351Y24850000I79351J0D01*
G01*
G37*
%TD*%
%TO.C,R101*%
G36*
G01*
X36800000Y4050000D02*
X36800000Y3450000D01*
G75*
G02*
X36650000Y3300000I-150000J0D01*
G01*
X36350000Y3300000D01*
G75*
G02*
X36200000Y3450000I0J150000D01*
G01*
X36200000Y4050000D01*
G75*
G02*
X36350000Y4200000I150000J0D01*
G01*
X36650000Y4200000D01*
G75*
G02*
X36800000Y4050000I0J-150000D01*
G01*
G37*
G36*
G01*
X38300000Y4050000D02*
X38300000Y3450000D01*
G75*
G02*
X38150000Y3300000I-150000J0D01*
G01*
X37850000Y3300000D01*
G75*
G02*
X37700000Y3450000I0J150000D01*
G01*
X37700000Y4050000D01*
G75*
G02*
X37850000Y4200000I150000J0D01*
G01*
X38150000Y4200000D01*
G75*
G02*
X38300000Y4050000I0J-150000D01*
G01*
G37*
%TD*%
D10*
%TO.C,L401*%
X77300000Y14750000D03*
X66200000Y14750000D03*
%TD*%
%TO.C,L301*%
X51300000Y14750000D03*
X40200000Y14750000D03*
%TD*%
%TO.C,L201*%
X25300000Y14750000D03*
X14200000Y14750000D03*
%TD*%
D11*
%TO.C,D101*%
X46000000Y2000000D03*
X46000000Y5500000D03*
X49500000Y2000000D03*
X49500000Y5500000D03*
G36*
G01*
X39987500Y2175000D02*
X41712500Y2175000D01*
G75*
G02*
X42075000Y1812500I0J-362500D01*
G01*
X42075000Y1087500D01*
G75*
G02*
X41712500Y725000I-362500J0D01*
G01*
X39987500Y725000D01*
G75*
G02*
X39625000Y1087500I0J362500D01*
G01*
X39625000Y1812500D01*
G75*
G02*
X39987500Y2175000I362500J0D01*
G01*
G37*
G36*
G01*
X39987500Y6775000D02*
X41712500Y6775000D01*
G75*
G02*
X42075000Y6412500I0J-362500D01*
G01*
X42075000Y5687500D01*
G75*
G02*
X41712500Y5325000I-362500J0D01*
G01*
X39987500Y5325000D01*
G75*
G02*
X39625000Y5687500I0J362500D01*
G01*
X39625000Y6412500D01*
G75*
G02*
X39987500Y6775000I362500J0D01*
G01*
G37*
%TD*%
%TO.C,C418*%
G36*
G01*
X77000000Y32175000D02*
X77000000Y31325000D01*
G75*
G02*
X76750000Y31075000I-250000J0D01*
G01*
X76250000Y31075000D01*
G75*
G02*
X76000000Y31325000I0J250000D01*
G01*
X76000000Y32175000D01*
G75*
G02*
X76250000Y32425000I250000J0D01*
G01*
X76750000Y32425000D01*
G75*
G02*
X77000000Y32175000I0J-250000D01*
G01*
G37*
G36*
G01*
X75000000Y32175000D02*
X75000000Y31325000D01*
G75*
G02*
X74750000Y31075000I-250000J0D01*
G01*
X74250000Y31075000D01*
G75*
G02*
X74000000Y31325000I0J250000D01*
G01*
X74000000Y32175000D01*
G75*
G02*
X74250000Y32425000I250000J0D01*
G01*
X74750000Y32425000D01*
G75*
G02*
X75000000Y32175000I0J-250000D01*
G01*
G37*
%TD*%
%TO.C,C417*%
G36*
G01*
X77000000Y29925000D02*
X77000000Y29075000D01*
G75*
G02*
X76750000Y28825000I-250000J0D01*
G01*
X76250000Y28825000D01*
G75*
G02*
X76000000Y29075000I0J250000D01*
G01*
X76000000Y29925000D01*
G75*
G02*
X76250000Y30175000I250000J0D01*
G01*
X76750000Y30175000D01*
G75*
G02*
X77000000Y29925000I0J-250000D01*
G01*
G37*
G36*
G01*
X75000000Y29925000D02*
X75000000Y29075000D01*
G75*
G02*
X74750000Y28825000I-250000J0D01*
G01*
X74250000Y28825000D01*
G75*
G02*
X74000000Y29075000I0J250000D01*
G01*
X74000000Y29925000D01*
G75*
G02*
X74250000Y30175000I250000J0D01*
G01*
X74750000Y30175000D01*
G75*
G02*
X75000000Y29925000I0J-250000D01*
G01*
G37*
%TD*%
%TO.C,C416*%
G36*
G01*
X77000000Y27675000D02*
X77000000Y26825000D01*
G75*
G02*
X76750000Y26575000I-250000J0D01*
G01*
X76250000Y26575000D01*
G75*
G02*
X76000000Y26825000I0J250000D01*
G01*
X76000000Y27675000D01*
G75*
G02*
X76250000Y27925000I250000J0D01*
G01*
X76750000Y27925000D01*
G75*
G02*
X77000000Y27675000I0J-250000D01*
G01*
G37*
G36*
G01*
X75000000Y27675000D02*
X75000000Y26825000D01*
G75*
G02*
X74750000Y26575000I-250000J0D01*
G01*
X74250000Y26575000D01*
G75*
G02*
X74000000Y26825000I0J250000D01*
G01*
X74000000Y27675000D01*
G75*
G02*
X74250000Y27925000I250000J0D01*
G01*
X74750000Y27925000D01*
G75*
G02*
X75000000Y27675000I0J-250000D01*
G01*
G37*
%TD*%
%TO.C,C415*%
G36*
G01*
X77000000Y25425000D02*
X77000000Y24575000D01*
G75*
G02*
X76750000Y24325000I-250000J0D01*
G01*
X76250000Y24325000D01*
G75*
G02*
X76000000Y24575000I0J250000D01*
G01*
X76000000Y25425000D01*
G75*
G02*
X76250000Y25675000I250000J0D01*
G01*
X76750000Y25675000D01*
G75*
G02*
X77000000Y25425000I0J-250000D01*
G01*
G37*
G36*
G01*
X75000000Y25425000D02*
X75000000Y24575000D01*
G75*
G02*
X74750000Y24325000I-250000J0D01*
G01*
X74250000Y24325000D01*
G75*
G02*
X74000000Y24575000I0J250000D01*
G01*
X74000000Y25425000D01*
G75*
G02*
X74250000Y25675000I250000J0D01*
G01*
X74750000Y25675000D01*
G75*
G02*
X75000000Y25425000I0J-250000D01*
G01*
G37*
%TD*%
%TO.C,C414*%
G36*
G01*
X77000000Y23175000D02*
X77000000Y22325000D01*
G75*
G02*
X76750000Y22075000I-250000J0D01*
G01*
X76250000Y22075000D01*
G75*
G02*
X76000000Y22325000I0J250000D01*
G01*
X76000000Y23175000D01*
G75*
G02*
X76250000Y23425000I250000J0D01*
G01*
X76750000Y23425000D01*
G75*
G02*
X77000000Y23175000I0J-250000D01*
G01*
G37*
G36*
G01*
X75000000Y23175000D02*
X75000000Y22325000D01*
G75*
G02*
X74750000Y22075000I-250000J0D01*
G01*
X74250000Y22075000D01*
G75*
G02*
X74000000Y22325000I0J250000D01*
G01*
X74000000Y23175000D01*
G75*
G02*
X74250000Y23425000I250000J0D01*
G01*
X74750000Y23425000D01*
G75*
G02*
X75000000Y23175000I0J-250000D01*
G01*
G37*
%TD*%
%TO.C,C413*%
G36*
G01*
X68053680Y22800000D02*
X68053680Y22200000D01*
G75*
G02*
X67903680Y22050000I-150000J0D01*
G01*
X67603680Y22050000D01*
G75*
G02*
X67453680Y22200000I0J150000D01*
G01*
X67453680Y22800000D01*
G75*
G02*
X67603680Y22950000I150000J0D01*
G01*
X67903680Y22950000D01*
G75*
G02*
X68053680Y22800000I0J-150000D01*
G01*
G37*
G36*
G01*
X66550000Y22800000D02*
X66550000Y22200000D01*
G75*
G02*
X66400000Y22050000I-150000J0D01*
G01*
X66100000Y22050000D01*
G75*
G02*
X65950000Y22200000I0J150000D01*
G01*
X65950000Y22800000D01*
G75*
G02*
X66100000Y22950000I150000J0D01*
G01*
X66400000Y22950000D01*
G75*
G02*
X66550000Y22800000I0J-150000D01*
G01*
G37*
%TD*%
%TO.C,C412*%
G36*
G01*
X68198160Y28200000D02*
X68198160Y28800000D01*
G75*
G02*
X68348160Y28950000I150000J0D01*
G01*
X68648160Y28950000D01*
G75*
G02*
X68798160Y28800000I0J-150000D01*
G01*
X68798160Y28200000D01*
G75*
G02*
X68648160Y28050000I-150000J0D01*
G01*
X68348160Y28050000D01*
G75*
G02*
X68198160Y28200000I0J150000D01*
G01*
G37*
G36*
G01*
X69701840Y28200000D02*
X69701840Y28800000D01*
G75*
G02*
X69851840Y28950000I150000J0D01*
G01*
X70151840Y28950000D01*
G75*
G02*
X70301840Y28800000I0J-150000D01*
G01*
X70301840Y28200000D01*
G75*
G02*
X70151840Y28050000I-150000J0D01*
G01*
X69851840Y28050000D01*
G75*
G02*
X69701840Y28200000I0J150000D01*
G01*
G37*
%TD*%
%TO.C,C411*%
G36*
G01*
X64948160Y28200000D02*
X64948160Y28800000D01*
G75*
G02*
X65098160Y28950000I150000J0D01*
G01*
X65398160Y28950000D01*
G75*
G02*
X65548160Y28800000I0J-150000D01*
G01*
X65548160Y28200000D01*
G75*
G02*
X65398160Y28050000I-150000J0D01*
G01*
X65098160Y28050000D01*
G75*
G02*
X64948160Y28200000I0J150000D01*
G01*
G37*
G36*
G01*
X66451840Y28200000D02*
X66451840Y28800000D01*
G75*
G02*
X66601840Y28950000I150000J0D01*
G01*
X66901840Y28950000D01*
G75*
G02*
X67051840Y28800000I0J-150000D01*
G01*
X67051840Y28200000D01*
G75*
G02*
X66901840Y28050000I-150000J0D01*
G01*
X66601840Y28050000D01*
G75*
G02*
X66451840Y28200000I0J150000D01*
G01*
G37*
%TD*%
%TO.C,C410*%
G36*
G01*
X64948160Y29950000D02*
X64948160Y30550000D01*
G75*
G02*
X65098160Y30700000I150000J0D01*
G01*
X65398160Y30700000D01*
G75*
G02*
X65548160Y30550000I0J-150000D01*
G01*
X65548160Y29950000D01*
G75*
G02*
X65398160Y29800000I-150000J0D01*
G01*
X65098160Y29800000D01*
G75*
G02*
X64948160Y29950000I0J150000D01*
G01*
G37*
G36*
G01*
X66451840Y29950000D02*
X66451840Y30550000D01*
G75*
G02*
X66601840Y30700000I150000J0D01*
G01*
X66901840Y30700000D01*
G75*
G02*
X67051840Y30550000I0J-150000D01*
G01*
X67051840Y29950000D01*
G75*
G02*
X66901840Y29800000I-150000J0D01*
G01*
X66601840Y29800000D01*
G75*
G02*
X66451840Y29950000I0J150000D01*
G01*
G37*
%TD*%
%TO.C,C409*%
G36*
G01*
X64948160Y31700000D02*
X64948160Y32300000D01*
G75*
G02*
X65098160Y32450000I150000J0D01*
G01*
X65398160Y32450000D01*
G75*
G02*
X65548160Y32300000I0J-150000D01*
G01*
X65548160Y31700000D01*
G75*
G02*
X65398160Y31550000I-150000J0D01*
G01*
X65098160Y31550000D01*
G75*
G02*
X64948160Y31700000I0J150000D01*
G01*
G37*
G36*
G01*
X66451840Y31700000D02*
X66451840Y32300000D01*
G75*
G02*
X66601840Y32450000I150000J0D01*
G01*
X66901840Y32450000D01*
G75*
G02*
X67051840Y32300000I0J-150000D01*
G01*
X67051840Y31700000D01*
G75*
G02*
X66901840Y31550000I-150000J0D01*
G01*
X66601840Y31550000D01*
G75*
G02*
X66451840Y31700000I0J150000D01*
G01*
G37*
%TD*%
%TO.C,C408*%
G36*
G01*
X61700000Y26551840D02*
X62300000Y26551840D01*
G75*
G02*
X62450000Y26401840I0J-150000D01*
G01*
X62450000Y26101840D01*
G75*
G02*
X62300000Y25951840I-150000J0D01*
G01*
X61700000Y25951840D01*
G75*
G02*
X61550000Y26101840I0J150000D01*
G01*
X61550000Y26401840D01*
G75*
G02*
X61700000Y26551840I150000J0D01*
G01*
G37*
G36*
G01*
X61700000Y25048160D02*
X62300000Y25048160D01*
G75*
G02*
X62450000Y24898160I0J-150000D01*
G01*
X62450000Y24598160D01*
G75*
G02*
X62300000Y24448160I-150000J0D01*
G01*
X61700000Y24448160D01*
G75*
G02*
X61550000Y24598160I0J150000D01*
G01*
X61550000Y24898160D01*
G75*
G02*
X61700000Y25048160I150000J0D01*
G01*
G37*
%TD*%
%TO.C,C407*%
G36*
G01*
X57325000Y27000000D02*
X58175000Y27000000D01*
G75*
G02*
X58425000Y26750000I0J-250000D01*
G01*
X58425000Y26250000D01*
G75*
G02*
X58175000Y26000000I-250000J0D01*
G01*
X57325000Y26000000D01*
G75*
G02*
X57075000Y26250000I0J250000D01*
G01*
X57075000Y26750000D01*
G75*
G02*
X57325000Y27000000I250000J0D01*
G01*
G37*
G36*
G01*
X57325000Y25000000D02*
X58175000Y25000000D01*
G75*
G02*
X58425000Y24750000I0J-250000D01*
G01*
X58425000Y24250000D01*
G75*
G02*
X58175000Y24000000I-250000J0D01*
G01*
X57325000Y24000000D01*
G75*
G02*
X57075000Y24250000I0J250000D01*
G01*
X57075000Y24750000D01*
G75*
G02*
X57325000Y25000000I250000J0D01*
G01*
G37*
%TD*%
%TO.C,C406*%
G36*
G01*
X64500000Y33575000D02*
X64500000Y34425000D01*
G75*
G02*
X64750000Y34675000I250000J0D01*
G01*
X65250000Y34675000D01*
G75*
G02*
X65500000Y34425000I0J-250000D01*
G01*
X65500000Y33575000D01*
G75*
G02*
X65250000Y33325000I-250000J0D01*
G01*
X64750000Y33325000D01*
G75*
G02*
X64500000Y33575000I0J250000D01*
G01*
G37*
G36*
G01*
X66500000Y33575000D02*
X66500000Y34425000D01*
G75*
G02*
X66750000Y34675000I250000J0D01*
G01*
X67250000Y34675000D01*
G75*
G02*
X67500000Y34425000I0J-250000D01*
G01*
X67500000Y33575000D01*
G75*
G02*
X67250000Y33325000I-250000J0D01*
G01*
X66750000Y33325000D01*
G75*
G02*
X66500000Y33575000I0J250000D01*
G01*
G37*
%TD*%
%TO.C,C405*%
G36*
G01*
X57500000Y33675000D02*
X57500000Y32825000D01*
G75*
G02*
X57250000Y32575000I-250000J0D01*
G01*
X56750000Y32575000D01*
G75*
G02*
X56500000Y32825000I0J250000D01*
G01*
X56500000Y33675000D01*
G75*
G02*
X56750000Y33925000I250000J0D01*
G01*
X57250000Y33925000D01*
G75*
G02*
X57500000Y33675000I0J-250000D01*
G01*
G37*
G36*
G01*
X55500000Y33675000D02*
X55500000Y32825000D01*
G75*
G02*
X55250000Y32575000I-250000J0D01*
G01*
X54750000Y32575000D01*
G75*
G02*
X54500000Y32825000I0J250000D01*
G01*
X54500000Y33675000D01*
G75*
G02*
X54750000Y33925000I250000J0D01*
G01*
X55250000Y33925000D01*
G75*
G02*
X55500000Y33675000I0J-250000D01*
G01*
G37*
%TD*%
%TO.C,C404*%
G36*
G01*
X57500000Y31425000D02*
X57500000Y30575000D01*
G75*
G02*
X57250000Y30325000I-250000J0D01*
G01*
X56750000Y30325000D01*
G75*
G02*
X56500000Y30575000I0J250000D01*
G01*
X56500000Y31425000D01*
G75*
G02*
X56750000Y31675000I250000J0D01*
G01*
X57250000Y31675000D01*
G75*
G02*
X57500000Y31425000I0J-250000D01*
G01*
G37*
G36*
G01*
X55500000Y31425000D02*
X55500000Y30575000D01*
G75*
G02*
X55250000Y30325000I-250000J0D01*
G01*
X54750000Y30325000D01*
G75*
G02*
X54500000Y30575000I0J250000D01*
G01*
X54500000Y31425000D01*
G75*
G02*
X54750000Y31675000I250000J0D01*
G01*
X55250000Y31675000D01*
G75*
G02*
X55500000Y31425000I0J-250000D01*
G01*
G37*
%TD*%
%TO.C,C403*%
G36*
G01*
X64500000Y35825000D02*
X64500000Y36675000D01*
G75*
G02*
X64750000Y36925000I250000J0D01*
G01*
X65250000Y36925000D01*
G75*
G02*
X65500000Y36675000I0J-250000D01*
G01*
X65500000Y35825000D01*
G75*
G02*
X65250000Y35575000I-250000J0D01*
G01*
X64750000Y35575000D01*
G75*
G02*
X64500000Y35825000I0J250000D01*
G01*
G37*
G36*
G01*
X66500000Y35825000D02*
X66500000Y36675000D01*
G75*
G02*
X66750000Y36925000I250000J0D01*
G01*
X67250000Y36925000D01*
G75*
G02*
X67500000Y36675000I0J-250000D01*
G01*
X67500000Y35825000D01*
G75*
G02*
X67250000Y35575000I-250000J0D01*
G01*
X66750000Y35575000D01*
G75*
G02*
X66500000Y35825000I0J250000D01*
G01*
G37*
%TD*%
%TO.C,C402*%
G36*
G01*
X57500000Y29175000D02*
X57500000Y28325000D01*
G75*
G02*
X57250000Y28075000I-250000J0D01*
G01*
X56750000Y28075000D01*
G75*
G02*
X56500000Y28325000I0J250000D01*
G01*
X56500000Y29175000D01*
G75*
G02*
X56750000Y29425000I250000J0D01*
G01*
X57250000Y29425000D01*
G75*
G02*
X57500000Y29175000I0J-250000D01*
G01*
G37*
G36*
G01*
X55500000Y29175000D02*
X55500000Y28325000D01*
G75*
G02*
X55250000Y28075000I-250000J0D01*
G01*
X54750000Y28075000D01*
G75*
G02*
X54500000Y28325000I0J250000D01*
G01*
X54500000Y29175000D01*
G75*
G02*
X54750000Y29425000I250000J0D01*
G01*
X55250000Y29425000D01*
G75*
G02*
X55500000Y29175000I0J-250000D01*
G01*
G37*
%TD*%
%TO.C,C401*%
G36*
G01*
X59575000Y27000000D02*
X60425000Y27000000D01*
G75*
G02*
X60675000Y26750000I0J-250000D01*
G01*
X60675000Y26250000D01*
G75*
G02*
X60425000Y26000000I-250000J0D01*
G01*
X59575000Y26000000D01*
G75*
G02*
X59325000Y26250000I0J250000D01*
G01*
X59325000Y26750000D01*
G75*
G02*
X59575000Y27000000I250000J0D01*
G01*
G37*
G36*
G01*
X59575000Y25000000D02*
X60425000Y25000000D01*
G75*
G02*
X60675000Y24750000I0J-250000D01*
G01*
X60675000Y24250000D01*
G75*
G02*
X60425000Y24000000I-250000J0D01*
G01*
X59575000Y24000000D01*
G75*
G02*
X59325000Y24250000I0J250000D01*
G01*
X59325000Y24750000D01*
G75*
G02*
X59575000Y25000000I250000J0D01*
G01*
G37*
%TD*%
%TO.C,C318*%
G36*
G01*
X51000000Y32175000D02*
X51000000Y31325000D01*
G75*
G02*
X50750000Y31075000I-250000J0D01*
G01*
X50250000Y31075000D01*
G75*
G02*
X50000000Y31325000I0J250000D01*
G01*
X50000000Y32175000D01*
G75*
G02*
X50250000Y32425000I250000J0D01*
G01*
X50750000Y32425000D01*
G75*
G02*
X51000000Y32175000I0J-250000D01*
G01*
G37*
G36*
G01*
X49000000Y32175000D02*
X49000000Y31325000D01*
G75*
G02*
X48750000Y31075000I-250000J0D01*
G01*
X48250000Y31075000D01*
G75*
G02*
X48000000Y31325000I0J250000D01*
G01*
X48000000Y32175000D01*
G75*
G02*
X48250000Y32425000I250000J0D01*
G01*
X48750000Y32425000D01*
G75*
G02*
X49000000Y32175000I0J-250000D01*
G01*
G37*
%TD*%
%TO.C,C317*%
G36*
G01*
X51000000Y29925000D02*
X51000000Y29075000D01*
G75*
G02*
X50750000Y28825000I-250000J0D01*
G01*
X50250000Y28825000D01*
G75*
G02*
X50000000Y29075000I0J250000D01*
G01*
X50000000Y29925000D01*
G75*
G02*
X50250000Y30175000I250000J0D01*
G01*
X50750000Y30175000D01*
G75*
G02*
X51000000Y29925000I0J-250000D01*
G01*
G37*
G36*
G01*
X49000000Y29925000D02*
X49000000Y29075000D01*
G75*
G02*
X48750000Y28825000I-250000J0D01*
G01*
X48250000Y28825000D01*
G75*
G02*
X48000000Y29075000I0J250000D01*
G01*
X48000000Y29925000D01*
G75*
G02*
X48250000Y30175000I250000J0D01*
G01*
X48750000Y30175000D01*
G75*
G02*
X49000000Y29925000I0J-250000D01*
G01*
G37*
%TD*%
%TO.C,C316*%
G36*
G01*
X51000000Y27675000D02*
X51000000Y26825000D01*
G75*
G02*
X50750000Y26575000I-250000J0D01*
G01*
X50250000Y26575000D01*
G75*
G02*
X50000000Y26825000I0J250000D01*
G01*
X50000000Y27675000D01*
G75*
G02*
X50250000Y27925000I250000J0D01*
G01*
X50750000Y27925000D01*
G75*
G02*
X51000000Y27675000I0J-250000D01*
G01*
G37*
G36*
G01*
X49000000Y27675000D02*
X49000000Y26825000D01*
G75*
G02*
X48750000Y26575000I-250000J0D01*
G01*
X48250000Y26575000D01*
G75*
G02*
X48000000Y26825000I0J250000D01*
G01*
X48000000Y27675000D01*
G75*
G02*
X48250000Y27925000I250000J0D01*
G01*
X48750000Y27925000D01*
G75*
G02*
X49000000Y27675000I0J-250000D01*
G01*
G37*
%TD*%
%TO.C,C315*%
G36*
G01*
X51000000Y25425000D02*
X51000000Y24575000D01*
G75*
G02*
X50750000Y24325000I-250000J0D01*
G01*
X50250000Y24325000D01*
G75*
G02*
X50000000Y24575000I0J250000D01*
G01*
X50000000Y25425000D01*
G75*
G02*
X50250000Y25675000I250000J0D01*
G01*
X50750000Y25675000D01*
G75*
G02*
X51000000Y25425000I0J-250000D01*
G01*
G37*
G36*
G01*
X49000000Y25425000D02*
X49000000Y24575000D01*
G75*
G02*
X48750000Y24325000I-250000J0D01*
G01*
X48250000Y24325000D01*
G75*
G02*
X48000000Y24575000I0J250000D01*
G01*
X48000000Y25425000D01*
G75*
G02*
X48250000Y25675000I250000J0D01*
G01*
X48750000Y25675000D01*
G75*
G02*
X49000000Y25425000I0J-250000D01*
G01*
G37*
%TD*%
%TO.C,C314*%
G36*
G01*
X51000000Y23175000D02*
X51000000Y22325000D01*
G75*
G02*
X50750000Y22075000I-250000J0D01*
G01*
X50250000Y22075000D01*
G75*
G02*
X50000000Y22325000I0J250000D01*
G01*
X50000000Y23175000D01*
G75*
G02*
X50250000Y23425000I250000J0D01*
G01*
X50750000Y23425000D01*
G75*
G02*
X51000000Y23175000I0J-250000D01*
G01*
G37*
G36*
G01*
X49000000Y23175000D02*
X49000000Y22325000D01*
G75*
G02*
X48750000Y22075000I-250000J0D01*
G01*
X48250000Y22075000D01*
G75*
G02*
X48000000Y22325000I0J250000D01*
G01*
X48000000Y23175000D01*
G75*
G02*
X48250000Y23425000I250000J0D01*
G01*
X48750000Y23425000D01*
G75*
G02*
X49000000Y23175000I0J-250000D01*
G01*
G37*
%TD*%
%TO.C,C313*%
G36*
G01*
X42053680Y22800000D02*
X42053680Y22200000D01*
G75*
G02*
X41903680Y22050000I-150000J0D01*
G01*
X41603680Y22050000D01*
G75*
G02*
X41453680Y22200000I0J150000D01*
G01*
X41453680Y22800000D01*
G75*
G02*
X41603680Y22950000I150000J0D01*
G01*
X41903680Y22950000D01*
G75*
G02*
X42053680Y22800000I0J-150000D01*
G01*
G37*
G36*
G01*
X40550000Y22800000D02*
X40550000Y22200000D01*
G75*
G02*
X40400000Y22050000I-150000J0D01*
G01*
X40100000Y22050000D01*
G75*
G02*
X39950000Y22200000I0J150000D01*
G01*
X39950000Y22800000D01*
G75*
G02*
X40100000Y22950000I150000J0D01*
G01*
X40400000Y22950000D01*
G75*
G02*
X40550000Y22800000I0J-150000D01*
G01*
G37*
%TD*%
%TO.C,C312*%
G36*
G01*
X42198160Y28200000D02*
X42198160Y28800000D01*
G75*
G02*
X42348160Y28950000I150000J0D01*
G01*
X42648160Y28950000D01*
G75*
G02*
X42798160Y28800000I0J-150000D01*
G01*
X42798160Y28200000D01*
G75*
G02*
X42648160Y28050000I-150000J0D01*
G01*
X42348160Y28050000D01*
G75*
G02*
X42198160Y28200000I0J150000D01*
G01*
G37*
G36*
G01*
X43701840Y28200000D02*
X43701840Y28800000D01*
G75*
G02*
X43851840Y28950000I150000J0D01*
G01*
X44151840Y28950000D01*
G75*
G02*
X44301840Y28800000I0J-150000D01*
G01*
X44301840Y28200000D01*
G75*
G02*
X44151840Y28050000I-150000J0D01*
G01*
X43851840Y28050000D01*
G75*
G02*
X43701840Y28200000I0J150000D01*
G01*
G37*
%TD*%
%TO.C,C311*%
G36*
G01*
X38948160Y28200000D02*
X38948160Y28800000D01*
G75*
G02*
X39098160Y28950000I150000J0D01*
G01*
X39398160Y28950000D01*
G75*
G02*
X39548160Y28800000I0J-150000D01*
G01*
X39548160Y28200000D01*
G75*
G02*
X39398160Y28050000I-150000J0D01*
G01*
X39098160Y28050000D01*
G75*
G02*
X38948160Y28200000I0J150000D01*
G01*
G37*
G36*
G01*
X40451840Y28200000D02*
X40451840Y28800000D01*
G75*
G02*
X40601840Y28950000I150000J0D01*
G01*
X40901840Y28950000D01*
G75*
G02*
X41051840Y28800000I0J-150000D01*
G01*
X41051840Y28200000D01*
G75*
G02*
X40901840Y28050000I-150000J0D01*
G01*
X40601840Y28050000D01*
G75*
G02*
X40451840Y28200000I0J150000D01*
G01*
G37*
%TD*%
%TO.C,C310*%
G36*
G01*
X38948160Y29950000D02*
X38948160Y30550000D01*
G75*
G02*
X39098160Y30700000I150000J0D01*
G01*
X39398160Y30700000D01*
G75*
G02*
X39548160Y30550000I0J-150000D01*
G01*
X39548160Y29950000D01*
G75*
G02*
X39398160Y29800000I-150000J0D01*
G01*
X39098160Y29800000D01*
G75*
G02*
X38948160Y29950000I0J150000D01*
G01*
G37*
G36*
G01*
X40451840Y29950000D02*
X40451840Y30550000D01*
G75*
G02*
X40601840Y30700000I150000J0D01*
G01*
X40901840Y30700000D01*
G75*
G02*
X41051840Y30550000I0J-150000D01*
G01*
X41051840Y29950000D01*
G75*
G02*
X40901840Y29800000I-150000J0D01*
G01*
X40601840Y29800000D01*
G75*
G02*
X40451840Y29950000I0J150000D01*
G01*
G37*
%TD*%
%TO.C,C309*%
G36*
G01*
X38948160Y31700000D02*
X38948160Y32300000D01*
G75*
G02*
X39098160Y32450000I150000J0D01*
G01*
X39398160Y32450000D01*
G75*
G02*
X39548160Y32300000I0J-150000D01*
G01*
X39548160Y31700000D01*
G75*
G02*
X39398160Y31550000I-150000J0D01*
G01*
X39098160Y31550000D01*
G75*
G02*
X38948160Y31700000I0J150000D01*
G01*
G37*
G36*
G01*
X40451840Y31700000D02*
X40451840Y32300000D01*
G75*
G02*
X40601840Y32450000I150000J0D01*
G01*
X40901840Y32450000D01*
G75*
G02*
X41051840Y32300000I0J-150000D01*
G01*
X41051840Y31700000D01*
G75*
G02*
X40901840Y31550000I-150000J0D01*
G01*
X40601840Y31550000D01*
G75*
G02*
X40451840Y31700000I0J150000D01*
G01*
G37*
%TD*%
%TO.C,C308*%
G36*
G01*
X35700000Y26551840D02*
X36300000Y26551840D01*
G75*
G02*
X36450000Y26401840I0J-150000D01*
G01*
X36450000Y26101840D01*
G75*
G02*
X36300000Y25951840I-150000J0D01*
G01*
X35700000Y25951840D01*
G75*
G02*
X35550000Y26101840I0J150000D01*
G01*
X35550000Y26401840D01*
G75*
G02*
X35700000Y26551840I150000J0D01*
G01*
G37*
G36*
G01*
X35700000Y25048160D02*
X36300000Y25048160D01*
G75*
G02*
X36450000Y24898160I0J-150000D01*
G01*
X36450000Y24598160D01*
G75*
G02*
X36300000Y24448160I-150000J0D01*
G01*
X35700000Y24448160D01*
G75*
G02*
X35550000Y24598160I0J150000D01*
G01*
X35550000Y24898160D01*
G75*
G02*
X35700000Y25048160I150000J0D01*
G01*
G37*
%TD*%
%TO.C,C307*%
G36*
G01*
X31325000Y27000000D02*
X32175000Y27000000D01*
G75*
G02*
X32425000Y26750000I0J-250000D01*
G01*
X32425000Y26250000D01*
G75*
G02*
X32175000Y26000000I-250000J0D01*
G01*
X31325000Y26000000D01*
G75*
G02*
X31075000Y26250000I0J250000D01*
G01*
X31075000Y26750000D01*
G75*
G02*
X31325000Y27000000I250000J0D01*
G01*
G37*
G36*
G01*
X31325000Y25000000D02*
X32175000Y25000000D01*
G75*
G02*
X32425000Y24750000I0J-250000D01*
G01*
X32425000Y24250000D01*
G75*
G02*
X32175000Y24000000I-250000J0D01*
G01*
X31325000Y24000000D01*
G75*
G02*
X31075000Y24250000I0J250000D01*
G01*
X31075000Y24750000D01*
G75*
G02*
X31325000Y25000000I250000J0D01*
G01*
G37*
%TD*%
%TO.C,C306*%
G36*
G01*
X38500000Y33575000D02*
X38500000Y34425000D01*
G75*
G02*
X38750000Y34675000I250000J0D01*
G01*
X39250000Y34675000D01*
G75*
G02*
X39500000Y34425000I0J-250000D01*
G01*
X39500000Y33575000D01*
G75*
G02*
X39250000Y33325000I-250000J0D01*
G01*
X38750000Y33325000D01*
G75*
G02*
X38500000Y33575000I0J250000D01*
G01*
G37*
G36*
G01*
X40500000Y33575000D02*
X40500000Y34425000D01*
G75*
G02*
X40750000Y34675000I250000J0D01*
G01*
X41250000Y34675000D01*
G75*
G02*
X41500000Y34425000I0J-250000D01*
G01*
X41500000Y33575000D01*
G75*
G02*
X41250000Y33325000I-250000J0D01*
G01*
X40750000Y33325000D01*
G75*
G02*
X40500000Y33575000I0J250000D01*
G01*
G37*
%TD*%
%TO.C,C305*%
G36*
G01*
X31500000Y33675000D02*
X31500000Y32825000D01*
G75*
G02*
X31250000Y32575000I-250000J0D01*
G01*
X30750000Y32575000D01*
G75*
G02*
X30500000Y32825000I0J250000D01*
G01*
X30500000Y33675000D01*
G75*
G02*
X30750000Y33925000I250000J0D01*
G01*
X31250000Y33925000D01*
G75*
G02*
X31500000Y33675000I0J-250000D01*
G01*
G37*
G36*
G01*
X29500000Y33675000D02*
X29500000Y32825000D01*
G75*
G02*
X29250000Y32575000I-250000J0D01*
G01*
X28750000Y32575000D01*
G75*
G02*
X28500000Y32825000I0J250000D01*
G01*
X28500000Y33675000D01*
G75*
G02*
X28750000Y33925000I250000J0D01*
G01*
X29250000Y33925000D01*
G75*
G02*
X29500000Y33675000I0J-250000D01*
G01*
G37*
%TD*%
%TO.C,C304*%
G36*
G01*
X31500000Y31425000D02*
X31500000Y30575000D01*
G75*
G02*
X31250000Y30325000I-250000J0D01*
G01*
X30750000Y30325000D01*
G75*
G02*
X30500000Y30575000I0J250000D01*
G01*
X30500000Y31425000D01*
G75*
G02*
X30750000Y31675000I250000J0D01*
G01*
X31250000Y31675000D01*
G75*
G02*
X31500000Y31425000I0J-250000D01*
G01*
G37*
G36*
G01*
X29500000Y31425000D02*
X29500000Y30575000D01*
G75*
G02*
X29250000Y30325000I-250000J0D01*
G01*
X28750000Y30325000D01*
G75*
G02*
X28500000Y30575000I0J250000D01*
G01*
X28500000Y31425000D01*
G75*
G02*
X28750000Y31675000I250000J0D01*
G01*
X29250000Y31675000D01*
G75*
G02*
X29500000Y31425000I0J-250000D01*
G01*
G37*
%TD*%
%TO.C,C303*%
G36*
G01*
X38500000Y35825000D02*
X38500000Y36675000D01*
G75*
G02*
X38750000Y36925000I250000J0D01*
G01*
X39250000Y36925000D01*
G75*
G02*
X39500000Y36675000I0J-250000D01*
G01*
X39500000Y35825000D01*
G75*
G02*
X39250000Y35575000I-250000J0D01*
G01*
X38750000Y35575000D01*
G75*
G02*
X38500000Y35825000I0J250000D01*
G01*
G37*
G36*
G01*
X40500000Y35825000D02*
X40500000Y36675000D01*
G75*
G02*
X40750000Y36925000I250000J0D01*
G01*
X41250000Y36925000D01*
G75*
G02*
X41500000Y36675000I0J-250000D01*
G01*
X41500000Y35825000D01*
G75*
G02*
X41250000Y35575000I-250000J0D01*
G01*
X40750000Y35575000D01*
G75*
G02*
X40500000Y35825000I0J250000D01*
G01*
G37*
%TD*%
%TO.C,C302*%
G36*
G01*
X31500000Y29175000D02*
X31500000Y28325000D01*
G75*
G02*
X31250000Y28075000I-250000J0D01*
G01*
X30750000Y28075000D01*
G75*
G02*
X30500000Y28325000I0J250000D01*
G01*
X30500000Y29175000D01*
G75*
G02*
X30750000Y29425000I250000J0D01*
G01*
X31250000Y29425000D01*
G75*
G02*
X31500000Y29175000I0J-250000D01*
G01*
G37*
G36*
G01*
X29500000Y29175000D02*
X29500000Y28325000D01*
G75*
G02*
X29250000Y28075000I-250000J0D01*
G01*
X28750000Y28075000D01*
G75*
G02*
X28500000Y28325000I0J250000D01*
G01*
X28500000Y29175000D01*
G75*
G02*
X28750000Y29425000I250000J0D01*
G01*
X29250000Y29425000D01*
G75*
G02*
X29500000Y29175000I0J-250000D01*
G01*
G37*
%TD*%
%TO.C,C301*%
G36*
G01*
X33575000Y27000000D02*
X34425000Y27000000D01*
G75*
G02*
X34675000Y26750000I0J-250000D01*
G01*
X34675000Y26250000D01*
G75*
G02*
X34425000Y26000000I-250000J0D01*
G01*
X33575000Y26000000D01*
G75*
G02*
X33325000Y26250000I0J250000D01*
G01*
X33325000Y26750000D01*
G75*
G02*
X33575000Y27000000I250000J0D01*
G01*
G37*
G36*
G01*
X33575000Y25000000D02*
X34425000Y25000000D01*
G75*
G02*
X34675000Y24750000I0J-250000D01*
G01*
X34675000Y24250000D01*
G75*
G02*
X34425000Y24000000I-250000J0D01*
G01*
X33575000Y24000000D01*
G75*
G02*
X33325000Y24250000I0J250000D01*
G01*
X33325000Y24750000D01*
G75*
G02*
X33575000Y25000000I250000J0D01*
G01*
G37*
%TD*%
%TO.C,C218*%
G36*
G01*
X25000000Y32175000D02*
X25000000Y31325000D01*
G75*
G02*
X24750000Y31075000I-250000J0D01*
G01*
X24250000Y31075000D01*
G75*
G02*
X24000000Y31325000I0J250000D01*
G01*
X24000000Y32175000D01*
G75*
G02*
X24250000Y32425000I250000J0D01*
G01*
X24750000Y32425000D01*
G75*
G02*
X25000000Y32175000I0J-250000D01*
G01*
G37*
G36*
G01*
X23000000Y32175000D02*
X23000000Y31325000D01*
G75*
G02*
X22750000Y31075000I-250000J0D01*
G01*
X22250000Y31075000D01*
G75*
G02*
X22000000Y31325000I0J250000D01*
G01*
X22000000Y32175000D01*
G75*
G02*
X22250000Y32425000I250000J0D01*
G01*
X22750000Y32425000D01*
G75*
G02*
X23000000Y32175000I0J-250000D01*
G01*
G37*
%TD*%
%TO.C,C217*%
G36*
G01*
X25000000Y29925000D02*
X25000000Y29075000D01*
G75*
G02*
X24750000Y28825000I-250000J0D01*
G01*
X24250000Y28825000D01*
G75*
G02*
X24000000Y29075000I0J250000D01*
G01*
X24000000Y29925000D01*
G75*
G02*
X24250000Y30175000I250000J0D01*
G01*
X24750000Y30175000D01*
G75*
G02*
X25000000Y29925000I0J-250000D01*
G01*
G37*
G36*
G01*
X23000000Y29925000D02*
X23000000Y29075000D01*
G75*
G02*
X22750000Y28825000I-250000J0D01*
G01*
X22250000Y28825000D01*
G75*
G02*
X22000000Y29075000I0J250000D01*
G01*
X22000000Y29925000D01*
G75*
G02*
X22250000Y30175000I250000J0D01*
G01*
X22750000Y30175000D01*
G75*
G02*
X23000000Y29925000I0J-250000D01*
G01*
G37*
%TD*%
%TO.C,C216*%
G36*
G01*
X25000000Y27675000D02*
X25000000Y26825000D01*
G75*
G02*
X24750000Y26575000I-250000J0D01*
G01*
X24250000Y26575000D01*
G75*
G02*
X24000000Y26825000I0J250000D01*
G01*
X24000000Y27675000D01*
G75*
G02*
X24250000Y27925000I250000J0D01*
G01*
X24750000Y27925000D01*
G75*
G02*
X25000000Y27675000I0J-250000D01*
G01*
G37*
G36*
G01*
X23000000Y27675000D02*
X23000000Y26825000D01*
G75*
G02*
X22750000Y26575000I-250000J0D01*
G01*
X22250000Y26575000D01*
G75*
G02*
X22000000Y26825000I0J250000D01*
G01*
X22000000Y27675000D01*
G75*
G02*
X22250000Y27925000I250000J0D01*
G01*
X22750000Y27925000D01*
G75*
G02*
X23000000Y27675000I0J-250000D01*
G01*
G37*
%TD*%
%TO.C,C215*%
G36*
G01*
X25000000Y25425000D02*
X25000000Y24575000D01*
G75*
G02*
X24750000Y24325000I-250000J0D01*
G01*
X24250000Y24325000D01*
G75*
G02*
X24000000Y24575000I0J250000D01*
G01*
X24000000Y25425000D01*
G75*
G02*
X24250000Y25675000I250000J0D01*
G01*
X24750000Y25675000D01*
G75*
G02*
X25000000Y25425000I0J-250000D01*
G01*
G37*
G36*
G01*
X23000000Y25425000D02*
X23000000Y24575000D01*
G75*
G02*
X22750000Y24325000I-250000J0D01*
G01*
X22250000Y24325000D01*
G75*
G02*
X22000000Y24575000I0J250000D01*
G01*
X22000000Y25425000D01*
G75*
G02*
X22250000Y25675000I250000J0D01*
G01*
X22750000Y25675000D01*
G75*
G02*
X23000000Y25425000I0J-250000D01*
G01*
G37*
%TD*%
%TO.C,C214*%
G36*
G01*
X25000000Y23175000D02*
X25000000Y22325000D01*
G75*
G02*
X24750000Y22075000I-250000J0D01*
G01*
X24250000Y22075000D01*
G75*
G02*
X24000000Y22325000I0J250000D01*
G01*
X24000000Y23175000D01*
G75*
G02*
X24250000Y23425000I250000J0D01*
G01*
X24750000Y23425000D01*
G75*
G02*
X25000000Y23175000I0J-250000D01*
G01*
G37*
G36*
G01*
X23000000Y23175000D02*
X23000000Y22325000D01*
G75*
G02*
X22750000Y22075000I-250000J0D01*
G01*
X22250000Y22075000D01*
G75*
G02*
X22000000Y22325000I0J250000D01*
G01*
X22000000Y23175000D01*
G75*
G02*
X22250000Y23425000I250000J0D01*
G01*
X22750000Y23425000D01*
G75*
G02*
X23000000Y23175000I0J-250000D01*
G01*
G37*
%TD*%
%TO.C,C213*%
G36*
G01*
X16053680Y22800000D02*
X16053680Y22200000D01*
G75*
G02*
X15903680Y22050000I-150000J0D01*
G01*
X15603680Y22050000D01*
G75*
G02*
X15453680Y22200000I0J150000D01*
G01*
X15453680Y22800000D01*
G75*
G02*
X15603680Y22950000I150000J0D01*
G01*
X15903680Y22950000D01*
G75*
G02*
X16053680Y22800000I0J-150000D01*
G01*
G37*
G36*
G01*
X14550000Y22800000D02*
X14550000Y22200000D01*
G75*
G02*
X14400000Y22050000I-150000J0D01*
G01*
X14100000Y22050000D01*
G75*
G02*
X13950000Y22200000I0J150000D01*
G01*
X13950000Y22800000D01*
G75*
G02*
X14100000Y22950000I150000J0D01*
G01*
X14400000Y22950000D01*
G75*
G02*
X14550000Y22800000I0J-150000D01*
G01*
G37*
%TD*%
%TO.C,C212*%
G36*
G01*
X16198160Y28200000D02*
X16198160Y28800000D01*
G75*
G02*
X16348160Y28950000I150000J0D01*
G01*
X16648160Y28950000D01*
G75*
G02*
X16798160Y28800000I0J-150000D01*
G01*
X16798160Y28200000D01*
G75*
G02*
X16648160Y28050000I-150000J0D01*
G01*
X16348160Y28050000D01*
G75*
G02*
X16198160Y28200000I0J150000D01*
G01*
G37*
G36*
G01*
X17701840Y28200000D02*
X17701840Y28800000D01*
G75*
G02*
X17851840Y28950000I150000J0D01*
G01*
X18151840Y28950000D01*
G75*
G02*
X18301840Y28800000I0J-150000D01*
G01*
X18301840Y28200000D01*
G75*
G02*
X18151840Y28050000I-150000J0D01*
G01*
X17851840Y28050000D01*
G75*
G02*
X17701840Y28200000I0J150000D01*
G01*
G37*
%TD*%
%TO.C,C211*%
G36*
G01*
X12948160Y28200000D02*
X12948160Y28800000D01*
G75*
G02*
X13098160Y28950000I150000J0D01*
G01*
X13398160Y28950000D01*
G75*
G02*
X13548160Y28800000I0J-150000D01*
G01*
X13548160Y28200000D01*
G75*
G02*
X13398160Y28050000I-150000J0D01*
G01*
X13098160Y28050000D01*
G75*
G02*
X12948160Y28200000I0J150000D01*
G01*
G37*
G36*
G01*
X14451840Y28200000D02*
X14451840Y28800000D01*
G75*
G02*
X14601840Y28950000I150000J0D01*
G01*
X14901840Y28950000D01*
G75*
G02*
X15051840Y28800000I0J-150000D01*
G01*
X15051840Y28200000D01*
G75*
G02*
X14901840Y28050000I-150000J0D01*
G01*
X14601840Y28050000D01*
G75*
G02*
X14451840Y28200000I0J150000D01*
G01*
G37*
%TD*%
%TO.C,C210*%
G36*
G01*
X12948160Y29950000D02*
X12948160Y30550000D01*
G75*
G02*
X13098160Y30700000I150000J0D01*
G01*
X13398160Y30700000D01*
G75*
G02*
X13548160Y30550000I0J-150000D01*
G01*
X13548160Y29950000D01*
G75*
G02*
X13398160Y29800000I-150000J0D01*
G01*
X13098160Y29800000D01*
G75*
G02*
X12948160Y29950000I0J150000D01*
G01*
G37*
G36*
G01*
X14451840Y29950000D02*
X14451840Y30550000D01*
G75*
G02*
X14601840Y30700000I150000J0D01*
G01*
X14901840Y30700000D01*
G75*
G02*
X15051840Y30550000I0J-150000D01*
G01*
X15051840Y29950000D01*
G75*
G02*
X14901840Y29800000I-150000J0D01*
G01*
X14601840Y29800000D01*
G75*
G02*
X14451840Y29950000I0J150000D01*
G01*
G37*
%TD*%
%TO.C,C209*%
G36*
G01*
X12948160Y31700000D02*
X12948160Y32300000D01*
G75*
G02*
X13098160Y32450000I150000J0D01*
G01*
X13398160Y32450000D01*
G75*
G02*
X13548160Y32300000I0J-150000D01*
G01*
X13548160Y31700000D01*
G75*
G02*
X13398160Y31550000I-150000J0D01*
G01*
X13098160Y31550000D01*
G75*
G02*
X12948160Y31700000I0J150000D01*
G01*
G37*
G36*
G01*
X14451840Y31700000D02*
X14451840Y32300000D01*
G75*
G02*
X14601840Y32450000I150000J0D01*
G01*
X14901840Y32450000D01*
G75*
G02*
X15051840Y32300000I0J-150000D01*
G01*
X15051840Y31700000D01*
G75*
G02*
X14901840Y31550000I-150000J0D01*
G01*
X14601840Y31550000D01*
G75*
G02*
X14451840Y31700000I0J150000D01*
G01*
G37*
%TD*%
%TO.C,C208*%
G36*
G01*
X9700000Y26551840D02*
X10300000Y26551840D01*
G75*
G02*
X10450000Y26401840I0J-150000D01*
G01*
X10450000Y26101840D01*
G75*
G02*
X10300000Y25951840I-150000J0D01*
G01*
X9700000Y25951840D01*
G75*
G02*
X9550000Y26101840I0J150000D01*
G01*
X9550000Y26401840D01*
G75*
G02*
X9700000Y26551840I150000J0D01*
G01*
G37*
G36*
G01*
X9700000Y25048160D02*
X10300000Y25048160D01*
G75*
G02*
X10450000Y24898160I0J-150000D01*
G01*
X10450000Y24598160D01*
G75*
G02*
X10300000Y24448160I-150000J0D01*
G01*
X9700000Y24448160D01*
G75*
G02*
X9550000Y24598160I0J150000D01*
G01*
X9550000Y24898160D01*
G75*
G02*
X9700000Y25048160I150000J0D01*
G01*
G37*
%TD*%
%TO.C,C207*%
G36*
G01*
X5325000Y27000000D02*
X6175000Y27000000D01*
G75*
G02*
X6425000Y26750000I0J-250000D01*
G01*
X6425000Y26250000D01*
G75*
G02*
X6175000Y26000000I-250000J0D01*
G01*
X5325000Y26000000D01*
G75*
G02*
X5075000Y26250000I0J250000D01*
G01*
X5075000Y26750000D01*
G75*
G02*
X5325000Y27000000I250000J0D01*
G01*
G37*
G36*
G01*
X5325000Y25000000D02*
X6175000Y25000000D01*
G75*
G02*
X6425000Y24750000I0J-250000D01*
G01*
X6425000Y24250000D01*
G75*
G02*
X6175000Y24000000I-250000J0D01*
G01*
X5325000Y24000000D01*
G75*
G02*
X5075000Y24250000I0J250000D01*
G01*
X5075000Y24750000D01*
G75*
G02*
X5325000Y25000000I250000J0D01*
G01*
G37*
%TD*%
%TO.C,C206*%
G36*
G01*
X12500000Y33575000D02*
X12500000Y34425000D01*
G75*
G02*
X12750000Y34675000I250000J0D01*
G01*
X13250000Y34675000D01*
G75*
G02*
X13500000Y34425000I0J-250000D01*
G01*
X13500000Y33575000D01*
G75*
G02*
X13250000Y33325000I-250000J0D01*
G01*
X12750000Y33325000D01*
G75*
G02*
X12500000Y33575000I0J250000D01*
G01*
G37*
G36*
G01*
X14500000Y33575000D02*
X14500000Y34425000D01*
G75*
G02*
X14750000Y34675000I250000J0D01*
G01*
X15250000Y34675000D01*
G75*
G02*
X15500000Y34425000I0J-250000D01*
G01*
X15500000Y33575000D01*
G75*
G02*
X15250000Y33325000I-250000J0D01*
G01*
X14750000Y33325000D01*
G75*
G02*
X14500000Y33575000I0J250000D01*
G01*
G37*
%TD*%
%TO.C,C205*%
G36*
G01*
X5500000Y33675000D02*
X5500000Y32825000D01*
G75*
G02*
X5250000Y32575000I-250000J0D01*
G01*
X4750000Y32575000D01*
G75*
G02*
X4500000Y32825000I0J250000D01*
G01*
X4500000Y33675000D01*
G75*
G02*
X4750000Y33925000I250000J0D01*
G01*
X5250000Y33925000D01*
G75*
G02*
X5500000Y33675000I0J-250000D01*
G01*
G37*
G36*
G01*
X3500000Y33675000D02*
X3500000Y32825000D01*
G75*
G02*
X3250000Y32575000I-250000J0D01*
G01*
X2750000Y32575000D01*
G75*
G02*
X2500000Y32825000I0J250000D01*
G01*
X2500000Y33675000D01*
G75*
G02*
X2750000Y33925000I250000J0D01*
G01*
X3250000Y33925000D01*
G75*
G02*
X3500000Y33675000I0J-250000D01*
G01*
G37*
%TD*%
%TO.C,C204*%
G36*
G01*
X5500000Y31425000D02*
X5500000Y30575000D01*
G75*
G02*
X5250000Y30325000I-250000J0D01*
G01*
X4750000Y30325000D01*
G75*
G02*
X4500000Y30575000I0J250000D01*
G01*
X4500000Y31425000D01*
G75*
G02*
X4750000Y31675000I250000J0D01*
G01*
X5250000Y31675000D01*
G75*
G02*
X5500000Y31425000I0J-250000D01*
G01*
G37*
G36*
G01*
X3500000Y31425000D02*
X3500000Y30575000D01*
G75*
G02*
X3250000Y30325000I-250000J0D01*
G01*
X2750000Y30325000D01*
G75*
G02*
X2500000Y30575000I0J250000D01*
G01*
X2500000Y31425000D01*
G75*
G02*
X2750000Y31675000I250000J0D01*
G01*
X3250000Y31675000D01*
G75*
G02*
X3500000Y31425000I0J-250000D01*
G01*
G37*
%TD*%
%TO.C,C203*%
G36*
G01*
X12500000Y35825000D02*
X12500000Y36675000D01*
G75*
G02*
X12750000Y36925000I250000J0D01*
G01*
X13250000Y36925000D01*
G75*
G02*
X13500000Y36675000I0J-250000D01*
G01*
X13500000Y35825000D01*
G75*
G02*
X13250000Y35575000I-250000J0D01*
G01*
X12750000Y35575000D01*
G75*
G02*
X12500000Y35825000I0J250000D01*
G01*
G37*
G36*
G01*
X14500000Y35825000D02*
X14500000Y36675000D01*
G75*
G02*
X14750000Y36925000I250000J0D01*
G01*
X15250000Y36925000D01*
G75*
G02*
X15500000Y36675000I0J-250000D01*
G01*
X15500000Y35825000D01*
G75*
G02*
X15250000Y35575000I-250000J0D01*
G01*
X14750000Y35575000D01*
G75*
G02*
X14500000Y35825000I0J250000D01*
G01*
G37*
%TD*%
%TO.C,C202*%
G36*
G01*
X5500000Y29175000D02*
X5500000Y28325000D01*
G75*
G02*
X5250000Y28075000I-250000J0D01*
G01*
X4750000Y28075000D01*
G75*
G02*
X4500000Y28325000I0J250000D01*
G01*
X4500000Y29175000D01*
G75*
G02*
X4750000Y29425000I250000J0D01*
G01*
X5250000Y29425000D01*
G75*
G02*
X5500000Y29175000I0J-250000D01*
G01*
G37*
G36*
G01*
X3500000Y29175000D02*
X3500000Y28325000D01*
G75*
G02*
X3250000Y28075000I-250000J0D01*
G01*
X2750000Y28075000D01*
G75*
G02*
X2500000Y28325000I0J250000D01*
G01*
X2500000Y29175000D01*
G75*
G02*
X2750000Y29425000I250000J0D01*
G01*
X3250000Y29425000D01*
G75*
G02*
X3500000Y29175000I0J-250000D01*
G01*
G37*
%TD*%
%TO.C,C201*%
G36*
G01*
X7575000Y27000000D02*
X8425000Y27000000D01*
G75*
G02*
X8675000Y26750000I0J-250000D01*
G01*
X8675000Y26250000D01*
G75*
G02*
X8425000Y26000000I-250000J0D01*
G01*
X7575000Y26000000D01*
G75*
G02*
X7325000Y26250000I0J250000D01*
G01*
X7325000Y26750000D01*
G75*
G02*
X7575000Y27000000I250000J0D01*
G01*
G37*
G36*
G01*
X7575000Y25000000D02*
X8425000Y25000000D01*
G75*
G02*
X8675000Y24750000I0J-250000D01*
G01*
X8675000Y24250000D01*
G75*
G02*
X8425000Y24000000I-250000J0D01*
G01*
X7575000Y24000000D01*
G75*
G02*
X7325000Y24250000I0J250000D01*
G01*
X7325000Y24750000D01*
G75*
G02*
X7575000Y25000000I250000J0D01*
G01*
G37*
%TD*%
%TO.C,C101*%
G36*
G01*
X41301840Y4050000D02*
X41301840Y3450000D01*
G75*
G02*
X41151840Y3300000I-150000J0D01*
G01*
X40851840Y3300000D01*
G75*
G02*
X40701840Y3450000I0J150000D01*
G01*
X40701840Y4050000D01*
G75*
G02*
X40851840Y4200000I150000J0D01*
G01*
X41151840Y4200000D01*
G75*
G02*
X41301840Y4050000I0J-150000D01*
G01*
G37*
G36*
G01*
X39798160Y4050000D02*
X39798160Y3450000D01*
G75*
G02*
X39648160Y3300000I-150000J0D01*
G01*
X39348160Y3300000D01*
G75*
G02*
X39198160Y3450000I0J150000D01*
G01*
X39198160Y4050000D01*
G75*
G02*
X39348160Y4200000I150000J0D01*
G01*
X39648160Y4200000D01*
G75*
G02*
X39798160Y4050000I0J-150000D01*
G01*
G37*
%TD*%
M02*
