%TF.GenerationSoftware,KiCad,Pcbnew,5.1.6-c6e7f7d~87~ubuntu20.04.1*%
%TF.CreationDate,2020-09-19T15:10:49+02:00*%
%TF.ProjectId,maxim-optimizer,6d617869-6d2d-46f7-9074-696d697a6572,rev?*%
%TF.SameCoordinates,PX3ef1480PY6acfc00*%
%TF.FileFunction,Soldermask,Top*%
%TF.FilePolarity,Negative*%
%FSLAX46Y46*%
G04 Gerber Fmt 4.6, Leading zero omitted, Abs format (unit mm)*
G04 Created by KiCad (PCBNEW 5.1.6-c6e7f7d~87~ubuntu20.04.1) date 2020-09-19 15:10:49*
%MOMM*%
%LPD*%
G01*
G04 APERTURE LIST*
%ADD10C,4.100000*%
%ADD11R,3.303200X5.203200*%
%ADD12R,3.640000X3.640000*%
G04 APERTURE END LIST*
%TO.C,U201*%
G36*
G01*
X16774008Y27363000D02*
X17663992Y27363000D01*
G75*
G02*
X17763000Y27263992I0J-99008D01*
G01*
X17763000Y26123008D01*
G75*
G02*
X17663992Y26024000I-99008J0D01*
G01*
X16774008Y26024000D01*
G75*
G02*
X16675000Y26123008I0J99008D01*
G01*
X16675000Y27263992D01*
G75*
G02*
X16774008Y27363000I99008J0D01*
G01*
G37*
G36*
G01*
X16774008Y24976000D02*
X17663992Y24976000D01*
G75*
G02*
X17763000Y24876992I0J-99008D01*
G01*
X17763000Y23736008D01*
G75*
G02*
X17663992Y23637000I-99008J0D01*
G01*
X16774008Y23637000D01*
G75*
G02*
X16675000Y23736008I0J99008D01*
G01*
X16675000Y24876992D01*
G75*
G02*
X16774008Y24976000I99008J0D01*
G01*
G37*
G36*
G01*
X16704890Y25875000D02*
X17657110Y25875000D01*
G75*
G02*
X17763000Y25769110I0J-105890D01*
G01*
X17763000Y25229890D01*
G75*
G02*
X17657110Y25124000I-105890J0D01*
G01*
X16704890Y25124000D01*
G75*
G02*
X16599000Y25229890I0J105890D01*
G01*
X16599000Y25769110D01*
G75*
G02*
X16704890Y25875000I105890J0D01*
G01*
G37*
G36*
G01*
X16196221Y27363000D02*
X16402779Y27363000D01*
G75*
G02*
X16525000Y27240779I0J-122221D01*
G01*
X16525000Y26321221D01*
G75*
G02*
X16402779Y26199000I-122221J0D01*
G01*
X16196221Y26199000D01*
G75*
G02*
X16074000Y26321221I0J122221D01*
G01*
X16074000Y27240779D01*
G75*
G02*
X16196221Y27363000I122221J0D01*
G01*
G37*
G36*
G01*
X15596221Y27363000D02*
X15802779Y27363000D01*
G75*
G02*
X15925000Y27240779I0J-122221D01*
G01*
X15925000Y26321221D01*
G75*
G02*
X15802779Y26199000I-122221J0D01*
G01*
X15596221Y26199000D01*
G75*
G02*
X15474000Y26321221I0J122221D01*
G01*
X15474000Y27240779D01*
G75*
G02*
X15596221Y27363000I122221J0D01*
G01*
G37*
G36*
G01*
X15596221Y24801000D02*
X15802779Y24801000D01*
G75*
G02*
X15925000Y24678779I0J-122221D01*
G01*
X15925000Y23759221D01*
G75*
G02*
X15802779Y23637000I-122221J0D01*
G01*
X15596221Y23637000D01*
G75*
G02*
X15474000Y23759221I0J122221D01*
G01*
X15474000Y24678779D01*
G75*
G02*
X15596221Y24801000I122221J0D01*
G01*
G37*
G36*
G01*
X16196221Y24801000D02*
X16402779Y24801000D01*
G75*
G02*
X16525000Y24678779I0J-122221D01*
G01*
X16525000Y23759221D01*
G75*
G02*
X16402779Y23637000I-122221J0D01*
G01*
X16196221Y23637000D01*
G75*
G02*
X16074000Y23759221I0J122221D01*
G01*
X16074000Y24678779D01*
G75*
G02*
X16196221Y24801000I122221J0D01*
G01*
G37*
G36*
G01*
X14475757Y27363000D02*
X15223243Y27363000D01*
G75*
G02*
X15325000Y27261243I0J-101757D01*
G01*
X15325000Y26125757D01*
G75*
G02*
X15223243Y26024000I-101757J0D01*
G01*
X14475757Y26024000D01*
G75*
G02*
X14374000Y26125757I0J101757D01*
G01*
X14374000Y27261243D01*
G75*
G02*
X14475757Y27363000I101757J0D01*
G01*
G37*
G36*
G01*
X11334747Y27363000D02*
X14128253Y27363000D01*
G75*
G02*
X14226000Y27265253I0J-97747D01*
G01*
X14226000Y26121747D01*
G75*
G02*
X14128253Y26024000I-97747J0D01*
G01*
X11334747Y26024000D01*
G75*
G02*
X11237000Y26121747I0J97747D01*
G01*
X11237000Y27265253D01*
G75*
G02*
X11334747Y27363000I97747J0D01*
G01*
G37*
G36*
G01*
X11334747Y24976000D02*
X15228253Y24976000D01*
G75*
G02*
X15326000Y24878253I0J-97747D01*
G01*
X15326000Y23734747D01*
G75*
G02*
X15228253Y23637000I-97747J0D01*
G01*
X11334747Y23637000D01*
G75*
G02*
X11237000Y23734747I0J97747D01*
G01*
X11237000Y24878253D01*
G75*
G02*
X11334747Y24976000I97747J0D01*
G01*
G37*
%TD*%
%TO.C,U401*%
G36*
G01*
X68774008Y27363000D02*
X69663992Y27363000D01*
G75*
G02*
X69763000Y27263992I0J-99008D01*
G01*
X69763000Y26123008D01*
G75*
G02*
X69663992Y26024000I-99008J0D01*
G01*
X68774008Y26024000D01*
G75*
G02*
X68675000Y26123008I0J99008D01*
G01*
X68675000Y27263992D01*
G75*
G02*
X68774008Y27363000I99008J0D01*
G01*
G37*
G36*
G01*
X68774008Y24976000D02*
X69663992Y24976000D01*
G75*
G02*
X69763000Y24876992I0J-99008D01*
G01*
X69763000Y23736008D01*
G75*
G02*
X69663992Y23637000I-99008J0D01*
G01*
X68774008Y23637000D01*
G75*
G02*
X68675000Y23736008I0J99008D01*
G01*
X68675000Y24876992D01*
G75*
G02*
X68774008Y24976000I99008J0D01*
G01*
G37*
G36*
G01*
X68704890Y25875000D02*
X69657110Y25875000D01*
G75*
G02*
X69763000Y25769110I0J-105890D01*
G01*
X69763000Y25229890D01*
G75*
G02*
X69657110Y25124000I-105890J0D01*
G01*
X68704890Y25124000D01*
G75*
G02*
X68599000Y25229890I0J105890D01*
G01*
X68599000Y25769110D01*
G75*
G02*
X68704890Y25875000I105890J0D01*
G01*
G37*
G36*
G01*
X68196221Y27363000D02*
X68402779Y27363000D01*
G75*
G02*
X68525000Y27240779I0J-122221D01*
G01*
X68525000Y26321221D01*
G75*
G02*
X68402779Y26199000I-122221J0D01*
G01*
X68196221Y26199000D01*
G75*
G02*
X68074000Y26321221I0J122221D01*
G01*
X68074000Y27240779D01*
G75*
G02*
X68196221Y27363000I122221J0D01*
G01*
G37*
G36*
G01*
X67596221Y27363000D02*
X67802779Y27363000D01*
G75*
G02*
X67925000Y27240779I0J-122221D01*
G01*
X67925000Y26321221D01*
G75*
G02*
X67802779Y26199000I-122221J0D01*
G01*
X67596221Y26199000D01*
G75*
G02*
X67474000Y26321221I0J122221D01*
G01*
X67474000Y27240779D01*
G75*
G02*
X67596221Y27363000I122221J0D01*
G01*
G37*
G36*
G01*
X67596221Y24801000D02*
X67802779Y24801000D01*
G75*
G02*
X67925000Y24678779I0J-122221D01*
G01*
X67925000Y23759221D01*
G75*
G02*
X67802779Y23637000I-122221J0D01*
G01*
X67596221Y23637000D01*
G75*
G02*
X67474000Y23759221I0J122221D01*
G01*
X67474000Y24678779D01*
G75*
G02*
X67596221Y24801000I122221J0D01*
G01*
G37*
G36*
G01*
X68196221Y24801000D02*
X68402779Y24801000D01*
G75*
G02*
X68525000Y24678779I0J-122221D01*
G01*
X68525000Y23759221D01*
G75*
G02*
X68402779Y23637000I-122221J0D01*
G01*
X68196221Y23637000D01*
G75*
G02*
X68074000Y23759221I0J122221D01*
G01*
X68074000Y24678779D01*
G75*
G02*
X68196221Y24801000I122221J0D01*
G01*
G37*
G36*
G01*
X66475757Y27363000D02*
X67223243Y27363000D01*
G75*
G02*
X67325000Y27261243I0J-101757D01*
G01*
X67325000Y26125757D01*
G75*
G02*
X67223243Y26024000I-101757J0D01*
G01*
X66475757Y26024000D01*
G75*
G02*
X66374000Y26125757I0J101757D01*
G01*
X66374000Y27261243D01*
G75*
G02*
X66475757Y27363000I101757J0D01*
G01*
G37*
G36*
G01*
X63334747Y27363000D02*
X66128253Y27363000D01*
G75*
G02*
X66226000Y27265253I0J-97747D01*
G01*
X66226000Y26121747D01*
G75*
G02*
X66128253Y26024000I-97747J0D01*
G01*
X63334747Y26024000D01*
G75*
G02*
X63237000Y26121747I0J97747D01*
G01*
X63237000Y27265253D01*
G75*
G02*
X63334747Y27363000I97747J0D01*
G01*
G37*
G36*
G01*
X63334747Y24976000D02*
X67228253Y24976000D01*
G75*
G02*
X67326000Y24878253I0J-97747D01*
G01*
X67326000Y23734747D01*
G75*
G02*
X67228253Y23637000I-97747J0D01*
G01*
X63334747Y23637000D01*
G75*
G02*
X63237000Y23734747I0J97747D01*
G01*
X63237000Y24878253D01*
G75*
G02*
X63334747Y24976000I97747J0D01*
G01*
G37*
%TD*%
%TO.C,U301*%
G36*
G01*
X42774008Y27363000D02*
X43663992Y27363000D01*
G75*
G02*
X43763000Y27263992I0J-99008D01*
G01*
X43763000Y26123008D01*
G75*
G02*
X43663992Y26024000I-99008J0D01*
G01*
X42774008Y26024000D01*
G75*
G02*
X42675000Y26123008I0J99008D01*
G01*
X42675000Y27263992D01*
G75*
G02*
X42774008Y27363000I99008J0D01*
G01*
G37*
G36*
G01*
X42774008Y24976000D02*
X43663992Y24976000D01*
G75*
G02*
X43763000Y24876992I0J-99008D01*
G01*
X43763000Y23736008D01*
G75*
G02*
X43663992Y23637000I-99008J0D01*
G01*
X42774008Y23637000D01*
G75*
G02*
X42675000Y23736008I0J99008D01*
G01*
X42675000Y24876992D01*
G75*
G02*
X42774008Y24976000I99008J0D01*
G01*
G37*
G36*
G01*
X42704890Y25875000D02*
X43657110Y25875000D01*
G75*
G02*
X43763000Y25769110I0J-105890D01*
G01*
X43763000Y25229890D01*
G75*
G02*
X43657110Y25124000I-105890J0D01*
G01*
X42704890Y25124000D01*
G75*
G02*
X42599000Y25229890I0J105890D01*
G01*
X42599000Y25769110D01*
G75*
G02*
X42704890Y25875000I105890J0D01*
G01*
G37*
G36*
G01*
X42196221Y27363000D02*
X42402779Y27363000D01*
G75*
G02*
X42525000Y27240779I0J-122221D01*
G01*
X42525000Y26321221D01*
G75*
G02*
X42402779Y26199000I-122221J0D01*
G01*
X42196221Y26199000D01*
G75*
G02*
X42074000Y26321221I0J122221D01*
G01*
X42074000Y27240779D01*
G75*
G02*
X42196221Y27363000I122221J0D01*
G01*
G37*
G36*
G01*
X41596221Y27363000D02*
X41802779Y27363000D01*
G75*
G02*
X41925000Y27240779I0J-122221D01*
G01*
X41925000Y26321221D01*
G75*
G02*
X41802779Y26199000I-122221J0D01*
G01*
X41596221Y26199000D01*
G75*
G02*
X41474000Y26321221I0J122221D01*
G01*
X41474000Y27240779D01*
G75*
G02*
X41596221Y27363000I122221J0D01*
G01*
G37*
G36*
G01*
X41596221Y24801000D02*
X41802779Y24801000D01*
G75*
G02*
X41925000Y24678779I0J-122221D01*
G01*
X41925000Y23759221D01*
G75*
G02*
X41802779Y23637000I-122221J0D01*
G01*
X41596221Y23637000D01*
G75*
G02*
X41474000Y23759221I0J122221D01*
G01*
X41474000Y24678779D01*
G75*
G02*
X41596221Y24801000I122221J0D01*
G01*
G37*
G36*
G01*
X42196221Y24801000D02*
X42402779Y24801000D01*
G75*
G02*
X42525000Y24678779I0J-122221D01*
G01*
X42525000Y23759221D01*
G75*
G02*
X42402779Y23637000I-122221J0D01*
G01*
X42196221Y23637000D01*
G75*
G02*
X42074000Y23759221I0J122221D01*
G01*
X42074000Y24678779D01*
G75*
G02*
X42196221Y24801000I122221J0D01*
G01*
G37*
G36*
G01*
X40475757Y27363000D02*
X41223243Y27363000D01*
G75*
G02*
X41325000Y27261243I0J-101757D01*
G01*
X41325000Y26125757D01*
G75*
G02*
X41223243Y26024000I-101757J0D01*
G01*
X40475757Y26024000D01*
G75*
G02*
X40374000Y26125757I0J101757D01*
G01*
X40374000Y27261243D01*
G75*
G02*
X40475757Y27363000I101757J0D01*
G01*
G37*
G36*
G01*
X37334747Y27363000D02*
X40128253Y27363000D01*
G75*
G02*
X40226000Y27265253I0J-97747D01*
G01*
X40226000Y26121747D01*
G75*
G02*
X40128253Y26024000I-97747J0D01*
G01*
X37334747Y26024000D01*
G75*
G02*
X37237000Y26121747I0J97747D01*
G01*
X37237000Y27265253D01*
G75*
G02*
X37334747Y27363000I97747J0D01*
G01*
G37*
G36*
G01*
X37334747Y24976000D02*
X41228253Y24976000D01*
G75*
G02*
X41326000Y24878253I0J-97747D01*
G01*
X41326000Y23734747D01*
G75*
G02*
X41228253Y23637000I-97747J0D01*
G01*
X37334747Y23637000D01*
G75*
G02*
X37237000Y23734747I0J97747D01*
G01*
X37237000Y24878253D01*
G75*
G02*
X37334747Y24976000I97747J0D01*
G01*
G37*
%TD*%
D10*
%TO.C,SP110*%
X21000000Y5000000D03*
%TD*%
%TO.C,SP109*%
X73000000Y5000000D03*
%TD*%
%TO.C,SP108*%
X32000000Y15000000D03*
%TD*%
%TO.C,SP107*%
X59000000Y15000000D03*
%TD*%
%TO.C,SP106*%
X19000000Y41000000D03*
%TD*%
%TO.C,SP105*%
X9000000Y41000000D03*
%TD*%
%TO.C,SP104*%
X45000000Y41000000D03*
%TD*%
%TO.C,SP103*%
X35000000Y41000000D03*
%TD*%
%TO.C,SP102*%
X71000000Y41000000D03*
%TD*%
%TO.C,SP101*%
X61000000Y41000000D03*
%TD*%
%TO.C,R101*%
G36*
G01*
X36900000Y4100000D02*
X36900000Y3400000D01*
G75*
G02*
X36700000Y3200000I-200000J0D01*
G01*
X36300000Y3200000D01*
G75*
G02*
X36100000Y3400000I0J200000D01*
G01*
X36100000Y4100000D01*
G75*
G02*
X36300000Y4300000I200000J0D01*
G01*
X36700000Y4300000D01*
G75*
G02*
X36900000Y4100000I0J-200000D01*
G01*
G37*
G36*
G01*
X38400000Y4100000D02*
X38400000Y3400000D01*
G75*
G02*
X38200000Y3200000I-200000J0D01*
G01*
X37800000Y3200000D01*
G75*
G02*
X37600000Y3400000I0J200000D01*
G01*
X37600000Y4100000D01*
G75*
G02*
X37800000Y4300000I200000J0D01*
G01*
X38200000Y4300000D01*
G75*
G02*
X38400000Y4100000I0J-200000D01*
G01*
G37*
%TD*%
D11*
%TO.C,L401*%
X77300000Y14750000D03*
X66200000Y14750000D03*
%TD*%
%TO.C,L301*%
X51300000Y14750000D03*
X40200000Y14750000D03*
%TD*%
%TO.C,L201*%
X25300000Y14750000D03*
X14200000Y14750000D03*
%TD*%
D12*
%TO.C,D101*%
X46000000Y2000000D03*
X46000000Y5500000D03*
X49500000Y2000000D03*
X49500000Y5500000D03*
G36*
G01*
X39940000Y2270000D02*
X41760000Y2270000D01*
G75*
G02*
X42170000Y1860000I0J-410000D01*
G01*
X42170000Y1040000D01*
G75*
G02*
X41760000Y630000I-410000J0D01*
G01*
X39940000Y630000D01*
G75*
G02*
X39530000Y1040000I0J410000D01*
G01*
X39530000Y1860000D01*
G75*
G02*
X39940000Y2270000I410000J0D01*
G01*
G37*
G36*
G01*
X39940000Y6870000D02*
X41760000Y6870000D01*
G75*
G02*
X42170000Y6460000I0J-410000D01*
G01*
X42170000Y5640000D01*
G75*
G02*
X41760000Y5230000I-410000J0D01*
G01*
X39940000Y5230000D01*
G75*
G02*
X39530000Y5640000I0J410000D01*
G01*
X39530000Y6460000D01*
G75*
G02*
X39940000Y6870000I410000J0D01*
G01*
G37*
%TD*%
%TO.C,C418*%
G36*
G01*
X77070000Y32210000D02*
X77070000Y31290000D01*
G75*
G02*
X76785000Y31005000I-285000J0D01*
G01*
X76215000Y31005000D01*
G75*
G02*
X75930000Y31290000I0J285000D01*
G01*
X75930000Y32210000D01*
G75*
G02*
X76215000Y32495000I285000J0D01*
G01*
X76785000Y32495000D01*
G75*
G02*
X77070000Y32210000I0J-285000D01*
G01*
G37*
G36*
G01*
X75070000Y32210000D02*
X75070000Y31290000D01*
G75*
G02*
X74785000Y31005000I-285000J0D01*
G01*
X74215000Y31005000D01*
G75*
G02*
X73930000Y31290000I0J285000D01*
G01*
X73930000Y32210000D01*
G75*
G02*
X74215000Y32495000I285000J0D01*
G01*
X74785000Y32495000D01*
G75*
G02*
X75070000Y32210000I0J-285000D01*
G01*
G37*
%TD*%
%TO.C,C417*%
G36*
G01*
X77070000Y29960000D02*
X77070000Y29040000D01*
G75*
G02*
X76785000Y28755000I-285000J0D01*
G01*
X76215000Y28755000D01*
G75*
G02*
X75930000Y29040000I0J285000D01*
G01*
X75930000Y29960000D01*
G75*
G02*
X76215000Y30245000I285000J0D01*
G01*
X76785000Y30245000D01*
G75*
G02*
X77070000Y29960000I0J-285000D01*
G01*
G37*
G36*
G01*
X75070000Y29960000D02*
X75070000Y29040000D01*
G75*
G02*
X74785000Y28755000I-285000J0D01*
G01*
X74215000Y28755000D01*
G75*
G02*
X73930000Y29040000I0J285000D01*
G01*
X73930000Y29960000D01*
G75*
G02*
X74215000Y30245000I285000J0D01*
G01*
X74785000Y30245000D01*
G75*
G02*
X75070000Y29960000I0J-285000D01*
G01*
G37*
%TD*%
%TO.C,C416*%
G36*
G01*
X77070000Y27710000D02*
X77070000Y26790000D01*
G75*
G02*
X76785000Y26505000I-285000J0D01*
G01*
X76215000Y26505000D01*
G75*
G02*
X75930000Y26790000I0J285000D01*
G01*
X75930000Y27710000D01*
G75*
G02*
X76215000Y27995000I285000J0D01*
G01*
X76785000Y27995000D01*
G75*
G02*
X77070000Y27710000I0J-285000D01*
G01*
G37*
G36*
G01*
X75070000Y27710000D02*
X75070000Y26790000D01*
G75*
G02*
X74785000Y26505000I-285000J0D01*
G01*
X74215000Y26505000D01*
G75*
G02*
X73930000Y26790000I0J285000D01*
G01*
X73930000Y27710000D01*
G75*
G02*
X74215000Y27995000I285000J0D01*
G01*
X74785000Y27995000D01*
G75*
G02*
X75070000Y27710000I0J-285000D01*
G01*
G37*
%TD*%
%TO.C,C415*%
G36*
G01*
X77070000Y25460000D02*
X77070000Y24540000D01*
G75*
G02*
X76785000Y24255000I-285000J0D01*
G01*
X76215000Y24255000D01*
G75*
G02*
X75930000Y24540000I0J285000D01*
G01*
X75930000Y25460000D01*
G75*
G02*
X76215000Y25745000I285000J0D01*
G01*
X76785000Y25745000D01*
G75*
G02*
X77070000Y25460000I0J-285000D01*
G01*
G37*
G36*
G01*
X75070000Y25460000D02*
X75070000Y24540000D01*
G75*
G02*
X74785000Y24255000I-285000J0D01*
G01*
X74215000Y24255000D01*
G75*
G02*
X73930000Y24540000I0J285000D01*
G01*
X73930000Y25460000D01*
G75*
G02*
X74215000Y25745000I285000J0D01*
G01*
X74785000Y25745000D01*
G75*
G02*
X75070000Y25460000I0J-285000D01*
G01*
G37*
%TD*%
%TO.C,C414*%
G36*
G01*
X77070000Y23210000D02*
X77070000Y22290000D01*
G75*
G02*
X76785000Y22005000I-285000J0D01*
G01*
X76215000Y22005000D01*
G75*
G02*
X75930000Y22290000I0J285000D01*
G01*
X75930000Y23210000D01*
G75*
G02*
X76215000Y23495000I285000J0D01*
G01*
X76785000Y23495000D01*
G75*
G02*
X77070000Y23210000I0J-285000D01*
G01*
G37*
G36*
G01*
X75070000Y23210000D02*
X75070000Y22290000D01*
G75*
G02*
X74785000Y22005000I-285000J0D01*
G01*
X74215000Y22005000D01*
G75*
G02*
X73930000Y22290000I0J285000D01*
G01*
X73930000Y23210000D01*
G75*
G02*
X74215000Y23495000I285000J0D01*
G01*
X74785000Y23495000D01*
G75*
G02*
X75070000Y23210000I0J-285000D01*
G01*
G37*
%TD*%
%TO.C,C413*%
G36*
G01*
X68123680Y22835000D02*
X68123680Y22165000D01*
G75*
G02*
X67938680Y21980000I-185000J0D01*
G01*
X67568680Y21980000D01*
G75*
G02*
X67383680Y22165000I0J185000D01*
G01*
X67383680Y22835000D01*
G75*
G02*
X67568680Y23020000I185000J0D01*
G01*
X67938680Y23020000D01*
G75*
G02*
X68123680Y22835000I0J-185000D01*
G01*
G37*
G36*
G01*
X66620000Y22835000D02*
X66620000Y22165000D01*
G75*
G02*
X66435000Y21980000I-185000J0D01*
G01*
X66065000Y21980000D01*
G75*
G02*
X65880000Y22165000I0J185000D01*
G01*
X65880000Y22835000D01*
G75*
G02*
X66065000Y23020000I185000J0D01*
G01*
X66435000Y23020000D01*
G75*
G02*
X66620000Y22835000I0J-185000D01*
G01*
G37*
%TD*%
%TO.C,C412*%
G36*
G01*
X68128160Y28165000D02*
X68128160Y28835000D01*
G75*
G02*
X68313160Y29020000I185000J0D01*
G01*
X68683160Y29020000D01*
G75*
G02*
X68868160Y28835000I0J-185000D01*
G01*
X68868160Y28165000D01*
G75*
G02*
X68683160Y27980000I-185000J0D01*
G01*
X68313160Y27980000D01*
G75*
G02*
X68128160Y28165000I0J185000D01*
G01*
G37*
G36*
G01*
X69631840Y28165000D02*
X69631840Y28835000D01*
G75*
G02*
X69816840Y29020000I185000J0D01*
G01*
X70186840Y29020000D01*
G75*
G02*
X70371840Y28835000I0J-185000D01*
G01*
X70371840Y28165000D01*
G75*
G02*
X70186840Y27980000I-185000J0D01*
G01*
X69816840Y27980000D01*
G75*
G02*
X69631840Y28165000I0J185000D01*
G01*
G37*
%TD*%
%TO.C,C411*%
G36*
G01*
X64878160Y28165000D02*
X64878160Y28835000D01*
G75*
G02*
X65063160Y29020000I185000J0D01*
G01*
X65433160Y29020000D01*
G75*
G02*
X65618160Y28835000I0J-185000D01*
G01*
X65618160Y28165000D01*
G75*
G02*
X65433160Y27980000I-185000J0D01*
G01*
X65063160Y27980000D01*
G75*
G02*
X64878160Y28165000I0J185000D01*
G01*
G37*
G36*
G01*
X66381840Y28165000D02*
X66381840Y28835000D01*
G75*
G02*
X66566840Y29020000I185000J0D01*
G01*
X66936840Y29020000D01*
G75*
G02*
X67121840Y28835000I0J-185000D01*
G01*
X67121840Y28165000D01*
G75*
G02*
X66936840Y27980000I-185000J0D01*
G01*
X66566840Y27980000D01*
G75*
G02*
X66381840Y28165000I0J185000D01*
G01*
G37*
%TD*%
%TO.C,C410*%
G36*
G01*
X64878160Y29915000D02*
X64878160Y30585000D01*
G75*
G02*
X65063160Y30770000I185000J0D01*
G01*
X65433160Y30770000D01*
G75*
G02*
X65618160Y30585000I0J-185000D01*
G01*
X65618160Y29915000D01*
G75*
G02*
X65433160Y29730000I-185000J0D01*
G01*
X65063160Y29730000D01*
G75*
G02*
X64878160Y29915000I0J185000D01*
G01*
G37*
G36*
G01*
X66381840Y29915000D02*
X66381840Y30585000D01*
G75*
G02*
X66566840Y30770000I185000J0D01*
G01*
X66936840Y30770000D01*
G75*
G02*
X67121840Y30585000I0J-185000D01*
G01*
X67121840Y29915000D01*
G75*
G02*
X66936840Y29730000I-185000J0D01*
G01*
X66566840Y29730000D01*
G75*
G02*
X66381840Y29915000I0J185000D01*
G01*
G37*
%TD*%
%TO.C,C409*%
G36*
G01*
X64878160Y31665000D02*
X64878160Y32335000D01*
G75*
G02*
X65063160Y32520000I185000J0D01*
G01*
X65433160Y32520000D01*
G75*
G02*
X65618160Y32335000I0J-185000D01*
G01*
X65618160Y31665000D01*
G75*
G02*
X65433160Y31480000I-185000J0D01*
G01*
X65063160Y31480000D01*
G75*
G02*
X64878160Y31665000I0J185000D01*
G01*
G37*
G36*
G01*
X66381840Y31665000D02*
X66381840Y32335000D01*
G75*
G02*
X66566840Y32520000I185000J0D01*
G01*
X66936840Y32520000D01*
G75*
G02*
X67121840Y32335000I0J-185000D01*
G01*
X67121840Y31665000D01*
G75*
G02*
X66936840Y31480000I-185000J0D01*
G01*
X66566840Y31480000D01*
G75*
G02*
X66381840Y31665000I0J185000D01*
G01*
G37*
%TD*%
%TO.C,C408*%
G36*
G01*
X61665000Y26621840D02*
X62335000Y26621840D01*
G75*
G02*
X62520000Y26436840I0J-185000D01*
G01*
X62520000Y26066840D01*
G75*
G02*
X62335000Y25881840I-185000J0D01*
G01*
X61665000Y25881840D01*
G75*
G02*
X61480000Y26066840I0J185000D01*
G01*
X61480000Y26436840D01*
G75*
G02*
X61665000Y26621840I185000J0D01*
G01*
G37*
G36*
G01*
X61665000Y25118160D02*
X62335000Y25118160D01*
G75*
G02*
X62520000Y24933160I0J-185000D01*
G01*
X62520000Y24563160D01*
G75*
G02*
X62335000Y24378160I-185000J0D01*
G01*
X61665000Y24378160D01*
G75*
G02*
X61480000Y24563160I0J185000D01*
G01*
X61480000Y24933160D01*
G75*
G02*
X61665000Y25118160I185000J0D01*
G01*
G37*
%TD*%
%TO.C,C407*%
G36*
G01*
X57290000Y27070000D02*
X58210000Y27070000D01*
G75*
G02*
X58495000Y26785000I0J-285000D01*
G01*
X58495000Y26215000D01*
G75*
G02*
X58210000Y25930000I-285000J0D01*
G01*
X57290000Y25930000D01*
G75*
G02*
X57005000Y26215000I0J285000D01*
G01*
X57005000Y26785000D01*
G75*
G02*
X57290000Y27070000I285000J0D01*
G01*
G37*
G36*
G01*
X57290000Y25070000D02*
X58210000Y25070000D01*
G75*
G02*
X58495000Y24785000I0J-285000D01*
G01*
X58495000Y24215000D01*
G75*
G02*
X58210000Y23930000I-285000J0D01*
G01*
X57290000Y23930000D01*
G75*
G02*
X57005000Y24215000I0J285000D01*
G01*
X57005000Y24785000D01*
G75*
G02*
X57290000Y25070000I285000J0D01*
G01*
G37*
%TD*%
%TO.C,C406*%
G36*
G01*
X64430000Y33540000D02*
X64430000Y34460000D01*
G75*
G02*
X64715000Y34745000I285000J0D01*
G01*
X65285000Y34745000D01*
G75*
G02*
X65570000Y34460000I0J-285000D01*
G01*
X65570000Y33540000D01*
G75*
G02*
X65285000Y33255000I-285000J0D01*
G01*
X64715000Y33255000D01*
G75*
G02*
X64430000Y33540000I0J285000D01*
G01*
G37*
G36*
G01*
X66430000Y33540000D02*
X66430000Y34460000D01*
G75*
G02*
X66715000Y34745000I285000J0D01*
G01*
X67285000Y34745000D01*
G75*
G02*
X67570000Y34460000I0J-285000D01*
G01*
X67570000Y33540000D01*
G75*
G02*
X67285000Y33255000I-285000J0D01*
G01*
X66715000Y33255000D01*
G75*
G02*
X66430000Y33540000I0J285000D01*
G01*
G37*
%TD*%
%TO.C,C405*%
G36*
G01*
X57570000Y33710000D02*
X57570000Y32790000D01*
G75*
G02*
X57285000Y32505000I-285000J0D01*
G01*
X56715000Y32505000D01*
G75*
G02*
X56430000Y32790000I0J285000D01*
G01*
X56430000Y33710000D01*
G75*
G02*
X56715000Y33995000I285000J0D01*
G01*
X57285000Y33995000D01*
G75*
G02*
X57570000Y33710000I0J-285000D01*
G01*
G37*
G36*
G01*
X55570000Y33710000D02*
X55570000Y32790000D01*
G75*
G02*
X55285000Y32505000I-285000J0D01*
G01*
X54715000Y32505000D01*
G75*
G02*
X54430000Y32790000I0J285000D01*
G01*
X54430000Y33710000D01*
G75*
G02*
X54715000Y33995000I285000J0D01*
G01*
X55285000Y33995000D01*
G75*
G02*
X55570000Y33710000I0J-285000D01*
G01*
G37*
%TD*%
%TO.C,C404*%
G36*
G01*
X57570000Y31460000D02*
X57570000Y30540000D01*
G75*
G02*
X57285000Y30255000I-285000J0D01*
G01*
X56715000Y30255000D01*
G75*
G02*
X56430000Y30540000I0J285000D01*
G01*
X56430000Y31460000D01*
G75*
G02*
X56715000Y31745000I285000J0D01*
G01*
X57285000Y31745000D01*
G75*
G02*
X57570000Y31460000I0J-285000D01*
G01*
G37*
G36*
G01*
X55570000Y31460000D02*
X55570000Y30540000D01*
G75*
G02*
X55285000Y30255000I-285000J0D01*
G01*
X54715000Y30255000D01*
G75*
G02*
X54430000Y30540000I0J285000D01*
G01*
X54430000Y31460000D01*
G75*
G02*
X54715000Y31745000I285000J0D01*
G01*
X55285000Y31745000D01*
G75*
G02*
X55570000Y31460000I0J-285000D01*
G01*
G37*
%TD*%
%TO.C,C403*%
G36*
G01*
X64430000Y35790000D02*
X64430000Y36710000D01*
G75*
G02*
X64715000Y36995000I285000J0D01*
G01*
X65285000Y36995000D01*
G75*
G02*
X65570000Y36710000I0J-285000D01*
G01*
X65570000Y35790000D01*
G75*
G02*
X65285000Y35505000I-285000J0D01*
G01*
X64715000Y35505000D01*
G75*
G02*
X64430000Y35790000I0J285000D01*
G01*
G37*
G36*
G01*
X66430000Y35790000D02*
X66430000Y36710000D01*
G75*
G02*
X66715000Y36995000I285000J0D01*
G01*
X67285000Y36995000D01*
G75*
G02*
X67570000Y36710000I0J-285000D01*
G01*
X67570000Y35790000D01*
G75*
G02*
X67285000Y35505000I-285000J0D01*
G01*
X66715000Y35505000D01*
G75*
G02*
X66430000Y35790000I0J285000D01*
G01*
G37*
%TD*%
%TO.C,C402*%
G36*
G01*
X57570000Y29210000D02*
X57570000Y28290000D01*
G75*
G02*
X57285000Y28005000I-285000J0D01*
G01*
X56715000Y28005000D01*
G75*
G02*
X56430000Y28290000I0J285000D01*
G01*
X56430000Y29210000D01*
G75*
G02*
X56715000Y29495000I285000J0D01*
G01*
X57285000Y29495000D01*
G75*
G02*
X57570000Y29210000I0J-285000D01*
G01*
G37*
G36*
G01*
X55570000Y29210000D02*
X55570000Y28290000D01*
G75*
G02*
X55285000Y28005000I-285000J0D01*
G01*
X54715000Y28005000D01*
G75*
G02*
X54430000Y28290000I0J285000D01*
G01*
X54430000Y29210000D01*
G75*
G02*
X54715000Y29495000I285000J0D01*
G01*
X55285000Y29495000D01*
G75*
G02*
X55570000Y29210000I0J-285000D01*
G01*
G37*
%TD*%
%TO.C,C401*%
G36*
G01*
X59540000Y27070000D02*
X60460000Y27070000D01*
G75*
G02*
X60745000Y26785000I0J-285000D01*
G01*
X60745000Y26215000D01*
G75*
G02*
X60460000Y25930000I-285000J0D01*
G01*
X59540000Y25930000D01*
G75*
G02*
X59255000Y26215000I0J285000D01*
G01*
X59255000Y26785000D01*
G75*
G02*
X59540000Y27070000I285000J0D01*
G01*
G37*
G36*
G01*
X59540000Y25070000D02*
X60460000Y25070000D01*
G75*
G02*
X60745000Y24785000I0J-285000D01*
G01*
X60745000Y24215000D01*
G75*
G02*
X60460000Y23930000I-285000J0D01*
G01*
X59540000Y23930000D01*
G75*
G02*
X59255000Y24215000I0J285000D01*
G01*
X59255000Y24785000D01*
G75*
G02*
X59540000Y25070000I285000J0D01*
G01*
G37*
%TD*%
%TO.C,C318*%
G36*
G01*
X51070000Y32210000D02*
X51070000Y31290000D01*
G75*
G02*
X50785000Y31005000I-285000J0D01*
G01*
X50215000Y31005000D01*
G75*
G02*
X49930000Y31290000I0J285000D01*
G01*
X49930000Y32210000D01*
G75*
G02*
X50215000Y32495000I285000J0D01*
G01*
X50785000Y32495000D01*
G75*
G02*
X51070000Y32210000I0J-285000D01*
G01*
G37*
G36*
G01*
X49070000Y32210000D02*
X49070000Y31290000D01*
G75*
G02*
X48785000Y31005000I-285000J0D01*
G01*
X48215000Y31005000D01*
G75*
G02*
X47930000Y31290000I0J285000D01*
G01*
X47930000Y32210000D01*
G75*
G02*
X48215000Y32495000I285000J0D01*
G01*
X48785000Y32495000D01*
G75*
G02*
X49070000Y32210000I0J-285000D01*
G01*
G37*
%TD*%
%TO.C,C317*%
G36*
G01*
X51070000Y29960000D02*
X51070000Y29040000D01*
G75*
G02*
X50785000Y28755000I-285000J0D01*
G01*
X50215000Y28755000D01*
G75*
G02*
X49930000Y29040000I0J285000D01*
G01*
X49930000Y29960000D01*
G75*
G02*
X50215000Y30245000I285000J0D01*
G01*
X50785000Y30245000D01*
G75*
G02*
X51070000Y29960000I0J-285000D01*
G01*
G37*
G36*
G01*
X49070000Y29960000D02*
X49070000Y29040000D01*
G75*
G02*
X48785000Y28755000I-285000J0D01*
G01*
X48215000Y28755000D01*
G75*
G02*
X47930000Y29040000I0J285000D01*
G01*
X47930000Y29960000D01*
G75*
G02*
X48215000Y30245000I285000J0D01*
G01*
X48785000Y30245000D01*
G75*
G02*
X49070000Y29960000I0J-285000D01*
G01*
G37*
%TD*%
%TO.C,C316*%
G36*
G01*
X51070000Y27710000D02*
X51070000Y26790000D01*
G75*
G02*
X50785000Y26505000I-285000J0D01*
G01*
X50215000Y26505000D01*
G75*
G02*
X49930000Y26790000I0J285000D01*
G01*
X49930000Y27710000D01*
G75*
G02*
X50215000Y27995000I285000J0D01*
G01*
X50785000Y27995000D01*
G75*
G02*
X51070000Y27710000I0J-285000D01*
G01*
G37*
G36*
G01*
X49070000Y27710000D02*
X49070000Y26790000D01*
G75*
G02*
X48785000Y26505000I-285000J0D01*
G01*
X48215000Y26505000D01*
G75*
G02*
X47930000Y26790000I0J285000D01*
G01*
X47930000Y27710000D01*
G75*
G02*
X48215000Y27995000I285000J0D01*
G01*
X48785000Y27995000D01*
G75*
G02*
X49070000Y27710000I0J-285000D01*
G01*
G37*
%TD*%
%TO.C,C315*%
G36*
G01*
X51070000Y25460000D02*
X51070000Y24540000D01*
G75*
G02*
X50785000Y24255000I-285000J0D01*
G01*
X50215000Y24255000D01*
G75*
G02*
X49930000Y24540000I0J285000D01*
G01*
X49930000Y25460000D01*
G75*
G02*
X50215000Y25745000I285000J0D01*
G01*
X50785000Y25745000D01*
G75*
G02*
X51070000Y25460000I0J-285000D01*
G01*
G37*
G36*
G01*
X49070000Y25460000D02*
X49070000Y24540000D01*
G75*
G02*
X48785000Y24255000I-285000J0D01*
G01*
X48215000Y24255000D01*
G75*
G02*
X47930000Y24540000I0J285000D01*
G01*
X47930000Y25460000D01*
G75*
G02*
X48215000Y25745000I285000J0D01*
G01*
X48785000Y25745000D01*
G75*
G02*
X49070000Y25460000I0J-285000D01*
G01*
G37*
%TD*%
%TO.C,C314*%
G36*
G01*
X51070000Y23210000D02*
X51070000Y22290000D01*
G75*
G02*
X50785000Y22005000I-285000J0D01*
G01*
X50215000Y22005000D01*
G75*
G02*
X49930000Y22290000I0J285000D01*
G01*
X49930000Y23210000D01*
G75*
G02*
X50215000Y23495000I285000J0D01*
G01*
X50785000Y23495000D01*
G75*
G02*
X51070000Y23210000I0J-285000D01*
G01*
G37*
G36*
G01*
X49070000Y23210000D02*
X49070000Y22290000D01*
G75*
G02*
X48785000Y22005000I-285000J0D01*
G01*
X48215000Y22005000D01*
G75*
G02*
X47930000Y22290000I0J285000D01*
G01*
X47930000Y23210000D01*
G75*
G02*
X48215000Y23495000I285000J0D01*
G01*
X48785000Y23495000D01*
G75*
G02*
X49070000Y23210000I0J-285000D01*
G01*
G37*
%TD*%
%TO.C,C313*%
G36*
G01*
X42123680Y22835000D02*
X42123680Y22165000D01*
G75*
G02*
X41938680Y21980000I-185000J0D01*
G01*
X41568680Y21980000D01*
G75*
G02*
X41383680Y22165000I0J185000D01*
G01*
X41383680Y22835000D01*
G75*
G02*
X41568680Y23020000I185000J0D01*
G01*
X41938680Y23020000D01*
G75*
G02*
X42123680Y22835000I0J-185000D01*
G01*
G37*
G36*
G01*
X40620000Y22835000D02*
X40620000Y22165000D01*
G75*
G02*
X40435000Y21980000I-185000J0D01*
G01*
X40065000Y21980000D01*
G75*
G02*
X39880000Y22165000I0J185000D01*
G01*
X39880000Y22835000D01*
G75*
G02*
X40065000Y23020000I185000J0D01*
G01*
X40435000Y23020000D01*
G75*
G02*
X40620000Y22835000I0J-185000D01*
G01*
G37*
%TD*%
%TO.C,C312*%
G36*
G01*
X42128160Y28165000D02*
X42128160Y28835000D01*
G75*
G02*
X42313160Y29020000I185000J0D01*
G01*
X42683160Y29020000D01*
G75*
G02*
X42868160Y28835000I0J-185000D01*
G01*
X42868160Y28165000D01*
G75*
G02*
X42683160Y27980000I-185000J0D01*
G01*
X42313160Y27980000D01*
G75*
G02*
X42128160Y28165000I0J185000D01*
G01*
G37*
G36*
G01*
X43631840Y28165000D02*
X43631840Y28835000D01*
G75*
G02*
X43816840Y29020000I185000J0D01*
G01*
X44186840Y29020000D01*
G75*
G02*
X44371840Y28835000I0J-185000D01*
G01*
X44371840Y28165000D01*
G75*
G02*
X44186840Y27980000I-185000J0D01*
G01*
X43816840Y27980000D01*
G75*
G02*
X43631840Y28165000I0J185000D01*
G01*
G37*
%TD*%
%TO.C,C311*%
G36*
G01*
X38878160Y28165000D02*
X38878160Y28835000D01*
G75*
G02*
X39063160Y29020000I185000J0D01*
G01*
X39433160Y29020000D01*
G75*
G02*
X39618160Y28835000I0J-185000D01*
G01*
X39618160Y28165000D01*
G75*
G02*
X39433160Y27980000I-185000J0D01*
G01*
X39063160Y27980000D01*
G75*
G02*
X38878160Y28165000I0J185000D01*
G01*
G37*
G36*
G01*
X40381840Y28165000D02*
X40381840Y28835000D01*
G75*
G02*
X40566840Y29020000I185000J0D01*
G01*
X40936840Y29020000D01*
G75*
G02*
X41121840Y28835000I0J-185000D01*
G01*
X41121840Y28165000D01*
G75*
G02*
X40936840Y27980000I-185000J0D01*
G01*
X40566840Y27980000D01*
G75*
G02*
X40381840Y28165000I0J185000D01*
G01*
G37*
%TD*%
%TO.C,C310*%
G36*
G01*
X38878160Y29915000D02*
X38878160Y30585000D01*
G75*
G02*
X39063160Y30770000I185000J0D01*
G01*
X39433160Y30770000D01*
G75*
G02*
X39618160Y30585000I0J-185000D01*
G01*
X39618160Y29915000D01*
G75*
G02*
X39433160Y29730000I-185000J0D01*
G01*
X39063160Y29730000D01*
G75*
G02*
X38878160Y29915000I0J185000D01*
G01*
G37*
G36*
G01*
X40381840Y29915000D02*
X40381840Y30585000D01*
G75*
G02*
X40566840Y30770000I185000J0D01*
G01*
X40936840Y30770000D01*
G75*
G02*
X41121840Y30585000I0J-185000D01*
G01*
X41121840Y29915000D01*
G75*
G02*
X40936840Y29730000I-185000J0D01*
G01*
X40566840Y29730000D01*
G75*
G02*
X40381840Y29915000I0J185000D01*
G01*
G37*
%TD*%
%TO.C,C309*%
G36*
G01*
X38878160Y31665000D02*
X38878160Y32335000D01*
G75*
G02*
X39063160Y32520000I185000J0D01*
G01*
X39433160Y32520000D01*
G75*
G02*
X39618160Y32335000I0J-185000D01*
G01*
X39618160Y31665000D01*
G75*
G02*
X39433160Y31480000I-185000J0D01*
G01*
X39063160Y31480000D01*
G75*
G02*
X38878160Y31665000I0J185000D01*
G01*
G37*
G36*
G01*
X40381840Y31665000D02*
X40381840Y32335000D01*
G75*
G02*
X40566840Y32520000I185000J0D01*
G01*
X40936840Y32520000D01*
G75*
G02*
X41121840Y32335000I0J-185000D01*
G01*
X41121840Y31665000D01*
G75*
G02*
X40936840Y31480000I-185000J0D01*
G01*
X40566840Y31480000D01*
G75*
G02*
X40381840Y31665000I0J185000D01*
G01*
G37*
%TD*%
%TO.C,C308*%
G36*
G01*
X35665000Y26621840D02*
X36335000Y26621840D01*
G75*
G02*
X36520000Y26436840I0J-185000D01*
G01*
X36520000Y26066840D01*
G75*
G02*
X36335000Y25881840I-185000J0D01*
G01*
X35665000Y25881840D01*
G75*
G02*
X35480000Y26066840I0J185000D01*
G01*
X35480000Y26436840D01*
G75*
G02*
X35665000Y26621840I185000J0D01*
G01*
G37*
G36*
G01*
X35665000Y25118160D02*
X36335000Y25118160D01*
G75*
G02*
X36520000Y24933160I0J-185000D01*
G01*
X36520000Y24563160D01*
G75*
G02*
X36335000Y24378160I-185000J0D01*
G01*
X35665000Y24378160D01*
G75*
G02*
X35480000Y24563160I0J185000D01*
G01*
X35480000Y24933160D01*
G75*
G02*
X35665000Y25118160I185000J0D01*
G01*
G37*
%TD*%
%TO.C,C307*%
G36*
G01*
X31290000Y27070000D02*
X32210000Y27070000D01*
G75*
G02*
X32495000Y26785000I0J-285000D01*
G01*
X32495000Y26215000D01*
G75*
G02*
X32210000Y25930000I-285000J0D01*
G01*
X31290000Y25930000D01*
G75*
G02*
X31005000Y26215000I0J285000D01*
G01*
X31005000Y26785000D01*
G75*
G02*
X31290000Y27070000I285000J0D01*
G01*
G37*
G36*
G01*
X31290000Y25070000D02*
X32210000Y25070000D01*
G75*
G02*
X32495000Y24785000I0J-285000D01*
G01*
X32495000Y24215000D01*
G75*
G02*
X32210000Y23930000I-285000J0D01*
G01*
X31290000Y23930000D01*
G75*
G02*
X31005000Y24215000I0J285000D01*
G01*
X31005000Y24785000D01*
G75*
G02*
X31290000Y25070000I285000J0D01*
G01*
G37*
%TD*%
%TO.C,C306*%
G36*
G01*
X38430000Y33540000D02*
X38430000Y34460000D01*
G75*
G02*
X38715000Y34745000I285000J0D01*
G01*
X39285000Y34745000D01*
G75*
G02*
X39570000Y34460000I0J-285000D01*
G01*
X39570000Y33540000D01*
G75*
G02*
X39285000Y33255000I-285000J0D01*
G01*
X38715000Y33255000D01*
G75*
G02*
X38430000Y33540000I0J285000D01*
G01*
G37*
G36*
G01*
X40430000Y33540000D02*
X40430000Y34460000D01*
G75*
G02*
X40715000Y34745000I285000J0D01*
G01*
X41285000Y34745000D01*
G75*
G02*
X41570000Y34460000I0J-285000D01*
G01*
X41570000Y33540000D01*
G75*
G02*
X41285000Y33255000I-285000J0D01*
G01*
X40715000Y33255000D01*
G75*
G02*
X40430000Y33540000I0J285000D01*
G01*
G37*
%TD*%
%TO.C,C305*%
G36*
G01*
X31570000Y33710000D02*
X31570000Y32790000D01*
G75*
G02*
X31285000Y32505000I-285000J0D01*
G01*
X30715000Y32505000D01*
G75*
G02*
X30430000Y32790000I0J285000D01*
G01*
X30430000Y33710000D01*
G75*
G02*
X30715000Y33995000I285000J0D01*
G01*
X31285000Y33995000D01*
G75*
G02*
X31570000Y33710000I0J-285000D01*
G01*
G37*
G36*
G01*
X29570000Y33710000D02*
X29570000Y32790000D01*
G75*
G02*
X29285000Y32505000I-285000J0D01*
G01*
X28715000Y32505000D01*
G75*
G02*
X28430000Y32790000I0J285000D01*
G01*
X28430000Y33710000D01*
G75*
G02*
X28715000Y33995000I285000J0D01*
G01*
X29285000Y33995000D01*
G75*
G02*
X29570000Y33710000I0J-285000D01*
G01*
G37*
%TD*%
%TO.C,C304*%
G36*
G01*
X31570000Y31460000D02*
X31570000Y30540000D01*
G75*
G02*
X31285000Y30255000I-285000J0D01*
G01*
X30715000Y30255000D01*
G75*
G02*
X30430000Y30540000I0J285000D01*
G01*
X30430000Y31460000D01*
G75*
G02*
X30715000Y31745000I285000J0D01*
G01*
X31285000Y31745000D01*
G75*
G02*
X31570000Y31460000I0J-285000D01*
G01*
G37*
G36*
G01*
X29570000Y31460000D02*
X29570000Y30540000D01*
G75*
G02*
X29285000Y30255000I-285000J0D01*
G01*
X28715000Y30255000D01*
G75*
G02*
X28430000Y30540000I0J285000D01*
G01*
X28430000Y31460000D01*
G75*
G02*
X28715000Y31745000I285000J0D01*
G01*
X29285000Y31745000D01*
G75*
G02*
X29570000Y31460000I0J-285000D01*
G01*
G37*
%TD*%
%TO.C,C303*%
G36*
G01*
X38430000Y35790000D02*
X38430000Y36710000D01*
G75*
G02*
X38715000Y36995000I285000J0D01*
G01*
X39285000Y36995000D01*
G75*
G02*
X39570000Y36710000I0J-285000D01*
G01*
X39570000Y35790000D01*
G75*
G02*
X39285000Y35505000I-285000J0D01*
G01*
X38715000Y35505000D01*
G75*
G02*
X38430000Y35790000I0J285000D01*
G01*
G37*
G36*
G01*
X40430000Y35790000D02*
X40430000Y36710000D01*
G75*
G02*
X40715000Y36995000I285000J0D01*
G01*
X41285000Y36995000D01*
G75*
G02*
X41570000Y36710000I0J-285000D01*
G01*
X41570000Y35790000D01*
G75*
G02*
X41285000Y35505000I-285000J0D01*
G01*
X40715000Y35505000D01*
G75*
G02*
X40430000Y35790000I0J285000D01*
G01*
G37*
%TD*%
%TO.C,C302*%
G36*
G01*
X31570000Y29210000D02*
X31570000Y28290000D01*
G75*
G02*
X31285000Y28005000I-285000J0D01*
G01*
X30715000Y28005000D01*
G75*
G02*
X30430000Y28290000I0J285000D01*
G01*
X30430000Y29210000D01*
G75*
G02*
X30715000Y29495000I285000J0D01*
G01*
X31285000Y29495000D01*
G75*
G02*
X31570000Y29210000I0J-285000D01*
G01*
G37*
G36*
G01*
X29570000Y29210000D02*
X29570000Y28290000D01*
G75*
G02*
X29285000Y28005000I-285000J0D01*
G01*
X28715000Y28005000D01*
G75*
G02*
X28430000Y28290000I0J285000D01*
G01*
X28430000Y29210000D01*
G75*
G02*
X28715000Y29495000I285000J0D01*
G01*
X29285000Y29495000D01*
G75*
G02*
X29570000Y29210000I0J-285000D01*
G01*
G37*
%TD*%
%TO.C,C301*%
G36*
G01*
X33540000Y27070000D02*
X34460000Y27070000D01*
G75*
G02*
X34745000Y26785000I0J-285000D01*
G01*
X34745000Y26215000D01*
G75*
G02*
X34460000Y25930000I-285000J0D01*
G01*
X33540000Y25930000D01*
G75*
G02*
X33255000Y26215000I0J285000D01*
G01*
X33255000Y26785000D01*
G75*
G02*
X33540000Y27070000I285000J0D01*
G01*
G37*
G36*
G01*
X33540000Y25070000D02*
X34460000Y25070000D01*
G75*
G02*
X34745000Y24785000I0J-285000D01*
G01*
X34745000Y24215000D01*
G75*
G02*
X34460000Y23930000I-285000J0D01*
G01*
X33540000Y23930000D01*
G75*
G02*
X33255000Y24215000I0J285000D01*
G01*
X33255000Y24785000D01*
G75*
G02*
X33540000Y25070000I285000J0D01*
G01*
G37*
%TD*%
%TO.C,C218*%
G36*
G01*
X25070000Y32210000D02*
X25070000Y31290000D01*
G75*
G02*
X24785000Y31005000I-285000J0D01*
G01*
X24215000Y31005000D01*
G75*
G02*
X23930000Y31290000I0J285000D01*
G01*
X23930000Y32210000D01*
G75*
G02*
X24215000Y32495000I285000J0D01*
G01*
X24785000Y32495000D01*
G75*
G02*
X25070000Y32210000I0J-285000D01*
G01*
G37*
G36*
G01*
X23070000Y32210000D02*
X23070000Y31290000D01*
G75*
G02*
X22785000Y31005000I-285000J0D01*
G01*
X22215000Y31005000D01*
G75*
G02*
X21930000Y31290000I0J285000D01*
G01*
X21930000Y32210000D01*
G75*
G02*
X22215000Y32495000I285000J0D01*
G01*
X22785000Y32495000D01*
G75*
G02*
X23070000Y32210000I0J-285000D01*
G01*
G37*
%TD*%
%TO.C,C217*%
G36*
G01*
X25070000Y29960000D02*
X25070000Y29040000D01*
G75*
G02*
X24785000Y28755000I-285000J0D01*
G01*
X24215000Y28755000D01*
G75*
G02*
X23930000Y29040000I0J285000D01*
G01*
X23930000Y29960000D01*
G75*
G02*
X24215000Y30245000I285000J0D01*
G01*
X24785000Y30245000D01*
G75*
G02*
X25070000Y29960000I0J-285000D01*
G01*
G37*
G36*
G01*
X23070000Y29960000D02*
X23070000Y29040000D01*
G75*
G02*
X22785000Y28755000I-285000J0D01*
G01*
X22215000Y28755000D01*
G75*
G02*
X21930000Y29040000I0J285000D01*
G01*
X21930000Y29960000D01*
G75*
G02*
X22215000Y30245000I285000J0D01*
G01*
X22785000Y30245000D01*
G75*
G02*
X23070000Y29960000I0J-285000D01*
G01*
G37*
%TD*%
%TO.C,C216*%
G36*
G01*
X25070000Y27710000D02*
X25070000Y26790000D01*
G75*
G02*
X24785000Y26505000I-285000J0D01*
G01*
X24215000Y26505000D01*
G75*
G02*
X23930000Y26790000I0J285000D01*
G01*
X23930000Y27710000D01*
G75*
G02*
X24215000Y27995000I285000J0D01*
G01*
X24785000Y27995000D01*
G75*
G02*
X25070000Y27710000I0J-285000D01*
G01*
G37*
G36*
G01*
X23070000Y27710000D02*
X23070000Y26790000D01*
G75*
G02*
X22785000Y26505000I-285000J0D01*
G01*
X22215000Y26505000D01*
G75*
G02*
X21930000Y26790000I0J285000D01*
G01*
X21930000Y27710000D01*
G75*
G02*
X22215000Y27995000I285000J0D01*
G01*
X22785000Y27995000D01*
G75*
G02*
X23070000Y27710000I0J-285000D01*
G01*
G37*
%TD*%
%TO.C,C215*%
G36*
G01*
X25070000Y25460000D02*
X25070000Y24540000D01*
G75*
G02*
X24785000Y24255000I-285000J0D01*
G01*
X24215000Y24255000D01*
G75*
G02*
X23930000Y24540000I0J285000D01*
G01*
X23930000Y25460000D01*
G75*
G02*
X24215000Y25745000I285000J0D01*
G01*
X24785000Y25745000D01*
G75*
G02*
X25070000Y25460000I0J-285000D01*
G01*
G37*
G36*
G01*
X23070000Y25460000D02*
X23070000Y24540000D01*
G75*
G02*
X22785000Y24255000I-285000J0D01*
G01*
X22215000Y24255000D01*
G75*
G02*
X21930000Y24540000I0J285000D01*
G01*
X21930000Y25460000D01*
G75*
G02*
X22215000Y25745000I285000J0D01*
G01*
X22785000Y25745000D01*
G75*
G02*
X23070000Y25460000I0J-285000D01*
G01*
G37*
%TD*%
%TO.C,C214*%
G36*
G01*
X25070000Y23210000D02*
X25070000Y22290000D01*
G75*
G02*
X24785000Y22005000I-285000J0D01*
G01*
X24215000Y22005000D01*
G75*
G02*
X23930000Y22290000I0J285000D01*
G01*
X23930000Y23210000D01*
G75*
G02*
X24215000Y23495000I285000J0D01*
G01*
X24785000Y23495000D01*
G75*
G02*
X25070000Y23210000I0J-285000D01*
G01*
G37*
G36*
G01*
X23070000Y23210000D02*
X23070000Y22290000D01*
G75*
G02*
X22785000Y22005000I-285000J0D01*
G01*
X22215000Y22005000D01*
G75*
G02*
X21930000Y22290000I0J285000D01*
G01*
X21930000Y23210000D01*
G75*
G02*
X22215000Y23495000I285000J0D01*
G01*
X22785000Y23495000D01*
G75*
G02*
X23070000Y23210000I0J-285000D01*
G01*
G37*
%TD*%
%TO.C,C213*%
G36*
G01*
X16123680Y22835000D02*
X16123680Y22165000D01*
G75*
G02*
X15938680Y21980000I-185000J0D01*
G01*
X15568680Y21980000D01*
G75*
G02*
X15383680Y22165000I0J185000D01*
G01*
X15383680Y22835000D01*
G75*
G02*
X15568680Y23020000I185000J0D01*
G01*
X15938680Y23020000D01*
G75*
G02*
X16123680Y22835000I0J-185000D01*
G01*
G37*
G36*
G01*
X14620000Y22835000D02*
X14620000Y22165000D01*
G75*
G02*
X14435000Y21980000I-185000J0D01*
G01*
X14065000Y21980000D01*
G75*
G02*
X13880000Y22165000I0J185000D01*
G01*
X13880000Y22835000D01*
G75*
G02*
X14065000Y23020000I185000J0D01*
G01*
X14435000Y23020000D01*
G75*
G02*
X14620000Y22835000I0J-185000D01*
G01*
G37*
%TD*%
%TO.C,C212*%
G36*
G01*
X16128160Y28165000D02*
X16128160Y28835000D01*
G75*
G02*
X16313160Y29020000I185000J0D01*
G01*
X16683160Y29020000D01*
G75*
G02*
X16868160Y28835000I0J-185000D01*
G01*
X16868160Y28165000D01*
G75*
G02*
X16683160Y27980000I-185000J0D01*
G01*
X16313160Y27980000D01*
G75*
G02*
X16128160Y28165000I0J185000D01*
G01*
G37*
G36*
G01*
X17631840Y28165000D02*
X17631840Y28835000D01*
G75*
G02*
X17816840Y29020000I185000J0D01*
G01*
X18186840Y29020000D01*
G75*
G02*
X18371840Y28835000I0J-185000D01*
G01*
X18371840Y28165000D01*
G75*
G02*
X18186840Y27980000I-185000J0D01*
G01*
X17816840Y27980000D01*
G75*
G02*
X17631840Y28165000I0J185000D01*
G01*
G37*
%TD*%
%TO.C,C211*%
G36*
G01*
X12878160Y28165000D02*
X12878160Y28835000D01*
G75*
G02*
X13063160Y29020000I185000J0D01*
G01*
X13433160Y29020000D01*
G75*
G02*
X13618160Y28835000I0J-185000D01*
G01*
X13618160Y28165000D01*
G75*
G02*
X13433160Y27980000I-185000J0D01*
G01*
X13063160Y27980000D01*
G75*
G02*
X12878160Y28165000I0J185000D01*
G01*
G37*
G36*
G01*
X14381840Y28165000D02*
X14381840Y28835000D01*
G75*
G02*
X14566840Y29020000I185000J0D01*
G01*
X14936840Y29020000D01*
G75*
G02*
X15121840Y28835000I0J-185000D01*
G01*
X15121840Y28165000D01*
G75*
G02*
X14936840Y27980000I-185000J0D01*
G01*
X14566840Y27980000D01*
G75*
G02*
X14381840Y28165000I0J185000D01*
G01*
G37*
%TD*%
%TO.C,C210*%
G36*
G01*
X12878160Y29915000D02*
X12878160Y30585000D01*
G75*
G02*
X13063160Y30770000I185000J0D01*
G01*
X13433160Y30770000D01*
G75*
G02*
X13618160Y30585000I0J-185000D01*
G01*
X13618160Y29915000D01*
G75*
G02*
X13433160Y29730000I-185000J0D01*
G01*
X13063160Y29730000D01*
G75*
G02*
X12878160Y29915000I0J185000D01*
G01*
G37*
G36*
G01*
X14381840Y29915000D02*
X14381840Y30585000D01*
G75*
G02*
X14566840Y30770000I185000J0D01*
G01*
X14936840Y30770000D01*
G75*
G02*
X15121840Y30585000I0J-185000D01*
G01*
X15121840Y29915000D01*
G75*
G02*
X14936840Y29730000I-185000J0D01*
G01*
X14566840Y29730000D01*
G75*
G02*
X14381840Y29915000I0J185000D01*
G01*
G37*
%TD*%
%TO.C,C209*%
G36*
G01*
X12878160Y31665000D02*
X12878160Y32335000D01*
G75*
G02*
X13063160Y32520000I185000J0D01*
G01*
X13433160Y32520000D01*
G75*
G02*
X13618160Y32335000I0J-185000D01*
G01*
X13618160Y31665000D01*
G75*
G02*
X13433160Y31480000I-185000J0D01*
G01*
X13063160Y31480000D01*
G75*
G02*
X12878160Y31665000I0J185000D01*
G01*
G37*
G36*
G01*
X14381840Y31665000D02*
X14381840Y32335000D01*
G75*
G02*
X14566840Y32520000I185000J0D01*
G01*
X14936840Y32520000D01*
G75*
G02*
X15121840Y32335000I0J-185000D01*
G01*
X15121840Y31665000D01*
G75*
G02*
X14936840Y31480000I-185000J0D01*
G01*
X14566840Y31480000D01*
G75*
G02*
X14381840Y31665000I0J185000D01*
G01*
G37*
%TD*%
%TO.C,C208*%
G36*
G01*
X9665000Y26621840D02*
X10335000Y26621840D01*
G75*
G02*
X10520000Y26436840I0J-185000D01*
G01*
X10520000Y26066840D01*
G75*
G02*
X10335000Y25881840I-185000J0D01*
G01*
X9665000Y25881840D01*
G75*
G02*
X9480000Y26066840I0J185000D01*
G01*
X9480000Y26436840D01*
G75*
G02*
X9665000Y26621840I185000J0D01*
G01*
G37*
G36*
G01*
X9665000Y25118160D02*
X10335000Y25118160D01*
G75*
G02*
X10520000Y24933160I0J-185000D01*
G01*
X10520000Y24563160D01*
G75*
G02*
X10335000Y24378160I-185000J0D01*
G01*
X9665000Y24378160D01*
G75*
G02*
X9480000Y24563160I0J185000D01*
G01*
X9480000Y24933160D01*
G75*
G02*
X9665000Y25118160I185000J0D01*
G01*
G37*
%TD*%
%TO.C,C207*%
G36*
G01*
X5290000Y27070000D02*
X6210000Y27070000D01*
G75*
G02*
X6495000Y26785000I0J-285000D01*
G01*
X6495000Y26215000D01*
G75*
G02*
X6210000Y25930000I-285000J0D01*
G01*
X5290000Y25930000D01*
G75*
G02*
X5005000Y26215000I0J285000D01*
G01*
X5005000Y26785000D01*
G75*
G02*
X5290000Y27070000I285000J0D01*
G01*
G37*
G36*
G01*
X5290000Y25070000D02*
X6210000Y25070000D01*
G75*
G02*
X6495000Y24785000I0J-285000D01*
G01*
X6495000Y24215000D01*
G75*
G02*
X6210000Y23930000I-285000J0D01*
G01*
X5290000Y23930000D01*
G75*
G02*
X5005000Y24215000I0J285000D01*
G01*
X5005000Y24785000D01*
G75*
G02*
X5290000Y25070000I285000J0D01*
G01*
G37*
%TD*%
%TO.C,C206*%
G36*
G01*
X12430000Y33540000D02*
X12430000Y34460000D01*
G75*
G02*
X12715000Y34745000I285000J0D01*
G01*
X13285000Y34745000D01*
G75*
G02*
X13570000Y34460000I0J-285000D01*
G01*
X13570000Y33540000D01*
G75*
G02*
X13285000Y33255000I-285000J0D01*
G01*
X12715000Y33255000D01*
G75*
G02*
X12430000Y33540000I0J285000D01*
G01*
G37*
G36*
G01*
X14430000Y33540000D02*
X14430000Y34460000D01*
G75*
G02*
X14715000Y34745000I285000J0D01*
G01*
X15285000Y34745000D01*
G75*
G02*
X15570000Y34460000I0J-285000D01*
G01*
X15570000Y33540000D01*
G75*
G02*
X15285000Y33255000I-285000J0D01*
G01*
X14715000Y33255000D01*
G75*
G02*
X14430000Y33540000I0J285000D01*
G01*
G37*
%TD*%
%TO.C,C205*%
G36*
G01*
X5570000Y33710000D02*
X5570000Y32790000D01*
G75*
G02*
X5285000Y32505000I-285000J0D01*
G01*
X4715000Y32505000D01*
G75*
G02*
X4430000Y32790000I0J285000D01*
G01*
X4430000Y33710000D01*
G75*
G02*
X4715000Y33995000I285000J0D01*
G01*
X5285000Y33995000D01*
G75*
G02*
X5570000Y33710000I0J-285000D01*
G01*
G37*
G36*
G01*
X3570000Y33710000D02*
X3570000Y32790000D01*
G75*
G02*
X3285000Y32505000I-285000J0D01*
G01*
X2715000Y32505000D01*
G75*
G02*
X2430000Y32790000I0J285000D01*
G01*
X2430000Y33710000D01*
G75*
G02*
X2715000Y33995000I285000J0D01*
G01*
X3285000Y33995000D01*
G75*
G02*
X3570000Y33710000I0J-285000D01*
G01*
G37*
%TD*%
%TO.C,C204*%
G36*
G01*
X5570000Y31460000D02*
X5570000Y30540000D01*
G75*
G02*
X5285000Y30255000I-285000J0D01*
G01*
X4715000Y30255000D01*
G75*
G02*
X4430000Y30540000I0J285000D01*
G01*
X4430000Y31460000D01*
G75*
G02*
X4715000Y31745000I285000J0D01*
G01*
X5285000Y31745000D01*
G75*
G02*
X5570000Y31460000I0J-285000D01*
G01*
G37*
G36*
G01*
X3570000Y31460000D02*
X3570000Y30540000D01*
G75*
G02*
X3285000Y30255000I-285000J0D01*
G01*
X2715000Y30255000D01*
G75*
G02*
X2430000Y30540000I0J285000D01*
G01*
X2430000Y31460000D01*
G75*
G02*
X2715000Y31745000I285000J0D01*
G01*
X3285000Y31745000D01*
G75*
G02*
X3570000Y31460000I0J-285000D01*
G01*
G37*
%TD*%
%TO.C,C203*%
G36*
G01*
X12430000Y35790000D02*
X12430000Y36710000D01*
G75*
G02*
X12715000Y36995000I285000J0D01*
G01*
X13285000Y36995000D01*
G75*
G02*
X13570000Y36710000I0J-285000D01*
G01*
X13570000Y35790000D01*
G75*
G02*
X13285000Y35505000I-285000J0D01*
G01*
X12715000Y35505000D01*
G75*
G02*
X12430000Y35790000I0J285000D01*
G01*
G37*
G36*
G01*
X14430000Y35790000D02*
X14430000Y36710000D01*
G75*
G02*
X14715000Y36995000I285000J0D01*
G01*
X15285000Y36995000D01*
G75*
G02*
X15570000Y36710000I0J-285000D01*
G01*
X15570000Y35790000D01*
G75*
G02*
X15285000Y35505000I-285000J0D01*
G01*
X14715000Y35505000D01*
G75*
G02*
X14430000Y35790000I0J285000D01*
G01*
G37*
%TD*%
%TO.C,C202*%
G36*
G01*
X5570000Y29210000D02*
X5570000Y28290000D01*
G75*
G02*
X5285000Y28005000I-285000J0D01*
G01*
X4715000Y28005000D01*
G75*
G02*
X4430000Y28290000I0J285000D01*
G01*
X4430000Y29210000D01*
G75*
G02*
X4715000Y29495000I285000J0D01*
G01*
X5285000Y29495000D01*
G75*
G02*
X5570000Y29210000I0J-285000D01*
G01*
G37*
G36*
G01*
X3570000Y29210000D02*
X3570000Y28290000D01*
G75*
G02*
X3285000Y28005000I-285000J0D01*
G01*
X2715000Y28005000D01*
G75*
G02*
X2430000Y28290000I0J285000D01*
G01*
X2430000Y29210000D01*
G75*
G02*
X2715000Y29495000I285000J0D01*
G01*
X3285000Y29495000D01*
G75*
G02*
X3570000Y29210000I0J-285000D01*
G01*
G37*
%TD*%
%TO.C,C201*%
G36*
G01*
X7540000Y27070000D02*
X8460000Y27070000D01*
G75*
G02*
X8745000Y26785000I0J-285000D01*
G01*
X8745000Y26215000D01*
G75*
G02*
X8460000Y25930000I-285000J0D01*
G01*
X7540000Y25930000D01*
G75*
G02*
X7255000Y26215000I0J285000D01*
G01*
X7255000Y26785000D01*
G75*
G02*
X7540000Y27070000I285000J0D01*
G01*
G37*
G36*
G01*
X7540000Y25070000D02*
X8460000Y25070000D01*
G75*
G02*
X8745000Y24785000I0J-285000D01*
G01*
X8745000Y24215000D01*
G75*
G02*
X8460000Y23930000I-285000J0D01*
G01*
X7540000Y23930000D01*
G75*
G02*
X7255000Y24215000I0J285000D01*
G01*
X7255000Y24785000D01*
G75*
G02*
X7540000Y25070000I285000J0D01*
G01*
G37*
%TD*%
%TO.C,C101*%
G36*
G01*
X41371840Y4085000D02*
X41371840Y3415000D01*
G75*
G02*
X41186840Y3230000I-185000J0D01*
G01*
X40816840Y3230000D01*
G75*
G02*
X40631840Y3415000I0J185000D01*
G01*
X40631840Y4085000D01*
G75*
G02*
X40816840Y4270000I185000J0D01*
G01*
X41186840Y4270000D01*
G75*
G02*
X41371840Y4085000I0J-185000D01*
G01*
G37*
G36*
G01*
X39868160Y4085000D02*
X39868160Y3415000D01*
G75*
G02*
X39683160Y3230000I-185000J0D01*
G01*
X39313160Y3230000D01*
G75*
G02*
X39128160Y3415000I0J185000D01*
G01*
X39128160Y4085000D01*
G75*
G02*
X39313160Y4270000I185000J0D01*
G01*
X39683160Y4270000D01*
G75*
G02*
X39868160Y4085000I0J-185000D01*
G01*
G37*
%TD*%
M02*
